<?xml version="1.0" encoding="utf-8"?>
<svg xmlns="http://www.w3.org/2000/svg" xmlns:xlink="http://www.w3.org/1999/xlink" width="600" height="400" viewBox="0 0 2400 1600">
<defs>
  <clipPath id="clip940">
    <rect x="0" y="0" width="2400" height="1600"/>
  </clipPath>
</defs>
<path clip-path="url(#clip940)" d="M0 1600 L2400 1600 L2400 0 L0 0  Z" fill="#ffffff" fill-rule="evenodd" fill-opacity="1"/>
<defs>
  <clipPath id="clip941">
    <rect x="480" y="0" width="1681" height="1600"/>
  </clipPath>
</defs>
<path clip-path="url(#clip940)" d="M152.416 1486.45 L2311.22 1486.45 L2311.22 47.2441 L152.416 47.2441  Z" fill="#ffffff" fill-rule="evenodd" fill-opacity="1"/>
<defs>
  <clipPath id="clip942">
    <rect x="152" y="47" width="2160" height="1440"/>
  </clipPath>
</defs>
<polyline clip-path="url(#clip942)" style="stroke:#808080; stroke-linecap:round; stroke-linejoin:round; stroke-width:4; stroke-opacity:1; fill:none" points="721.065,1037.91 717.653,1034.3 714.025,1031.13 710.229,1028.41 706.315,1026.13 702.331,1024.31 698.324,1022.94 694.342,1022.01 690.428,1021.5 686.625,1021.4 682.972,1021.68 679.506,1022.33 676.259,1023.3 673.26,1024.56 670.533,1026.09 668.098,1027.85 665.972,1029.79 664.166,1031.88 662.685,1034.07 661.534,1036.34 661.163,1037.17 661.706,1034.73 661.953,1032.13 661.882,1029.41 661.473,1026.61 660.71,1023.75 659.581,1020.89 658.079,1018.05 656.201,1015.29 653.949,1012.64 651.329,1010.16 648.353,1007.87 645.036,1005.83 641.4,1004.08 637.471,1002.64 633.279,1001.57 628.858,1000.89 624.246,1000.63 619.485,1000.83 614.619,1001.49 609.697,1002.64 604.767,1004.28 599.881,1006.43 595.091,1009.09 590.449,1012.26 586.008,1015.91 581.819,1020.04 577.933,1024.63 574.397,1029.65 571.258,1035.06 568.558,1040.84 566.336,1046.94 564.626,1053.32 563.459,1059.93 562.861,1066.71 562.85,1073.61 563.441,1080.58 564.643,1087.55 566.459,1094.47 568.883,1101.28 571.908,1107.92 575.517,1114.33 579.688,1120.45 584.395,1126.24 589.604,1131.64 595.278,1136.59 601.375,1141.07 607.846,1145.03 614.642,1148.43 621.709,1151.24 628.989,1153.45 636.425,1155.04 643.957,1155.99 651.522,1156.3 659.061,1155.97 666.512,1155.01 673.817,1153.42 680.917,1151.24 687.757,1148.48 694.286,1145.17 700.454,1141.35 706.216,1137.06 711.533,1132.35 716.369,1127.25 720.694,1121.83 724.483,1116.13 727.718,1110.21 730.385,1104.13 732.477,1097.94 733.992,1091.7 734.936,1085.47 735.319,1079.3 735.155,1073.24 734.467,1067.35 733.28,1061.67 731.625,1056.25 729.536,1051.13 727.052,1046.35 724.213,1041.93 721.065,1037.91 "/>
<line clip-path="url(#clip942)" x1="720.141" y1="947.656" x2="704.141" y2="931.656" style="stroke:#808080; stroke-width:3.2; stroke-opacity:1"/>
<line clip-path="url(#clip942)" x1="720.141" y1="947.656" x2="704.141" y2="963.656" style="stroke:#808080; stroke-width:3.2; stroke-opacity:1"/>
<line clip-path="url(#clip942)" x1="720.141" y1="947.656" x2="736.141" y2="963.656" style="stroke:#808080; stroke-width:3.2; stroke-opacity:1"/>
<line clip-path="url(#clip942)" x1="720.141" y1="947.656" x2="736.141" y2="931.656" style="stroke:#808080; stroke-width:3.2; stroke-opacity:1"/>
<polyline clip-path="url(#clip942)" style="stroke:#808080; stroke-linecap:round; stroke-linejoin:round; stroke-width:4; stroke-opacity:1; fill:none" points="720.141,947.656 707.507,985.585 "/>
<polyline clip-path="url(#clip942)" style="stroke:#808080; stroke-linecap:round; stroke-linejoin:round; stroke-width:4; stroke-opacity:1; fill:none" points="735.962,957.119 707.507,985.585 701.806,945.742 "/>
<polyline clip-path="url(#clip942)" style="stroke:#808080; stroke-linecap:round; stroke-linejoin:round; stroke-width:4; stroke-opacity:1; fill:none" points="707.507,985.585 720.141,947.656 "/>
<polyline clip-path="url(#clip942)" style="stroke:#808080; stroke-linecap:round; stroke-linejoin:round; stroke-width:4; stroke-opacity:1; fill:none" points="1419.12,359.46 1421.53,353.417 1423.43,347.083 1424.79,340.505 1425.59,333.735 1425.8,326.827 1425.42,319.837 1424.42,312.823 1422.81,305.843 1420.59,298.959 1417.76,292.228 1414.34,285.709 1410.35,279.459 1405.81,273.533 1400.76,267.983 1395.23,262.857 1389.27,258.2 1382.92,254.053 1376.23,250.451 1369.25,247.425 1362.03,244.999 1354.65,243.193 1347.15,242.019 1339.6,241.486 1332.06,241.593 1324.59,242.335 1317.24,243.701 1310.08,245.673 1303.17,248.228 1296.55,251.338 1290.28,254.967 1284.4,259.079 1278.95,263.63 1273.97,268.573 1269.49,273.859 1265.54,279.436 1262.14,285.248 1259.3,291.241 1257.03,297.356 1255.33,303.538 1254.21,309.73 1253.65,315.876 1253.63,321.923 1254.15,327.82 1255.17,333.517 1256.66,338.969 1258.59,344.135 1260.93,348.977 1263.64,353.462 1266.66,357.562 1269.96,361.253 1273.48,364.517 1277.19,367.342 1281.02,369.719 1284.94,371.646 1288.89,373.127 1292.84,374.168 1296.72,374.784 1300.5,374.99 1304.15,374.808 1307.62,374.263 1310.88,373.384 1313.9,372.203 1316.66,370.754 1319.13,369.072 1321.3,367.196 1323.15,365.164 1324.68,363.015 1325.89,360.789 1326.11,360.411 1325.51,362.849 1325.19,365.449 1325.19,368.18 1325.53,371.006 1326.22,373.893 1327.27,376.799 1328.7,379.685 1330.51,382.508 1332.69,385.226 1335.25,387.794 1338.18,390.169 1341.45,392.309 1345.04,394.173 1348.94,395.721 1353.12,396.916 1357.53,397.724 1362.15,398.114 1366.93,398.059 1371.82,397.536 1376.79,396.528 1381.78,395.02 1386.74,393.005 1391.61,390.48 1396.36,387.448 1400.91,383.917 1405.23,379.902 1409.26,375.42 1412.94,370.499 1416.25,365.167 1419.12,359.46 "/>
<line clip-path="url(#clip942)" x1="1385.65" y1="269.206" x2="1369.65" y2="253.206" style="stroke:#808080; stroke-width:3.2; stroke-opacity:1"/>
<line clip-path="url(#clip942)" x1="1385.65" y1="269.206" x2="1369.65" y2="285.206" style="stroke:#808080; stroke-width:3.2; stroke-opacity:1"/>
<line clip-path="url(#clip942)" x1="1385.65" y1="269.206" x2="1401.65" y2="285.206" style="stroke:#808080; stroke-width:3.2; stroke-opacity:1"/>
<line clip-path="url(#clip942)" x1="1385.65" y1="269.206" x2="1401.65" y2="253.206" style="stroke:#808080; stroke-width:3.2; stroke-opacity:1"/>
<polyline clip-path="url(#clip942)" style="stroke:#808080; stroke-linecap:round; stroke-linejoin:round; stroke-width:4; stroke-opacity:1; fill:none" points="1385.65,269.206 1399.71,231.782 "/>
<polyline clip-path="url(#clip942)" style="stroke:#808080; stroke-linecap:round; stroke-linejoin:round; stroke-width:4; stroke-opacity:1; fill:none" points="1370.2,259.153 1399.71,231.782 1403.9,271.813 "/>
<polyline clip-path="url(#clip942)" style="stroke:#808080; stroke-linecap:round; stroke-linejoin:round; stroke-width:4; stroke-opacity:1; fill:none" points="1399.71,231.782 1385.65,269.206 "/>
<polyline clip-path="url(#clip942)" style="stroke:#808080; stroke-linecap:round; stroke-linejoin:round; stroke-width:4; stroke-opacity:1; fill:none" points="1547.42,520.662 1544.01,517.652 1540.44,515.074 1536.75,512.933 1533.01,511.229 1529.24,509.957 1525.51,509.107 1521.85,508.666 1518.3,508.615 1514.9,508.931 1511.69,509.587 1508.69,510.555 1505.94,511.801 1503.46,513.293 1501.25,514.993 1499.35,516.865 1497.76,518.869 1496.81,520.354 1497.83,518.084 1498.58,515.606 1499.05,512.947 1499.2,510.136 1499.02,507.207 1498.49,504.196 1497.58,501.142 1496.29,498.085 1494.61,495.068 1492.55,492.135 1490.09,489.329 1487.26,486.695 1484.06,484.277 1480.5,482.118 1476.62,480.258 1472.44,478.738 1467.99,477.594 1463.31,476.858 1458.44,476.562 1453.41,476.731 1448.28,477.386 1443.09,478.544 1437.9,480.216 1432.75,482.408 1427.71,485.121 1422.82,488.35 1418.13,492.085 1413.71,496.309 1409.59,501 1405.84,506.132 1402.49,511.671 1399.59,517.581 1397.17,523.82 1395.28,530.342 1393.94,537.097 1393.18,544.032 1393.01,551.093 1393.45,558.222 1394.52,565.359 1396.2,572.446 1398.5,579.422 1401.41,586.228 1404.91,592.806 1408.98,599.099 1413.59,605.054 1418.7,610.618 1424.29,615.746 1430.3,620.392 1436.69,624.519 1443.4,628.092 1450.4,631.083 1457.61,633.469 1464.97,635.232 1472.44,636.361 1479.94,636.853 1487.42,636.707 1494.82,635.932 1502.07,634.541 1509.13,632.553 1515.93,629.993 1522.42,626.893 1528.56,623.286 1534.3,619.212 1539.6,614.717 1544.43,609.846 1548.76,604.65 1552.56,599.183 1555.82,593.497 1558.52,587.651 1560.66,581.698 1562.24,575.697 1563.25,569.701 1563.72,563.766 1563.65,557.943 1563.08,552.283 1562.02,546.832 1560.5,541.634 1558.57,536.728 1556.25,532.149 1553.59,527.929 1550.63,524.093 1547.42,520.662 "/>
<line clip-path="url(#clip942)" x1="1555.86" y1="430.409" x2="1539.86" y2="414.409" style="stroke:#808080; stroke-width:3.2; stroke-opacity:1"/>
<line clip-path="url(#clip942)" x1="1555.86" y1="430.409" x2="1539.86" y2="446.409" style="stroke:#808080; stroke-width:3.2; stroke-opacity:1"/>
<line clip-path="url(#clip942)" x1="1555.86" y1="430.409" x2="1571.86" y2="446.409" style="stroke:#808080; stroke-width:3.2; stroke-opacity:1"/>
<line clip-path="url(#clip942)" x1="1555.86" y1="430.409" x2="1571.86" y2="414.409" style="stroke:#808080; stroke-width:3.2; stroke-opacity:1"/>
<polyline clip-path="url(#clip942)" style="stroke:#808080; stroke-linecap:round; stroke-linejoin:round; stroke-width:4; stroke-opacity:1; fill:none" points="1555.86,430.409 1536.65,465.474 "/>
<polyline clip-path="url(#clip942)" style="stroke:#808080; stroke-linecap:round; stroke-linejoin:round; stroke-width:4; stroke-opacity:1; fill:none" points="1569.73,442.543 1536.65,465.474 1538.16,425.253 "/>
<polyline clip-path="url(#clip942)" style="stroke:#808080; stroke-linecap:round; stroke-linejoin:round; stroke-width:4; stroke-opacity:1; fill:none" points="1536.65,465.474 1555.86,430.409 "/>
<polyline clip-path="url(#clip942)" style="stroke:#808080; stroke-linecap:round; stroke-linejoin:round; stroke-width:4; stroke-opacity:1; fill:none" points="786.404,771.841 789.244,770.878 792.071,769.546 794.843,767.841 797.518,765.762 800.052,763.314 802.402,760.505 804.527,757.352 806.384,753.871 807.935,750.088 809.142,746.031 809.971,741.731 810.391,737.225 810.375,732.554 809.898,727.761 808.943,722.892 807.496,717.996 805.547,713.123 803.093,708.325 800.137,703.654 796.685,699.163 792.752,694.903 788.354,690.924 783.518,687.277 778.271,684.008 772.648,681.16 766.688,678.774 760.434,676.886 753.934,675.529 747.238,674.729 740.399,674.508 733.474,674.884 726.52,675.866 719.595,677.46 712.76,679.664 706.073,682.472 699.592,685.87 693.375,689.839 687.476,694.353 681.947,699.382 676.839,704.891 672.195,710.839 668.057,717.179 664.461,723.864 661.438,730.841 659.013,738.053 657.207,745.443 656.034,752.952 655.501,760.518 655.609,768.081 656.354,775.579 657.726,782.953 659.707,790.144 662.274,797.095 665.401,803.754 669.053,810.071 673.192,815.998 677.776,821.493 682.759,826.519 688.091,831.045 693.72,835.042 699.591,838.49 705.649,841.374 711.836,843.682 718.095,845.413 724.37,846.568 730.604,847.155 736.744,847.187 742.737,846.684 748.534,845.67 754.089,844.173 759.359,842.227 764.306,839.868 768.895,837.138 773.099,834.078 776.892,830.734 780.255,827.155 783.175,823.387 785.644,819.481 787.657,815.485 789.217,811.447 790.332,807.414 791.013,803.433 791.276,799.546 791.143,795.794 790.639,792.216 789.791,788.844 788.631,785.71 787.194,782.84 785.515,780.256 783.632,777.976 781.585,776.013 779.412,774.376 777.152,773.069 774.847,772.091 775.684,772.256 778.196,772.633 780.842,772.704 783.59,772.445 786.404,771.841 "/>
<line clip-path="url(#clip942)" x1="833.293" y1="681.588" x2="817.293" y2="665.588" style="stroke:#808080; stroke-width:3.2; stroke-opacity:1"/>
<line clip-path="url(#clip942)" x1="833.293" y1="681.588" x2="817.293" y2="697.588" style="stroke:#808080; stroke-width:3.2; stroke-opacity:1"/>
<line clip-path="url(#clip942)" x1="833.293" y1="681.588" x2="849.293" y2="697.588" style="stroke:#808080; stroke-width:3.2; stroke-opacity:1"/>
<line clip-path="url(#clip942)" x1="833.293" y1="681.588" x2="849.293" y2="665.588" style="stroke:#808080; stroke-width:3.2; stroke-opacity:1"/>
<polyline clip-path="url(#clip942)" style="stroke:#808080; stroke-linecap:round; stroke-linejoin:round; stroke-width:4; stroke-opacity:1; fill:none" points="833.293,681.588 795.06,669.907 "/>
<polyline clip-path="url(#clip942)" style="stroke:#808080; stroke-linecap:round; stroke-linejoin:round; stroke-width:4; stroke-opacity:1; fill:none" points="824.23,697.64 795.06,669.907 834.748,663.211 "/>
<polyline clip-path="url(#clip942)" style="stroke:#808080; stroke-linecap:round; stroke-linejoin:round; stroke-width:4; stroke-opacity:1; fill:none" points="795.06,669.907 833.293,681.588 "/>
<polyline clip-path="url(#clip942)" style="stroke:#808080; stroke-linecap:round; stroke-linejoin:round; stroke-width:4; stroke-opacity:1; fill:none" points="953.555,1455.15 950.584,1454.19 947.648,1453.6 944.785,1453.36 942.031,1453.46 939.419,1453.87 936.981,1454.57 936.337,1454.77 938.501,1453.5 940.576,1451.91 942.523,1450 944.304,1447.79 945.881,1445.28 947.216,1442.5 948.275,1439.46 949.024,1436.2 949.434,1432.74 949.475,1429.13 949.126,1425.38 948.367,1421.56 947.18,1417.69 945.557,1413.83 943.491,1410.02 940.98,1406.31 938.029,1402.74 934.648,1399.38 930.851,1396.25 926.658,1393.42 922.094,1390.92 917.188,1388.79 911.976,1387.08 906.496,1385.82 900.791,1385.05 894.907,1384.78 888.894,1385.05 882.804,1385.86 876.691,1387.24 870.611,1389.19 864.619,1391.7 858.774,1394.78 853.13,1398.42 847.743,1402.59 842.667,1407.27 837.952,1412.44 833.649,1418.07 829.801,1424.1 826.449,1430.51 823.63,1437.24 821.377,1444.25 819.715,1451.47 818.666,1458.86 818.245,1466.35 818.461,1473.88 819.317,1481.4 820.81,1488.83 822.93,1496.13 825.662,1503.23 828.985,1510.08 832.872,1516.61 837.29,1522.78 842.201,1528.54 847.564,1533.85 853.332,1538.66 859.455,1542.95 865.879,1546.67 872.549,1549.82 879.408,1552.36 886.396,1554.29 893.454,1555.61 900.522,1556.31 907.542,1556.39 914.455,1555.88 921.206,1554.8 927.742,1553.15 934.013,1550.98 939.971,1548.31 945.574,1545.18 950.785,1541.64 955.569,1537.74 959.898,1533.5 963.749,1529 967.104,1524.28 969.952,1519.39 972.286,1514.38 974.105,1509.31 975.415,1504.24 976.224,1499.2 976.549,1494.26 976.41,1489.45 975.83,1484.82 974.839,1480.41 973.469,1476.25 971.755,1472.39 969.735,1468.84 967.451,1465.63 964.943,1462.78 962.256,1460.3 959.433,1458.2 956.518,1456.48 953.555,1455.15 "/>
<line clip-path="url(#clip942)" x1="994.74" y1="1364.89" x2="978.74" y2="1348.89" style="stroke:#808080; stroke-width:3.2; stroke-opacity:1"/>
<line clip-path="url(#clip942)" x1="994.74" y1="1364.89" x2="978.74" y2="1380.89" style="stroke:#808080; stroke-width:3.2; stroke-opacity:1"/>
<line clip-path="url(#clip942)" x1="994.74" y1="1364.89" x2="1010.74" y2="1380.89" style="stroke:#808080; stroke-width:3.2; stroke-opacity:1"/>
<line clip-path="url(#clip942)" x1="994.74" y1="1364.89" x2="1010.74" y2="1348.89" style="stroke:#808080; stroke-width:3.2; stroke-opacity:1"/>
<polyline clip-path="url(#clip942)" style="stroke:#808080; stroke-linecap:round; stroke-linejoin:round; stroke-width:4; stroke-opacity:1; fill:none" points="994.74,1364.89 958.255,1381.24 "/>
<polyline clip-path="url(#clip942)" style="stroke:#808080; stroke-linecap:round; stroke-linejoin:round; stroke-width:4; stroke-opacity:1; fill:none" points="998.468,1382.95 958.255,1381.24 983.752,1350.09 "/>
<polyline clip-path="url(#clip942)" style="stroke:#808080; stroke-linecap:round; stroke-linejoin:round; stroke-width:4; stroke-opacity:1; fill:none" points="958.255,1381.24 994.74,1364.89 "/>
<polyline clip-path="url(#clip942)" style="stroke:#808080; stroke-linecap:round; stroke-linejoin:round; stroke-width:4; stroke-opacity:1; fill:none" points="1431.47,1222.01 1431.35,1214.4 1430.58,1206.83 1429.18,1199.36 1427.15,1192.04 1424.52,1184.94 1421.31,1178.11 1417.55,1171.61 1413.27,1165.48 1408.52,1159.76 1403.33,1154.51 1397.76,1149.76 1391.86,1145.54 1385.68,1141.87 1379.28,1138.78 1372.71,1136.28 1366.03,1134.38 1359.31,1133.07 1352.6,1132.37 1345.95,1132.25 1339.43,1132.71 1333.08,1133.71 1326.96,1135.24 1321.11,1137.27 1315.58,1139.76 1310.4,1142.66 1305.61,1145.95 1301.24,1149.57 1297.32,1153.47 1293.86,1157.61 1290.87,1161.94 1288.37,1166.4 1286.35,1170.94 1284.82,1175.52 1283.76,1180.08 1283.17,1184.57 1283.02,1188.96 1283.29,1193.19 1283.96,1197.23 1285,1201.05 1286.37,1204.6 1288.04,1207.87 1289.97,1210.83 1292.12,1213.46 1294.45,1215.75 1296.91,1217.68 1299.47,1219.26 1302.09,1220.48 1304.72,1221.35 1307.32,1221.87 1309.86,1222.07 1311.01,1222.07 1308.55,1222.51 1306.07,1223.27 1303.59,1224.38 1301.16,1225.83 1298.82,1227.63 1296.61,1229.77 1294.58,1232.24 1292.75,1235.03 1291.18,1238.12 1289.89,1241.49 1288.93,1245.11 1288.32,1248.95 1288.1,1252.97 1288.29,1257.14 1288.91,1261.41 1289.98,1265.75 1291.52,1270.1 1293.52,1274.41 1296,1278.64 1298.95,1282.74 1302.37,1286.65 1306.23,1290.32 1310.52,1293.72 1315.22,1296.78 1320.3,1299.47 1325.72,1301.74 1331.44,1303.56 1337.43,1304.89 1343.63,1305.7 1350,1305.96 1356.48,1305.66 1363.02,1304.78 1369.56,1303.32 1376.04,1301.26 1382.41,1298.61 1388.61,1295.38 1394.58,1291.59 1400.26,1287.25 1405.61,1282.39 1410.57,1277.04 1415.09,1271.24 1419.13,1265.04 1422.66,1258.47 1425.63,1251.58 1428.01,1244.44 1429.8,1237.09 1430.95,1229.59 1431.47,1222.01 "/>
<line clip-path="url(#clip942)" x1="1370.87" y1="1131.76" x2="1354.87" y2="1115.76" style="stroke:#808080; stroke-width:3.2; stroke-opacity:1"/>
<line clip-path="url(#clip942)" x1="1370.87" y1="1131.76" x2="1354.87" y2="1147.76" style="stroke:#808080; stroke-width:3.2; stroke-opacity:1"/>
<line clip-path="url(#clip942)" x1="1370.87" y1="1131.76" x2="1386.87" y2="1147.76" style="stroke:#808080; stroke-width:3.2; stroke-opacity:1"/>
<line clip-path="url(#clip942)" x1="1370.87" y1="1131.76" x2="1386.87" y2="1115.76" style="stroke:#808080; stroke-width:3.2; stroke-opacity:1"/>
<polyline clip-path="url(#clip942)" style="stroke:#808080; stroke-linecap:round; stroke-linejoin:round; stroke-width:4; stroke-opacity:1; fill:none" points="1370.87,1131.76 1410.72,1128.63 "/>
<polyline clip-path="url(#clip942)" style="stroke:#808080; stroke-linecap:round; stroke-linejoin:round; stroke-width:4; stroke-opacity:1; fill:none" points="1373.42,1113.5 1410.72,1128.63 1376.24,1149.39 "/>
<polyline clip-path="url(#clip942)" style="stroke:#808080; stroke-linecap:round; stroke-linejoin:round; stroke-width:4; stroke-opacity:1; fill:none" points="1410.72,1128.63 1370.87,1131.76 "/>
<polyline clip-path="url(#clip942)" style="stroke:#808080; stroke-linecap:round; stroke-linejoin:round; stroke-width:4; stroke-opacity:1; fill:none" points="959.124,1319.08 956.32,1318.5 953.584,1318.26 950.95,1318.35 948.452,1318.74 948.152,1318.75 950.461,1317.75 952.722,1316.42 954.895,1314.76 956.941,1312.78 958.819,1310.48 960.491,1307.87 961.92,1304.98 963.068,1301.83 963.903,1298.44 964.393,1294.84 964.509,1291.07 964.227,1287.17 963.527,1283.17 962.391,1279.13 960.809,1275.08 958.773,1271.08 956.281,1267.17 953.337,1263.4 949.95,1259.82 946.134,1256.48 941.907,1253.42 937.295,1250.7 932.326,1248.35 927.036,1246.41 921.462,1244.93 915.648,1243.93 909.639,1243.44 903.485,1243.49 897.239,1244.1 890.954,1245.27 884.688,1247.03 878.496,1249.36 872.435,1252.26 866.564,1255.73 860.936,1259.75 855.609,1264.29 850.632,1269.34 846.056,1274.85 841.927,1280.79 838.287,1287.13 835.175,1293.8 832.622,1300.76 830.657,1307.96 829.303,1315.34 828.575,1322.85 828.485,1330.41 829.037,1337.98 830.228,1345.49 832.052,1352.87 834.493,1360.08 837.533,1367.05 841.144,1373.72 845.296,1380.05 849.952,1385.98 855.071,1391.48 860.608,1396.49 866.513,1400.99 872.735,1404.94 879.218,1408.32 885.905,1411.1 892.738,1413.29 899.658,1414.86 906.605,1415.83 913.521,1416.18 920.348,1415.95 927.03,1415.13 933.515,1413.76 939.752,1411.86 945.693,1409.46 951.296,1406.6 956.522,1403.32 961.337,1399.67 965.711,1395.69 969.622,1391.43 973.051,1386.94 975.984,1382.27 978.415,1377.48 980.342,1372.62 981.768,1367.73 982.703,1362.87 983.161,1358.1 983.16,1353.44 982.725,1348.95 981.882,1344.67 980.663,1340.64 979.102,1336.88 977.238,1333.42 975.108,1330.29 972.755,1327.5 970.22,1325.08 967.547,1323.02 964.778,1321.34 961.957,1320.03 959.124,1319.08 "/>
<line clip-path="url(#clip942)" x1="1006.33" y1="1228.83" x2="990.334" y2="1212.83" style="stroke:#808080; stroke-width:3.2; stroke-opacity:1"/>
<line clip-path="url(#clip942)" x1="1006.33" y1="1228.83" x2="990.334" y2="1244.83" style="stroke:#808080; stroke-width:3.2; stroke-opacity:1"/>
<line clip-path="url(#clip942)" x1="1006.33" y1="1228.83" x2="1022.33" y2="1244.83" style="stroke:#808080; stroke-width:3.2; stroke-opacity:1"/>
<line clip-path="url(#clip942)" x1="1006.33" y1="1228.83" x2="1022.33" y2="1212.83" style="stroke:#808080; stroke-width:3.2; stroke-opacity:1"/>
<polyline clip-path="url(#clip942)" style="stroke:#808080; stroke-linecap:round; stroke-linejoin:round; stroke-width:4; stroke-opacity:1; fill:none" points="1006.33,1228.83 968.018,1240.24 "/>
<polyline clip-path="url(#clip942)" style="stroke:#808080; stroke-linecap:round; stroke-linejoin:round; stroke-width:4; stroke-opacity:1; fill:none" points="1007.66,1247.22 968.018,1240.24 997.386,1212.71 "/>
<polyline clip-path="url(#clip942)" style="stroke:#808080; stroke-linecap:round; stroke-linejoin:round; stroke-width:4; stroke-opacity:1; fill:none" points="968.018,1240.24 1006.33,1228.83 "/>
<polyline clip-path="url(#clip942)" style="stroke:#808080; stroke-linecap:round; stroke-linejoin:round; stroke-width:4; stroke-opacity:1; fill:none" points="1422.28,1131.9 1419.78,1125.59 1416.79,1119.6 1413.34,1113.99 1409.48,1108.79 1405.25,1104.03 1400.71,1099.75 1395.91,1095.96 1390.89,1092.68 1385.71,1089.92 1380.43,1087.7 1375.1,1086 1369.77,1084.82 1364.49,1084.16 1359.32,1083.99 1354.29,1084.29 1349.46,1085.05 1344.86,1086.22 1340.54,1087.78 1336.52,1089.69 1332.82,1091.91 1329.49,1094.39 1326.52,1097.1 1323.95,1100 1321.76,1103.02 1319.98,1106.14 1318.59,1109.31 1317.59,1112.47 1316.98,1115.6 1316.72,1118.65 1316.82,1121.59 1317.24,1124.38 1317.95,1126.99 1318.93,1129.39 1320.15,1131.55 1319.15,1130.28 1317.38,1128.44 1315.32,1126.75 1312.97,1125.27 1310.36,1124.02 1307.51,1123.04 1304.44,1122.35 1301.18,1122 1297.77,1122.01 1294.25,1122.39 1290.65,1123.17 1287.01,1124.37 1283.39,1125.98 1279.83,1128.03 1276.36,1130.51 1273.05,1133.41 1269.94,1136.72 1267.07,1140.44 1264.49,1144.53 1262.24,1148.98 1260.37,1153.75 1258.9,1158.81 1257.88,1164.13 1257.34,1169.65 1257.3,1175.33 1257.79,1181.13 1258.81,1186.99 1260.39,1192.86 1262.52,1198.69 1265.21,1204.41 1268.45,1209.97 1272.23,1215.32 1276.53,1220.4 1281.32,1225.16 1286.59,1229.56 1292.29,1233.53 1298.39,1237.04 1304.84,1240.05 1311.59,1242.52 1318.6,1244.43 1325.81,1245.74 1333.16,1246.44 1340.6,1246.52 1348.06,1245.95 1355.48,1244.76 1362.8,1242.93 1369.97,1240.48 1376.92,1237.42 1383.6,1233.78 1389.95,1229.59 1395.92,1224.88 1401.47,1219.69 1406.54,1214.05 1411.11,1208.03 1415.14,1201.67 1418.59,1195.02 1421.46,1188.14 1423.71,1181.08 1425.34,1173.92 1426.35,1166.7 1426.73,1159.5 1426.5,1152.36 1425.67,1145.34 1424.26,1138.5 1422.28,1131.9 "/>
<line clip-path="url(#clip942)" x1="1379.59" y1="1041.65" x2="1363.59" y2="1025.65" style="stroke:#808080; stroke-width:3.2; stroke-opacity:1"/>
<line clip-path="url(#clip942)" x1="1379.59" y1="1041.65" x2="1363.59" y2="1057.65" style="stroke:#808080; stroke-width:3.2; stroke-opacity:1"/>
<line clip-path="url(#clip942)" x1="1379.59" y1="1041.65" x2="1395.59" y2="1057.65" style="stroke:#808080; stroke-width:3.2; stroke-opacity:1"/>
<line clip-path="url(#clip942)" x1="1379.59" y1="1041.65" x2="1395.59" y2="1025.65" style="stroke:#808080; stroke-width:3.2; stroke-opacity:1"/>
<polyline clip-path="url(#clip942)" style="stroke:#808080; stroke-linecap:round; stroke-linejoin:round; stroke-width:4; stroke-opacity:1; fill:none" points="1379.59,1041.65 1402.1,1074.69 "/>
<polyline clip-path="url(#clip942)" style="stroke:#808080; stroke-linecap:round; stroke-linejoin:round; stroke-width:4; stroke-opacity:1; fill:none" points="1396.71,1034.8 1402.1,1074.69 1366.96,1055.07 "/>
<polyline clip-path="url(#clip942)" style="stroke:#808080; stroke-linecap:round; stroke-linejoin:round; stroke-width:4; stroke-opacity:1; fill:none" points="1402.1,1074.69 1379.59,1041.65 "/>
<polyline clip-path="url(#clip942)" style="stroke:#808080; stroke-linecap:round; stroke-linejoin:round; stroke-width:4; stroke-opacity:1; fill:none" points="1201.83,376.956 1205.03,374.408 1208.06,371.452 1210.87,368.101 1213.43,364.371 1215.69,360.284 1217.6,355.867 1219.14,351.151 1220.25,346.172 1220.92,340.969 1221.11,335.585 1220.8,330.068 1219.97,324.467 1218.61,318.833 1216.7,313.22 1214.25,307.682 1211.26,302.275 1207.74,297.052 1203.69,292.069 1199.15,287.379 1194.13,283.031 1188.67,279.076 1182.8,275.557 1176.57,272.516 1170.02,269.992 1163.2,268.016 1156.15,266.617 1148.94,265.816 1141.63,265.632 1134.27,266.075 1126.92,267.149 1119.64,268.854 1112.5,271.181 1105.55,274.118 1098.85,277.644 1092.46,281.735 1086.42,286.36 1080.8,291.482 1075.62,297.06 1070.94,303.049 1066.8,309.401 1063.21,316.061 1060.22,322.975 1057.83,330.085 1056.06,337.332 1054.92,344.656 1054.41,351.996 1054.53,359.292 1055.26,366.485 1056.59,373.517 1058.5,380.334 1060.96,386.884 1063.93,393.116 1067.39,398.986 1071.28,404.454 1075.56,409.482 1080.19,414.041 1085.11,418.104 1090.27,421.651 1095.62,424.667 1101.1,427.145 1106.66,429.08 1112.25,430.475 1117.8,431.34 1123.27,431.686 1128.61,431.534 1133.78,430.906 1138.72,429.83 1143.4,428.339 1147.79,426.468 1151.85,424.255 1155.55,421.743 1158.88,418.973 1161.82,415.991 1164.35,412.843 1166.48,409.574 1168.19,406.23 1169.49,402.856 1170.39,399.496 1170.91,396.192 1171.05,392.984 1170.84,389.907 1170.3,386.997 1169.47,384.284 1168.37,381.794 1167.03,379.551 1165.49,377.572 1166.09,378.068 1168.1,379.62 1170.37,380.969 1172.9,382.081 1175.65,382.923 1178.6,383.464 1181.71,383.677 1184.96,383.537 1188.31,383.024 1191.71,382.119 1195.13,380.811 1198.52,379.091 1201.83,376.956 "/>
<line clip-path="url(#clip942)" x1="1224.13" y1="286.703" x2="1208.13" y2="270.703" style="stroke:#808080; stroke-width:3.2; stroke-opacity:1"/>
<line clip-path="url(#clip942)" x1="1224.13" y1="286.703" x2="1208.13" y2="302.703" style="stroke:#808080; stroke-width:3.2; stroke-opacity:1"/>
<line clip-path="url(#clip942)" x1="1224.13" y1="286.703" x2="1240.13" y2="302.703" style="stroke:#808080; stroke-width:3.2; stroke-opacity:1"/>
<line clip-path="url(#clip942)" x1="1224.13" y1="286.703" x2="1240.13" y2="270.703" style="stroke:#808080; stroke-width:3.2; stroke-opacity:1"/>
<polyline clip-path="url(#clip942)" style="stroke:#808080; stroke-linecap:round; stroke-linejoin:round; stroke-width:4; stroke-opacity:1; fill:none" points="1224.13,286.703 1196.37,257.934 "/>
<polyline clip-path="url(#clip942)" style="stroke:#808080; stroke-linecap:round; stroke-linejoin:round; stroke-width:4; stroke-opacity:1; fill:none" points="1208.42,296.339 1196.37,257.934 1234.32,271.342 "/>
<polyline clip-path="url(#clip942)" style="stroke:#808080; stroke-linecap:round; stroke-linejoin:round; stroke-width:4; stroke-opacity:1; fill:none" points="1196.37,257.934 1224.13,286.703 "/>
<polyline clip-path="url(#clip942)" style="stroke:#808080; stroke-linecap:round; stroke-linejoin:round; stroke-width:4; stroke-opacity:1; fill:none" points="1685.11,417.217 1681.77,412.961 1678.15,409.132 1674.3,405.75 1670.26,402.827 1666.09,400.371 1661.84,398.385 1657.55,396.866 1653.28,395.806 1649.07,395.193 1644.96,395.008 1641,395.23 1637.23,395.833 1633.67,396.788 1630.36,398.062 1627.33,399.62 1624.6,401.425 1622.18,403.438 1620.1,405.619 1618.35,407.928 1616.94,410.324 1615.88,412.767 1615.15,415.217 1614.85,416.793 1614.94,414.306 1614.71,411.722 1614.15,409.077 1613.25,406.409 1611.98,403.755 1610.36,401.159 1608.38,398.66 1606.04,396.301 1603.35,394.125 1600.34,392.171 1597.01,390.481 1593.4,389.092 1589.52,388.04 1585.41,387.36 1581.11,387.08 1576.66,387.227 1572.1,387.824 1567.48,388.887 1562.84,390.431 1558.24,392.462 1553.71,394.984 1549.33,397.993 1545.13,401.481 1541.17,405.435 1537.49,409.835 1534.15,414.657 1531.2,419.871 1528.66,425.443 1526.59,431.332 1525.01,437.496 1523.97,443.888 1523.47,450.457 1523.56,457.15 1524.23,463.91 1525.5,470.682 1527.37,477.406 1529.85,484.023 1532.92,490.476 1536.56,496.706 1540.76,502.658 1545.5,508.277 1550.73,513.513 1556.43,518.316 1562.55,522.643 1569.04,526.455 1575.86,529.716 1582.96,532.395 1590.27,534.47 1597.73,535.922 1605.3,536.737 1612.9,536.91 1620.48,536.44 1627.97,535.334 1635.32,533.603 1642.47,531.266 1649.35,528.347 1655.93,524.874 1662.14,520.883 1667.95,516.413 1673.3,511.508 1678.17,506.214 1682.53,500.583 1686.34,494.667 1689.58,488.523 1692.25,482.207 1694.33,475.776 1695.83,469.289 1696.73,462.803 1697.06,456.374 1696.83,450.057 1696.06,443.905 1694.77,437.966 1692.99,432.288 1690.77,426.912 1688.13,421.877 1685.11,417.217 "/>
<line clip-path="url(#clip942)" x1="1674.01" y1="326.964" x2="1658.01" y2="310.964" style="stroke:#808080; stroke-width:3.2; stroke-opacity:1"/>
<line clip-path="url(#clip942)" x1="1674.01" y1="326.964" x2="1658.01" y2="342.964" style="stroke:#808080; stroke-width:3.2; stroke-opacity:1"/>
<line clip-path="url(#clip942)" x1="1674.01" y1="326.964" x2="1690.01" y2="342.964" style="stroke:#808080; stroke-width:3.2; stroke-opacity:1"/>
<line clip-path="url(#clip942)" x1="1674.01" y1="326.964" x2="1690.01" y2="310.964" style="stroke:#808080; stroke-width:3.2; stroke-opacity:1"/>
<polyline clip-path="url(#clip942)" style="stroke:#808080; stroke-linecap:round; stroke-linejoin:round; stroke-width:4; stroke-opacity:1; fill:none" points="1674.01,326.964 1669.13,366.644 "/>
<polyline clip-path="url(#clip942)" style="stroke:#808080; stroke-linecap:round; stroke-linejoin:round; stroke-width:4; stroke-opacity:1; fill:none" points="1691.39,333.106 1669.13,366.644 1655.66,328.718 "/>
<polyline clip-path="url(#clip942)" style="stroke:#808080; stroke-linecap:round; stroke-linejoin:round; stroke-width:4; stroke-opacity:1; fill:none" points="1669.13,366.644 1674.01,326.964 "/>
<polyline clip-path="url(#clip942)" style="stroke:#808080; stroke-linecap:round; stroke-linejoin:round; stroke-width:4; stroke-opacity:1; fill:none" points="1180.29,957.863 1177.37,952.236 1174.04,946.989 1170.33,942.156 1166.29,937.766 1161.97,933.843 1157.42,930.405 1152.69,927.466 1147.84,925.033 1142.91,923.107 1137.97,921.685 1133.05,920.758 1128.22,920.312 1123.5,920.327 1118.96,920.78 1114.63,921.643 1110.54,922.886 1106.72,924.473 1103.22,926.368 1100.04,928.529 1097.21,930.917 1094.75,933.488 1092.65,936.2 1090.94,939.009 1089.6,941.871 1088.63,944.747 1088.02,947.594 1087.76,950.374 1087.83,953.052 1088.21,955.594 1088.8,957.756 1087.83,955.475 1086.54,953.241 1084.93,951.093 1082.98,949.071 1080.73,947.213 1078.17,945.558 1075.33,944.144 1072.23,943.006 1068.89,942.179 1065.35,941.695 1061.64,941.58 1057.79,941.859 1053.85,942.554 1049.87,943.68 1045.88,945.249 1041.93,947.269 1038.07,949.74 1034.36,952.661 1030.83,956.022 1027.54,959.808 1024.54,964.002 1021.86,968.579 1019.56,973.509 1017.67,978.758 1016.23,984.289 1015.27,990.058 1014.82,996.019 1014.91,1002.12 1015.55,1008.32 1016.75,1014.55 1018.53,1020.76 1020.88,1026.9 1023.81,1032.9 1027.3,1038.72 1031.33,1044.29 1035.89,1049.56 1040.95,1054.48 1046.47,1059 1052.42,1063.07 1058.76,1066.65 1065.43,1069.7 1072.39,1072.2 1079.59,1074.1 1086.97,1075.4 1094.46,1076.07 1102.02,1076.11 1109.58,1075.5 1117.07,1074.25 1124.44,1072.37 1131.63,1069.88 1138.58,1066.78 1145.23,1063.12 1151.53,1058.92 1157.44,1054.21 1162.91,1049.04 1167.89,1043.45 1172.35,1037.5 1176.27,1031.23 1179.61,1024.7 1182.36,1017.97 1184.51,1011.09 1186.04,1004.13 1186.96,997.146 1187.27,990.192 1186.98,983.329 1186.12,976.613 1184.69,970.096 1182.74,963.831 1180.29,957.863 "/>
<line clip-path="url(#clip942)" x1="1148.04" y1="867.61" x2="1132.04" y2="851.61" style="stroke:#808080; stroke-width:3.2; stroke-opacity:1"/>
<line clip-path="url(#clip942)" x1="1148.04" y1="867.61" x2="1132.04" y2="883.61" style="stroke:#808080; stroke-width:3.2; stroke-opacity:1"/>
<line clip-path="url(#clip942)" x1="1148.04" y1="867.61" x2="1164.04" y2="883.61" style="stroke:#808080; stroke-width:3.2; stroke-opacity:1"/>
<line clip-path="url(#clip942)" x1="1148.04" y1="867.61" x2="1164.04" y2="851.61" style="stroke:#808080; stroke-width:3.2; stroke-opacity:1"/>
<polyline clip-path="url(#clip942)" style="stroke:#808080; stroke-linecap:round; stroke-linejoin:round; stroke-width:4; stroke-opacity:1; fill:none" points="1148.04,867.61 1161,905.427 "/>
<polyline clip-path="url(#clip942)" style="stroke:#808080; stroke-linecap:round; stroke-linejoin:round; stroke-width:4; stroke-opacity:1; fill:none" points="1166.36,865.535 1161,905.427 1132.3,877.209 "/>
<polyline clip-path="url(#clip942)" style="stroke:#808080; stroke-linecap:round; stroke-linejoin:round; stroke-width:4; stroke-opacity:1; fill:none" points="1161,905.427 1148.04,867.61 "/>
<polyline clip-path="url(#clip942)" style="stroke:#808080; stroke-linecap:round; stroke-linejoin:round; stroke-width:4; stroke-opacity:1; fill:none" points="1450.91,1039.98 1447.81,1034.8 1444.34,1030.01 1440.54,1025.66 1436.46,1021.76 1432.14,1018.33 1427.65,1015.39 1423.03,1012.94 1418.34,1010.98 1413.62,1009.52 1408.92,1008.54 1404.3,1008.03 1399.79,1007.97 1395.45,1008.33 1391.31,1009.1 1387.4,1010.23 1383.76,1011.71 1380.42,1013.48 1377.39,1015.51 1374.7,1017.76 1372.37,1020.19 1370.39,1022.75 1368.78,1025.41 1367.54,1028.12 1366.65,1030.84 1366.11,1033.53 1365.91,1036.16 1366.03,1038.68 1365.98,1038.87 1365.24,1036.47 1364.17,1034.07 1362.76,1031.73 1361.01,1029.47 1358.92,1027.35 1356.52,1025.4 1353.8,1023.66 1350.78,1022.17 1347.5,1020.97 1343.98,1020.09 1340.24,1019.56 1336.33,1019.41 1332.28,1019.67 1328.13,1020.35 1323.93,1021.48 1319.73,1023.06 1315.56,1025.11 1311.49,1027.62 1307.56,1030.6 1303.81,1034.02 1300.31,1037.89 1297.09,1042.18 1294.21,1046.86 1291.7,1051.91 1289.61,1057.28 1287.97,1062.96 1286.83,1068.88 1286.2,1075 1286.11,1081.28 1286.58,1087.66 1287.63,1094.08 1289.27,1100.5 1291.48,1106.84 1294.29,1113.06 1297.66,1119.1 1301.59,1124.9 1306.06,1130.4 1311.03,1135.56 1316.49,1140.32 1322.38,1144.64 1328.67,1148.47 1335.31,1151.77 1342.25,1154.52 1349.44,1156.68 1356.81,1158.23 1364.32,1159.16 1371.91,1159.45 1379.5,1159.09 1387.04,1158.09 1394.47,1156.46 1401.73,1154.21 1408.77,1151.36 1415.51,1147.93 1421.92,1143.96 1427.95,1139.48 1433.54,1134.53 1438.66,1129.16 1443.27,1123.41 1447.34,1117.34 1450.85,1111 1453.78,1104.45 1456.11,1097.75 1457.83,1090.96 1458.95,1084.12 1459.46,1077.31 1459.39,1070.58 1458.74,1063.99 1457.54,1057.58 1455.81,1051.42 1453.59,1045.53 1450.91,1039.98 "/>
<line clip-path="url(#clip942)" x1="1425.42" y1="949.729" x2="1409.42" y2="933.729" style="stroke:#808080; stroke-width:3.2; stroke-opacity:1"/>
<line clip-path="url(#clip942)" x1="1425.42" y1="949.729" x2="1409.42" y2="965.729" style="stroke:#808080; stroke-width:3.2; stroke-opacity:1"/>
<line clip-path="url(#clip942)" x1="1425.42" y1="949.729" x2="1441.42" y2="965.729" style="stroke:#808080; stroke-width:3.2; stroke-opacity:1"/>
<line clip-path="url(#clip942)" x1="1425.42" y1="949.729" x2="1441.42" y2="933.729" style="stroke:#808080; stroke-width:3.2; stroke-opacity:1"/>
<polyline clip-path="url(#clip942)" style="stroke:#808080; stroke-linecap:round; stroke-linejoin:round; stroke-width:4; stroke-opacity:1; fill:none" points="1425.42,949.729 1432.46,989.083 "/>
<polyline clip-path="url(#clip942)" style="stroke:#808080; stroke-linecap:round; stroke-linejoin:round; stroke-width:4; stroke-opacity:1; fill:none" points="1443.84,950.478 1432.46,989.083 1408.4,956.812 "/>
<polyline clip-path="url(#clip942)" style="stroke:#808080; stroke-linecap:round; stroke-linejoin:round; stroke-width:4; stroke-opacity:1; fill:none" points="1432.46,989.083 1425.42,949.729 "/>
<polyline clip-path="url(#clip942)" style="stroke:#808080; stroke-linecap:round; stroke-linejoin:round; stroke-width:4; stroke-opacity:1; fill:none" points="1198.53,716.918 1198.39,709.311 1197.61,701.743 1196.19,694.274 1194.14,686.964 1191.5,679.871 1188.27,673.051 1184.5,666.558 1180.21,660.44 1175.44,654.744 1170.25,649.511 1164.67,644.777 1158.77,640.573 1152.58,636.925 1146.18,633.853 1139.62,631.372 1132.95,629.489 1126.23,628.206 1119.53,627.519 1112.89,627.419 1106.38,627.89 1100.05,628.911 1093.94,630.456 1088.11,632.494 1082.6,634.991 1077.44,637.906 1072.68,641.197 1068.33,644.819 1064.43,648.725 1060.99,652.864 1058.03,657.186 1055.54,661.641 1053.55,666.176 1052.04,670.742 1051,675.289 1050.43,679.77 1050.3,684.14 1050.59,688.357 1051.27,692.38 1052.32,696.176 1053.7,699.711 1055.38,702.958 1057.32,705.895 1059.47,708.502 1061.8,710.767 1064.26,712.679 1066.82,714.235 1069.43,715.434 1072.05,716.283 1074.64,716.789 1077.17,716.966 1077.78,717.005 1075.31,717.459 1072.82,718.246 1070.34,719.373 1067.91,720.846 1065.57,722.665 1063.36,724.825 1061.33,727.317 1059.51,730.128 1057.94,733.24 1056.67,736.628 1055.72,740.267 1055.12,744.124 1054.92,748.165 1055.12,752.351 1055.77,756.64 1056.86,760.986 1058.41,765.345 1060.44,769.666 1062.94,773.901 1065.92,778 1069.35,781.911 1073.24,785.585 1077.56,788.974 1082.28,792.03 1087.37,794.71 1092.81,796.972 1098.56,798.778 1104.56,800.093 1110.78,800.887 1117.16,801.135 1123.65,800.818 1130.2,799.921 1136.75,798.435 1143.24,796.356 1149.61,793.688 1155.81,790.44 1161.77,786.626 1167.45,782.267 1172.79,777.389 1177.74,772.025 1182.26,766.212 1186.29,759.99 1189.8,753.406 1192.75,746.511 1195.13,739.357 1196.89,732.001 1198.03,724.501 1198.53,716.918 "/>
<line clip-path="url(#clip942)" x1="1137.91" y1="626.665" x2="1121.91" y2="610.665" style="stroke:#808080; stroke-width:3.2; stroke-opacity:1"/>
<line clip-path="url(#clip942)" x1="1137.91" y1="626.665" x2="1121.91" y2="642.665" style="stroke:#808080; stroke-width:3.2; stroke-opacity:1"/>
<line clip-path="url(#clip942)" x1="1137.91" y1="626.665" x2="1153.91" y2="642.665" style="stroke:#808080; stroke-width:3.2; stroke-opacity:1"/>
<line clip-path="url(#clip942)" x1="1137.91" y1="626.665" x2="1153.91" y2="610.665" style="stroke:#808080; stroke-width:3.2; stroke-opacity:1"/>
<polyline clip-path="url(#clip942)" style="stroke:#808080; stroke-linecap:round; stroke-linejoin:round; stroke-width:4; stroke-opacity:1; fill:none" points="1137.91,626.665 1177.78,623.818 "/>
<polyline clip-path="url(#clip942)" style="stroke:#808080; stroke-linecap:round; stroke-linejoin:round; stroke-width:4; stroke-opacity:1; fill:none" points="1140.59,608.427 1177.78,623.818 1143.16,644.336 "/>
<polyline clip-path="url(#clip942)" style="stroke:#808080; stroke-linecap:round; stroke-linejoin:round; stroke-width:4; stroke-opacity:1; fill:none" points="1177.78,623.818 1137.91,626.665 "/>
<polyline clip-path="url(#clip942)" style="stroke:#808080; stroke-linecap:round; stroke-linejoin:round; stroke-width:4; stroke-opacity:1; fill:none" points="886.881,1040.83 884.192,1034.79 881.039,1029.1 877.464,1023.81 873.512,1018.95 869.229,1014.54 864.667,1010.61 859.877,1007.18 854.912,1004.26 849.825,1001.85 844.67,999.973 839.498,998.608 834.363,997.749 829.312,997.382 824.393,997.488 819.651,998.042 815.126,999.017 810.855,1000.38 806.872,1002.1 803.206,1004.13 799.88,1006.43 796.913,1008.97 794.322,1011.7 792.114,1014.57 790.295,1017.54 788.864,1020.57 787.816,1023.61 787.143,1026.62 786.83,1029.57 786.859,1032.41 787.209,1035.12 787.855,1037.65 788.77,1039.99 788.428,1039.51 786.945,1037.46 785.149,1035.52 783.048,1033.74 780.654,1032.16 777.984,1030.8 775.061,1029.72 771.91,1028.93 768.561,1028.48 765.046,1028.38 761.403,1028.67 757.671,1029.36 753.893,1030.46 750.113,1032 746.378,1033.98 742.733,1036.39 739.229,1039.24 735.911,1042.52 732.828,1046.21 730.026,1050.29 727.548,1054.75 725.438,1059.54 723.734,1064.65 722.472,1070.02 721.685,1075.62 721.4,1081.41 721.641,1087.33 722.425,1093.33 723.766,1099.35 725.671,1105.36 728.14,1111.27 731.171,1117.05 734.753,1122.64 738.87,1127.97 743.5,1133 748.616,1137.68 754.185,1141.95 760.17,1145.77 766.529,1149.1 773.214,1151.91 780.176,1154.15 787.361,1155.8 794.712,1156.85 802.172,1157.27 809.68,1157.06 817.175,1156.2 824.598,1154.71 831.886,1152.59 838.981,1149.86 845.826,1146.54 852.364,1142.65 858.544,1138.23 864.317,1133.31 869.638,1127.93 874.467,1122.14 878.769,1116 882.513,1109.54 885.676,1102.84 888.238,1095.94 890.187,1088.9 891.517,1081.79 892.226,1074.67 892.322,1067.59 891.815,1060.61 890.723,1053.78 889.069,1047.17 886.881,1040.83 "/>
<line clip-path="url(#clip942)" x1="848.392" y1="950.572" x2="832.392" y2="934.572" style="stroke:#808080; stroke-width:3.2; stroke-opacity:1"/>
<line clip-path="url(#clip942)" x1="848.392" y1="950.572" x2="832.392" y2="966.572" style="stroke:#808080; stroke-width:3.2; stroke-opacity:1"/>
<line clip-path="url(#clip942)" x1="848.392" y1="950.572" x2="864.392" y2="966.572" style="stroke:#808080; stroke-width:3.2; stroke-opacity:1"/>
<line clip-path="url(#clip942)" x1="848.392" y1="950.572" x2="864.392" y2="934.572" style="stroke:#808080; stroke-width:3.2; stroke-opacity:1"/>
<polyline clip-path="url(#clip942)" style="stroke:#808080; stroke-linecap:round; stroke-linejoin:round; stroke-width:4; stroke-opacity:1; fill:none" points="848.392,950.572 867.01,985.95 "/>
<polyline clip-path="url(#clip942)" style="stroke:#808080; stroke-linecap:round; stroke-linejoin:round; stroke-width:4; stroke-opacity:1; fill:none" points="866.174,945.71 867.01,985.95 834.316,962.475 "/>
<polyline clip-path="url(#clip942)" style="stroke:#808080; stroke-linecap:round; stroke-linejoin:round; stroke-width:4; stroke-opacity:1; fill:none" points="867.01,985.95 848.392,950.572 "/>
<polyline clip-path="url(#clip942)" style="stroke:#808080; stroke-linecap:round; stroke-linejoin:round; stroke-width:4; stroke-opacity:1; fill:none" points="1101.89,1000.51 1103.32,993.436 1104.15,986.195 1104.37,978.848 1103.95,971.455 1102.9,964.076 1101.22,956.771 1098.92,949.601 1096,942.624 1092.5,935.9 1088.43,929.483 1083.83,923.426 1078.73,917.777 1073.18,912.584 1067.21,907.885 1060.89,903.718 1054.25,900.114 1047.37,897.096 1040.29,894.686 1033.07,892.895 1025.78,891.733 1018.48,891.199 1011.22,891.289 1004.06,891.993 997.067,893.292 990.288,895.165 983.776,897.584 977.582,900.515 971.749,903.923 966.317,907.765 961.323,911.996 956.797,916.568 952.765,921.43 949.246,926.531 946.254,931.815 943.797,937.229 941.879,942.718 940.496,948.227 939.641,953.705 939.298,959.099 939.448,964.362 940.07,969.447 941.133,974.31 942.606,978.914 944.454,983.223 946.638,987.206 949.116,990.837 951.847,994.095 954.784,996.963 957.883,999.431 961.098,1001.49 964.384,1003.15 967.696,1004.4 970.99,1005.25 974.227,1005.72 977.365,1005.82 980.37,1005.59 983.206,1005.03 985.846,1004.17 988.262,1003.06 990.432,1001.71 991.578,1000.85 989.853,1002.65 988.3,1004.74 986.957,1007.09 985.857,1009.69 985.033,1012.51 984.515,1015.53 984.332,1018.72 984.507,1022.04 985.062,1025.46 986.013,1028.93 987.373,1032.41 989.149,1035.86 991.345,1039.23 993.958,1042.47 996.982,1045.55 1000.4,1048.4 1004.21,1051 1008.37,1053.29 1012.86,1055.23 1017.66,1056.78 1022.71,1057.91 1027.99,1058.59 1033.46,1058.79 1039.05,1058.47 1044.72,1057.64 1050.43,1056.27 1056.11,1054.35 1061.72,1051.88 1067.19,1048.86 1072.48,1045.31 1077.52,1041.24 1082.26,1036.67 1086.66,1031.62 1090.67,1026.12 1094.23,1020.22 1097.32,1013.96 1099.88,1007.37 1101.89,1000.51 "/>
<line clip-path="url(#clip942)" x1="1051.17" y1="910.26" x2="1035.17" y2="894.26" style="stroke:#808080; stroke-width:3.2; stroke-opacity:1"/>
<line clip-path="url(#clip942)" x1="1051.17" y1="910.26" x2="1035.17" y2="926.26" style="stroke:#808080; stroke-width:3.2; stroke-opacity:1"/>
<line clip-path="url(#clip942)" x1="1051.17" y1="910.26" x2="1067.17" y2="926.26" style="stroke:#808080; stroke-width:3.2; stroke-opacity:1"/>
<line clip-path="url(#clip942)" x1="1051.17" y1="910.26" x2="1067.17" y2="894.26" style="stroke:#808080; stroke-width:3.2; stroke-opacity:1"/>
<polyline clip-path="url(#clip942)" style="stroke:#808080; stroke-linecap:round; stroke-linejoin:round; stroke-width:4; stroke-opacity:1; fill:none" points="1051.17,910.26 1081.31,884.004 "/>
<polyline clip-path="url(#clip942)" style="stroke:#808080; stroke-linecap:round; stroke-linejoin:round; stroke-width:4; stroke-opacity:1; fill:none" points="1042.34,894.074 1081.31,884.004 1065.99,921.221 "/>
<polyline clip-path="url(#clip942)" style="stroke:#808080; stroke-linecap:round; stroke-linejoin:round; stroke-width:4; stroke-opacity:1; fill:none" points="1081.31,884.004 1051.17,910.26 "/>
<polyline clip-path="url(#clip942)" style="stroke:#808080; stroke-linecap:round; stroke-linejoin:round; stroke-width:4; stroke-opacity:1; fill:none" points="1224.29,598.943 1227.32,594.338 1229.98,589.355 1232.23,584.029 1234.03,578.397 1235.36,572.502 1236.17,566.388 1236.44,560.105 1236.15,553.705 1235.29,547.243 1233.85,540.775 1231.82,534.358 1229.2,528.049 1226,521.906 1222.24,515.987 1217.94,510.346 1213.11,505.038 1207.8,500.113 1202.04,495.619 1195.86,491.599 1189.32,488.095 1182.46,485.139 1175.33,482.764 1168,480.992 1160.52,479.843 1152.95,479.33 1145.35,479.459 1137.78,480.23 1130.3,481.639 1122.98,483.672 1115.87,486.313 1109.02,489.536 1102.5,493.314 1096.35,497.612 1090.61,502.389 1085.34,507.604 1080.56,513.207 1076.31,519.147 1072.62,525.372 1069.5,531.825 1066.98,538.448 1065.05,545.183 1063.74,551.971 1063.02,558.754 1062.89,565.474 1063.34,572.075 1064.35,578.504 1065.9,584.709 1067.94,590.644 1070.45,596.264 1073.39,601.529 1076.71,606.404 1080.38,610.86 1084.33,614.87 1088.53,618.415 1092.93,621.48 1097.46,624.057 1102.09,626.142 1106.75,627.738 1111.41,628.851 1116,629.494 1120.49,629.684 1124.83,629.443 1128.98,628.797 1132.91,627.776 1136.57,626.412 1139.95,624.742 1143.02,622.803 1145.76,620.635 1148.16,618.28 1150.19,615.78 1151.87,613.176 1153.19,610.511 1154.14,607.826 1154.75,605.159 1155.02,602.55 1154.97,600.034 1155.08,600.273 1155.76,602.707 1156.78,605.139 1158.13,607.528 1159.82,609.836 1161.86,612.021 1164.22,614.044 1166.9,615.863 1169.88,617.441 1173.13,618.74 1176.64,619.725 1180.38,620.363 1184.29,620.623 1188.36,620.481 1192.54,619.914 1196.78,618.904 1201.05,617.438 1205.28,615.506 1209.44,613.106 1213.46,610.24 1217.32,606.915 1220.94,603.143 1224.29,598.943 "/>
<line clip-path="url(#clip942)" x1="1214.06" y1="508.69" x2="1198.06" y2="492.69" style="stroke:#808080; stroke-width:3.2; stroke-opacity:1"/>
<line clip-path="url(#clip942)" x1="1214.06" y1="508.69" x2="1198.06" y2="524.69" style="stroke:#808080; stroke-width:3.2; stroke-opacity:1"/>
<line clip-path="url(#clip942)" x1="1214.06" y1="508.69" x2="1230.06" y2="524.69" style="stroke:#808080; stroke-width:3.2; stroke-opacity:1"/>
<line clip-path="url(#clip942)" x1="1214.06" y1="508.69" x2="1230.06" y2="492.69" style="stroke:#808080; stroke-width:3.2; stroke-opacity:1"/>
<polyline clip-path="url(#clip942)" style="stroke:#808080; stroke-linecap:round; stroke-linejoin:round; stroke-width:4; stroke-opacity:1; fill:none" points="1214.06,508.69 1208.49,469.101 "/>
<polyline clip-path="url(#clip942)" style="stroke:#808080; stroke-linecap:round; stroke-linejoin:round; stroke-width:4; stroke-opacity:1; fill:none" points="1195.68,507.254 1208.49,469.101 1231.33,502.247 "/>
<polyline clip-path="url(#clip942)" style="stroke:#808080; stroke-linecap:round; stroke-linejoin:round; stroke-width:4; stroke-opacity:1; fill:none" points="1208.49,469.101 1214.06,508.69 "/>
<polyline clip-path="url(#clip942)" style="stroke:#808080; stroke-linecap:round; stroke-linejoin:round; stroke-width:4; stroke-opacity:1; fill:none" points="1399.17,1256.85 1400.24,1249.55 1400.68,1242.13 1400.5,1234.66 1399.68,1227.19 1398.22,1219.79 1396.13,1212.51 1393.43,1205.42 1390.13,1198.56 1386.26,1192.01 1381.86,1185.81 1376.95,1180.01 1371.58,1174.66 1365.79,1169.79 1359.63,1165.45 1353.16,1161.66 1346.43,1158.45 1339.49,1155.85 1332.41,1153.85 1325.25,1152.48 1318.06,1151.73 1310.91,1151.6 1303.85,1152.08 1296.94,1153.15 1290.23,1154.79 1283.79,1156.98 1277.65,1159.67 1271.86,1162.84 1266.45,1166.44 1261.48,1170.42 1256.96,1174.75 1252.92,1179.37 1249.38,1184.23 1246.36,1189.27 1243.86,1194.45 1241.88,1199.7 1240.43,1204.98 1239.49,1210.24 1239.06,1215.41 1239.11,1220.47 1239.61,1225.35 1240.55,1230.02 1241.89,1234.43 1243.59,1238.57 1245.63,1242.38 1247.95,1245.86 1250.51,1248.98 1253.27,1251.71 1256.2,1254.07 1259.23,1256.02 1262.33,1257.58 1265.46,1258.75 1268.56,1259.54 1271.61,1259.96 1274.57,1260.02 1277.39,1259.76 1280.04,1259.18 1282.51,1258.33 1284.75,1257.22 1283.95,1257.83 1282.02,1259.49 1280.24,1261.45 1278.63,1263.7 1277.25,1266.22 1276.12,1269.01 1275.28,1272.02 1274.76,1275.24 1274.58,1278.62 1274.78,1282.15 1275.37,1285.77 1276.36,1289.44 1277.78,1293.12 1279.63,1296.78 1281.91,1300.35 1284.63,1303.79 1287.76,1307.06 1291.31,1310.1 1295.25,1312.88 1299.56,1315.35 1304.22,1317.46 1309.18,1319.17 1314.42,1320.46 1319.89,1321.28 1325.55,1321.6 1331.35,1321.42 1337.24,1320.69 1343.17,1319.42 1349.07,1317.59 1354.91,1315.2 1360.62,1312.25 1366.14,1308.76 1371.42,1304.73 1376.41,1300.19 1381.05,1295.16 1385.3,1289.67 1389.11,1283.77 1392.44,1277.49 1395.25,1270.87 1397.5,1263.98 1399.17,1256.85 "/>
<line clip-path="url(#clip942)" x1="1344.58" y1="1166.6" x2="1328.58" y2="1150.6" style="stroke:#808080; stroke-width:3.2; stroke-opacity:1"/>
<line clip-path="url(#clip942)" x1="1344.58" y1="1166.6" x2="1328.58" y2="1182.6" style="stroke:#808080; stroke-width:3.2; stroke-opacity:1"/>
<line clip-path="url(#clip942)" x1="1344.58" y1="1166.6" x2="1360.58" y2="1182.6" style="stroke:#808080; stroke-width:3.2; stroke-opacity:1"/>
<line clip-path="url(#clip942)" x1="1344.58" y1="1166.6" x2="1360.58" y2="1150.6" style="stroke:#808080; stroke-width:3.2; stroke-opacity:1"/>
<polyline clip-path="url(#clip942)" style="stroke:#808080; stroke-linecap:round; stroke-linejoin:round; stroke-width:4; stroke-opacity:1; fill:none" points="1344.58,1166.6 1378.49,1145.42 "/>
<polyline clip-path="url(#clip942)" style="stroke:#808080; stroke-linecap:round; stroke-linejoin:round; stroke-width:4; stroke-opacity:1; fill:none" points="1338.42,1149.22 1378.49,1145.42 1357.49,1179.76 "/>
<polyline clip-path="url(#clip942)" style="stroke:#808080; stroke-linecap:round; stroke-linejoin:round; stroke-width:4; stroke-opacity:1; fill:none" points="1378.49,1145.42 1344.58,1166.6 "/>
<polyline clip-path="url(#clip942)" style="stroke:#808080; stroke-linecap:round; stroke-linejoin:round; stroke-width:4; stroke-opacity:1; fill:none" points="848.354,914.191 845.595,913.697 842.912,913.542 840.339,913.706 837.907,914.169 840.084,913.448 842.411,912.354 844.679,910.927 846.85,909.169 848.883,907.083 850.739,904.681 852.379,901.977 853.765,898.99 854.862,895.743 855.636,892.264 856.056,888.585 856.095,884.742 855.728,880.772 854.936,876.718 853.703,872.623 852.019,868.535 849.877,864.5 847.278,860.568 844.224,856.788 840.727,853.21 836.802,849.88 832.469,846.847 827.753,844.155 822.685,841.848 817.301,839.965 811.64,838.542 805.746,837.611 799.665,837.201 793.449,837.333 787.149,838.026 780.821,839.292 774.522,841.138 768.308,843.564 762.236,846.566 756.364,850.131 750.747,854.244 745.439,858.881 740.493,864.014 735.957,869.61 731.877,875.63 728.294,882.031 725.245,888.764 722.763,895.78 720.873,903.024 719.598,910.438 718.953,917.965 718.947,925.542 719.583,933.111 720.858,940.609 722.764,947.975 725.284,955.152 728.398,962.08 732.078,968.706 736.292,974.978 741.004,980.846 746.17,986.267 751.746,991.202 757.68,995.615 763.921,999.478 770.412,1002.77 777.097,1005.46 783.917,1007.56 790.813,1009.04 797.726,1009.92 804.597,1010.19 811.37,1009.87 817.989,1008.98 824.401,1007.54 830.557,1005.58 836.411,1003.13 841.921,1000.23 847.049,996.917 851.761,993.241 856.031,989.247 859.835,984.983 863.156,980.502 865.983,975.854 868.31,971.093 870.135,966.269 871.464,961.434 872.307,956.638 872.679,951.929 872.6,947.351 872.093,942.948 871.188,938.758 869.917,934.817 868.313,931.155 866.415,927.801 864.262,924.776 861.896,922.098 859.359,919.779 856.694,917.828 853.943,916.248 851.15,915.038 848.354,914.191 "/>
<line clip-path="url(#clip942)" x1="897.029" y1="823.938" x2="881.029" y2="807.938" style="stroke:#808080; stroke-width:3.2; stroke-opacity:1"/>
<line clip-path="url(#clip942)" x1="897.029" y1="823.938" x2="881.029" y2="839.938" style="stroke:#808080; stroke-width:3.2; stroke-opacity:1"/>
<line clip-path="url(#clip942)" x1="897.029" y1="823.938" x2="913.029" y2="839.938" style="stroke:#808080; stroke-width:3.2; stroke-opacity:1"/>
<line clip-path="url(#clip942)" x1="897.029" y1="823.938" x2="913.029" y2="807.938" style="stroke:#808080; stroke-width:3.2; stroke-opacity:1"/>
<polyline clip-path="url(#clip942)" style="stroke:#808080; stroke-linecap:round; stroke-linejoin:round; stroke-width:4; stroke-opacity:1; fill:none" points="897.029,823.938 858.356,834.067 "/>
<polyline clip-path="url(#clip942)" style="stroke:#808080; stroke-linecap:round; stroke-linejoin:round; stroke-width:4; stroke-opacity:1; fill:none" points="897.742,842.358 858.356,834.067 888.621,807.533 "/>
<polyline clip-path="url(#clip942)" style="stroke:#808080; stroke-linecap:round; stroke-linejoin:round; stroke-width:4; stroke-opacity:1; fill:none" points="858.356,834.067 897.029,823.938 "/>
<polyline clip-path="url(#clip942)" style="stroke:#808080; stroke-linecap:round; stroke-linejoin:round; stroke-width:4; stroke-opacity:1; fill:none" points="1613.14,1187.94 1609.72,1184.67 1606.11,1181.83 1602.37,1179.43 1598.55,1177.48 1594.68,1175.97 1590.82,1174.9 1587.01,1174.24 1583.3,1174 1579.72,1174.13 1576.31,1174.63 1573.1,1175.46 1570.13,1176.6 1567.42,1178 1564.99,1179.63 1562.85,1181.46 1561.03,1183.44 1559.52,1185.54 1558.34,1187.72 1559.03,1185.87 1559.65,1183.38 1559.99,1180.73 1560,1177.94 1559.67,1175.05 1558.99,1172.1 1557.94,1169.13 1556.51,1166.17 1554.69,1163.28 1552.49,1160.48 1549.91,1157.84 1546.97,1155.38 1543.67,1153.16 1540.04,1151.22 1536.09,1149.59 1531.87,1148.31 1527.4,1147.42 1522.72,1146.95 1517.87,1146.93 1512.89,1147.37 1507.84,1148.31 1502.76,1149.75 1497.7,1151.7 1492.72,1154.16 1487.86,1157.14 1483.19,1160.63 1478.75,1164.6 1474.6,1169.05 1470.78,1173.95 1467.34,1179.26 1464.33,1184.96 1461.78,1191 1459.74,1197.35 1458.23,1203.94 1457.29,1210.74 1456.93,1217.69 1457.17,1224.73 1458.02,1231.8 1459.5,1238.84 1461.58,1245.81 1464.28,1252.62 1467.57,1259.24 1471.44,1265.59 1475.87,1271.63 1480.81,1277.3 1486.23,1282.55 1492.1,1287.34 1498.37,1291.63 1504.99,1295.37 1511.91,1298.55 1519.06,1301.13 1526.4,1303.09 1533.86,1304.42 1541.39,1305.12 1548.92,1305.17 1556.39,1304.59 1563.74,1303.38 1570.91,1301.57 1577.85,1299.17 1584.5,1296.21 1590.82,1292.73 1596.76,1288.76 1602.27,1284.35 1607.31,1279.54 1611.87,1274.38 1615.91,1268.93 1619.4,1263.23 1622.34,1257.34 1624.71,1251.32 1626.51,1245.23 1627.74,1239.12 1628.42,1233.04 1628.55,1227.06 1628.15,1221.22 1627.25,1215.57 1625.87,1210.15 1624.05,1205.02 1621.83,1200.2 1619.24,1195.73 1616.33,1191.63 1613.14,1187.94 "/>
<line clip-path="url(#clip942)" x1="1617.44" y1="1097.69" x2="1601.44" y2="1081.69" style="stroke:#808080; stroke-width:3.2; stroke-opacity:1"/>
<line clip-path="url(#clip942)" x1="1617.44" y1="1097.69" x2="1601.44" y2="1113.69" style="stroke:#808080; stroke-width:3.2; stroke-opacity:1"/>
<line clip-path="url(#clip942)" x1="1617.44" y1="1097.69" x2="1633.44" y2="1113.69" style="stroke:#808080; stroke-width:3.2; stroke-opacity:1"/>
<line clip-path="url(#clip942)" x1="1617.44" y1="1097.69" x2="1633.44" y2="1081.69" style="stroke:#808080; stroke-width:3.2; stroke-opacity:1"/>
<polyline clip-path="url(#clip942)" style="stroke:#808080; stroke-linecap:round; stroke-linejoin:round; stroke-width:4; stroke-opacity:1; fill:none" points="1617.44,1097.69 1601.07,1134.16 "/>
<polyline clip-path="url(#clip942)" style="stroke:#808080; stroke-linecap:round; stroke-linejoin:round; stroke-width:4; stroke-opacity:1; fill:none" points="1632.23,1108.69 1601.07,1134.16 1599.39,1093.94 "/>
<polyline clip-path="url(#clip942)" style="stroke:#808080; stroke-linecap:round; stroke-linejoin:round; stroke-width:4; stroke-opacity:1; fill:none" points="1601.07,1134.16 1617.44,1097.69 "/>
<polyline clip-path="url(#clip942)" style="stroke:#808080; stroke-linecap:round; stroke-linejoin:round; stroke-width:4; stroke-opacity:1; fill:none" points="680.548,637.505 677.462,632.288 673.997,627.47 670.2,623.082 666.12,619.147 661.805,615.684 657.307,612.708 652.679,610.224 647.971,608.237 643.235,606.742 638.52,605.731 633.876,605.191 629.347,605.104 624.976,605.447 620.804,606.193 616.867,607.312 613.196,608.769 609.82,610.528 606.762,612.552 604.041,614.798 601.672,617.225 599.663,619.792 598.02,622.455 596.742,625.172 595.824,627.903 595.257,630.608 595.028,633.25 595.12,635.792 595.219,636.8 594.508,634.402 593.465,632.013 592.085,629.672 590.368,627.42 588.317,625.295 585.941,623.339 583.255,621.59 580.274,620.088 577.024,618.869 573.528,617.967 569.82,617.415 565.933,617.241 561.905,617.472 557.778,618.127 553.595,619.224 549.403,620.776 545.249,622.789 541.182,625.267 537.253,628.206 533.51,631.598 530.002,635.43 526.778,639.682 523.884,644.331 521.363,649.346 519.257,654.695 517.603,660.338 516.435,666.234 515.782,672.335 515.669,678.592 516.116,684.952 517.137,691.362 518.74,697.765 520.928,704.103 523.698,710.32 527.041,716.357 530.941,722.158 535.379,727.669 540.327,732.836 545.753,737.609 551.621,741.941 557.888,745.79 564.509,749.116 571.433,751.886 578.607,754.071 585.974,755.648 593.476,756.599 601.054,756.912 608.646,756.584 616.192,755.613 623.63,754.008 630.9,751.782 637.945,748.954 644.708,745.548 651.137,741.596 657.182,737.133 662.798,732.199 667.943,726.84 672.581,721.102 676.682,715.039 680.219,708.705 683.174,702.156 685.531,695.45 687.284,688.646 688.43,681.804 688.974,674.98 688.926,668.233 688.302,661.619 687.124,655.19 685.417,648.997 683.213,643.088 680.548,637.505 "/>
<line clip-path="url(#clip942)" x1="654.573" y1="547.252" x2="638.573" y2="531.252" style="stroke:#808080; stroke-width:3.2; stroke-opacity:1"/>
<line clip-path="url(#clip942)" x1="654.573" y1="547.252" x2="638.573" y2="563.252" style="stroke:#808080; stroke-width:3.2; stroke-opacity:1"/>
<line clip-path="url(#clip942)" x1="654.573" y1="547.252" x2="670.573" y2="563.252" style="stroke:#808080; stroke-width:3.2; stroke-opacity:1"/>
<line clip-path="url(#clip942)" x1="654.573" y1="547.252" x2="670.573" y2="531.252" style="stroke:#808080; stroke-width:3.2; stroke-opacity:1"/>
<polyline clip-path="url(#clip942)" style="stroke:#808080; stroke-linecap:round; stroke-linejoin:round; stroke-width:4; stroke-opacity:1; fill:none" points="654.573,547.252 662.025,586.529 "/>
<polyline clip-path="url(#clip942)" style="stroke:#808080; stroke-linecap:round; stroke-linejoin:round; stroke-width:4; stroke-opacity:1; fill:none" points="672.999,547.804 662.025,586.529 637.63,554.515 "/>
<polyline clip-path="url(#clip942)" style="stroke:#808080; stroke-linecap:round; stroke-linejoin:round; stroke-width:4; stroke-opacity:1; fill:none" points="662.025,586.529 654.573,547.252 "/>
<polyline clip-path="url(#clip942)" style="stroke:#808080; stroke-linecap:round; stroke-linejoin:round; stroke-width:4; stroke-opacity:1; fill:none" points="1017.76,888.582 1020.86,886.685 1023.86,884.391 1026.71,881.703 1029.37,878.631 1031.79,875.191 1033.93,871.403 1035.75,867.29 1037.21,862.881 1038.27,858.212 1038.91,853.319 1039.09,848.243 1038.79,843.031 1037.99,837.728 1036.67,832.386 1034.83,827.056 1032.46,821.792 1029.56,816.647 1026.14,811.676 1022.21,806.932 1017.79,802.467 1012.91,798.332 1007.59,794.575 1001.87,791.241 995.791,788.373 989.39,786.008 982.718,784.18 975.825,782.917 968.767,782.242 961.599,782.174 954.38,782.724 947.169,783.899 940.027,785.697 933.013,788.114 926.186,791.137 919.605,794.747 913.325,798.92 907.4,803.627 901.879,808.832 896.809,814.495 892.231,820.572 888.184,827.015 884.698,833.77 881.801,840.784 879.514,847.998 877.852,855.353 876.823,862.79 876.431,870.247 876.672,877.663 877.535,884.979 879.007,892.137 881.066,899.081 883.684,905.756 886.829,912.114 890.466,918.106 894.553,923.692 899.045,928.833 903.894,933.497 909.049,937.657 914.457,941.29 920.063,944.381 925.812,946.92 931.647,948.902 937.514,950.328 943.358,951.205 949.126,951.547 954.767,951.37 960.232,950.698 965.476,949.558 970.459,947.982 975.142,946.005 979.492,943.666 983.48,941.006 987.083,938.07 990.283,934.902 993.064,931.549 995.42,928.059 997.347,924.479 998.847,920.854 999.926,917.231 1000.6,913.653 1000.87,910.162 1000.78,906.796 1000.33,903.593 999.564,900.584 998.506,897.799 997.188,895.262 995.645,892.994 993.915,891.013 992.034,889.33 992.015,889.222 994.253,890.382 996.716,891.294 999.38,891.93 1002.22,892.26 1005.19,892.26 1008.27,891.908 1011.42,891.186 1014.6,890.08 1017.76,888.582 "/>
<line clip-path="url(#clip942)" x1="1050.22" y1="798.329" x2="1034.22" y2="782.329" style="stroke:#808080; stroke-width:3.2; stroke-opacity:1"/>
<line clip-path="url(#clip942)" x1="1050.22" y1="798.329" x2="1034.22" y2="814.329" style="stroke:#808080; stroke-width:3.2; stroke-opacity:1"/>
<line clip-path="url(#clip942)" x1="1050.22" y1="798.329" x2="1066.22" y2="814.329" style="stroke:#808080; stroke-width:3.2; stroke-opacity:1"/>
<line clip-path="url(#clip942)" x1="1050.22" y1="798.329" x2="1066.22" y2="782.329" style="stroke:#808080; stroke-width:3.2; stroke-opacity:1"/>
<polyline clip-path="url(#clip942)" style="stroke:#808080; stroke-linecap:round; stroke-linejoin:round; stroke-width:4; stroke-opacity:1; fill:none" points="1050.22,798.329 1017.27,775.691 "/>
<polyline clip-path="url(#clip942)" style="stroke:#808080; stroke-linecap:round; stroke-linejoin:round; stroke-width:4; stroke-opacity:1; fill:none" points="1036.75,810.912 1017.27,775.691 1057.14,781.24 "/>
<polyline clip-path="url(#clip942)" style="stroke:#808080; stroke-linecap:round; stroke-linejoin:round; stroke-width:4; stroke-opacity:1; fill:none" points="1017.27,775.691 1050.22,798.329 "/>
<polyline clip-path="url(#clip942)" style="stroke:#808080; stroke-linecap:round; stroke-linejoin:round; stroke-width:4; stroke-opacity:1; fill:none" points="731.381,644.06 733.928,638.255 735.994,632.139 737.543,625.758 738.546,619.161 738.98,612.4 738.826,605.53 738.069,598.608 736.704,591.692 734.728,584.841 732.147,578.115 728.97,571.572 725.216,565.269 720.906,559.263 716.068,553.606 710.737,548.35 704.952,543.54 698.754,539.22 692.193,535.428 685.319,532.197 678.187,529.556 670.854,527.525 663.378,526.122 655.821,525.358 648.243,525.235 640.705,525.752 633.268,526.901 625.992,528.667 618.932,531.031 612.145,533.966 605.681,537.441 599.59,541.419 593.914,545.862 588.694,550.722 583.964,555.953 579.753,561.502 576.084,567.317 572.977,573.341 570.443,579.518 568.487,585.791 567.112,592.102 566.309,598.395 566.07,604.615 566.376,610.708 567.205,616.625 568.532,622.317 570.324,627.74 572.546,632.853 575.158,637.622 578.12,642.014 581.385,646.003 584.907,649.567 588.639,652.691 592.531,655.364 596.534,657.581 600.599,659.341 604.679,660.648 608.726,661.514 612.696,661.953 616.548,661.984 620.241,661.629 623.741,660.917 627.014,659.878 630.032,658.543 632.773,656.95 635.214,655.135 637.342,653.137 639.146,650.995 640.619,648.749 641.759,646.438 642.571,644.102 642.086,646.434 641.872,648.998 641.977,651.678 642.418,654.439 643.211,657.244 644.366,660.054 645.892,662.827 647.789,665.521 650.056,668.095 652.685,670.504 655.665,672.706 658.978,674.661 662.603,676.327 666.513,677.666 670.679,678.644 675.065,679.227 679.632,679.387 684.34,679.098 689.142,678.341 693.992,677.099 698.839,675.36 703.634,673.12 708.323,670.379 712.856,667.14 717.179,663.415 721.241,659.22 724.994,654.577 728.388,649.513 731.381,644.06 "/>
<line clip-path="url(#clip942)" x1="701.789" y1="553.807" x2="685.789" y2="537.807" style="stroke:#808080; stroke-width:3.2; stroke-opacity:1"/>
<line clip-path="url(#clip942)" x1="701.789" y1="553.807" x2="685.789" y2="569.807" style="stroke:#808080; stroke-width:3.2; stroke-opacity:1"/>
<line clip-path="url(#clip942)" x1="701.789" y1="553.807" x2="717.789" y2="569.807" style="stroke:#808080; stroke-width:3.2; stroke-opacity:1"/>
<line clip-path="url(#clip942)" x1="701.789" y1="553.807" x2="717.789" y2="537.807" style="stroke:#808080; stroke-width:3.2; stroke-opacity:1"/>
<polyline clip-path="url(#clip942)" style="stroke:#808080; stroke-linecap:round; stroke-linejoin:round; stroke-width:4; stroke-opacity:1; fill:none" points="701.789,553.807 712.398,515.262 "/>
<polyline clip-path="url(#clip942)" style="stroke:#808080; stroke-linecap:round; stroke-linejoin:round; stroke-width:4; stroke-opacity:1; fill:none" points="685.49,545.195 712.398,515.262 720.2,554.748 "/>
<polyline clip-path="url(#clip942)" style="stroke:#808080; stroke-linecap:round; stroke-linejoin:round; stroke-width:4; stroke-opacity:1; fill:none" points="712.398,515.262 701.789,553.807 "/>
<polyline clip-path="url(#clip942)" style="stroke:#808080; stroke-linecap:round; stroke-linejoin:round; stroke-width:4; stroke-opacity:1; fill:none" points="1220.97,681.862 1219.41,674.664 1217.26,667.683 1214.55,660.972 1211.3,654.582 1207.56,648.559 1203.37,642.946 1198.77,637.782 1193.8,633.098 1188.53,628.925 1183.01,625.282 1177.28,622.187 1171.41,619.651 1165.45,617.678 1159.45,616.268 1153.48,615.413 1147.58,615.102 1141.82,615.317 1136.22,616.035 1130.85,617.228 1125.75,618.866 1120.95,620.912 1116.48,623.328 1112.38,626.073 1108.68,629.1 1105.38,632.366 1102.5,635.823 1100.06,639.424 1098.06,643.12 1096.49,646.864 1095.35,650.611 1094.62,654.315 1094.3,657.935 1094.37,661.431 1094.79,664.765 1095.54,667.905 1096.59,670.82 1097.92,673.485 1099.47,675.877 1101.23,677.98 1103.14,679.779 1105.17,681.268 1105.01,681.27 1102.67,680.333 1100.12,679.664 1097.41,679.291 1094.55,679.238 1091.58,679.528 1088.54,680.179 1085.47,681.205 1082.41,682.616 1079.41,684.416 1076.5,686.608 1073.73,689.186 1071.15,692.142 1068.8,695.461 1066.72,699.124 1064.95,703.107 1063.53,707.383 1062.51,711.917 1061.89,716.674 1061.73,721.612 1062.04,726.687 1062.84,731.853 1064.15,737.059 1065.98,742.255 1068.33,747.388 1071.2,752.405 1074.58,757.252 1078.47,761.875 1082.84,766.224 1087.67,770.247 1092.93,773.896 1098.59,777.127 1104.61,779.898 1110.94,782.17 1117.54,783.91 1124.36,785.09 1131.35,785.686 1138.44,785.679 1145.59,785.059 1152.72,783.818 1159.79,781.956 1166.73,779.479 1173.48,776.399 1179.99,772.734 1186.19,768.509 1192.05,763.751 1197.49,758.497 1202.49,752.786 1206.99,746.662 1210.97,740.173 1214.38,733.372 1217.2,726.314 1219.41,719.055 1220.99,711.656 1221.94,704.176 1222.25,696.677 1221.93,689.219 1220.97,681.862 "/>
<line clip-path="url(#clip942)" x1="1165.37" y1="591.609" x2="1149.37" y2="575.609" style="stroke:#808080; stroke-width:3.2; stroke-opacity:1"/>
<line clip-path="url(#clip942)" x1="1165.37" y1="591.609" x2="1149.37" y2="607.609" style="stroke:#808080; stroke-width:3.2; stroke-opacity:1"/>
<line clip-path="url(#clip942)" x1="1165.37" y1="591.609" x2="1181.37" y2="607.609" style="stroke:#808080; stroke-width:3.2; stroke-opacity:1"/>
<line clip-path="url(#clip942)" x1="1165.37" y1="591.609" x2="1181.37" y2="575.609" style="stroke:#808080; stroke-width:3.2; stroke-opacity:1"/>
<polyline clip-path="url(#clip942)" style="stroke:#808080; stroke-linecap:round; stroke-linejoin:round; stroke-width:4; stroke-opacity:1; fill:none" points="1165.37,591.609 1200.27,611.106 "/>
<polyline clip-path="url(#clip942)" style="stroke:#808080; stroke-linecap:round; stroke-linejoin:round; stroke-width:4; stroke-opacity:1; fill:none" points="1177.62,577.834 1200.27,611.106 1160.06,609.263 "/>
<polyline clip-path="url(#clip942)" style="stroke:#808080; stroke-linecap:round; stroke-linejoin:round; stroke-width:4; stroke-opacity:1; fill:none" points="1200.27,611.106 1165.37,591.609 "/>
<polyline clip-path="url(#clip942)" style="stroke:#808080; stroke-linecap:round; stroke-linejoin:round; stroke-width:4; stroke-opacity:1; fill:none" points="1690.63,676.467 1691.01,668.919 1690.76,661.342 1689.86,653.799 1688.32,646.349 1686.16,639.052 1683.4,631.969 1680.05,625.154 1676.14,618.662 1671.71,612.544 1666.8,606.847 1661.46,601.612 1655.72,596.878 1649.64,592.678 1643.28,589.038 1636.68,585.981 1629.92,583.521 1623.04,581.669 1616.11,580.428 1609.18,579.796 1602.32,579.764 1595.57,580.318 1589,581.438 1582.66,583.099 1576.59,585.27 1570.84,587.917 1565.45,591.002 1560.46,594.482 1555.89,598.31 1551.78,602.44 1548.14,606.822 1544.99,611.402 1542.34,616.131 1540.2,620.955 1538.55,625.822 1537.4,630.682 1536.74,635.485 1536.54,640.185 1536.78,644.736 1537.44,649.098 1538.5,653.232 1539.91,657.104 1541.64,660.686 1543.65,663.95 1545.9,666.877 1548.35,669.45 1550.96,671.659 1553.68,673.496 1556.48,674.961 1559.3,676.056 1562.11,676.788 1564.87,677.171 1567.54,677.22 1570.09,676.954 1572.01,676.537 1569.68,677.401 1567.39,678.594 1565.16,680.119 1563.05,681.973 1561.09,684.149 1559.32,686.635 1557.77,689.416 1556.49,692.471 1555.52,695.775 1554.87,699.299 1554.59,703.011 1554.69,706.873 1555.21,710.847 1556.15,714.889 1557.54,718.955 1559.38,722.997 1561.68,726.969 1564.43,730.821 1567.63,734.503 1571.27,737.968 1575.33,741.167 1579.78,744.054 1584.61,746.584 1589.78,748.717 1595.24,750.413 1600.97,751.639 1606.91,752.363 1613.02,752.559 1619.24,752.207 1625.53,751.29 1631.82,749.799 1638.07,747.729 1644.21,745.081 1650.18,741.863 1655.94,738.087 1661.42,733.773 1666.57,728.946 1671.34,723.635 1675.68,717.877 1679.56,711.711 1682.92,705.182 1685.74,698.34 1687.98,691.236 1689.61,683.925 1690.63,676.467 "/>
<line clip-path="url(#clip942)" x1="1631.45" y1="586.213" x2="1615.45" y2="570.213" style="stroke:#808080; stroke-width:3.2; stroke-opacity:1"/>
<line clip-path="url(#clip942)" x1="1631.45" y1="586.213" x2="1615.45" y2="602.213" style="stroke:#808080; stroke-width:3.2; stroke-opacity:1"/>
<line clip-path="url(#clip942)" x1="1631.45" y1="586.213" x2="1647.45" y2="602.213" style="stroke:#808080; stroke-width:3.2; stroke-opacity:1"/>
<line clip-path="url(#clip942)" x1="1631.45" y1="586.213" x2="1647.45" y2="570.213" style="stroke:#808080; stroke-width:3.2; stroke-opacity:1"/>
<polyline clip-path="url(#clip942)" style="stroke:#808080; stroke-linecap:round; stroke-linejoin:round; stroke-width:4; stroke-opacity:1; fill:none" points="1631.45,586.213 1669.89,575.203 "/>
<polyline clip-path="url(#clip942)" style="stroke:#808080; stroke-linecap:round; stroke-linejoin:round; stroke-width:4; stroke-opacity:1; fill:none" points="1630.32,567.814 1669.89,575.203 1640.24,602.422 "/>
<polyline clip-path="url(#clip942)" style="stroke:#808080; stroke-linecap:round; stroke-linejoin:round; stroke-width:4; stroke-opacity:1; fill:none" points="1669.89,575.203 1631.45,586.213 "/>
<polyline clip-path="url(#clip942)" style="stroke:#808080; stroke-linecap:round; stroke-linejoin:round; stroke-width:4; stroke-opacity:1; fill:none" points="632.15,1366.51 1831.49,1366.51 1831.49,167.178 632.15,167.178 632.15,1366.51 "/>
<polyline clip-path="url(#clip942)" style="stroke:#000000; stroke-linecap:round; stroke-linejoin:round; stroke-width:4; stroke-opacity:1; fill:none" stroke-dasharray="16, 10" points="332.316,1366.51 344.328,1366.51 356.339,1366.51 368.351,1366.51 380.362,1366.51 392.374,1366.51 404.385,1366.51 416.397,1366.51 428.408,1366.51 440.42,1366.51 452.431,1366.51 464.443,1366.51 476.454,1366.51 488.466,1366.51 500.477,1366.51 512.489,1366.51 524.501,1366.51 536.512,1366.51 548.524,1366.51 560.535,1366.51 572.547,1366.51 584.558,1366.51 596.57,1366.51 608.581,1366.51 620.593,1366.51 632.604,1366.51 644.593,1365.87 656.458,1364.03 668.079,1361.01 679.339,1356.84 690.127,1351.57 700.334,1345.25 709.865,1337.95 719.127,1330.3 728.388,1322.65 737.649,1315 746.91,1307.35 756.172,1299.7 765.433,1292.05 774.694,1284.4 783.956,1276.75 793.217,1269.1 802.478,1261.46 811.739,1253.81 821.001,1246.16 830.262,1238.51 839.523,1230.86 848.784,1223.21 858.046,1215.56 867.307,1207.91 876.568,1200.26 885.83,1192.62 895.091,1184.97 904.352,1177.32 913.613,1169.67 922.875,1162.02 932.136,1154.37 941.397,1146.72 950.658,1139.07 959.92,1131.42 969.36,1124 979.463,1117.52 990.165,1112.07 1001.36,1107.72 1012.69,1103.76 1023.63,1098.81 1034.49,1093.67 1045.35,1088.54 1056.21,1083.41 1067.07,1078.27 1077.93,1073.14 1088.79,1068 1099.64,1062.87 1110.5,1057.73 1121.36,1052.6 1132.22,1047.46 1143.08,1042.33 1153.94,1037.2 1164.8,1032.06 1175.66,1026.94 1186.08,1020.98 1195.86,1014 1204.88,1006.09 1213.07,997.306 1220.34,987.752 1226.71,977.568 1232.89,967.27 1239.07,956.972 1245.26,946.674 1251.44,936.376 1257.62,926.078 1263.81,915.78 1269.99,905.482 1276.17,895.184 1282.35,884.886 1288.54,874.588 1294.72,864.29 1300.9,853.992 1307.09,843.694 1313.27,833.396 1319.45,823.098 1325.63,812.799 1331.82,802.501 1338,792.203 1344.18,781.905 1350.37,771.607 1356.55,761.309 1362.73,751.011 1368.91,740.713 1375.1,730.415 1381.28,720.117 1387.46,709.819 1393.65,699.521 1399.83,689.223 1406.01,678.925 1412.19,668.627 1418.38,658.329 1424.54,648.018 1429.97,637.314 1434.31,626.119 1437.51,614.546 1439.54,602.712 1440.39,590.735 1440.81,578.731 1441.23,566.727 1441.65,554.722 1441.35,542.719 1439.97,530.79 1439.23,518.806 1439.69,506.808 1441.34,494.917 1444.18,483.25 1448.17,471.926 1453.27,461.057 1459.43,450.753 1466.6,441.117 1474.26,431.868 1481.92,422.62 1489.59,413.371 1497.25,404.123 1504.92,394.874 1512.58,385.626 1520.25,376.377 1527.91,367.129 1535.5,357.82 1542.3,347.924 1548.12,337.418 1554.3,327.127 1561.48,317.506 1569.59,308.65 1578.54,300.65 1588.25,293.586 1598.5,287.322 1608.79,281.129 1619.08,274.937 1629.38,268.745 1639.67,262.552 1649.96,256.36 1660.25,250.167 1670.55,243.975 1680.84,237.783 1691.13,231.59 1701.42,225.398 1711.71,219.205 1722.01,213.013 1732.3,206.821 1742.59,200.628 1752.88,194.436 1763.18,188.243 1773.51,182.122 1784.3,176.851 1795.56,172.686 1807.18,169.667 1819.04,167.825 1831.03,167.179 1843.04,167.178 1855.06,167.178 1867.07,167.178 1879.08,167.178 1891.09,167.178 1903.1,167.178 1915.11,167.178 1927.12,167.178 1939.14,167.178 1951.15,167.178 1963.16,167.178 1975.17,167.178 1987.18,167.178 1999.19,167.178 2011.21,167.178 2023.22,167.178 2035.23,167.178 2047.24,167.178 2059.25,167.178 2071.26,167.178 2083.27,167.178 2095.29,167.178 2107.3,167.178 2119.31,167.178 2131.32,167.178 "/>
<polyline clip-path="url(#clip942)" style="stroke:#008000; stroke-linecap:round; stroke-linejoin:round; stroke-width:4; stroke-opacity:1; fill:none" stroke-dasharray="16, 10" points="272.349,1426.48 284.361,1426.48 296.372,1426.48 308.384,1426.48 320.395,1426.48 332.407,1426.48 344.418,1426.48 356.43,1426.48 368.441,1426.48 380.453,1426.48 392.465,1426.48 404.476,1426.48 416.488,1426.48 428.499,1426.48 440.511,1426.48 452.522,1426.48 464.534,1426.48 476.545,1426.48 488.557,1426.48 500.568,1426.48 512.58,1426.48 524.591,1426.48 536.603,1426.48 548.614,1426.48 560.626,1426.48 572.637,1426.48 584.649,1426.48 596.661,1426.48 608.672,1426.48 620.684,1426.48 632.968,1426.48 650.951,1425.5 668.745,1422.72 686.173,1418.18 703.059,1411.92 719.235,1404 734.538,1394.5 748.122,1384.12 757.383,1376.47 766.645,1368.83 775.906,1361.18 785.167,1353.53 794.428,1345.88 803.69,1338.23 812.951,1330.58 822.212,1322.93 831.473,1315.28 840.735,1307.63 849.996,1299.99 859.257,1292.34 868.519,1284.69 877.78,1277.04 887.041,1269.39 896.302,1261.74 905.564,1254.09 914.825,1246.44 924.086,1238.79 933.348,1231.15 942.609,1223.5 951.87,1215.85 961.131,1208.2 970.393,1200.55 979.654,1192.9 988.915,1185.25 998.176,1177.6 1004.28,1172.75 1009.34,1169.51 1014.69,1166.79 1020.29,1164.63 1035.25,1159.32 1049.35,1152.98 1060.21,1147.85 1071.06,1142.71 1081.92,1137.58 1092.78,1132.44 1103.64,1127.31 1114.5,1122.18 1125.36,1117.04 1136.22,1111.91 1147.08,1106.77 1157.94,1101.64 1168.79,1096.5 1179.65,1091.37 1190.51,1086.23 1202.92,1080.35 1218.54,1071.4 1233.2,1060.93 1246.73,1049.04 1259,1035.86 1269.9,1021.52 1278.17,1008.36 1284.35,998.059 1290.53,987.761 1296.72,977.463 1302.9,967.165 1309.08,956.867 1315.26,946.569 1321.45,936.271 1327.63,925.973 1333.81,915.675 1340,905.377 1346.18,895.079 1352.36,884.781 1358.54,874.483 1364.73,864.185 1370.91,853.887 1377.09,843.589 1383.28,833.291 1389.46,822.993 1395.64,812.695 1401.82,802.397 1408.01,792.099 1414.19,781.801 1420.37,771.503 1426.56,761.205 1432.74,750.907 1438.92,740.609 1445.1,730.311 1451.29,720.013 1457.47,709.715 1463.65,699.417 1469.84,689.119 1476.64,677.7 1484.79,661.637 1491.28,644.84 1496.07,627.478 1499.1,609.724 1500.32,592.749 1500.74,580.744 1501.16,568.74 1501.6,556.101 1501.14,538.097 1499.56,524.044 1499.19,518.052 1499.42,512.054 1500.26,506.108 1501.68,500.276 1503.68,494.615 1506.23,489.183 1509.32,484.033 1512.9,479.218 1520.49,470.062 1528.16,460.814 1535.82,451.565 1543.48,442.317 1551.15,433.069 1558.81,423.82 1566.48,414.572 1574.14,405.323 1583.25,394.098 1593.44,379.246 1601.02,365.654 1604.12,360.511 1607.71,355.703 1611.77,351.278 1616.25,347.282 1621.1,343.753 1629.49,338.659 1639.78,332.466 1650.08,326.274 1660.37,320.081 1670.66,313.889 1680.95,307.697 1691.25,301.504 1701.54,295.312 1711.83,289.119 1722.12,282.927 1732.42,276.734 1742.71,270.542 1753,264.35 1763.29,258.157 1773.58,251.965 1783.88,245.772 1794.17,239.58 1802.54,234.595 1807.93,231.964 1813.57,229.885 1819.38,228.38 1825.31,227.463 1831.3,227.145 1843.13,227.145 1855.15,227.145 1867.16,227.145 1879.17,227.145 1891.18,227.145 1903.19,227.145 1915.2,227.145 1927.22,227.145 1939.23,227.145 1951.24,227.145 1963.25,227.145 1975.26,227.145 1987.27,227.145 1999.28,227.145 2011.3,227.145 2023.31,227.145 2035.32,227.145 2047.33,227.145 2059.34,227.145 2071.35,227.145 "/>
<polyline clip-path="url(#clip942)" style="stroke:#000000; stroke-linecap:round; stroke-linejoin:round; stroke-width:12; stroke-opacity:1; fill:none" points="332.316,1366.51 338.946,1366.51 345.575,1366.51 352.205,1366.51 358.834,1366.51 365.464,1366.51 372.093,1366.51 378.723,1366.51 385.352,1366.51 391.982,1366.51 398.611,1366.51 405.241,1366.51 411.87,1366.51 418.5,1366.51 425.129,1366.51 431.759,1366.51 438.388,1366.51 445.018,1366.51 451.647,1366.51 458.276,1366.51 464.906,1366.51 471.535,1366.51 478.165,1366.51 484.794,1366.51 491.424,1366.51 498.053,1366.51 504.683,1366.51 511.312,1366.51 517.942,1366.51 524.571,1366.51 531.201,1366.51 537.83,1366.51 544.46,1366.51 551.089,1366.51 557.719,1366.51 564.348,1366.51 570.978,1366.51 577.607,1366.51 584.237,1366.51 590.866,1366.51 597.496,1366.51 604.125,1366.51 610.755,1366.51 617.384,1366.51 624.014,1366.51 630.643,1366.51 637.271,1366.4 643.884,1365.94 650.46,1365.11 656.981,1363.92 663.425,1362.36 669.774,1360.46 676.008,1358.21 682.109,1355.61 688.056,1352.69 693.833,1349.44 699.421,1345.87 704.804,1342 709.975,1337.85 715.086,1333.63 720.198,1329.41 725.309,1325.19 730.421,1320.97 735.533,1316.75 740.644,1312.52 745.756,1308.3 750.867,1304.08 755.979,1299.86 761.09,1295.64 766.202,1291.42 771.313,1287.19 776.425,1282.97 781.537,1278.75 786.648,1274.53 791.76,1270.31 796.871,1266.09 801.983,1261.87 807.094,1257.64 812.206,1253.42 817.317,1249.2 822.429,1244.98 827.541,1240.76 832.652,1236.54 837.764,1232.31 842.875,1228.09 847.987,1223.87 853.098,1219.65 858.21,1215.43 863.321,1211.21 868.433,1206.98 873.545,1202.76 878.656,1198.54 883.768,1194.32 888.879,1190.1 893.991,1185.88 899.102,1181.65 904.214,1177.43 909.325,1173.21 914.437,1168.99 919.549,1164.77 924.66,1160.55 929.772,1156.32 934.883,1152.1 939.995,1147.88 945.106,1143.66 950.218,1139.44 955.329,1135.22 960.441,1130.99 965.587,1126.82 970.934,1122.9 976.488,1119.28 982.235,1115.98 988.155,1112.99 994.23,1110.34 1000.44,1108.03 1006.74,1105.97 1012.95,1103.65 1019.02,1100.99 1025.02,1098.15 1031.01,1095.32 1037,1092.49 1043,1089.65 1048.99,1086.82 1054.98,1083.98 1060.98,1081.15 1066.97,1078.32 1072.96,1075.48 1078.96,1072.65 1084.95,1069.82 1090.94,1066.98 1096.94,1064.15 1102.93,1061.31 1108.92,1058.48 1114.92,1055.65 1120.91,1052.81 1126.9,1049.98 1132.9,1047.15 1138.89,1044.31 1144.88,1041.48 1150.88,1038.64 1156.87,1035.81 1162.86,1032.98 1168.86,1030.15 1174.86,1027.34 1180.71,1024.22 1186.38,1020.78 1191.85,1017.04 1197.1,1013 1202.13,1008.67 1206.9,1004.08 1211.42,999.225 1215.66,994.13 1219.61,988.808 1223.26,983.276 1226.69,977.6 1230.1,971.916 1233.51,966.232 1236.93,960.548 1240.34,954.865 1243.75,949.181 1247.16,943.497 1250.58,937.813 1253.99,932.13 1257.4,926.446 1260.81,920.762 1264.23,915.078 1267.64,909.395 1271.05,903.711 1274.46,898.027 1277.88,892.343 1281.29,886.66 1284.7,880.976 1288.11,875.292 1291.53,869.608 1294.94,863.925 1298.35,858.241 1301.76,852.557 1305.18,846.873 1308.59,841.189 1312,835.506 1315.41,829.822 1318.83,824.138 1322.24,818.454 1325.65,812.771 1329.06,807.087 1332.48,801.403 1335.89,795.719 1339.3,790.036 1342.71,784.352 1346.13,778.668 1349.54,772.984 1352.95,767.301 1356.36,761.617 1359.78,755.933 1363.19,750.249 1366.6,744.566 1370.01,738.882 1373.43,733.198 1376.84,727.514 1380.25,721.83 "/>
<polyline clip-path="url(#clip942)" style="stroke:#008000; stroke-linecap:round; stroke-linejoin:round; stroke-width:12; stroke-opacity:1; fill:none" points="272.349,1426.48 278.979,1426.48 285.608,1426.48 292.238,1426.48 298.867,1426.48 305.497,1426.48 312.126,1426.48 318.756,1426.48 325.385,1426.48 332.015,1426.48 338.644,1426.48 345.274,1426.48 351.903,1426.48 358.533,1426.48 365.162,1426.48 371.792,1426.48 378.421,1426.48 385.051,1426.48 391.68,1426.48 398.31,1426.48 404.939,1426.48 411.569,1426.48 418.198,1426.48 424.828,1426.48 431.457,1426.48 438.087,1426.48 444.716,1426.48 451.346,1426.48 457.975,1426.48 464.605,1426.48 471.234,1426.48 477.864,1426.48 484.493,1426.48 491.123,1426.48 497.752,1426.48 504.382,1426.48 511.011,1426.48 517.641,1426.48 524.27,1426.48 530.9,1426.48 537.529,1426.48 544.159,1426.48 550.788,1426.48 557.418,1426.48 564.047,1426.48 570.677,1426.48 577.306,1426.48 583.936,1426.48 590.565,1426.48 597.195,1426.48 603.824,1426.48 610.454,1426.48 617.083,1426.48 623.713,1426.48 630.342,1426.48 636.97,1426.39 643.584,1425.94 650.163,1425.13 656.688,1423.96 663.14,1422.44 669.5,1420.57 675.752,1418.37 681.88,1415.84 687.869,1413 693.704,1409.86 699.373,1406.42 704.864,1402.71 710.172,1398.74 715.439,1394.71 720.728,1390.71 726.034,1386.74 731.353,1382.78 736.683,1378.84 742.021,1374.91 747.364,1370.98 752.711,1367.06 758.058,1363.15 763.406,1359.23 768.753,1355.31 774.098,1351.39 779.439,1347.46 784.776,1343.53 790.108,1339.59 795.435,1335.64 800.665,1331.57 805.673,1327.22 810.436,1322.61 814.941,1317.75 819.172,1312.65 823.144,1307.34 826.942,1301.91 830.623,1296.4 834.224,1290.83 837.761,1285.22 841.299,1279.61 844.823,1274 848.39,1268.41 852.016,1262.86 855.728,1257.37 859.547,1251.95 863.459,1246.6 867.478,1241.33 871.745,1236.25 876.138,1231.29 880.789,1226.57 885.655,1222.06 890.697,1217.76 895.883,1213.63 901.188,1209.66 906.589,1205.81 912.069,1202.08 917.611,1198.44 923.204,1194.88 928.836,1191.39 934.499,1187.94 940.185,1184.53 945.888,1181.15 951.627,1177.83 957.522,1174.8 963.571,1172.09 969.749,1169.69 976.039,1167.59 982.421,1165.8 988.879,1164.31 995.388,1163.05 1001.84,1161.54 1008.2,1159.67 1014.5,1157.6 1020.78,1155.47 1027.04,1153.29 1033.29,1151.07 1039.52,1148.8 1045.73,1146.5 1051.93,1144.15 1058.12,1141.78 1064.3,1139.37 1070.46,1136.92 1076.61,1134.46 1082.76,1131.96 1088.89,1129.44 1095.01,1126.9 1101.12,1124.34 1107.23,1121.75 1113.33,1119.15 1119.42,1116.54 1125.5,1113.9 1131.58,1111.26 1137.65,1108.6 1143.72,1105.92 1149.78,1103.24 1155.84,1100.54 1161.89,1097.84 1167.95,1095.16 1173.87,1092.17 1179.62,1088.87 1185.18,1085.26 1190.55,1081.38 1195.73,1077.23 1200.69,1072.84 1205.44,1068.21 1209.97,1063.37 1214.27,1058.33 1218.35,1053.1 1222.25,1047.75 1226.2,1042.42 1230.18,1037.12 1234.2,1031.84 1238.24,1026.59 1242.3,1021.35 1246.37,1016.12 1250.45,1010.89 1254.53,1005.66 1258.6,1000.44 1262.68,995.203 1266.74,989.965 1270.79,984.718 1274.83,979.462 1278.86,974.195 1282.87,968.917 1286.86,963.627 1290.84,958.324 1294.8,953.008 1298.75,947.679 1302.67,942.337 1306.58,936.982 1310.47,931.614 1314.35,926.233 1318.2,920.84 1322.04,915.434 1325.86,910.016 1329.66,904.587 1333.45,899.146 1337.22,893.694 1340.94,888.203 1344.58,882.666 1348.23,877.131 1351.88,871.594 1355.52,866.057 1359.16,860.517 1362.8,854.975 "/>
<polyline clip-path="url(#clip942)" style="stroke:#0000ff; stroke-linecap:round; stroke-linejoin:round; stroke-width:12; stroke-opacity:1; fill:none" stroke-dasharray="48, 30" points="1362.8,854.975 1363.46,853.971 1364.12,852.967 1364.78,851.963 1365.44,850.958 1366.09,849.954 1366.75,848.949 1367.41,847.944 1368.07,846.939 1368.72,845.935 1369.38,844.929 1370.04,843.924 1370.7,842.919 1371.35,841.913 1372.01,840.908 1372.67,839.902 1373.32,838.896 1373.98,837.891 1374.63,836.885 1375.29,835.878 1375.94,834.872 1376.6,833.866 1377.25,832.859 1377.91,831.853 1378.56,830.846 1379.22,829.839 1379.87,828.832 1380.53,827.825 1381.18,826.817 1381.83,825.81 1382.49,824.802 1383.14,823.795 1383.79,822.787 1384.45,821.779 1385.1,820.771 1385.75,819.762 1386.4,818.754 1387.05,817.746 1387.71,816.737 1388.36,815.728 1389.01,814.719 1389.66,813.71 1390.31,812.701 1390.96,811.692 1391.61,810.682 1392.26,809.673 1392.91,808.663 1393.56,807.653 1394.21,806.643 1394.86,805.633 1395.51,804.623 1396.16,803.612 1396.81,802.602 1397.46,801.591 1398.1,800.58 1398.75,799.569 1399.4,798.558 1400.05,797.547 1400.7,796.536 1401.34,795.524 1401.99,794.513 1402.64,793.501 1403.28,792.489 1403.93,791.477 1404.58,790.465 1405.22,789.453 1405.87,788.44 1406.51,787.428 1407.16,786.415 1407.8,785.402 1408.45,784.389 1409.09,783.376 1409.74,782.363 1410.38,781.35 1411.03,780.336 1411.67,779.323 1412.32,778.309 1412.96,777.295 1413.6,776.282 1414.25,775.268 1414.89,774.253 1415.53,773.239 1416.18,772.225 1416.82,771.21 1417.46,770.196 1418.1,769.181 1418.74,768.166 1419.39,767.151 1420.03,766.136 1420.67,765.121 1421.31,764.105 1421.95,763.09 1422.59,762.074 1423.23,761.059 1423.87,760.043 1424.51,759.027 1425.15,758.011 1425.79,756.995 1426.43,755.978 1427.07,754.962 1427.71,753.946 1428.35,752.929 1428.99,751.912 1429.63,750.895 1430.27,749.879 1430.91,748.862 1431.55,747.844 1432.18,746.827 1432.82,745.81 1433.46,744.792 1434.1,743.775 1434.74,742.757 1435.37,741.74 1436.01,740.722 1436.65,739.704 1437.28,738.686 1437.92,737.668 1438.56,736.649 1439.19,735.631 1439.83,734.613 1440.47,733.594 1441.09,732.57 1441.71,731.539 1442.32,730.503 1442.91,729.46 1443.5,728.412 1444.07,727.359 1444.64,726.3 1445.2,725.235 1445.74,724.166 1446.28,723.091 1446.8,722.011 1447.32,720.927 1447.83,719.838 1448.32,718.745 1448.81,717.647 1449.29,716.545 1449.76,715.439 1450.21,714.329 1450.66,713.215 1451.1,712.098 1451.53,710.976 1451.95,709.851 1452.36,708.723 1452.76,707.591 1453.16,706.456 1453.54,705.318 1453.91,704.177 1454.28,703.032 1454.63,701.885 1454.98,700.736 1455.32,699.583 1455.64,698.428 1455.96,697.27 1456.27,696.11 1456.57,694.948 1456.87,693.783 1457.15,692.616 1457.43,691.447 1457.69,690.276 1457.95,689.103 1458.2,687.928 1458.44,686.752 1458.67,685.573 1458.89,684.393 1459.1,683.211 1459.31,682.028 1459.51,680.844 1459.7,679.658 1459.87,678.47 1460.05,677.282 1460.22,676.093 1460.39,674.905 1460.57,673.717 1460.74,672.529 1460.93,671.342 1461.11,670.156 1461.3,668.97 1461.49,667.784 1461.68,666.599 1461.88,665.414 1462.07,664.229 1462.27,663.045 1462.47,661.861 1462.68,660.677 1462.88,659.494 1463.09,658.311 1463.3,657.128 1463.5,655.946 1463.72,654.764 1463.93,653.582 1464.14,652.4 1464.36,651.218 1464.57,650.037 1464.79,648.856 1465.01,647.675 1465.23,646.495 1465.45,645.314 1465.67,644.134 1465.89,642.953 "/>
<polyline clip-path="url(#clip942)" style="stroke:#800080; stroke-linecap:round; stroke-linejoin:round; stroke-width:12; stroke-opacity:1; fill:none" stroke-dasharray="48, 30" points="1465.89,642.953 1466.62,638.657 1467.19,634.337 1467.6,629.999 1467.86,625.649 1467.95,621.293 1467.89,616.936 1467.67,612.584 1467.3,608.243 1466.76,603.918 1466.07,599.616 1465.22,595.342 1464.22,591.101 1463.07,586.9 1461.76,582.743 1460.35,578.62 1458.93,574.499 1457.52,570.377 1456.1,566.256 1454.69,562.134 1453.27,558.013 1451.86,553.891 1450.45,549.769 1449.13,545.616 1447.96,541.417 1446.95,537.179 1446.09,532.907 1445.39,528.606 1444.84,524.283 1444.46,519.943 1444.23,515.591 1444.15,511.235 1444.24,506.878 1444.48,502.527 1444.89,498.189 1445.45,493.867 1446.16,489.569 1447.04,485.3 1448.06,481.065 1449.24,476.87 1450.57,472.721 1452.05,468.623 1453.68,464.582 1455.46,460.602 1457.38,456.69 1459.44,452.85 1461.63,449.087 1463.97,445.406 1466.43,441.813 1469.02,438.311 1471.74,434.906 "/>
<polyline clip-path="url(#clip942)" style="stroke:#800080; stroke-linecap:round; stroke-linejoin:round; stroke-width:12; stroke-opacity:1; fill:none" stroke-dasharray="48, 30" points="1471.74,434.906 1473.3,433.032 1474.85,431.158 1476.4,429.284 1477.96,427.409 1479.51,425.535 1481.06,423.661 1482.61,421.787 1484.17,419.913 1485.72,418.039 1487.27,416.165 1488.83,414.291 1490.38,412.416 1491.93,410.542 1493.49,408.668 1495.04,406.794 1496.59,404.92 1498.15,403.046 1499.7,401.172 1501.25,399.297 1502.81,397.423 1504.36,395.549 1505.91,393.675 1507.47,391.801 1509.02,389.927 1510.57,388.053 1512.12,386.179 1513.68,384.304 1515.23,382.43 1516.78,380.556 1518.34,378.682 1519.89,376.808 1521.44,374.934 1523,373.06 1524.55,371.185 1526.1,369.311 1527.66,367.437 1529.21,365.563 1530.76,363.689 1532.32,361.815 1533.85,359.929 1535.35,358.012 1536.82,356.065 1538.24,354.09 1539.62,352.085 1540.96,350.053 1542.26,347.994 1543.51,345.91 1544.73,343.8 1545.9,341.666 1547.02,339.509 "/>
<polyline clip-path="url(#clip942)" style="stroke:#800080; stroke-linecap:round; stroke-linejoin:round; stroke-width:12; stroke-opacity:1; fill:none" stroke-dasharray="48, 30" points="1547.02,339.509 1550.27,333.556 1553.85,327.796 1557.75,322.248 1561.96,316.93 1566.46,311.857 1571.24,307.047 1576.29,302.516 1581.58,298.276 1587.11,294.343 1592.84,290.725 1598.66,287.228 1604.47,283.731 1610.28,280.234 1616.09,276.738 1621.9,273.241 1627.72,269.744 1633.53,266.247 1639.34,262.751 1645.15,259.254 1650.96,255.757 1656.77,252.26 1662.59,248.764 1668.4,245.267 1674.21,241.77 1680.02,238.273 1685.83,234.777 1691.65,231.28 1697.46,227.783 1703.27,224.286 1709.08,220.79 1714.89,217.293 1720.7,213.796 1726.52,210.299 1732.33,206.803 1738.14,203.306 1743.95,199.809 1749.76,196.312 1755.58,192.816 1761.39,189.319 1767.2,185.822 1773.04,182.381 1779.06,179.245 1785.24,176.454 1791.57,174.016 1798.02,171.941 1804.59,170.233 1811.24,168.9 1817.95,167.944 1824.71,167.369 1831.49,167.178 "/>
<polyline clip-path="url(#clip942)" style="stroke:#800080; stroke-linecap:round; stroke-linejoin:round; stroke-width:12; stroke-opacity:1; fill:none" stroke-dasharray="48, 30" points="1831.49,167.178 1837.48,167.178 1843.48,167.178 1849.48,167.178 1855.47,167.178 1861.47,167.178 1867.47,167.178 1873.46,167.178 1879.46,167.178 1885.46,167.178 1891.45,167.178 1897.45,167.178 1903.45,167.178 1909.44,167.178 1915.44,167.178 1921.44,167.178 1927.43,167.178 1933.43,167.178 1939.43,167.178 1945.42,167.178 1951.42,167.178 1957.42,167.178 1963.41,167.178 1969.41,167.178 1975.41,167.178 1981.4,167.178 1987.4,167.178 1993.4,167.178 1999.39,167.178 2005.39,167.178 2011.39,167.178 2017.38,167.178 2023.38,167.178 2029.38,167.178 2035.37,167.178 2041.37,167.178 2047.37,167.178 2053.36,167.178 2059.36,167.178 2065.36,167.178 2071.35,167.178 2077.35,167.178 2083.35,167.178 2089.34,167.178 2095.34,167.178 2101.34,167.178 2107.33,167.178 2113.33,167.178 2119.33,167.178 2125.32,167.178 2131.32,167.178 "/>
<circle clip-path="url(#clip942)" cx="1380.25" cy="721.83" r="18" fill="#000000" fill-rule="evenodd" fill-opacity="1" stroke="none"/>
<polyline clip-path="url(#clip942)" style="stroke:#000000; stroke-linecap:round; stroke-linejoin:round; stroke-width:12; stroke-opacity:1; fill:none" points="1380.25,721.83 1441.99,619.006 "/>
<polyline clip-path="url(#clip942)" style="stroke:#000000; stroke-linecap:round; stroke-linejoin:round; stroke-width:12; stroke-opacity:1; fill:none" points="1408.02,640.605 1441.99,619.006 1438.89,659.136 "/>
<polyline clip-path="url(#clip942)" style="stroke:#000000; stroke-linecap:round; stroke-linejoin:round; stroke-width:12; stroke-opacity:1; fill:none" points="1441.99,619.006 1380.25,721.83 "/>
<circle clip-path="url(#clip942)" cx="1362.8" cy="854.975" r="18" fill="#008000" fill-rule="evenodd" fill-opacity="1" stroke="#000000" stroke-opacity="1" stroke-width="3.2"/>
<polyline clip-path="url(#clip942)" style="stroke:#008000; stroke-linecap:round; stroke-linejoin:round; stroke-width:12; stroke-opacity:1; fill:none" points="1362.8,854.975 1428.59,754.694 "/>
<polyline clip-path="url(#clip942)" style="stroke:#008000; stroke-linecap:round; stroke-linejoin:round; stroke-width:12; stroke-opacity:1; fill:none" points="1393.79,774.922 1428.59,754.694 1423.89,794.668 "/>
<polyline clip-path="url(#clip942)" style="stroke:#008000; stroke-linecap:round; stroke-linejoin:round; stroke-width:12; stroke-opacity:1; fill:none" points="1428.59,754.694 1362.8,854.975 "/>
</svg>
