<?xml version="1.0" encoding="utf-8"?>
<svg xmlns="http://www.w3.org/2000/svg" xmlns:xlink="http://www.w3.org/1999/xlink" width="600" height="400" viewBox="0 0 2400 1600">
<defs>
  <clipPath id="clip980">
    <rect x="0" y="0" width="2400" height="1600"/>
  </clipPath>
</defs>
<path clip-path="url(#clip980)" d="M0 1600 L2400 1600 L2400 0 L0 0  Z" fill="#ffffff" fill-rule="evenodd" fill-opacity="1"/>
<defs>
  <clipPath id="clip981">
    <rect x="480" y="0" width="1681" height="1600"/>
  </clipPath>
</defs>
<path clip-path="url(#clip980)" d="M152.416 1486.45 L2311.22 1486.45 L2311.22 47.2441 L152.416 47.2441  Z" fill="#ffffff" fill-rule="evenodd" fill-opacity="1"/>
<defs>
  <clipPath id="clip982">
    <rect x="152" y="47" width="2160" height="1440"/>
  </clipPath>
</defs>
<polyline clip-path="url(#clip982)" style="stroke:#808080; stroke-linecap:round; stroke-linejoin:round; stroke-width:4; stroke-opacity:1; fill:none" points="672.466,953.044 669.054,949.439 665.426,946.268 661.631,943.543 657.716,941.269 653.732,939.448 649.725,938.075 645.743,937.142 641.829,936.634 638.026,936.533 634.374,936.817 630.907,937.46 627.66,938.431 624.661,939.699 621.934,941.229 619.499,942.983 617.373,944.924 615.567,947.013 614.087,949.209 612.935,951.475 612.564,952.308 613.107,949.864 613.354,947.267 613.283,944.548 612.874,941.743 612.111,938.888 610.982,936.022 609.48,933.187 607.602,930.425 605.35,927.778 602.73,925.291 599.754,923.007 596.437,920.966 592.802,919.21 588.873,917.778 584.68,916.705 580.259,916.026 575.647,915.769 570.886,915.96 566.021,916.622 561.098,917.77 556.169,919.417 551.283,921.569 546.492,924.228 541.851,927.389 537.409,931.044 533.221,935.175 529.334,939.763 525.799,944.781 522.659,950.197 519.959,955.976 517.737,962.077 516.027,968.454 514.86,975.059 514.262,981.841 514.251,988.744 514.842,995.711 516.044,1002.69 517.86,1009.61 520.285,1016.42 523.309,1023.05 526.918,1029.46 531.09,1035.59 535.796,1041.37 541.006,1046.77 546.68,1051.73 552.776,1056.2 559.247,1060.16 566.043,1063.56 573.11,1066.38 580.39,1068.59 587.827,1070.18 595.358,1071.13 602.923,1071.43 610.462,1071.1 617.913,1070.14 625.218,1068.56 632.318,1066.37 639.158,1063.61 645.687,1060.3 651.855,1056.49 657.617,1052.2 662.934,1047.48 667.77,1042.39 672.095,1036.96 675.885,1031.27 679.119,1025.35 681.786,1019.26 683.878,1013.08 685.394,1006.84 686.337,1000.6 686.72,994.43 686.556,988.373 685.868,982.482 684.681,976.804 683.026,971.385 680.937,966.266 678.453,961.482 675.614,957.065 672.466,953.044 "/>
<line clip-path="url(#clip982)" x1="720.141" y1="947.656" x2="704.141" y2="931.656" style="stroke:#808080; stroke-width:3.2; stroke-opacity:1"/>
<line clip-path="url(#clip982)" x1="720.141" y1="947.656" x2="704.141" y2="963.656" style="stroke:#808080; stroke-width:3.2; stroke-opacity:1"/>
<line clip-path="url(#clip982)" x1="720.141" y1="947.656" x2="736.141" y2="963.656" style="stroke:#808080; stroke-width:3.2; stroke-opacity:1"/>
<line clip-path="url(#clip982)" x1="720.141" y1="947.656" x2="736.141" y2="931.656" style="stroke:#808080; stroke-width:3.2; stroke-opacity:1"/>
<polyline clip-path="url(#clip982)" style="stroke:#808080; stroke-linecap:round; stroke-linejoin:round; stroke-width:4; stroke-opacity:1; fill:none" points="720.141,947.656 707.507,985.585 "/>
<polyline clip-path="url(#clip982)" style="stroke:#808080; stroke-linecap:round; stroke-linejoin:round; stroke-width:4; stroke-opacity:1; fill:none" points="735.962,957.119 707.507,985.585 701.806,945.742 "/>
<polyline clip-path="url(#clip982)" style="stroke:#808080; stroke-linecap:round; stroke-linejoin:round; stroke-width:4; stroke-opacity:1; fill:none" points="707.507,985.585 720.141,947.656 "/>
<polyline clip-path="url(#clip982)" style="stroke:#808080; stroke-linecap:round; stroke-linejoin:round; stroke-width:4; stroke-opacity:1; fill:none" points="1370.52,274.594 1372.93,268.552 1374.83,262.217 1376.19,255.64 1376.99,248.87 1377.2,241.962 1376.82,234.971 1375.82,227.957 1374.21,220.978 1371.99,214.093 1369.16,207.362 1365.74,200.843 1361.75,194.594 1357.21,188.668 1352.16,183.117 1346.64,177.991 1340.67,173.335 1334.32,169.187 1327.63,165.585 1320.65,162.559 1313.44,160.133 1306.05,158.327 1298.55,157.154 1291,156.62 1283.46,156.727 1275.99,157.47 1268.64,158.836 1261.49,160.808 1254.57,163.363 1247.95,166.472 1241.68,170.102 1235.8,174.213 1230.35,178.764 1225.37,183.708 1220.89,188.994 1216.94,194.57 1213.54,200.383 1210.7,206.375 1208.43,212.491 1206.74,218.673 1205.61,224.864 1205.05,231.011 1205.03,237.058 1205.55,242.954 1206.57,248.651 1208.06,254.104 1210,259.27 1212.33,264.112 1215.04,268.597 1218.06,272.696 1221.36,276.387 1224.88,279.651 1228.59,282.476 1232.42,284.853 1236.34,286.781 1240.3,288.261 1244.24,289.303 1248.12,289.918 1251.91,290.124 1255.55,289.942 1259.02,289.398 1262.28,288.519 1265.3,287.338 1268.06,285.888 1270.53,284.207 1272.7,282.33 1274.55,280.298 1276.08,278.15 1277.29,275.924 1277.52,275.545 1276.91,277.984 1276.59,280.584 1276.59,283.314 1276.93,286.141 1277.62,289.027 1278.67,291.933 1280.1,294.819 1281.91,297.643 1284.1,300.36 1286.66,302.928 1289.58,305.304 1292.85,307.444 1296.44,309.308 1300.34,310.855 1304.52,312.05 1308.93,312.858 1313.55,313.248 1318.33,313.193 1323.22,312.67 1328.19,311.662 1333.18,310.154 1338.14,308.139 1343.01,305.615 1347.76,302.583 1352.31,299.052 1356.63,295.036 1360.66,290.555 1364.35,285.633 1367.65,280.301 1370.52,274.594 "/>
<line clip-path="url(#clip982)" x1="1385.65" y1="269.206" x2="1369.65" y2="253.206" style="stroke:#808080; stroke-width:3.2; stroke-opacity:1"/>
<line clip-path="url(#clip982)" x1="1385.65" y1="269.206" x2="1369.65" y2="285.206" style="stroke:#808080; stroke-width:3.2; stroke-opacity:1"/>
<line clip-path="url(#clip982)" x1="1385.65" y1="269.206" x2="1401.65" y2="285.206" style="stroke:#808080; stroke-width:3.2; stroke-opacity:1"/>
<line clip-path="url(#clip982)" x1="1385.65" y1="269.206" x2="1401.65" y2="253.206" style="stroke:#808080; stroke-width:3.2; stroke-opacity:1"/>
<polyline clip-path="url(#clip982)" style="stroke:#808080; stroke-linecap:round; stroke-linejoin:round; stroke-width:4; stroke-opacity:1; fill:none" points="1385.65,269.206 1399.71,231.782 "/>
<polyline clip-path="url(#clip982)" style="stroke:#808080; stroke-linecap:round; stroke-linejoin:round; stroke-width:4; stroke-opacity:1; fill:none" points="1370.2,259.153 1399.71,231.782 1403.9,271.813 "/>
<polyline clip-path="url(#clip982)" style="stroke:#808080; stroke-linecap:round; stroke-linejoin:round; stroke-width:4; stroke-opacity:1; fill:none" points="1399.71,231.782 1385.65,269.206 "/>
<polyline clip-path="url(#clip982)" style="stroke:#808080; stroke-linecap:round; stroke-linejoin:round; stroke-width:4; stroke-opacity:1; fill:none" points="1498.82,435.797 1495.41,432.787 1491.84,430.209 1488.15,428.067 1484.41,426.363 1480.65,425.091 1476.91,424.242 1473.25,423.801 1469.7,423.749 1466.3,424.065 1463.09,424.721 1460.1,425.689 1457.34,426.936 1454.86,428.428 1452.66,430.128 1450.75,431.999 1449.16,434.004 1448.21,435.488 1449.23,433.218 1449.98,430.74 1450.45,428.081 1450.6,425.27 1450.42,422.342 1449.89,419.331 1448.98,416.276 1447.69,413.22 1446.02,410.203 1443.95,407.269 1441.49,404.463 1438.66,401.829 1435.46,399.411 1431.9,397.252 1428.02,395.393 1423.84,393.872 1419.4,392.728 1414.71,391.993 1409.84,391.697 1404.81,391.865 1399.68,392.52 1394.49,393.678 1389.3,395.35 1384.15,397.542 1379.11,400.255 1374.22,403.485 1369.53,407.219 1365.11,411.443 1361,416.135 1357.24,421.266 1353.89,426.806 1350.99,432.716 1348.57,438.954 1346.68,445.476 1345.34,452.231 1344.58,459.167 1344.41,466.228 1344.86,473.356 1345.92,480.494 1347.6,487.58 1349.9,494.556 1352.81,501.362 1356.31,507.94 1360.38,514.233 1364.99,520.188 1370.1,525.753 1375.69,530.88 1381.7,535.527 1388.09,539.653 1394.81,543.227 1401.8,546.217 1409.01,548.603 1416.37,550.366 1423.84,551.496 1431.34,551.987 1438.82,551.842 1446.22,551.066 1453.47,549.675 1460.53,547.687 1467.33,545.128 1473.82,542.027 1479.96,538.42 1485.7,534.347 1491,529.851 1495.83,524.98 1500.16,519.785 1503.96,514.317 1507.22,508.632 1509.92,502.785 1512.06,496.833 1513.64,490.831 1514.65,484.836 1515.12,478.9 1515.06,473.078 1514.48,467.418 1513.42,461.967 1511.9,456.768 1509.97,451.862 1507.65,447.284 1504.99,443.063 1502.03,439.227 1498.82,435.797 "/>
<line clip-path="url(#clip982)" x1="1555.86" y1="430.409" x2="1539.86" y2="414.409" style="stroke:#808080; stroke-width:3.2; stroke-opacity:1"/>
<line clip-path="url(#clip982)" x1="1555.86" y1="430.409" x2="1539.86" y2="446.409" style="stroke:#808080; stroke-width:3.2; stroke-opacity:1"/>
<line clip-path="url(#clip982)" x1="1555.86" y1="430.409" x2="1571.86" y2="446.409" style="stroke:#808080; stroke-width:3.2; stroke-opacity:1"/>
<line clip-path="url(#clip982)" x1="1555.86" y1="430.409" x2="1571.86" y2="414.409" style="stroke:#808080; stroke-width:3.2; stroke-opacity:1"/>
<polyline clip-path="url(#clip982)" style="stroke:#808080; stroke-linecap:round; stroke-linejoin:round; stroke-width:4; stroke-opacity:1; fill:none" points="1555.86,430.409 1536.65,465.474 "/>
<polyline clip-path="url(#clip982)" style="stroke:#808080; stroke-linecap:round; stroke-linejoin:round; stroke-width:4; stroke-opacity:1; fill:none" points="1569.73,442.543 1536.65,465.474 1538.16,425.253 "/>
<polyline clip-path="url(#clip982)" style="stroke:#808080; stroke-linecap:round; stroke-linejoin:round; stroke-width:4; stroke-opacity:1; fill:none" points="1536.65,465.474 1555.86,430.409 "/>
<polyline clip-path="url(#clip982)" style="stroke:#808080; stroke-linecap:round; stroke-linejoin:round; stroke-width:4; stroke-opacity:1; fill:none" points="737.805,686.976 740.645,686.013 743.472,684.681 746.244,682.975 748.919,680.896 751.453,678.448 753.804,675.64 755.928,672.486 757.785,669.006 759.336,665.223 760.543,661.165 761.372,656.865 761.792,652.359 761.776,647.688 761.299,642.895 760.344,638.027 758.897,633.13 756.948,628.258 754.495,623.46 751.538,618.789 748.087,614.297 744.153,610.037 739.756,606.059 734.919,602.412 729.672,599.142 724.049,596.294 718.089,593.908 711.835,592.021 705.335,590.663 698.639,589.863 691.8,589.642 684.875,590.018 677.921,591 670.996,592.594 664.161,594.799 657.474,597.607 650.993,601.004 644.776,604.973 638.877,609.487 633.348,614.517 628.24,620.026 623.596,625.973 619.458,632.314 615.862,638.999 612.839,645.975 610.414,653.187 608.609,660.578 607.435,668.086 606.902,675.652 607.01,683.215 607.755,690.713 609.127,698.087 611.108,705.278 613.675,712.23 616.802,718.889 620.454,725.205 624.593,731.132 629.177,736.627 634.16,741.654 639.492,746.179 645.121,750.177 650.993,753.625 657.05,756.508 663.237,758.817 669.496,760.547 675.771,761.702 682.006,762.289 688.145,762.321 694.138,761.819 699.935,760.804 705.49,759.308 710.76,757.362 715.707,755.003 720.297,752.272 724.5,749.212 728.293,745.869 731.657,742.289 734.577,738.522 737.045,734.615 739.058,730.619 740.619,726.581 741.733,722.548 742.414,718.567 742.677,714.68 742.544,710.929 742.04,707.35 741.192,703.978 740.033,700.844 738.595,697.974 736.916,695.391 735.034,693.111 732.986,691.148 730.813,689.511 728.554,688.203 726.248,687.225 727.085,687.39 729.597,687.768 732.243,687.838 734.991,687.58 737.805,686.976 "/>
<line clip-path="url(#clip982)" x1="833.293" y1="681.588" x2="817.293" y2="665.588" style="stroke:#808080; stroke-width:3.2; stroke-opacity:1"/>
<line clip-path="url(#clip982)" x1="833.293" y1="681.588" x2="817.293" y2="697.588" style="stroke:#808080; stroke-width:3.2; stroke-opacity:1"/>
<line clip-path="url(#clip982)" x1="833.293" y1="681.588" x2="849.293" y2="697.588" style="stroke:#808080; stroke-width:3.2; stroke-opacity:1"/>
<line clip-path="url(#clip982)" x1="833.293" y1="681.588" x2="849.293" y2="665.588" style="stroke:#808080; stroke-width:3.2; stroke-opacity:1"/>
<polyline clip-path="url(#clip982)" style="stroke:#808080; stroke-linecap:round; stroke-linejoin:round; stroke-width:4; stroke-opacity:1; fill:none" points="833.293,681.588 795.06,669.907 "/>
<polyline clip-path="url(#clip982)" style="stroke:#808080; stroke-linecap:round; stroke-linejoin:round; stroke-width:4; stroke-opacity:1; fill:none" points="824.23,697.64 795.06,669.907 834.748,663.211 "/>
<polyline clip-path="url(#clip982)" style="stroke:#808080; stroke-linecap:round; stroke-linejoin:round; stroke-width:4; stroke-opacity:1; fill:none" points="795.06,669.907 833.293,681.588 "/>
<polyline clip-path="url(#clip982)" style="stroke:#808080; stroke-linecap:round; stroke-linejoin:round; stroke-width:4; stroke-opacity:1; fill:none" points="904.956,1370.28 901.986,1369.33 899.05,1368.74 896.186,1368.5 893.432,1368.6 890.82,1369.01 888.382,1369.7 887.738,1369.9 889.902,1368.63 891.977,1367.04 893.924,1365.14 895.706,1362.92 897.282,1360.42 898.618,1357.63 899.676,1354.6 900.426,1351.34 900.835,1347.88 900.877,1344.26 900.528,1340.52 899.768,1336.69 898.582,1332.82 896.958,1328.96 894.892,1325.15 892.381,1321.44 889.431,1317.88 886.049,1314.51 882.252,1311.39 878.059,1308.55 873.495,1306.05 868.589,1303.93 863.377,1302.22 857.897,1300.96 852.192,1300.18 846.308,1299.92 840.295,1300.18 834.205,1301 828.092,1302.38 822.012,1304.32 816.021,1306.84 810.175,1309.92 804.531,1313.55 799.144,1317.72 794.068,1322.41 789.354,1327.58 785.05,1333.2 781.202,1339.24 777.85,1345.64 775.032,1352.38 772.778,1359.38 771.117,1366.61 770.068,1373.99 769.646,1381.48 769.862,1389.02 770.718,1396.53 772.211,1403.97 774.331,1411.27 777.064,1418.37 780.387,1425.21 784.273,1431.75 788.691,1437.92 793.603,1443.68 798.965,1448.99 804.733,1453.8 810.856,1458.08 817.28,1461.81 823.95,1464.95 830.809,1467.49 837.797,1469.43 844.855,1470.74 851.923,1471.44 858.943,1471.53 865.856,1471.02 872.607,1469.93 879.143,1468.28 885.414,1466.11 891.372,1463.44 896.976,1460.32 902.186,1456.78 906.97,1452.87 911.299,1448.64 915.15,1444.14 918.505,1439.41 921.353,1434.52 923.687,1429.52 925.506,1424.45 926.816,1419.37 927.626,1414.34 927.951,1409.39 927.811,1404.58 927.231,1399.95 926.24,1395.54 924.87,1391.39 923.156,1387.52 921.136,1383.97 918.852,1380.77 916.344,1377.91 913.657,1375.43 910.835,1373.33 907.92,1371.62 904.956,1370.28 "/>
<line clip-path="url(#clip982)" x1="994.74" y1="1364.89" x2="978.74" y2="1348.89" style="stroke:#808080; stroke-width:3.2; stroke-opacity:1"/>
<line clip-path="url(#clip982)" x1="994.74" y1="1364.89" x2="978.74" y2="1380.89" style="stroke:#808080; stroke-width:3.2; stroke-opacity:1"/>
<line clip-path="url(#clip982)" x1="994.74" y1="1364.89" x2="1010.74" y2="1380.89" style="stroke:#808080; stroke-width:3.2; stroke-opacity:1"/>
<line clip-path="url(#clip982)" x1="994.74" y1="1364.89" x2="1010.74" y2="1348.89" style="stroke:#808080; stroke-width:3.2; stroke-opacity:1"/>
<polyline clip-path="url(#clip982)" style="stroke:#808080; stroke-linecap:round; stroke-linejoin:round; stroke-width:4; stroke-opacity:1; fill:none" points="994.74,1364.89 958.255,1381.24 "/>
<polyline clip-path="url(#clip982)" style="stroke:#808080; stroke-linecap:round; stroke-linejoin:round; stroke-width:4; stroke-opacity:1; fill:none" points="998.468,1382.95 958.255,1381.24 983.752,1350.09 "/>
<polyline clip-path="url(#clip982)" style="stroke:#808080; stroke-linecap:round; stroke-linejoin:round; stroke-width:4; stroke-opacity:1; fill:none" points="958.255,1381.24 994.74,1364.89 "/>
<polyline clip-path="url(#clip982)" style="stroke:#808080; stroke-linecap:round; stroke-linejoin:round; stroke-width:4; stroke-opacity:1; fill:none" points="1382.87,1137.15 1382.75,1129.54 1381.98,1121.97 1380.58,1114.5 1378.56,1107.18 1375.92,1100.08 1372.71,1093.25 1368.95,1086.74 1364.67,1080.61 1359.92,1074.9 1354.73,1069.65 1349.16,1064.9 1343.26,1060.67 1337.08,1057.01 1330.68,1053.91 1324.11,1051.41 1317.44,1049.51 1310.71,1048.21 1304,1047.5 1297.35,1047.39 1290.83,1047.84 1284.48,1048.85 1278.36,1050.38 1272.51,1052.4 1266.98,1054.89 1261.8,1057.8 1257.01,1061.08 1252.65,1064.7 1248.72,1068.61 1245.26,1072.75 1242.27,1077.07 1239.77,1081.53 1237.75,1086.08 1236.22,1090.65 1235.16,1095.21 1234.57,1099.71 1234.42,1104.09 1234.69,1108.32 1235.37,1112.37 1236.4,1116.18 1237.78,1119.74 1239.45,1123.01 1241.37,1125.97 1243.52,1128.59 1245.85,1130.88 1248.32,1132.82 1250.88,1134.39 1253.49,1135.61 1256.12,1136.48 1258.72,1137.01 1261.26,1137.2 1262.42,1137.21 1259.96,1137.64 1257.47,1138.41 1254.99,1139.52 1252.56,1140.97 1250.22,1142.76 1248.01,1144.9 1245.98,1147.37 1244.15,1150.16 1242.58,1153.25 1241.29,1156.62 1240.33,1160.24 1239.72,1164.08 1239.5,1168.1 1239.69,1172.27 1240.31,1176.55 1241.38,1180.88 1242.92,1185.23 1244.92,1189.55 1247.4,1193.78 1250.35,1197.87 1253.77,1201.78 1257.63,1205.46 1261.92,1208.85 1266.62,1211.91 1271.7,1214.6 1277.12,1216.87 1282.84,1218.69 1288.83,1220.02 1295.03,1220.83 1301.4,1221.1 1307.88,1220.8 1314.42,1219.92 1320.96,1218.45 1327.44,1216.39 1333.81,1213.74 1340.01,1210.52 1345.98,1206.72 1351.66,1202.38 1357.01,1197.52 1361.97,1192.18 1366.49,1186.38 1370.53,1180.17 1374.06,1173.6 1377.03,1166.72 1379.42,1159.57 1381.2,1152.22 1382.35,1144.73 1382.87,1137.15 "/>
<line clip-path="url(#clip982)" x1="1370.87" y1="1131.76" x2="1354.87" y2="1115.76" style="stroke:#808080; stroke-width:3.2; stroke-opacity:1"/>
<line clip-path="url(#clip982)" x1="1370.87" y1="1131.76" x2="1354.87" y2="1147.76" style="stroke:#808080; stroke-width:3.2; stroke-opacity:1"/>
<line clip-path="url(#clip982)" x1="1370.87" y1="1131.76" x2="1386.87" y2="1147.76" style="stroke:#808080; stroke-width:3.2; stroke-opacity:1"/>
<line clip-path="url(#clip982)" x1="1370.87" y1="1131.76" x2="1386.87" y2="1115.76" style="stroke:#808080; stroke-width:3.2; stroke-opacity:1"/>
<polyline clip-path="url(#clip982)" style="stroke:#808080; stroke-linecap:round; stroke-linejoin:round; stroke-width:4; stroke-opacity:1; fill:none" points="1370.87,1131.76 1410.72,1128.63 "/>
<polyline clip-path="url(#clip982)" style="stroke:#808080; stroke-linecap:round; stroke-linejoin:round; stroke-width:4; stroke-opacity:1; fill:none" points="1373.42,1113.5 1410.72,1128.63 1376.24,1149.39 "/>
<polyline clip-path="url(#clip982)" style="stroke:#808080; stroke-linecap:round; stroke-linejoin:round; stroke-width:4; stroke-opacity:1; fill:none" points="1410.72,1128.63 1370.87,1131.76 "/>
<polyline clip-path="url(#clip982)" style="stroke:#808080; stroke-linecap:round; stroke-linejoin:round; stroke-width:4; stroke-opacity:1; fill:none" points="910.525,1234.22 907.722,1233.63 904.985,1233.4 902.351,1233.48 899.854,1233.88 899.553,1233.88 901.863,1232.88 904.123,1231.56 906.296,1229.9 908.342,1227.91 910.22,1225.61 911.892,1223.01 913.321,1220.11 914.469,1216.96 915.304,1213.57 915.794,1209.97 915.91,1206.2 915.628,1202.3 914.928,1198.31 913.792,1194.27 912.21,1190.22 910.174,1186.21 907.682,1182.3 904.739,1178.53 901.351,1174.95 897.535,1171.61 893.308,1168.56 888.696,1165.83 883.727,1163.48 878.437,1161.55 872.863,1160.06 867.049,1159.07 861.04,1158.58 854.886,1158.63 848.64,1159.23 842.356,1160.41 836.089,1162.16 829.897,1164.49 823.836,1167.39 817.965,1170.86 812.338,1174.88 807.01,1179.43 802.033,1184.47 797.457,1189.99 793.328,1195.93 789.688,1202.26 786.576,1208.93 784.023,1215.9 782.058,1223.1 780.704,1230.48 779.976,1237.98 779.886,1245.55 780.438,1253.11 781.629,1260.62 783.453,1268.01 785.895,1275.21 788.934,1282.18 792.545,1288.86 796.697,1295.19 801.353,1301.12 806.472,1306.61 812.009,1311.63 817.915,1316.12 824.136,1320.07 830.619,1323.45 837.306,1326.24 844.139,1328.42 851.059,1330 858.006,1330.96 864.922,1331.32 871.749,1331.08 878.432,1330.26 884.916,1328.89 891.153,1326.99 897.094,1324.59 902.697,1321.74 907.923,1318.46 912.738,1314.81 917.113,1310.82 921.023,1306.56 924.452,1302.07 927.385,1297.41 929.816,1292.61 931.743,1287.75 933.169,1282.87 934.104,1278.01 934.562,1273.23 934.561,1268.58 934.126,1264.09 933.283,1259.81 932.064,1255.77 930.504,1252.01 928.639,1248.55 926.509,1245.42 924.156,1242.64 921.621,1240.21 918.948,1238.15 916.179,1236.47 913.358,1235.16 910.525,1234.22 "/>
<line clip-path="url(#clip982)" x1="1006.33" y1="1228.83" x2="990.334" y2="1212.83" style="stroke:#808080; stroke-width:3.2; stroke-opacity:1"/>
<line clip-path="url(#clip982)" x1="1006.33" y1="1228.83" x2="990.334" y2="1244.83" style="stroke:#808080; stroke-width:3.2; stroke-opacity:1"/>
<line clip-path="url(#clip982)" x1="1006.33" y1="1228.83" x2="1022.33" y2="1244.83" style="stroke:#808080; stroke-width:3.2; stroke-opacity:1"/>
<line clip-path="url(#clip982)" x1="1006.33" y1="1228.83" x2="1022.33" y2="1212.83" style="stroke:#808080; stroke-width:3.2; stroke-opacity:1"/>
<polyline clip-path="url(#clip982)" style="stroke:#808080; stroke-linecap:round; stroke-linejoin:round; stroke-width:4; stroke-opacity:1; fill:none" points="1006.33,1228.83 968.018,1240.24 "/>
<polyline clip-path="url(#clip982)" style="stroke:#808080; stroke-linecap:round; stroke-linejoin:round; stroke-width:4; stroke-opacity:1; fill:none" points="1007.66,1247.22 968.018,1240.24 997.386,1212.71 "/>
<polyline clip-path="url(#clip982)" style="stroke:#808080; stroke-linecap:round; stroke-linejoin:round; stroke-width:4; stroke-opacity:1; fill:none" points="968.018,1240.24 1006.33,1228.83 "/>
<polyline clip-path="url(#clip982)" style="stroke:#808080; stroke-linecap:round; stroke-linejoin:round; stroke-width:4; stroke-opacity:1; fill:none" points="1373.68,1047.04 1371.18,1040.72 1368.19,1034.74 1364.74,1029.12 1360.88,1023.92 1356.66,1019.17 1352.12,1014.88 1347.31,1011.09 1342.29,1007.81 1337.11,1005.06 1331.83,1002.83 1326.5,1001.13 1321.17,999.955 1315.89,999.291 1310.72,999.122 1305.69,999.427 1300.86,1000.18 1296.27,1001.36 1291.94,1002.92 1287.92,1004.82 1284.23,1007.04 1280.89,1009.53 1277.93,1012.24 1275.35,1015.13 1273.16,1018.16 1271.38,1021.28 1269.99,1024.44 1269,1027.61 1268.38,1030.74 1268.13,1033.79 1268.22,1036.73 1268.64,1039.51 1269.35,1042.12 1270.33,1044.52 1271.56,1046.69 1270.56,1045.42 1268.79,1043.57 1266.72,1041.89 1264.37,1040.4 1261.76,1039.15 1258.91,1038.17 1255.84,1037.49 1252.58,1037.14 1249.17,1037.14 1245.65,1037.52 1242.05,1038.31 1238.42,1039.5 1234.79,1041.12 1231.23,1043.17 1227.77,1045.64 1224.45,1048.54 1221.34,1051.86 1218.47,1055.57 1215.89,1059.66 1213.64,1064.11 1211.77,1068.88 1210.3,1073.95 1209.29,1079.26 1208.74,1084.78 1208.7,1090.47 1209.19,1096.27 1210.21,1102.13 1211.79,1108 1213.92,1113.82 1216.61,1119.54 1219.85,1125.11 1223.63,1130.45 1227.93,1135.54 1232.73,1140.3 1237.99,1144.69 1243.69,1148.66 1249.79,1152.18 1256.24,1155.19 1262.99,1157.66 1270,1159.56 1277.21,1160.88 1284.56,1161.58 1292,1161.65 1299.46,1161.09 1306.88,1159.89 1314.21,1158.06 1321.37,1155.61 1328.32,1152.56 1335,1148.92 1341.35,1144.73 1347.32,1140.01 1352.87,1134.82 1357.95,1129.19 1362.51,1123.16 1366.54,1116.8 1369.99,1110.15 1372.86,1103.27 1375.11,1096.22 1376.74,1089.06 1377.75,1081.84 1378.13,1074.63 1377.9,1067.49 1377.07,1060.47 1375.66,1053.64 1373.68,1047.04 "/>
<line clip-path="url(#clip982)" x1="1379.59" y1="1041.65" x2="1363.59" y2="1025.65" style="stroke:#808080; stroke-width:3.2; stroke-opacity:1"/>
<line clip-path="url(#clip982)" x1="1379.59" y1="1041.65" x2="1363.59" y2="1057.65" style="stroke:#808080; stroke-width:3.2; stroke-opacity:1"/>
<line clip-path="url(#clip982)" x1="1379.59" y1="1041.65" x2="1395.59" y2="1057.65" style="stroke:#808080; stroke-width:3.2; stroke-opacity:1"/>
<line clip-path="url(#clip982)" x1="1379.59" y1="1041.65" x2="1395.59" y2="1025.65" style="stroke:#808080; stroke-width:3.2; stroke-opacity:1"/>
<polyline clip-path="url(#clip982)" style="stroke:#808080; stroke-linecap:round; stroke-linejoin:round; stroke-width:4; stroke-opacity:1; fill:none" points="1379.59,1041.65 1402.1,1074.69 "/>
<polyline clip-path="url(#clip982)" style="stroke:#808080; stroke-linecap:round; stroke-linejoin:round; stroke-width:4; stroke-opacity:1; fill:none" points="1396.71,1034.8 1402.1,1074.69 1366.96,1055.07 "/>
<polyline clip-path="url(#clip982)" style="stroke:#808080; stroke-linecap:round; stroke-linejoin:round; stroke-width:4; stroke-opacity:1; fill:none" points="1402.1,1074.69 1379.59,1041.65 "/>
<polyline clip-path="url(#clip982)" style="stroke:#808080; stroke-linecap:round; stroke-linejoin:round; stroke-width:4; stroke-opacity:1; fill:none" points="1153.23,292.091 1156.43,289.542 1159.46,286.586 1162.27,283.235 1164.83,279.505 1167.09,275.419 1169,271.002 1170.54,266.286 1171.65,261.306 1172.32,256.103 1172.51,250.72 1172.2,245.203 1171.37,239.601 1170.01,233.968 1168.11,228.354 1165.66,222.817 1162.66,217.409 1159.14,212.187 1155.09,207.204 1150.55,202.513 1145.53,198.166 1140.07,194.21 1134.2,190.691 1127.97,187.65 1121.42,185.126 1114.6,183.15 1107.55,181.751 1100.35,180.951 1093.03,180.767 1085.67,181.209 1078.32,182.283 1071.04,183.988 1063.9,186.315 1056.95,189.252 1050.25,192.779 1043.86,196.87 1037.82,201.494 1032.2,206.616 1027.02,212.194 1022.35,218.184 1018.2,224.535 1014.61,231.195 1011.62,238.109 1009.23,245.22 1007.46,252.467 1006.32,259.79 1005.81,267.13 1005.93,274.426 1006.66,281.619 1008,288.652 1009.9,295.469 1012.36,302.018 1015.33,308.25 1018.79,314.12 1022.68,319.588 1026.96,324.616 1031.59,329.175 1036.51,333.238 1041.67,336.785 1047.02,339.802 1052.51,342.279 1058.07,344.214 1063.65,345.61 1069.2,346.474 1074.67,346.821 1080.01,346.668 1085.18,346.04 1090.12,344.965 1094.8,343.473 1099.19,341.602 1103.25,339.39 1106.95,336.877 1110.28,334.107 1113.22,331.126 1115.76,327.977 1117.88,324.708 1119.59,321.364 1120.89,317.991 1121.79,314.631 1122.31,311.327 1122.45,308.118 1122.24,305.042 1121.71,302.132 1120.87,299.418 1119.77,296.928 1118.43,294.685 1116.89,292.707 1117.49,293.202 1119.5,294.754 1121.78,296.104 1124.3,297.216 1127.05,298.057 1130,298.599 1133.11,298.812 1136.36,298.672 1139.71,298.158 1143.11,297.253 1146.53,295.945 1149.92,294.226 1153.23,292.091 "/>
<line clip-path="url(#clip982)" x1="1224.13" y1="286.703" x2="1208.13" y2="270.703" style="stroke:#808080; stroke-width:3.2; stroke-opacity:1"/>
<line clip-path="url(#clip982)" x1="1224.13" y1="286.703" x2="1208.13" y2="302.703" style="stroke:#808080; stroke-width:3.2; stroke-opacity:1"/>
<line clip-path="url(#clip982)" x1="1224.13" y1="286.703" x2="1240.13" y2="302.703" style="stroke:#808080; stroke-width:3.2; stroke-opacity:1"/>
<line clip-path="url(#clip982)" x1="1224.13" y1="286.703" x2="1240.13" y2="270.703" style="stroke:#808080; stroke-width:3.2; stroke-opacity:1"/>
<polyline clip-path="url(#clip982)" style="stroke:#808080; stroke-linecap:round; stroke-linejoin:round; stroke-width:4; stroke-opacity:1; fill:none" points="1224.13,286.703 1196.37,257.934 "/>
<polyline clip-path="url(#clip982)" style="stroke:#808080; stroke-linecap:round; stroke-linejoin:round; stroke-width:4; stroke-opacity:1; fill:none" points="1208.42,296.339 1196.37,257.934 1234.32,271.342 "/>
<polyline clip-path="url(#clip982)" style="stroke:#808080; stroke-linecap:round; stroke-linejoin:round; stroke-width:4; stroke-opacity:1; fill:none" points="1196.37,257.934 1224.13,286.703 "/>
<polyline clip-path="url(#clip982)" style="stroke:#808080; stroke-linecap:round; stroke-linejoin:round; stroke-width:4; stroke-opacity:1; fill:none" points="1636.51,332.352 1633.17,328.095 1629.55,324.267 1625.7,320.884 1621.66,317.961 1617.49,315.506 1613.24,313.52 1608.96,312.001 1604.68,310.941 1600.47,310.327 1596.37,310.142 1592.4,310.364 1588.63,310.967 1585.07,311.922 1581.76,313.196 1578.73,314.754 1576,316.559 1573.58,318.572 1571.5,320.754 1569.75,323.062 1568.34,325.458 1567.28,327.901 1566.55,330.352 1566.25,331.928 1566.34,329.44 1566.11,326.857 1565.55,324.212 1564.65,321.543 1563.38,318.89 1561.76,316.293 1559.78,313.794 1557.44,311.436 1554.76,309.259 1551.74,307.305 1548.41,305.615 1544.8,304.226 1540.92,303.175 1536.81,302.494 1532.52,302.214 1528.07,302.362 1523.51,302.958 1518.88,304.022 1514.24,305.565 1509.64,307.596 1505.11,310.118 1500.73,313.127 1496.53,316.615 1492.57,320.569 1488.89,324.97 1485.55,329.792 1482.6,335.006 1480.06,340.577 1477.99,346.466 1476.41,352.631 1475.37,359.023 1474.88,365.592 1474.96,372.284 1475.63,379.045 1476.9,385.816 1478.78,392.54 1481.25,399.158 1484.32,405.61 1487.96,411.841 1492.17,417.793 1496.9,423.412 1502.13,428.647 1507.83,433.45 1513.95,437.778 1520.44,441.589 1527.27,444.85 1534.36,447.53 1541.67,449.605 1549.13,451.056 1556.7,451.871 1564.3,452.044 1571.88,451.575 1579.37,450.468 1586.72,448.738 1593.87,446.4 1600.76,443.481 1607.33,440.009 1613.54,436.018 1619.35,431.548 1624.71,426.642 1629.58,421.349 1633.93,415.717 1637.74,409.802 1640.98,403.657 1643.65,397.341 1645.73,390.911 1647.23,384.423 1648.13,377.937 1648.46,371.509 1648.23,365.192 1647.46,359.039 1646.17,353.101 1644.39,347.422 1642.17,342.046 1639.53,337.012 1636.51,332.352 "/>
<line clip-path="url(#clip982)" x1="1674.01" y1="326.964" x2="1658.01" y2="310.964" style="stroke:#808080; stroke-width:3.2; stroke-opacity:1"/>
<line clip-path="url(#clip982)" x1="1674.01" y1="326.964" x2="1658.01" y2="342.964" style="stroke:#808080; stroke-width:3.2; stroke-opacity:1"/>
<line clip-path="url(#clip982)" x1="1674.01" y1="326.964" x2="1690.01" y2="342.964" style="stroke:#808080; stroke-width:3.2; stroke-opacity:1"/>
<line clip-path="url(#clip982)" x1="1674.01" y1="326.964" x2="1690.01" y2="310.964" style="stroke:#808080; stroke-width:3.2; stroke-opacity:1"/>
<polyline clip-path="url(#clip982)" style="stroke:#808080; stroke-linecap:round; stroke-linejoin:round; stroke-width:4; stroke-opacity:1; fill:none" points="1674.01,326.964 1669.13,366.644 "/>
<polyline clip-path="url(#clip982)" style="stroke:#808080; stroke-linecap:round; stroke-linejoin:round; stroke-width:4; stroke-opacity:1; fill:none" points="1691.39,333.106 1669.13,366.644 1655.66,328.718 "/>
<polyline clip-path="url(#clip982)" style="stroke:#808080; stroke-linecap:round; stroke-linejoin:round; stroke-width:4; stroke-opacity:1; fill:none" points="1669.13,366.644 1674.01,326.964 "/>
<polyline clip-path="url(#clip982)" style="stroke:#808080; stroke-linecap:round; stroke-linejoin:round; stroke-width:4; stroke-opacity:1; fill:none" points="1131.69,872.997 1128.77,867.37 1125.44,862.123 1121.73,857.29 1117.69,852.9 1113.37,848.977 1108.82,845.54 1104.09,842.601 1099.24,840.168 1094.31,838.242 1089.37,836.82 1084.45,835.893 1079.62,835.446 1074.9,835.461 1070.36,835.914 1066.03,836.778 1061.94,838.021 1058.12,839.608 1054.62,841.502 1051.44,843.664 1048.61,846.051 1046.15,848.623 1044.05,851.334 1042.34,854.143 1041,857.006 1040.03,859.881 1039.42,862.728 1039.16,865.509 1039.23,868.186 1039.61,870.728 1040.2,872.891 1039.23,870.61 1037.94,868.376 1036.33,866.228 1034.39,864.205 1032.13,862.347 1029.57,860.692 1026.73,859.278 1023.63,858.141 1020.29,857.314 1016.75,856.829 1013.04,856.714 1009.19,856.993 1005.25,857.688 1001.27,858.814 997.276,860.383 993.329,862.403 989.474,864.875 985.759,867.795 982.232,871.156 978.944,874.943 975.939,879.137 973.264,883.713 970.961,888.643 969.071,893.893 967.63,899.423 966.671,905.192 966.222,911.153 966.308,917.257 966.946,923.452 968.151,929.684 969.929,935.897 972.284,942.035 975.21,948.039 978.699,953.854 982.734,959.424 987.293,964.694 992.35,969.613 997.873,974.131 1003.82,978.201 1010.16,981.783 1016.83,984.837 1023.8,987.332 1030.99,989.239 1038.37,990.536 1045.87,991.206 1053.42,991.24 1060.98,990.632 1068.47,989.385 1075.84,987.506 1083.03,985.01 1089.98,981.918 1096.63,978.253 1102.93,974.049 1108.84,969.342 1114.31,964.173 1119.29,958.586 1123.75,952.633 1127.67,946.364 1131.01,939.835 1133.76,933.104 1135.91,926.228 1137.44,919.267 1138.36,912.28 1138.67,905.326 1138.38,898.463 1137.52,891.747 1136.09,885.231 1134.14,878.965 1131.69,872.997 "/>
<line clip-path="url(#clip982)" x1="1148.04" y1="867.61" x2="1132.04" y2="851.61" style="stroke:#808080; stroke-width:3.2; stroke-opacity:1"/>
<line clip-path="url(#clip982)" x1="1148.04" y1="867.61" x2="1132.04" y2="883.61" style="stroke:#808080; stroke-width:3.2; stroke-opacity:1"/>
<line clip-path="url(#clip982)" x1="1148.04" y1="867.61" x2="1164.04" y2="883.61" style="stroke:#808080; stroke-width:3.2; stroke-opacity:1"/>
<line clip-path="url(#clip982)" x1="1148.04" y1="867.61" x2="1164.04" y2="851.61" style="stroke:#808080; stroke-width:3.2; stroke-opacity:1"/>
<polyline clip-path="url(#clip982)" style="stroke:#808080; stroke-linecap:round; stroke-linejoin:round; stroke-width:4; stroke-opacity:1; fill:none" points="1148.04,867.61 1161,905.427 "/>
<polyline clip-path="url(#clip982)" style="stroke:#808080; stroke-linecap:round; stroke-linejoin:round; stroke-width:4; stroke-opacity:1; fill:none" points="1166.36,865.535 1161,905.427 1132.3,877.209 "/>
<polyline clip-path="url(#clip982)" style="stroke:#808080; stroke-linecap:round; stroke-linejoin:round; stroke-width:4; stroke-opacity:1; fill:none" points="1161,905.427 1148.04,867.61 "/>
<polyline clip-path="url(#clip982)" style="stroke:#808080; stroke-linecap:round; stroke-linejoin:round; stroke-width:4; stroke-opacity:1; fill:none" points="1402.31,955.116 1399.22,949.931 1395.74,945.146 1391.94,940.791 1387.86,936.891 1383.55,933.463 1379.05,930.52 1374.43,928.071 1369.74,926.116 1365.02,924.653 1360.32,923.672 1355.7,923.161 1351.19,923.1 1346.85,923.466 1342.71,924.232 1338.8,925.369 1335.16,926.841 1331.82,928.612 1328.79,930.643 1326.11,932.894 1323.77,935.323 1321.8,937.888 1320.19,940.546 1318.94,943.255 1318.05,945.976 1317.51,948.667 1317.31,951.292 1317.43,953.815 1317.38,954.007 1316.64,951.6 1315.57,949.205 1314.16,946.861 1312.41,944.609 1310.32,942.487 1307.92,940.537 1305.2,938.799 1302.19,937.309 1298.9,936.106 1295.38,935.223 1291.65,934.693 1287.73,934.543 1283.68,934.8 1279.54,935.484 1275.34,936.612 1271.13,938.197 1266.96,940.244 1262.89,942.756 1258.96,945.73 1255.21,949.158 1251.71,953.024 1248.49,957.311 1245.61,961.992 1243.1,967.04 1241.01,972.419 1239.37,978.091 1238.23,984.012 1237.6,990.136 1237.51,996.414 1237.98,1002.79 1239.03,1009.22 1240.67,1015.63 1242.89,1021.98 1245.69,1028.2 1249.06,1034.23 1252.99,1040.03 1257.46,1045.54 1262.43,1050.69 1267.89,1055.45 1273.78,1059.77 1280.07,1063.6 1286.71,1066.91 1293.65,1069.66 1300.84,1071.82 1308.21,1073.37 1315.72,1074.29 1323.31,1074.58 1330.9,1074.23 1338.44,1073.23 1345.87,1071.6 1353.13,1069.35 1360.17,1066.49 1366.91,1063.07 1373.33,1059.09 1379.35,1054.61 1384.94,1049.66 1390.06,1044.29 1394.67,1038.54 1398.75,1032.47 1402.25,1026.14 1405.18,1019.59 1407.51,1012.89 1409.23,1006.09 1410.35,999.257 1410.86,992.448 1410.79,985.718 1410.14,979.124 1408.94,972.718 1407.21,966.551 1404.99,960.669 1402.31,955.116 "/>
<line clip-path="url(#clip982)" x1="1425.42" y1="949.729" x2="1409.42" y2="933.729" style="stroke:#808080; stroke-width:3.2; stroke-opacity:1"/>
<line clip-path="url(#clip982)" x1="1425.42" y1="949.729" x2="1409.42" y2="965.729" style="stroke:#808080; stroke-width:3.2; stroke-opacity:1"/>
<line clip-path="url(#clip982)" x1="1425.42" y1="949.729" x2="1441.42" y2="965.729" style="stroke:#808080; stroke-width:3.2; stroke-opacity:1"/>
<line clip-path="url(#clip982)" x1="1425.42" y1="949.729" x2="1441.42" y2="933.729" style="stroke:#808080; stroke-width:3.2; stroke-opacity:1"/>
<polyline clip-path="url(#clip982)" style="stroke:#808080; stroke-linecap:round; stroke-linejoin:round; stroke-width:4; stroke-opacity:1; fill:none" points="1425.42,949.729 1432.46,989.083 "/>
<polyline clip-path="url(#clip982)" style="stroke:#808080; stroke-linecap:round; stroke-linejoin:round; stroke-width:4; stroke-opacity:1; fill:none" points="1443.84,950.478 1432.46,989.083 1408.4,956.812 "/>
<polyline clip-path="url(#clip982)" style="stroke:#808080; stroke-linecap:round; stroke-linejoin:round; stroke-width:4; stroke-opacity:1; fill:none" points="1432.46,989.083 1425.42,949.729 "/>
<polyline clip-path="url(#clip982)" style="stroke:#808080; stroke-linecap:round; stroke-linejoin:round; stroke-width:4; stroke-opacity:1; fill:none" points="1149.93,632.052 1149.79,624.446 1149.01,616.877 1147.59,609.408 1145.55,602.098 1142.9,595.005 1139.67,588.186 1135.9,581.692 1131.61,575.575 1126.84,569.879 1121.65,564.645 1116.07,559.911 1110.17,555.707 1103.99,552.06 1097.58,548.988 1091.02,546.506 1084.35,544.623 1077.63,543.34 1070.93,542.653 1064.29,542.553 1057.78,543.024 1051.45,544.045 1045.35,545.59 1039.52,547.629 1034,550.125 1028.85,553.04 1024.08,556.332 1019.73,559.954 1015.83,563.859 1012.39,567.998 1009.43,572.321 1006.95,576.775 1004.95,581.31 1003.44,585.876 1002.4,590.424 1001.83,594.905 1001.7,599.275 1001.99,603.491 1002.67,607.515 1003.72,611.31 1005.11,614.845 1006.78,618.093 1008.72,621.029 1010.87,623.637 1013.2,625.901 1015.66,627.813 1018.22,629.369 1020.83,630.569 1023.45,631.417 1026.04,631.923 1028.57,632.101 1029.18,632.14 1026.72,632.594 1024.22,633.38 1021.74,634.507 1019.31,635.98 1016.97,637.799 1014.76,639.959 1012.73,642.452 1010.91,645.263 1009.34,648.374 1008.07,651.763 1007.12,655.401 1006.53,659.259 1006.32,663.3 1006.53,667.485 1007.17,671.774 1008.26,676.121 1009.82,680.479 1011.84,684.801 1014.35,689.036 1017.32,693.134 1020.76,697.045 1024.64,700.719 1028.96,704.108 1033.68,707.165 1038.78,709.845 1044.22,712.107 1049.96,713.912 1055.96,715.227 1062.18,716.021 1068.56,716.27 1075.05,715.953 1081.6,715.055 1088.15,713.569 1094.64,711.49 1101.01,708.822 1107.21,705.574 1113.17,701.76 1118.85,697.401 1124.2,692.524 1129.15,687.16 1133.66,681.346 1137.69,675.124 1141.2,668.541 1144.15,661.645 1146.53,654.492 1148.29,647.136 1149.43,639.636 1149.93,632.052 "/>
<line clip-path="url(#clip982)" x1="1137.91" y1="626.665" x2="1121.91" y2="610.665" style="stroke:#808080; stroke-width:3.2; stroke-opacity:1"/>
<line clip-path="url(#clip982)" x1="1137.91" y1="626.665" x2="1121.91" y2="642.665" style="stroke:#808080; stroke-width:3.2; stroke-opacity:1"/>
<line clip-path="url(#clip982)" x1="1137.91" y1="626.665" x2="1153.91" y2="642.665" style="stroke:#808080; stroke-width:3.2; stroke-opacity:1"/>
<line clip-path="url(#clip982)" x1="1137.91" y1="626.665" x2="1153.91" y2="610.665" style="stroke:#808080; stroke-width:3.2; stroke-opacity:1"/>
<polyline clip-path="url(#clip982)" style="stroke:#808080; stroke-linecap:round; stroke-linejoin:round; stroke-width:4; stroke-opacity:1; fill:none" points="1137.91,626.665 1177.78,623.818 "/>
<polyline clip-path="url(#clip982)" style="stroke:#808080; stroke-linecap:round; stroke-linejoin:round; stroke-width:4; stroke-opacity:1; fill:none" points="1140.59,608.427 1177.78,623.818 1143.16,644.336 "/>
<polyline clip-path="url(#clip982)" style="stroke:#808080; stroke-linecap:round; stroke-linejoin:round; stroke-width:4; stroke-opacity:1; fill:none" points="1177.78,623.818 1137.91,626.665 "/>
<polyline clip-path="url(#clip982)" style="stroke:#808080; stroke-linecap:round; stroke-linejoin:round; stroke-width:4; stroke-opacity:1; fill:none" points="838.282,955.96 835.593,949.922 832.44,944.237 828.865,938.945 824.913,934.08 820.63,929.671 816.068,925.741 811.278,922.31 806.313,919.39 801.226,916.989 796.071,915.107 790.9,913.742 785.764,912.883 780.713,912.516 775.795,912.622 771.052,913.176 766.527,914.151 762.257,915.514 758.274,917.23 754.607,919.261 751.281,921.566 748.315,924.104 745.723,926.83 743.515,929.701 741.696,932.672 740.265,935.7 739.218,938.742 738.544,941.756 738.231,944.703 738.26,947.546 738.61,950.25 739.257,952.785 740.171,955.123 739.829,954.648 738.346,952.593 736.55,950.656 734.449,948.877 732.055,947.292 729.386,945.939 726.463,944.853 723.312,944.067 719.962,943.612 716.447,943.515 712.804,943.801 709.072,944.49 705.294,945.597 701.514,947.135 697.779,949.11 694.135,951.524 690.63,954.374 687.312,957.651 684.229,961.341 681.427,965.426 678.949,969.881 676.839,974.678 675.135,979.782 673.873,985.156 673.086,990.759 672.801,996.543 673.042,1002.46 673.826,1008.46 675.167,1014.49 677.072,1020.49 679.542,1026.41 682.573,1032.19 686.154,1037.77 690.271,1043.11 694.901,1048.14 700.017,1052.81 705.587,1057.08 711.572,1060.91 717.93,1064.24 724.615,1067.04 731.577,1069.28 738.762,1070.94 746.113,1071.98 753.573,1072.4 761.081,1072.19 768.576,1071.34 775.999,1069.85 783.287,1067.73 790.383,1065 797.227,1061.67 803.765,1057.79 809.946,1053.36 815.718,1048.44 821.04,1043.06 825.868,1037.28 830.17,1031.13 833.914,1024.68 837.077,1017.97 839.639,1011.07 841.588,1004.04 842.918,996.927 843.628,989.802 843.723,982.72 843.217,975.74 842.125,968.918 840.471,962.308 838.282,955.96 "/>
<line clip-path="url(#clip982)" x1="848.392" y1="950.572" x2="832.392" y2="934.572" style="stroke:#808080; stroke-width:3.2; stroke-opacity:1"/>
<line clip-path="url(#clip982)" x1="848.392" y1="950.572" x2="832.392" y2="966.572" style="stroke:#808080; stroke-width:3.2; stroke-opacity:1"/>
<line clip-path="url(#clip982)" x1="848.392" y1="950.572" x2="864.392" y2="966.572" style="stroke:#808080; stroke-width:3.2; stroke-opacity:1"/>
<line clip-path="url(#clip982)" x1="848.392" y1="950.572" x2="864.392" y2="934.572" style="stroke:#808080; stroke-width:3.2; stroke-opacity:1"/>
<polyline clip-path="url(#clip982)" style="stroke:#808080; stroke-linecap:round; stroke-linejoin:round; stroke-width:4; stroke-opacity:1; fill:none" points="848.392,950.572 867.01,985.95 "/>
<polyline clip-path="url(#clip982)" style="stroke:#808080; stroke-linecap:round; stroke-linejoin:round; stroke-width:4; stroke-opacity:1; fill:none" points="866.174,945.71 867.01,985.95 834.316,962.475 "/>
<polyline clip-path="url(#clip982)" style="stroke:#808080; stroke-linecap:round; stroke-linejoin:round; stroke-width:4; stroke-opacity:1; fill:none" points="867.01,985.95 848.392,950.572 "/>
<polyline clip-path="url(#clip982)" style="stroke:#808080; stroke-linecap:round; stroke-linejoin:round; stroke-width:4; stroke-opacity:1; fill:none" points="1053.29,915.647 1054.72,908.57 1055.56,901.329 1055.77,893.983 1055.35,886.589 1054.3,879.21 1052.62,871.905 1050.32,864.735 1047.4,857.759 1043.9,851.034 1039.83,844.617 1035.23,838.56 1030.13,832.912 1024.58,827.718 1018.61,823.02 1012.29,818.853 1005.65,815.248 998.77,812.231 991.69,809.82 984.475,808.03 977.185,806.867 969.88,806.334 962.62,806.424 955.463,807.127 948.468,808.426 941.689,810.299 935.178,812.718 928.983,815.65 923.15,819.057 917.718,822.899 912.724,827.13 908.198,831.702 904.166,836.565 900.647,841.665 897.655,846.949 895.198,852.363 893.28,857.852 891.898,863.362 891.042,868.839 890.699,874.234 890.85,879.496 891.471,884.581 892.534,889.445 894.007,894.048 895.855,898.357 898.039,902.34 900.518,905.971 903.248,909.229 906.185,912.098 909.284,914.566 912.499,916.627 915.785,918.281 919.097,919.53 922.392,920.383 925.628,920.854 928.766,920.959 931.771,920.72 934.608,920.16 937.247,919.308 939.663,918.193 941.833,916.849 942.979,915.989 941.254,917.788 939.702,919.87 938.358,922.221 937.258,924.82 936.434,927.645 935.916,930.668 935.733,933.857 935.909,937.178 936.464,940.594 937.415,944.064 938.774,947.545 940.55,950.993 942.746,954.363 945.359,957.609 948.383,960.683 951.805,963.539 955.608,966.133 959.77,968.422 964.264,970.362 969.058,971.916 974.115,973.048 979.396,973.725 984.856,973.92 990.45,973.609 996.125,972.774 1001.83,971.4 1007.52,969.48 1013.12,967.011 1018.59,963.997 1023.88,960.446 1028.92,956.374 1033.67,951.8 1038.07,946.752 1042.07,941.259 1045.63,935.359 1048.72,929.093 1051.28,922.506 1053.29,915.647 "/>
<line clip-path="url(#clip982)" x1="1051.17" y1="910.26" x2="1035.17" y2="894.26" style="stroke:#808080; stroke-width:3.2; stroke-opacity:1"/>
<line clip-path="url(#clip982)" x1="1051.17" y1="910.26" x2="1035.17" y2="926.26" style="stroke:#808080; stroke-width:3.2; stroke-opacity:1"/>
<line clip-path="url(#clip982)" x1="1051.17" y1="910.26" x2="1067.17" y2="926.26" style="stroke:#808080; stroke-width:3.2; stroke-opacity:1"/>
<line clip-path="url(#clip982)" x1="1051.17" y1="910.26" x2="1067.17" y2="894.26" style="stroke:#808080; stroke-width:3.2; stroke-opacity:1"/>
<polyline clip-path="url(#clip982)" style="stroke:#808080; stroke-linecap:round; stroke-linejoin:round; stroke-width:4; stroke-opacity:1; fill:none" points="1051.17,910.26 1081.31,884.004 "/>
<polyline clip-path="url(#clip982)" style="stroke:#808080; stroke-linecap:round; stroke-linejoin:round; stroke-width:4; stroke-opacity:1; fill:none" points="1042.34,894.074 1081.31,884.004 1065.99,921.221 "/>
<polyline clip-path="url(#clip982)" style="stroke:#808080; stroke-linecap:round; stroke-linejoin:round; stroke-width:4; stroke-opacity:1; fill:none" points="1081.31,884.004 1051.17,910.26 "/>
<polyline clip-path="url(#clip982)" style="stroke:#808080; stroke-linecap:round; stroke-linejoin:round; stroke-width:4; stroke-opacity:1; fill:none" points="1175.69,514.077 1178.72,509.472 1181.38,504.49 1183.63,499.164 1185.43,493.532 1186.76,487.636 1187.57,481.522 1187.84,475.239 1187.56,468.84 1186.7,462.378 1185.25,455.909 1183.22,449.492 1180.6,443.183 1177.41,437.041 1173.64,431.121 1169.34,425.481 1164.51,420.173 1159.2,415.247 1153.44,410.753 1147.26,406.734 1140.72,403.229 1133.86,400.274 1126.74,397.898 1119.4,396.127 1111.92,394.978 1104.35,394.464 1096.75,394.593 1089.18,395.365 1081.7,396.773 1074.38,398.806 1067.27,401.447 1060.42,404.671 1053.9,408.449 1047.75,412.746 1042.01,417.524 1036.74,422.738 1031.96,428.341 1027.71,434.282 1024.02,440.506 1020.9,446.959 1018.38,453.582 1016.46,460.317 1015.14,467.105 1014.42,473.888 1014.29,480.608 1014.75,487.209 1015.76,493.638 1017.3,499.844 1019.34,505.778 1021.85,511.398 1024.79,516.663 1028.11,521.539 1031.78,525.994 1035.73,530.004 1039.94,533.549 1044.33,536.614 1048.87,539.191 1053.49,541.277 1058.15,542.872 1062.81,543.985 1067.4,544.628 1071.89,544.819 1076.23,544.578 1080.38,543.932 1084.31,542.91 1087.97,541.547 1091.35,539.876 1094.42,537.937 1097.16,535.769 1099.56,533.414 1101.59,530.914 1103.27,528.31 1104.59,525.645 1105.54,522.96 1106.15,520.294 1106.42,517.685 1106.37,515.168 1106.48,515.407 1107.16,517.842 1108.18,520.273 1109.53,522.663 1111.22,524.97 1113.26,527.156 1115.62,529.178 1118.3,530.998 1121.28,532.576 1124.54,533.875 1128.05,534.859 1131.78,535.497 1135.7,535.758 1139.76,535.616 1143.94,535.049 1148.18,534.039 1152.45,532.572 1156.68,530.641 1160.84,528.241 1164.87,525.375 1168.72,522.049 1172.34,518.278 1175.69,514.077 "/>
<line clip-path="url(#clip982)" x1="1214.06" y1="508.69" x2="1198.06" y2="492.69" style="stroke:#808080; stroke-width:3.2; stroke-opacity:1"/>
<line clip-path="url(#clip982)" x1="1214.06" y1="508.69" x2="1198.06" y2="524.69" style="stroke:#808080; stroke-width:3.2; stroke-opacity:1"/>
<line clip-path="url(#clip982)" x1="1214.06" y1="508.69" x2="1230.06" y2="524.69" style="stroke:#808080; stroke-width:3.2; stroke-opacity:1"/>
<line clip-path="url(#clip982)" x1="1214.06" y1="508.69" x2="1230.06" y2="492.69" style="stroke:#808080; stroke-width:3.2; stroke-opacity:1"/>
<polyline clip-path="url(#clip982)" style="stroke:#808080; stroke-linecap:round; stroke-linejoin:round; stroke-width:4; stroke-opacity:1; fill:none" points="1214.06,508.69 1208.49,469.101 "/>
<polyline clip-path="url(#clip982)" style="stroke:#808080; stroke-linecap:round; stroke-linejoin:round; stroke-width:4; stroke-opacity:1; fill:none" points="1195.68,507.254 1208.49,469.101 1231.33,502.247 "/>
<polyline clip-path="url(#clip982)" style="stroke:#808080; stroke-linecap:round; stroke-linejoin:round; stroke-width:4; stroke-opacity:1; fill:none" points="1208.49,469.101 1214.06,508.69 "/>
<polyline clip-path="url(#clip982)" style="stroke:#808080; stroke-linecap:round; stroke-linejoin:round; stroke-width:4; stroke-opacity:1; fill:none" points="1350.57,1171.99 1351.64,1164.69 1352.09,1157.27 1351.9,1149.8 1351.08,1142.33 1349.62,1134.92 1347.53,1127.64 1344.83,1120.55 1341.53,1113.7 1337.67,1107.15 1333.26,1100.94 1328.35,1095.14 1322.98,1089.79 1317.19,1084.92 1311.03,1080.58 1304.56,1076.79 1297.83,1073.59 1290.89,1070.98 1283.81,1068.99 1276.65,1067.62 1269.46,1066.87 1262.31,1066.74 1255.25,1067.22 1248.34,1068.29 1241.64,1069.93 1235.19,1072.11 1229.05,1074.8 1223.26,1077.97 1217.85,1081.57 1212.88,1085.56 1208.36,1089.89 1204.32,1094.5 1200.78,1099.36 1197.76,1104.41 1195.26,1109.58 1193.28,1114.84 1191.83,1120.12 1190.89,1125.37 1190.46,1130.55 1190.51,1135.6 1191.01,1140.48 1191.95,1145.15 1193.29,1149.57 1195,1153.7 1197.03,1157.52 1199.35,1161 1201.91,1164.11 1204.68,1166.85 1207.6,1169.2 1210.63,1171.16 1213.73,1172.72 1216.86,1173.89 1219.97,1174.67 1223.02,1175.09 1225.97,1175.16 1228.79,1174.89 1231.44,1174.32 1233.91,1173.46 1236.15,1172.36 1235.35,1172.96 1233.42,1174.62 1231.64,1176.58 1230.04,1178.83 1228.65,1181.36 1227.52,1184.14 1226.68,1187.16 1226.16,1190.37 1225.98,1193.76 1226.18,1197.28 1226.77,1200.9 1227.76,1204.57 1229.18,1208.26 1231.03,1211.91 1233.32,1215.48 1236.03,1218.92 1239.17,1222.19 1242.71,1225.24 1246.65,1228.02 1250.96,1230.48 1255.62,1232.59 1260.58,1234.31 1265.82,1235.59 1271.29,1236.41 1276.95,1236.74 1282.75,1236.55 1288.64,1235.83 1294.57,1234.55 1300.48,1232.72 1306.31,1230.33 1312.02,1227.39 1317.54,1223.89 1322.82,1219.86 1327.81,1215.32 1332.46,1210.29 1336.7,1204.81 1340.51,1198.9 1343.84,1192.62 1346.65,1186.01 1348.9,1179.11 1350.57,1171.99 "/>
<line clip-path="url(#clip982)" x1="1344.58" y1="1166.6" x2="1328.58" y2="1150.6" style="stroke:#808080; stroke-width:3.2; stroke-opacity:1"/>
<line clip-path="url(#clip982)" x1="1344.58" y1="1166.6" x2="1328.58" y2="1182.6" style="stroke:#808080; stroke-width:3.2; stroke-opacity:1"/>
<line clip-path="url(#clip982)" x1="1344.58" y1="1166.6" x2="1360.58" y2="1182.6" style="stroke:#808080; stroke-width:3.2; stroke-opacity:1"/>
<line clip-path="url(#clip982)" x1="1344.58" y1="1166.6" x2="1360.58" y2="1150.6" style="stroke:#808080; stroke-width:3.2; stroke-opacity:1"/>
<polyline clip-path="url(#clip982)" style="stroke:#808080; stroke-linecap:round; stroke-linejoin:round; stroke-width:4; stroke-opacity:1; fill:none" points="1344.58,1166.6 1378.49,1145.42 "/>
<polyline clip-path="url(#clip982)" style="stroke:#808080; stroke-linecap:round; stroke-linejoin:round; stroke-width:4; stroke-opacity:1; fill:none" points="1338.42,1149.22 1378.49,1145.42 1357.49,1179.76 "/>
<polyline clip-path="url(#clip982)" style="stroke:#808080; stroke-linecap:round; stroke-linejoin:round; stroke-width:4; stroke-opacity:1; fill:none" points="1378.49,1145.42 1344.58,1166.6 "/>
<polyline clip-path="url(#clip982)" style="stroke:#808080; stroke-linecap:round; stroke-linejoin:round; stroke-width:4; stroke-opacity:1; fill:none" points="799.755,829.326 796.997,828.832 794.313,828.676 791.74,828.841 789.309,829.304 791.485,828.583 793.812,827.489 796.08,826.062 798.251,824.303 800.284,822.217 802.14,819.815 803.78,817.111 805.167,814.124 806.263,810.877 807.037,807.399 807.457,803.72 807.496,799.876 807.129,795.906 806.337,791.852 805.105,787.758 803.42,783.669 801.279,779.635 798.679,775.703 795.626,771.923 792.129,768.344 788.203,765.014 783.87,761.981 779.154,759.29 774.087,756.983 768.702,755.1 763.041,753.677 757.147,752.746 751.066,752.335 744.85,752.468 738.55,753.161 732.223,754.427 725.923,756.273 719.709,758.699 713.637,761.7 707.765,765.266 702.148,769.378 696.841,774.015 691.894,779.149 687.359,784.745 683.278,790.765 679.695,797.165 676.646,803.899 674.164,810.915 672.275,818.158 670.999,825.573 670.354,833.099 670.348,840.677 670.984,848.245 672.259,855.743 674.165,863.11 676.685,870.286 679.799,877.215 683.479,883.841 687.694,890.112 692.405,895.98 697.572,901.401 703.147,906.336 709.081,910.75 715.322,914.613 721.813,917.902 728.498,920.599 735.318,922.693 742.214,924.177 749.127,925.052 755.998,925.325 762.771,925.006 769.39,924.115 775.802,922.675 781.958,920.713 787.812,918.263 793.322,915.362 798.45,912.051 803.162,908.375 807.432,904.381 811.236,900.118 814.557,895.636 817.384,890.989 819.711,886.227 821.536,881.403 822.865,876.569 823.708,871.773 824.08,867.063 824.001,862.485 823.495,858.082 822.59,853.892 821.318,849.951 819.714,846.29 817.816,842.935 815.663,839.91 813.297,837.232 810.76,834.913 808.095,832.963 805.345,831.383 802.551,830.172 799.755,829.326 "/>
<line clip-path="url(#clip982)" x1="897.029" y1="823.938" x2="881.029" y2="807.938" style="stroke:#808080; stroke-width:3.2; stroke-opacity:1"/>
<line clip-path="url(#clip982)" x1="897.029" y1="823.938" x2="881.029" y2="839.938" style="stroke:#808080; stroke-width:3.2; stroke-opacity:1"/>
<line clip-path="url(#clip982)" x1="897.029" y1="823.938" x2="913.029" y2="839.938" style="stroke:#808080; stroke-width:3.2; stroke-opacity:1"/>
<line clip-path="url(#clip982)" x1="897.029" y1="823.938" x2="913.029" y2="807.938" style="stroke:#808080; stroke-width:3.2; stroke-opacity:1"/>
<polyline clip-path="url(#clip982)" style="stroke:#808080; stroke-linecap:round; stroke-linejoin:round; stroke-width:4; stroke-opacity:1; fill:none" points="897.029,823.938 858.356,834.067 "/>
<polyline clip-path="url(#clip982)" style="stroke:#808080; stroke-linecap:round; stroke-linejoin:round; stroke-width:4; stroke-opacity:1; fill:none" points="897.742,842.358 858.356,834.067 888.621,807.533 "/>
<polyline clip-path="url(#clip982)" style="stroke:#808080; stroke-linecap:round; stroke-linejoin:round; stroke-width:4; stroke-opacity:1; fill:none" points="858.356,834.067 897.029,823.938 "/>
<polyline clip-path="url(#clip982)" style="stroke:#808080; stroke-linecap:round; stroke-linejoin:round; stroke-width:4; stroke-opacity:1; fill:none" points="1564.54,1103.07 1561.12,1099.8 1557.51,1096.96 1553.77,1094.57 1549.95,1092.62 1546.08,1091.11 1542.22,1090.03 1538.41,1089.38 1534.7,1089.13 1531.12,1089.27 1527.71,1089.77 1524.51,1090.6 1521.53,1091.73 1518.82,1093.13 1516.39,1094.76 1514.25,1096.59 1512.43,1098.57 1510.92,1100.67 1509.74,1102.85 1510.43,1101 1511.06,1098.51 1511.39,1095.86 1511.4,1093.07 1511.07,1090.19 1510.39,1087.24 1509.34,1084.26 1507.91,1081.31 1506.09,1078.41 1503.89,1075.62 1501.32,1072.97 1498.37,1070.52 1495.07,1068.3 1491.44,1066.35 1487.49,1064.72 1483.27,1063.44 1478.8,1062.55 1474.12,1062.08 1469.27,1062.06 1464.29,1062.51 1459.24,1063.44 1454.16,1064.88 1449.1,1066.83 1444.12,1069.3 1439.27,1072.28 1434.59,1075.76 1430.15,1079.74 1426,1084.18 1422.18,1089.08 1418.74,1094.39 1415.73,1100.09 1413.18,1106.14 1411.14,1112.48 1409.63,1119.08 1408.69,1125.88 1408.33,1132.82 1408.57,1139.86 1409.42,1146.93 1410.9,1153.98 1412.99,1160.94 1415.68,1167.76 1418.98,1174.37 1422.85,1180.72 1427.27,1186.76 1432.21,1192.43 1437.63,1197.69 1443.5,1202.48 1449.77,1206.76 1456.39,1210.51 1463.31,1213.68 1470.46,1216.26 1477.8,1218.22 1485.26,1219.56 1492.79,1220.25 1500.32,1220.3 1507.79,1219.72 1515.14,1218.52 1522.31,1216.7 1529.25,1214.3 1535.9,1211.35 1542.22,1207.87 1548.16,1203.9 1553.67,1199.49 1558.72,1194.68 1563.27,1189.52 1567.31,1184.06 1570.8,1178.36 1573.74,1172.47 1576.11,1166.46 1577.91,1160.36 1579.14,1154.25 1579.82,1148.18 1579.95,1142.19 1579.55,1136.35 1578.65,1130.7 1577.27,1125.29 1575.45,1120.15 1573.23,1115.33 1570.64,1110.86 1567.73,1106.77 1564.54,1103.07 "/>
<line clip-path="url(#clip982)" x1="1617.44" y1="1097.69" x2="1601.44" y2="1081.69" style="stroke:#808080; stroke-width:3.2; stroke-opacity:1"/>
<line clip-path="url(#clip982)" x1="1617.44" y1="1097.69" x2="1601.44" y2="1113.69" style="stroke:#808080; stroke-width:3.2; stroke-opacity:1"/>
<line clip-path="url(#clip982)" x1="1617.44" y1="1097.69" x2="1633.44" y2="1113.69" style="stroke:#808080; stroke-width:3.2; stroke-opacity:1"/>
<line clip-path="url(#clip982)" x1="1617.44" y1="1097.69" x2="1633.44" y2="1081.69" style="stroke:#808080; stroke-width:3.2; stroke-opacity:1"/>
<polyline clip-path="url(#clip982)" style="stroke:#808080; stroke-linecap:round; stroke-linejoin:round; stroke-width:4; stroke-opacity:1; fill:none" points="1617.44,1097.69 1601.07,1134.16 "/>
<polyline clip-path="url(#clip982)" style="stroke:#808080; stroke-linecap:round; stroke-linejoin:round; stroke-width:4; stroke-opacity:1; fill:none" points="1632.23,1108.69 1601.07,1134.16 1599.39,1093.94 "/>
<polyline clip-path="url(#clip982)" style="stroke:#808080; stroke-linecap:round; stroke-linejoin:round; stroke-width:4; stroke-opacity:1; fill:none" points="1601.07,1134.16 1617.44,1097.69 "/>
<polyline clip-path="url(#clip982)" style="stroke:#808080; stroke-linecap:round; stroke-linejoin:round; stroke-width:4; stroke-opacity:1; fill:none" points="631.949,552.639 628.863,547.422 625.399,542.604 621.602,538.216 617.521,534.281 613.206,530.819 608.708,527.842 604.08,525.359 599.372,523.371 594.636,521.876 589.922,520.865 585.277,520.326 580.748,520.239 576.378,520.582 572.206,521.328 568.268,522.446 564.597,523.903 561.221,525.663 558.163,527.686 555.443,529.932 553.073,532.359 551.065,534.926 549.421,537.589 548.143,540.307 547.225,543.038 546.658,545.743 546.429,548.384 546.521,550.926 546.62,551.934 545.909,549.536 544.866,547.147 543.486,544.807 541.769,542.554 539.718,540.43 537.342,538.473 534.656,536.725 531.676,535.223 528.425,534.003 524.93,533.102 521.221,532.55 517.334,532.376 513.306,532.606 509.179,533.261 504.996,534.358 500.804,535.91 496.65,537.924 492.583,540.401 488.654,543.341 484.911,546.733 481.403,550.564 478.18,554.817 475.285,559.465 472.764,564.481 470.658,569.829 469.004,575.473 467.836,581.368 467.183,587.469 467.07,593.726 467.517,600.087 468.538,606.496 470.141,612.899 472.329,619.238 475.099,625.454 478.442,631.491 482.343,637.292 486.78,642.803 491.728,647.97 497.155,652.743 503.022,657.075 509.29,660.924 515.91,664.25 522.834,667.02 530.008,669.205 537.375,670.782 544.878,671.733 552.455,672.047 560.048,671.718 567.593,670.748 575.031,669.143 582.301,666.917 589.346,664.088 596.109,660.683 602.538,656.731 608.583,652.268 614.199,647.334 619.344,641.974 623.983,636.237 628.083,630.174 631.62,623.84 634.575,617.291 636.932,610.585 638.685,603.781 639.831,596.938 640.375,590.114 640.328,583.367 639.704,576.753 638.525,570.324 636.818,564.132 634.614,558.222 631.949,552.639 "/>
<line clip-path="url(#clip982)" x1="654.573" y1="547.252" x2="638.573" y2="531.252" style="stroke:#808080; stroke-width:3.2; stroke-opacity:1"/>
<line clip-path="url(#clip982)" x1="654.573" y1="547.252" x2="638.573" y2="563.252" style="stroke:#808080; stroke-width:3.2; stroke-opacity:1"/>
<line clip-path="url(#clip982)" x1="654.573" y1="547.252" x2="670.573" y2="563.252" style="stroke:#808080; stroke-width:3.2; stroke-opacity:1"/>
<line clip-path="url(#clip982)" x1="654.573" y1="547.252" x2="670.573" y2="531.252" style="stroke:#808080; stroke-width:3.2; stroke-opacity:1"/>
<polyline clip-path="url(#clip982)" style="stroke:#808080; stroke-linecap:round; stroke-linejoin:round; stroke-width:4; stroke-opacity:1; fill:none" points="654.573,547.252 662.025,586.529 "/>
<polyline clip-path="url(#clip982)" style="stroke:#808080; stroke-linecap:round; stroke-linejoin:round; stroke-width:4; stroke-opacity:1; fill:none" points="672.999,547.804 662.025,586.529 637.63,554.515 "/>
<polyline clip-path="url(#clip982)" style="stroke:#808080; stroke-linecap:round; stroke-linejoin:round; stroke-width:4; stroke-opacity:1; fill:none" points="662.025,586.529 654.573,547.252 "/>
<polyline clip-path="url(#clip982)" style="stroke:#808080; stroke-linecap:round; stroke-linejoin:round; stroke-width:4; stroke-opacity:1; fill:none" points="969.159,803.716 972.261,801.82 975.26,799.525 978.111,796.837 980.769,793.766 983.189,790.326 985.33,786.537 987.15,782.424 988.61,778.016 989.675,773.346 990.312,768.453 990.492,763.378 990.192,758.165 989.39,752.863 988.073,747.52 986.231,742.191 983.86,736.927 980.96,731.782 977.54,726.811 973.613,722.066 969.196,717.601 964.313,713.466 958.995,709.709 953.275,706.376 947.192,703.507 940.791,701.142 934.119,699.314 927.227,698.051 920.168,697.377 913,697.308 905.781,697.859 898.57,699.033 891.428,700.832 884.414,703.249 877.587,706.271 871.006,709.881 864.726,714.054 858.801,718.761 853.28,723.966 848.21,729.629 843.632,735.707 839.585,742.149 836.099,748.905 833.202,755.918 830.915,763.132 829.253,770.488 828.224,777.924 827.832,785.381 828.073,792.797 828.937,800.114 830.408,807.272 832.467,814.215 835.085,820.891 838.231,827.248 841.867,833.241 845.954,838.826 850.446,843.968 855.295,848.632 860.45,852.791 865.858,856.425 871.464,859.516 877.213,862.054 883.048,864.036 888.916,865.462 894.76,866.34 900.527,866.681 906.168,866.505 911.633,865.833 916.878,864.693 921.86,863.117 926.543,861.139 930.893,858.8 934.881,856.141 938.485,853.204 941.684,850.036 944.466,846.684 946.822,843.194 948.748,839.613 950.248,835.988 951.327,832.365 951.997,828.787 952.274,825.296 952.178,821.931 951.733,818.727 950.966,815.718 949.907,812.933 948.589,810.396 947.047,808.129 945.316,806.147 943.435,804.465 943.416,804.357 945.654,805.516 948.117,806.429 950.781,807.064 953.617,807.394 956.593,807.394 959.675,807.042 962.823,806.32 965.999,805.215 969.159,803.716 "/>
<line clip-path="url(#clip982)" x1="1050.22" y1="798.329" x2="1034.22" y2="782.329" style="stroke:#808080; stroke-width:3.2; stroke-opacity:1"/>
<line clip-path="url(#clip982)" x1="1050.22" y1="798.329" x2="1034.22" y2="814.329" style="stroke:#808080; stroke-width:3.2; stroke-opacity:1"/>
<line clip-path="url(#clip982)" x1="1050.22" y1="798.329" x2="1066.22" y2="814.329" style="stroke:#808080; stroke-width:3.2; stroke-opacity:1"/>
<line clip-path="url(#clip982)" x1="1050.22" y1="798.329" x2="1066.22" y2="782.329" style="stroke:#808080; stroke-width:3.2; stroke-opacity:1"/>
<polyline clip-path="url(#clip982)" style="stroke:#808080; stroke-linecap:round; stroke-linejoin:round; stroke-width:4; stroke-opacity:1; fill:none" points="1050.22,798.329 1017.27,775.691 "/>
<polyline clip-path="url(#clip982)" style="stroke:#808080; stroke-linecap:round; stroke-linejoin:round; stroke-width:4; stroke-opacity:1; fill:none" points="1036.75,810.912 1017.27,775.691 1057.14,781.24 "/>
<polyline clip-path="url(#clip982)" style="stroke:#808080; stroke-linecap:round; stroke-linejoin:round; stroke-width:4; stroke-opacity:1; fill:none" points="1017.27,775.691 1050.22,798.329 "/>
<polyline clip-path="url(#clip982)" style="stroke:#808080; stroke-linecap:round; stroke-linejoin:round; stroke-width:4; stroke-opacity:1; fill:none" points="682.782,559.194 685.33,553.389 687.395,547.273 688.944,540.892 689.948,534.295 690.381,527.534 690.227,520.664 689.47,513.742 688.105,506.827 686.129,499.976 683.548,493.249 680.372,486.706 676.617,480.404 672.307,474.397 667.47,468.741 662.139,463.484 656.353,458.674 650.155,454.355 643.594,450.563 636.72,447.332 629.588,444.69 622.255,442.66 614.779,441.257 607.222,440.492 599.644,440.369 592.106,440.886 584.67,442.035 577.393,443.802 570.333,446.165 563.546,449.1 557.082,452.575 550.991,456.554 545.315,460.996 540.095,465.857 535.365,471.087 531.154,476.637 527.486,482.451 524.378,488.476 521.844,494.653 519.889,500.925 518.513,507.236 517.71,513.529 517.471,519.749 517.777,525.843 518.606,531.759 519.933,537.451 521.725,542.874 523.947,547.988 526.559,552.756 529.521,557.148 532.786,561.137 536.309,564.702 540.04,567.826 543.932,570.499 547.935,572.715 552,574.475 556.08,575.783 560.127,576.649 564.097,577.087 567.949,577.118 571.642,576.764 575.142,576.052 578.415,575.012 581.434,573.678 584.174,572.084 586.615,570.269 588.743,568.271 590.547,566.129 592.02,563.883 593.161,561.573 593.972,559.236 593.487,561.569 593.274,564.133 593.378,566.813 593.819,569.574 594.612,572.378 595.767,575.188 597.293,577.961 599.19,580.656 601.457,583.229 604.086,585.638 607.066,587.841 610.379,589.795 614.004,591.461 617.914,592.8 622.08,593.778 626.466,594.361 631.033,594.521 635.741,594.233 640.543,593.475 645.393,592.233 650.24,590.495 655.035,588.255 659.725,585.513 664.257,582.274 668.58,578.549 672.642,574.355 676.395,569.712 679.79,564.647 682.782,559.194 "/>
<line clip-path="url(#clip982)" x1="701.789" y1="553.807" x2="685.789" y2="537.807" style="stroke:#808080; stroke-width:3.2; stroke-opacity:1"/>
<line clip-path="url(#clip982)" x1="701.789" y1="553.807" x2="685.789" y2="569.807" style="stroke:#808080; stroke-width:3.2; stroke-opacity:1"/>
<line clip-path="url(#clip982)" x1="701.789" y1="553.807" x2="717.789" y2="569.807" style="stroke:#808080; stroke-width:3.2; stroke-opacity:1"/>
<line clip-path="url(#clip982)" x1="701.789" y1="553.807" x2="717.789" y2="537.807" style="stroke:#808080; stroke-width:3.2; stroke-opacity:1"/>
<polyline clip-path="url(#clip982)" style="stroke:#808080; stroke-linecap:round; stroke-linejoin:round; stroke-width:4; stroke-opacity:1; fill:none" points="701.789,553.807 712.398,515.262 "/>
<polyline clip-path="url(#clip982)" style="stroke:#808080; stroke-linecap:round; stroke-linejoin:round; stroke-width:4; stroke-opacity:1; fill:none" points="685.49,545.195 712.398,515.262 720.2,554.748 "/>
<polyline clip-path="url(#clip982)" style="stroke:#808080; stroke-linecap:round; stroke-linejoin:round; stroke-width:4; stroke-opacity:1; fill:none" points="712.398,515.262 701.789,553.807 "/>
<polyline clip-path="url(#clip982)" style="stroke:#808080; stroke-linecap:round; stroke-linejoin:round; stroke-width:4; stroke-opacity:1; fill:none" points="1172.38,596.996 1170.81,589.799 1168.66,582.818 1165.95,576.107 1162.7,569.716 1158.96,563.693 1154.77,558.08 1150.17,552.916 1145.21,548.233 1139.93,544.059 1134.41,540.416 1128.68,537.322 1122.81,534.785 1116.85,532.813 1110.85,531.402 1104.88,530.548 1098.98,530.237 1093.22,530.451 1087.63,531.169 1082.26,532.363 1077.15,534 1072.35,536.047 1067.88,538.463 1063.78,541.207 1060.08,544.235 1056.78,547.501 1053.9,550.958 1051.46,554.558 1049.46,558.254 1047.89,561.998 1046.75,565.745 1046.02,569.45 1045.7,573.07 1045.77,576.565 1046.19,579.9 1046.94,583.039 1048,585.955 1049.32,588.619 1050.87,591.011 1052.63,593.114 1054.54,594.914 1056.57,596.402 1056.42,596.405 1054.07,595.468 1051.53,594.799 1048.81,594.425 1045.95,594.373 1042.98,594.663 1039.94,595.314 1036.87,596.339 1033.81,597.75 1030.81,599.551 1027.9,601.742 1025.13,604.321 1022.55,607.276 1020.2,610.595 1018.12,614.258 1016.35,618.242 1014.94,622.517 1013.91,627.052 1013.3,631.808 1013.13,636.746 1013.44,641.821 1014.25,646.987 1015.56,652.194 1017.38,657.39 1019.73,662.523 1022.6,667.539 1025.98,672.386 1029.87,677.01 1034.24,681.358 1039.07,685.381 1044.33,689.031 1049.99,692.262 1056.01,695.032 1062.34,697.304 1068.94,699.045 1075.76,700.224 1082.75,700.82 1089.84,700.814 1096.99,700.193 1104.12,698.952 1111.19,697.09 1118.13,694.613 1124.88,691.534 1131.39,687.869 1137.59,683.643 1143.45,678.886 1148.89,673.631 1153.89,667.92 1158.39,661.796 1162.37,655.307 1165.78,648.506 1168.6,641.448 1170.81,634.19 1172.39,626.79 1173.34,619.311 1173.65,611.811 1173.33,604.353 1172.38,596.996 "/>
<line clip-path="url(#clip982)" x1="1165.37" y1="591.609" x2="1149.37" y2="575.609" style="stroke:#808080; stroke-width:3.2; stroke-opacity:1"/>
<line clip-path="url(#clip982)" x1="1165.37" y1="591.609" x2="1149.37" y2="607.609" style="stroke:#808080; stroke-width:3.2; stroke-opacity:1"/>
<line clip-path="url(#clip982)" x1="1165.37" y1="591.609" x2="1181.37" y2="607.609" style="stroke:#808080; stroke-width:3.2; stroke-opacity:1"/>
<line clip-path="url(#clip982)" x1="1165.37" y1="591.609" x2="1181.37" y2="575.609" style="stroke:#808080; stroke-width:3.2; stroke-opacity:1"/>
<polyline clip-path="url(#clip982)" style="stroke:#808080; stroke-linecap:round; stroke-linejoin:round; stroke-width:4; stroke-opacity:1; fill:none" points="1165.37,591.609 1200.27,611.106 "/>
<polyline clip-path="url(#clip982)" style="stroke:#808080; stroke-linecap:round; stroke-linejoin:round; stroke-width:4; stroke-opacity:1; fill:none" points="1177.62,577.834 1200.27,611.106 1160.06,609.263 "/>
<polyline clip-path="url(#clip982)" style="stroke:#808080; stroke-linecap:round; stroke-linejoin:round; stroke-width:4; stroke-opacity:1; fill:none" points="1200.27,611.106 1165.37,591.609 "/>
<polyline clip-path="url(#clip982)" style="stroke:#808080; stroke-linecap:round; stroke-linejoin:round; stroke-width:4; stroke-opacity:1; fill:none" points="1642.03,591.601 1642.42,584.053 1642.16,576.477 1641.26,568.933 1639.73,561.483 1637.57,554.187 1634.8,547.103 1631.45,540.288 1627.54,533.797 1623.11,527.679 1618.2,521.981 1612.86,516.746 1607.12,512.012 1601.04,507.812 1594.68,504.172 1588.08,501.115 1581.32,498.655 1574.44,496.804 1567.51,495.563 1560.58,494.931 1553.72,494.898 1546.97,495.452 1540.4,496.572 1534.06,498.233 1527.99,500.404 1522.24,503.052 1516.85,506.137 1511.86,509.616 1507.29,513.445 1503.18,517.575 1499.54,521.956 1496.4,526.537 1493.75,531.265 1491.6,536.089 1489.95,540.956 1488.8,545.816 1488.14,550.619 1487.94,555.319 1488.18,559.87 1488.85,564.232 1489.9,568.366 1491.31,572.239 1493.04,575.82 1495.05,579.085 1497.3,582.011 1499.75,584.585 1502.36,586.793 1505.08,588.631 1507.88,590.095 1510.7,591.19 1513.51,591.923 1516.27,592.306 1518.94,592.354 1521.49,592.088 1523.41,591.672 1521.08,592.536 1518.79,593.729 1516.56,595.253 1514.45,597.107 1512.49,599.283 1510.72,601.769 1509.17,604.55 1507.9,607.605 1506.92,610.91 1506.27,614.434 1505.99,618.145 1506.09,622.008 1506.61,625.981 1507.55,630.023 1508.94,634.089 1510.78,638.132 1513.08,642.103 1515.83,645.955 1519.03,649.638 1522.67,653.102 1526.73,656.301 1531.19,659.188 1536.01,661.719 1541.18,663.851 1546.64,665.548 1552.37,666.773 1558.31,667.497 1564.42,667.694 1570.64,667.341 1576.93,666.425 1583.22,664.934 1589.47,662.863 1595.61,660.215 1601.58,656.997 1607.34,653.221 1612.82,648.907 1617.97,644.08 1622.74,638.77 1627.09,633.011 1630.96,626.845 1634.32,620.317 1637.14,613.474 1639.38,606.37 1641.01,599.06 1642.03,591.601 "/>
<line clip-path="url(#clip982)" x1="1631.45" y1="586.213" x2="1615.45" y2="570.213" style="stroke:#808080; stroke-width:3.2; stroke-opacity:1"/>
<line clip-path="url(#clip982)" x1="1631.45" y1="586.213" x2="1615.45" y2="602.213" style="stroke:#808080; stroke-width:3.2; stroke-opacity:1"/>
<line clip-path="url(#clip982)" x1="1631.45" y1="586.213" x2="1647.45" y2="602.213" style="stroke:#808080; stroke-width:3.2; stroke-opacity:1"/>
<line clip-path="url(#clip982)" x1="1631.45" y1="586.213" x2="1647.45" y2="570.213" style="stroke:#808080; stroke-width:3.2; stroke-opacity:1"/>
<polyline clip-path="url(#clip982)" style="stroke:#808080; stroke-linecap:round; stroke-linejoin:round; stroke-width:4; stroke-opacity:1; fill:none" points="1631.45,586.213 1669.89,575.203 "/>
<polyline clip-path="url(#clip982)" style="stroke:#808080; stroke-linecap:round; stroke-linejoin:round; stroke-width:4; stroke-opacity:1; fill:none" points="1630.32,567.814 1669.89,575.203 1640.24,602.422 "/>
<polyline clip-path="url(#clip982)" style="stroke:#808080; stroke-linecap:round; stroke-linejoin:round; stroke-width:4; stroke-opacity:1; fill:none" points="1669.89,575.203 1631.45,586.213 "/>
<polyline clip-path="url(#clip982)" style="stroke:#808080; stroke-linecap:round; stroke-linejoin:round; stroke-width:4; stroke-opacity:1; fill:none" points="632.15,1366.51 1831.49,1366.51 1831.49,167.178 632.15,167.178 632.15,1366.51 "/>
<polyline clip-path="url(#clip982)" style="stroke:#000000; stroke-linecap:round; stroke-linejoin:round; stroke-width:4; stroke-opacity:1; fill:none" stroke-dasharray="16, 10" points="332.316,1366.51 344.328,1366.51 356.339,1366.51 368.351,1366.51 380.362,1366.51 392.374,1366.51 404.385,1366.51 416.397,1366.51 428.408,1366.51 440.42,1366.51 452.431,1366.51 464.443,1366.51 476.454,1366.51 488.466,1366.51 500.477,1366.51 512.489,1366.51 524.501,1366.51 536.512,1366.51 548.524,1366.51 560.535,1366.51 572.547,1366.51 584.558,1366.51 596.57,1366.51 608.581,1366.51 620.593,1366.51 632.604,1366.51 644.593,1365.87 656.458,1364.03 668.079,1361.01 679.339,1356.84 690.127,1351.57 700.334,1345.25 709.865,1337.95 719.127,1330.3 728.388,1322.65 737.649,1315 746.91,1307.35 756.172,1299.7 765.433,1292.05 774.694,1284.4 783.956,1276.75 793.217,1269.1 802.478,1261.46 811.739,1253.81 821.001,1246.16 830.262,1238.51 839.523,1230.86 848.784,1223.21 858.046,1215.56 867.307,1207.91 876.568,1200.26 885.83,1192.62 895.091,1184.97 904.352,1177.32 913.613,1169.67 922.875,1162.02 932.136,1154.37 941.397,1146.72 950.658,1139.07 959.92,1131.42 969.36,1124 979.463,1117.52 990.165,1112.07 1001.36,1107.72 1012.69,1103.76 1023.63,1098.81 1034.49,1093.67 1045.35,1088.54 1056.21,1083.41 1067.07,1078.27 1077.93,1073.14 1088.79,1068 1099.64,1062.87 1110.5,1057.73 1121.36,1052.6 1132.22,1047.46 1143.08,1042.33 1153.94,1037.2 1164.8,1032.06 1175.66,1026.94 1186.08,1020.98 1195.86,1014 1204.88,1006.09 1213.07,997.306 1220.34,987.752 1226.71,977.568 1232.89,967.27 1239.07,956.972 1245.26,946.674 1251.44,936.376 1257.62,926.078 1263.81,915.78 1269.99,905.482 1276.17,895.184 1282.35,884.886 1288.54,874.588 1294.72,864.29 1300.9,853.992 1307.09,843.694 1313.27,833.396 1319.45,823.098 1325.63,812.799 1331.82,802.501 1338,792.203 1344.18,781.905 1350.37,771.607 1356.55,761.309 1362.73,751.011 1368.91,740.713 1375.1,730.415 1381.28,720.117 1387.46,709.819 1393.65,699.521 1399.83,689.223 1406.01,678.925 1412.19,668.627 1418.38,658.329 1424.54,648.018 1429.97,637.314 1434.31,626.119 1437.51,614.546 1439.54,602.712 1440.39,590.735 1440.81,578.731 1441.23,566.727 1441.65,554.722 1441.35,542.719 1439.97,530.79 1439.23,518.806 1439.69,506.808 1441.34,494.917 1444.18,483.25 1448.17,471.926 1453.27,461.057 1459.43,450.753 1466.6,441.117 1474.26,431.868 1481.92,422.62 1489.59,413.371 1497.25,404.123 1504.92,394.874 1512.58,385.626 1520.25,376.377 1527.91,367.129 1535.5,357.82 1542.3,347.924 1548.12,337.418 1554.3,327.127 1561.48,317.506 1569.59,308.65 1578.54,300.65 1588.25,293.586 1598.5,287.322 1608.79,281.129 1619.08,274.937 1629.38,268.745 1639.67,262.552 1649.96,256.36 1660.25,250.167 1670.55,243.975 1680.84,237.783 1691.13,231.59 1701.42,225.398 1711.71,219.205 1722.01,213.013 1732.3,206.821 1742.59,200.628 1752.88,194.436 1763.18,188.243 1773.51,182.122 1784.3,176.851 1795.56,172.686 1807.18,169.667 1819.04,167.825 1831.03,167.179 1843.04,167.178 1855.06,167.178 1867.07,167.178 1879.08,167.178 1891.09,167.178 1903.1,167.178 1915.11,167.178 1927.12,167.178 1939.14,167.178 1951.15,167.178 1963.16,167.178 1975.17,167.178 1987.18,167.178 1999.19,167.178 2011.21,167.178 2023.22,167.178 2035.23,167.178 2047.24,167.178 2059.25,167.178 2071.26,167.178 2083.27,167.178 2095.29,167.178 2107.3,167.178 2119.31,167.178 2131.32,167.178 "/>
<polyline clip-path="url(#clip982)" style="stroke:#008000; stroke-linecap:round; stroke-linejoin:round; stroke-width:4; stroke-opacity:1; fill:none" stroke-dasharray="16, 10" points="272.349,1426.48 284.361,1426.48 296.372,1426.48 308.384,1426.48 320.395,1426.48 332.407,1426.48 344.418,1426.48 356.43,1426.48 368.441,1426.48 380.453,1426.48 392.465,1426.48 404.476,1426.48 416.488,1426.48 428.499,1426.48 440.511,1426.48 452.522,1426.48 464.534,1426.48 476.545,1426.48 488.557,1426.48 500.568,1426.48 512.58,1426.48 524.591,1426.48 536.603,1426.48 548.614,1426.48 560.626,1426.48 572.637,1426.48 584.649,1426.48 596.661,1426.48 608.672,1426.48 620.684,1426.48 632.968,1426.48 650.951,1425.5 668.745,1422.72 686.173,1418.18 703.059,1411.92 719.235,1404 734.538,1394.5 748.122,1384.12 757.383,1376.47 766.645,1368.83 775.906,1361.18 785.167,1353.53 794.428,1345.88 803.69,1338.23 812.951,1330.58 822.212,1322.93 831.473,1315.28 840.735,1307.63 849.996,1299.99 859.257,1292.34 868.519,1284.69 877.78,1277.04 887.041,1269.39 896.302,1261.74 905.564,1254.09 914.825,1246.44 924.086,1238.79 933.348,1231.15 942.609,1223.5 951.87,1215.85 961.131,1208.2 970.393,1200.55 979.654,1192.9 988.915,1185.25 998.176,1177.6 1004.28,1172.75 1009.34,1169.51 1014.69,1166.79 1020.29,1164.63 1035.25,1159.32 1049.35,1152.98 1060.21,1147.85 1071.06,1142.71 1081.92,1137.58 1092.78,1132.44 1103.64,1127.31 1114.5,1122.18 1125.36,1117.04 1136.22,1111.91 1147.08,1106.77 1157.94,1101.64 1168.79,1096.5 1179.65,1091.37 1190.51,1086.23 1202.92,1080.35 1218.54,1071.4 1233.2,1060.93 1246.73,1049.04 1259,1035.86 1269.9,1021.52 1278.17,1008.36 1284.35,998.059 1290.53,987.761 1296.72,977.463 1302.9,967.165 1309.08,956.867 1315.26,946.569 1321.45,936.271 1327.63,925.973 1333.81,915.675 1340,905.377 1346.18,895.079 1352.36,884.781 1358.54,874.483 1364.73,864.185 1370.91,853.887 1377.09,843.589 1383.28,833.291 1389.46,822.993 1395.64,812.695 1401.82,802.397 1408.01,792.099 1414.19,781.801 1420.37,771.503 1426.56,761.205 1432.74,750.907 1438.92,740.609 1445.1,730.311 1451.29,720.013 1457.47,709.715 1463.65,699.417 1469.84,689.119 1476.64,677.7 1484.79,661.637 1491.28,644.84 1496.07,627.478 1499.1,609.724 1500.32,592.749 1500.74,580.744 1501.16,568.74 1501.6,556.101 1501.14,538.097 1499.56,524.044 1499.19,518.052 1499.42,512.054 1500.26,506.108 1501.68,500.276 1503.68,494.615 1506.23,489.183 1509.32,484.033 1512.9,479.218 1520.49,470.062 1528.16,460.814 1535.82,451.565 1543.48,442.317 1551.15,433.069 1558.81,423.82 1566.48,414.572 1574.14,405.323 1583.25,394.098 1593.44,379.246 1601.02,365.654 1604.12,360.511 1607.71,355.703 1611.77,351.278 1616.25,347.282 1621.1,343.753 1629.49,338.659 1639.78,332.466 1650.08,326.274 1660.37,320.081 1670.66,313.889 1680.95,307.697 1691.25,301.504 1701.54,295.312 1711.83,289.119 1722.12,282.927 1732.42,276.734 1742.71,270.542 1753,264.35 1763.29,258.157 1773.58,251.965 1783.88,245.772 1794.17,239.58 1802.54,234.595 1807.93,231.964 1813.57,229.885 1819.38,228.38 1825.31,227.463 1831.3,227.145 1843.13,227.145 1855.15,227.145 1867.16,227.145 1879.17,227.145 1891.18,227.145 1903.19,227.145 1915.2,227.145 1927.22,227.145 1939.23,227.145 1951.24,227.145 1963.25,227.145 1975.26,227.145 1987.27,227.145 1999.28,227.145 2011.3,227.145 2023.31,227.145 2035.32,227.145 2047.33,227.145 2059.34,227.145 2071.35,227.145 "/>
<polyline clip-path="url(#clip982)" style="stroke:#000000; stroke-linecap:round; stroke-linejoin:round; stroke-width:12; stroke-opacity:1; fill:none" points="332.316,1366.51 343.164,1366.51 354.013,1366.51 364.861,1366.51 375.709,1366.51 386.557,1366.51 397.406,1366.51 408.254,1366.51 419.102,1366.51 429.95,1366.51 440.799,1366.51 451.647,1366.51 462.495,1366.51 473.344,1366.51 484.192,1366.51 495.04,1366.51 505.888,1366.51 516.737,1366.51 527.585,1366.51 538.433,1366.51 549.281,1366.51 560.13,1366.51 570.978,1366.51 581.826,1366.51 592.675,1366.51 603.523,1366.51 614.371,1366.51 625.219,1366.51 636.067,1366.45 646.879,1365.61 657.57,1363.79 668.053,1361.01 678.243,1357.3 688.056,1352.69 697.412,1347.2 706.235,1340.9 714.622,1334.02 722.986,1327.11 731.35,1320.2 739.715,1313.29 748.079,1306.38 756.443,1299.48 764.808,1292.57 773.172,1285.66 781.537,1278.75 789.901,1271.84 798.265,1264.94 806.63,1258.03 814.994,1251.12 823.358,1244.21 831.723,1237.3 840.087,1230.39 848.451,1223.49 856.816,1216.58 865.18,1209.67 873.545,1202.76 881.909,1195.85 890.273,1188.95 898.638,1182.04 907.002,1175.13 915.366,1168.22 923.731,1161.31 932.095,1154.41 940.459,1147.5 948.824,1140.59 957.188,1133.68 965.587,1126.82 974.445,1120.56 983.833,1115.13 993.672,1110.57 1003.88,1106.92 1014.07,1103.19 1023.93,1098.67 1033.73,1094.03 1043.54,1089.39 1053.35,1084.76 1063.16,1080.12 1072.96,1075.48 1082.77,1070.85 1092.58,1066.21 1102.38,1061.57 1112.19,1056.93 1122,1052.3 1131.81,1047.66 1141.61,1043.02 1151.42,1038.39 1161.23,1033.75 1171.06,1029.15 1180.71,1024.22 1189.89,1018.44 1198.5,1011.85 1206.48,1004.51 1213.77,996.475 1220.3,987.818 1226.07,978.633 1231.65,969.332 1237.24,960.032 1242.82,950.731 1248.4,941.43 1253.99,932.13 1259.57,922.829 1265.16,913.528 1270.74,904.228 1276.32,894.927 1281.91,885.626 1287.49,876.325 1293.08,867.025 1298.66,857.724 1304.25,848.423 1309.83,839.123 1315.41,829.822 1321,820.521 1326.58,811.221 1332.17,801.92 1337.75,792.619 1343.33,783.318 1348.92,774.018 1354.5,764.717 1360.09,755.416 1365.67,746.116 1371.25,736.815 1376.84,727.514 1382.42,718.214 1388.01,708.913 1393.59,699.612 1399.17,690.311 1404.76,681.011 1410.34,671.71 1415.93,662.409 1421.51,653.109 1426.9,643.694 1431.45,633.854 1435.11,623.643 1437.82,613.143 1439.57,602.441 1440.36,591.625 1440.74,580.783 1441.12,569.941 1441.5,559.1 1441.63,548.255 1440.83,537.44 1439.58,526.667 1439.23,515.828 1439.86,505.001 1441.47,494.277 1444.04,483.741 1447.55,473.48 1451.97,463.578 1457.27,454.116 1463.4,445.172 1470.22,436.74 1477.15,428.387 1484.07,420.034 1490.99,411.682 1497.91,403.329 1504.83,394.976 1511.76,386.623 1518.68,378.271 1525.6,369.918 1532.52,361.565 1539.06,352.91 1544.78,343.7 1549.93,334.152 1555.76,325.006 1562.39,316.425 1569.77,308.477 1577.83,301.229 1586.52,294.739 1595.72,288.994 1605.02,283.401 1614.31,277.808 1623.61,272.216 1632.9,266.623 1642.2,261.03 1651.49,255.438 1660.79,249.845 1670.08,244.252 1679.38,238.66 1688.68,233.067 1697.97,227.474 1707.27,221.881 1716.56,216.289 1725.86,210.696 1735.15,205.103 1744.45,199.511 1753.74,193.918 1763.04,188.325 1772.36,182.768 1782.02,177.853 1792.09,173.832 1802.49,170.736 1813.12,168.593 1823.9,167.418 1834.74,167.178 1845.59,167.178 1856.44,167.178 1867.29,167.178 1878.14,167.178 1888.98,167.178 1899.83,167.178 "/>
<polyline clip-path="url(#clip982)" style="stroke:#008000; stroke-linecap:round; stroke-linejoin:round; stroke-width:12; stroke-opacity:1; fill:none" points="272.349,1426.48 283.197,1426.48 294.046,1426.48 304.894,1426.48 315.742,1426.48 326.591,1426.48 337.439,1426.48 348.287,1426.48 359.135,1426.48 369.984,1426.48 380.832,1426.48 391.68,1426.48 402.528,1426.48 413.377,1426.48 424.225,1426.48 435.073,1426.48 445.922,1426.48 456.77,1426.48 467.618,1426.48 478.466,1426.48 489.315,1426.48 500.163,1426.48 511.011,1426.48 521.859,1426.48 532.708,1426.48 543.556,1426.48 554.404,1426.48 565.252,1426.48 576.101,1426.48 586.949,1426.48 597.797,1426.48 608.646,1426.48 619.494,1426.48 630.342,1426.48 641.182,1426.14 651.949,1424.85 662.557,1422.59 672.925,1419.41 682.98,1415.35 692.655,1410.45 701.892,1404.77 710.649,1398.37 719.283,1391.8 727.967,1385.3 736.683,1378.84 745.421,1372.41 754.169,1365.99 762.92,1359.58 771.669,1353.17 780.409,1346.74 789.139,1340.3 797.835,1333.82 806.116,1326.82 813.739,1319.1 820.642,1310.74 826.942,1301.91 832.916,1292.85 838.733,1283.7 844.5,1274.51 850.369,1265.39 856.409,1256.37 862.741,1247.57 869.399,1239 876.551,1230.85 884.309,1223.27 892.567,1216.24 901.188,1209.66 910.068,1203.42 919.132,1197.46 928.323,1191.7 937.598,1186.08 946.926,1180.54 956.438,1175.33 966.364,1170.96 976.615,1167.42 987.111,1164.69 997.744,1162.54 1008.2,1159.67 1018.5,1156.25 1028.75,1152.69 1038.95,1149.01 1049.12,1145.22 1059.24,1141.34 1069.34,1137.37 1079.41,1133.32 1089.44,1129.21 1099.46,1125.04 1109.45,1120.81 1119.42,1116.54 1129.37,1112.22 1139.31,1107.87 1149.23,1103.48 1159.14,1099.07 1169.04,1094.64 1178.59,1089.49 1187.65,1083.53 1196.19,1076.84 1204.16,1069.5 1211.56,1061.56 1218.35,1053.1 1224.76,1044.35 1231.27,1035.68 1237.87,1027.07 1244.52,1018.49 1251.19,1009.94 1257.86,1001.39 1264.52,992.823 1271.16,984.241 1277.76,975.633 1284.32,966.995 1290.84,958.324 1297.32,949.619 1303.74,940.878 1310.12,932.103 1316.45,923.293 1322.73,914.45 1328.97,905.575 1335.17,896.669 1341.27,887.7 1347.24,878.64 1353.2,869.581 1359.16,860.517 1365.12,851.447 1371.05,842.369 1376.98,833.281 1382.89,824.183 1388.78,815.074 1394.65,805.954 1400.51,796.824 1406.35,787.682 1412.18,778.529 1417.98,769.367 1423.78,760.195 1429.56,751.014 1435.32,741.823 1441.06,732.62 1446.27,723.107 1450.67,713.194 1454.3,702.972 1457.17,692.516 1459.33,681.886 1460.96,671.16 1462.71,660.456 1464.62,649.776 1466.55,639.102 1467.81,628.33 1468.22,617.492 1467.73,606.658 1466.67,595.862 1465.31,585.1 1463.85,574.351 1462.47,563.59 1460.83,552.87 1459.31,542.133 1458.77,531.302 1459.08,520.459 1459.82,509.638 1461.49,498.924 1464.13,488.404 1467.7,478.165 1472.19,468.292 1477.54,458.863 1483.72,449.948 1490.55,441.519 1497.84,433.491 1505.4,425.709 1512.62,417.617 1519.36,409.121 1526.18,400.68 1533.05,392.289 1540.04,383.989 1547.31,375.943 1555,368.286 1563.21,361.208 1571.96,354.794 1580.98,348.763 1590.19,343.032 1599.54,337.536 1609,332.219 1618.53,327.038 1628.11,321.954 1637.73,316.937 1647.37,311.964 1657.02,307.014 1666.68,302.073 1676.34,297.13 1685.99,292.175 1695.63,287.201 1705.26,282.206 1714.87,277.184 1724.48,272.134 1734.06,267.054 1743.63,261.946 1753.32,257.067 1763.36,252.975 1773.69,249.669 1784.24,247.138 1794.94,245.38 1805.74,244.404 1816.58,243.92 "/>
<polyline clip-path="url(#clip982)" style="stroke:#0000ff; stroke-linecap:round; stroke-linejoin:round; stroke-width:12; stroke-opacity:1; fill:none" stroke-dasharray="48, 30" points="1816.58,243.92 1818.1,243.843 1819.61,243.763 1821.13,243.681 1822.65,243.596 1824.17,243.509 1825.68,243.419 1827.2,243.328 1828.71,243.234 1830.23,243.138 1831.75,243.041 1833.26,242.942 1834.78,242.841 1836.3,242.739 1837.81,242.635 1839.33,242.53 1840.84,242.424 1842.36,242.316 1843.87,242.207 1845.39,242.097 1846.9,241.986 1848.42,241.874 1849.93,241.761 1851.45,241.648 1852.96,241.533 1854.48,241.418 1855.99,241.302 1857.51,241.186 1859.02,241.069 1860.54,240.952 1862.05,240.834 1863.57,240.716 1865.08,240.598 1866.6,240.479 1868.11,240.36 1869.63,240.241 1871.14,240.122 1872.65,240.003 1874.17,239.884 1875.68,239.764 1877.2,239.645 1878.71,239.526 1880.23,239.407 1881.74,239.288 1883.26,239.169 1884.77,239.051 1886.29,238.932 1887.8,238.814 1889.32,238.696 1890.83,238.579 1892.34,238.462 1893.86,238.345 1895.37,238.229 1896.89,238.113 1898.4,237.997 1899.92,237.882 1901.43,237.767 1902.95,237.653 1904.46,237.54 1905.98,237.427 1907.49,237.314 1909.01,237.202 1910.52,237.091 1912.04,236.98 1913.56,236.87 1915.07,236.761 1916.59,236.652 1918.1,236.544 1919.62,236.436 1921.13,236.329 1922.65,236.223 1924.16,236.118 1925.68,236.013 1927.19,235.909 1928.71,235.806 1930.23,235.703 1931.74,235.602 1933.26,235.501 1934.77,235.4 1936.29,235.301 1937.81,235.202 1939.32,235.104 1940.84,235.007 1942.35,234.91 1943.87,234.815 1945.39,234.72 1946.9,234.626 1948.42,234.533 1949.94,234.44 1951.45,234.349 1952.97,234.258 1954.49,234.168 1956,234.079 1957.52,233.99 1959.04,233.903 1960.55,233.816 1962.07,233.73 1963.59,233.645 1965.1,233.561 1966.62,233.477 1968.14,233.394 1969.65,233.313 1971.17,233.231 1972.69,233.151 1974.21,233.072 1975.72,232.993 1977.24,232.915 1978.76,232.838 1980.28,232.762 1981.79,232.686 1983.31,232.611 1984.83,232.538 1986.35,232.464 1987.86,232.392 1989.38,232.32 1990.9,232.25 1992.42,232.18 1993.93,232.11 1995.45,232.042 1996.97,231.974 1998.49,231.907 2000,231.841 2001.52,231.775 2003.04,231.71 2004.56,231.646 2006.08,231.583 2007.59,231.52 2009.11,231.459 2010.63,231.397 2012.15,231.337 2013.67,231.277 2015.18,231.218 2016.7,231.16 2018.22,231.102 2019.74,231.045 2021.26,230.989 2022.78,230.934 2024.29,230.879 2025.81,230.824 2027.33,230.771 2028.85,230.718 2030.37,230.666 2031.89,230.614 2033.4,230.563 2034.92,230.513 2036.44,230.463 2037.96,230.414 2039.48,230.365 2041,230.317 2042.51,230.27 2044.03,230.223 2045.55,230.177 2047.07,230.132 2048.59,230.087 2050.11,230.043 2051.63,229.999 2053.14,229.956 2054.66,229.913 2056.18,229.871 2057.7,229.83 2059.22,229.789 2060.74,229.748 2062.26,229.709 2063.78,229.669 2065.29,229.63 2066.81,229.592 2068.33,229.554 2069.85,229.517 2071.37,229.48 2072.89,229.444 2074.41,229.408 2075.93,229.373 2077.45,229.338 2078.96,229.304 2080.48,229.27 2082,229.237 2083.52,229.204 2085.04,229.171 2086.56,229.139 2088.08,229.108 2089.6,229.076 2091.12,229.046 2092.63,229.016 2094.15,228.986 2095.67,228.956 2097.19,228.927 2098.71,228.899 2100.23,228.871 2101.75,228.843 2103.27,228.815 2104.79,228.788 2106.31,228.762 2107.82,228.736 2109.34,228.71 2110.86,228.684 2112.38,228.659 2113.9,228.634 2115.42,228.61 2116.94,228.586 2118.46,228.562 "/>
<polyline clip-path="url(#clip982)" style="stroke:#800080; stroke-linecap:round; stroke-linejoin:round; stroke-width:12; stroke-opacity:1; fill:none" stroke-dasharray="48, 30" points="2118.46,228.562 2134.65,227.211 2150.52,223.683 2165.76,218.042 2180.1,210.393 2193.27,200.876 2205.03,189.665 2215.17,176.967 2223.51,163.014 2229.87,148.063 2234.16,132.389 2236.3,116.278 2237.04,100.032 2237.76,83.7842 2238.48,67.5368 2239.19,51.289 2238.64,35.0475 2235.9,19.0299 2231.01,3.53032 2224.08,-11.1667 2215.22,-24.7912 2204.6,-37.0932 2192.42,-47.8468 2178.89,-56.8544 2164.27,-63.9508 2148.82,-69.0056 2132.84,-71.9261 2116.6,-72.6586 2100.42,-71.1897 2084.58,-67.5463 2069.38,-61.7953 2055.1,-54.0424 2042,-44.4298 2030.31,-33.1341 2020.26,-20.3626 2012.03,-6.34984 2005.77,8.6469 2001.6,24.3523 1999.58,40.478 1999.77,56.7279 2002.15,72.8037 2006.68,88.4102 2013.28,103.261 2021.83,117.083 2032.16,129.623 2044.1,140.651 2057.42,149.963 2071.87,157.39 2087.2,162.794 2103.11,166.077 2119.33,167.178 "/>
<polyline clip-path="url(#clip982)" style="stroke:#800080; stroke-linecap:round; stroke-linejoin:round; stroke-width:12; stroke-opacity:1; fill:none" stroke-dasharray="48, 30" points="2119.33,167.178 2119.57,167.178 2119.81,167.178 2120.05,167.178 2120.29,167.178 2120.53,167.178 2120.77,167.178 2121.01,167.178 2121.25,167.178 2121.49,167.178 2121.73,167.178 2121.97,167.178 2122.21,167.178 2122.45,167.178 2122.69,167.178 2122.93,167.178 2123.17,167.178 2123.41,167.178 2123.65,167.178 2123.88,167.178 2124.12,167.178 2124.36,167.178 2124.6,167.178 2124.84,167.178 2125.08,167.178 2125.32,167.178 2125.56,167.178 2125.8,167.178 2126.04,167.178 2126.28,167.178 2126.52,167.178 2126.76,167.178 2127,167.178 2127.24,167.178 2127.48,167.178 2127.72,167.178 2127.96,167.178 2128.2,167.178 2128.44,167.178 2128.68,167.178 2128.92,167.178 2129.16,167.178 2129.4,167.178 2129.64,167.178 2129.88,167.178 2130.12,167.178 2130.36,167.178 2130.6,167.178 2130.84,167.178 2131.08,167.178 2131.32,167.178 "/>
<circle clip-path="url(#clip982)" cx="1899.83" cy="167.178" r="18" fill="#000000" fill-rule="evenodd" fill-opacity="1" stroke="none"/>
<polyline clip-path="url(#clip982)" style="stroke:#000000; stroke-linecap:round; stroke-linejoin:round; stroke-width:12; stroke-opacity:1; fill:none" points="1899.83,167.178 2019.77,167.178 "/>
<polyline clip-path="url(#clip982)" style="stroke:#000000; stroke-linecap:round; stroke-linejoin:round; stroke-width:12; stroke-opacity:1; fill:none" points="1983.77,149.178 2019.77,167.178 1983.77,185.178 "/>
<polyline clip-path="url(#clip982)" style="stroke:#000000; stroke-linecap:round; stroke-linejoin:round; stroke-width:12; stroke-opacity:1; fill:none" points="2019.77,167.178 1899.83,167.178 "/>
<circle clip-path="url(#clip982)" cx="1816.58" cy="243.92" r="18" fill="#008000" fill-rule="evenodd" fill-opacity="1" stroke="#000000" stroke-opacity="1" stroke-width="3.2"/>
<polyline clip-path="url(#clip982)" style="stroke:#008000; stroke-linecap:round; stroke-linejoin:round; stroke-width:12; stroke-opacity:1; fill:none" points="1816.58,243.92 1936.36,237.934 "/>
<polyline clip-path="url(#clip982)" style="stroke:#008000; stroke-linecap:round; stroke-linejoin:round; stroke-width:12; stroke-opacity:1; fill:none" points="1899.51,221.753 1936.36,237.934 1901.31,257.708 "/>
<polyline clip-path="url(#clip982)" style="stroke:#008000; stroke-linecap:round; stroke-linejoin:round; stroke-width:12; stroke-opacity:1; fill:none" points="1936.36,237.934 1816.58,243.92 "/>
</svg>
