<?xml version="1.0" encoding="utf-8"?>
<svg xmlns="http://www.w3.org/2000/svg" xmlns:xlink="http://www.w3.org/1999/xlink" width="600" height="400" viewBox="0 0 2400 1600">
<defs>
  <clipPath id="clip860">
    <rect x="0" y="0" width="2400" height="1600"/>
  </clipPath>
</defs>
<path clip-path="url(#clip860)" d="M0 1600 L2400 1600 L2400 0 L0 0  Z" fill="#ffffff" fill-rule="evenodd" fill-opacity="1"/>
<defs>
  <clipPath id="clip861">
    <rect x="480" y="0" width="1681" height="1600"/>
  </clipPath>
</defs>
<path clip-path="url(#clip860)" d="M152.416 1486.45 L2311.22 1486.45 L2311.22 47.2441 L152.416 47.2441  Z" fill="#ffffff" fill-rule="evenodd" fill-opacity="1"/>
<defs>
  <clipPath id="clip862">
    <rect x="152" y="47" width="2160" height="1440"/>
  </clipPath>
</defs>
<polyline clip-path="url(#clip862)" style="stroke:#808080; stroke-linecap:round; stroke-linejoin:round; stroke-width:4; stroke-opacity:1; fill:none" points="672.332,947.656 668.92,944.052 665.292,940.881 661.496,938.155 657.582,935.881 653.597,934.06 649.591,932.687 645.608,931.754 641.694,931.246 637.892,931.146 634.239,931.43 630.773,932.072 627.526,933.044 624.527,934.312 621.799,935.841 619.365,937.596 617.239,939.537 615.432,941.625 613.952,943.822 612.8,946.087 612.43,946.92 612.972,944.476 613.219,941.879 613.148,939.161 612.739,936.355 611.976,933.5 610.848,930.634 609.346,927.799 607.468,925.037 605.216,922.391 602.596,919.904 599.619,917.619 596.303,915.578 592.667,913.823 588.738,912.39 584.546,911.318 580.125,910.638 575.513,910.381 570.751,910.573 565.886,911.234 560.964,912.382 556.034,914.029 551.148,916.181 546.358,918.84 541.716,922.002 537.275,925.656 533.086,929.787 529.2,934.375 525.664,939.393 522.525,944.809 519.825,950.589 517.602,956.689 515.893,963.067 514.726,969.672 514.127,976.453 514.116,983.356 514.708,990.324 515.91,997.298 517.725,1004.22 520.15,1011.03 523.175,1017.67 526.784,1024.08 530.955,1030.2 535.662,1035.99 540.871,1041.38 546.545,1046.34 552.641,1050.82 559.113,1054.77 565.909,1058.17 572.975,1060.99 580.256,1063.2 587.692,1064.79 595.223,1065.74 602.789,1066.05 610.327,1065.72 617.779,1064.75 625.083,1063.17 632.183,1060.98 639.024,1058.22 645.552,1054.92 651.72,1051.1 657.483,1046.81 662.8,1042.09 667.636,1037 671.961,1031.58 675.75,1025.88 678.985,1019.96 681.652,1013.88 683.743,1007.69 685.259,1001.45 686.203,995.214 686.585,989.043 686.422,982.986 685.734,977.094 684.547,971.417 682.891,965.998 680.803,960.878 678.318,956.094 675.48,951.678 672.332,947.656 "/>
<line clip-path="url(#clip862)" x1="720.141" y1="947.656" x2="704.141" y2="931.656" style="stroke:#808080; stroke-width:3.2; stroke-opacity:1"/>
<line clip-path="url(#clip862)" x1="720.141" y1="947.656" x2="704.141" y2="963.656" style="stroke:#808080; stroke-width:3.2; stroke-opacity:1"/>
<line clip-path="url(#clip862)" x1="720.141" y1="947.656" x2="736.141" y2="963.656" style="stroke:#808080; stroke-width:3.2; stroke-opacity:1"/>
<line clip-path="url(#clip862)" x1="720.141" y1="947.656" x2="736.141" y2="931.656" style="stroke:#808080; stroke-width:3.2; stroke-opacity:1"/>
<polyline clip-path="url(#clip862)" style="stroke:#808080; stroke-linecap:round; stroke-linejoin:round; stroke-width:4; stroke-opacity:1; fill:none" points="720.141,947.656 707.507,985.585 "/>
<polyline clip-path="url(#clip862)" style="stroke:#808080; stroke-linecap:round; stroke-linejoin:round; stroke-width:4; stroke-opacity:1; fill:none" points="735.962,957.119 707.507,985.585 701.806,945.742 "/>
<polyline clip-path="url(#clip862)" style="stroke:#808080; stroke-linecap:round; stroke-linejoin:round; stroke-width:4; stroke-opacity:1; fill:none" points="707.507,985.585 720.141,947.656 "/>
<polyline clip-path="url(#clip862)" style="stroke:#808080; stroke-linecap:round; stroke-linejoin:round; stroke-width:4; stroke-opacity:1; fill:none" points="1370.39,269.206 1372.79,263.164 1374.69,256.83 1376.05,250.252 1376.85,243.482 1377.07,236.574 1376.68,229.584 1375.69,222.569 1374.08,215.59 1371.85,208.705 1369.02,201.975 1365.6,195.456 1361.61,189.206 1357.08,183.28 1352.03,177.73 1346.5,172.604 1340.54,167.947 1334.19,163.8 1327.49,160.198 1320.51,157.171 1313.3,154.746 1305.92,152.939 1298.42,151.766 1290.87,151.233 1283.33,151.34 1275.85,152.082 1268.51,153.448 1261.35,155.42 1254.44,157.975 1247.82,161.084 1241.55,164.714 1235.66,168.826 1230.22,173.377 1225.24,178.32 1220.76,183.606 1216.81,189.183 1213.41,194.995 1210.57,200.987 1208.3,207.103 1206.6,213.285 1205.48,219.477 1204.91,225.623 1204.9,231.67 1205.41,237.567 1206.43,243.264 1207.93,248.716 1209.86,253.882 1212.2,258.724 1214.9,263.209 1217.93,267.309 1221.22,271 1224.75,274.264 1228.45,277.088 1232.29,279.465 1236.21,281.393 1240.16,282.874 1244.1,283.915 1247.99,284.53 1251.77,284.736 1255.42,284.555 1258.89,284.01 1262.15,283.131 1265.17,281.95 1267.92,280.501 1270.4,278.819 1272.56,276.943 1274.42,274.911 1275.95,272.762 1277.15,270.536 1277.38,270.158 1276.77,272.596 1276.46,275.196 1276.46,277.927 1276.79,280.753 1277.48,283.639 1278.54,286.546 1279.97,289.432 1281.77,292.255 1283.96,294.973 1286.52,297.541 1289.44,299.916 1292.71,302.056 1296.31,303.92 1300.21,305.468 1304.38,306.663 1308.8,307.471 1313.41,307.86 1318.19,307.805 1323.09,307.283 1328.06,306.274 1333.04,304.767 1338,302.752 1342.88,300.227 1347.62,297.195 1352.18,293.664 1356.5,289.648 1360.52,285.167 1364.21,280.246 1367.51,274.914 1370.39,269.206 "/>
<line clip-path="url(#clip862)" x1="1385.65" y1="269.206" x2="1369.65" y2="253.206" style="stroke:#808080; stroke-width:3.2; stroke-opacity:1"/>
<line clip-path="url(#clip862)" x1="1385.65" y1="269.206" x2="1369.65" y2="285.206" style="stroke:#808080; stroke-width:3.2; stroke-opacity:1"/>
<line clip-path="url(#clip862)" x1="1385.65" y1="269.206" x2="1401.65" y2="285.206" style="stroke:#808080; stroke-width:3.2; stroke-opacity:1"/>
<line clip-path="url(#clip862)" x1="1385.65" y1="269.206" x2="1401.65" y2="253.206" style="stroke:#808080; stroke-width:3.2; stroke-opacity:1"/>
<polyline clip-path="url(#clip862)" style="stroke:#808080; stroke-linecap:round; stroke-linejoin:round; stroke-width:4; stroke-opacity:1; fill:none" points="1385.65,269.206 1399.71,231.782 "/>
<polyline clip-path="url(#clip862)" style="stroke:#808080; stroke-linecap:round; stroke-linejoin:round; stroke-width:4; stroke-opacity:1; fill:none" points="1370.2,259.153 1399.71,231.782 1403.9,271.813 "/>
<polyline clip-path="url(#clip862)" style="stroke:#808080; stroke-linecap:round; stroke-linejoin:round; stroke-width:4; stroke-opacity:1; fill:none" points="1399.71,231.782 1385.65,269.206 "/>
<polyline clip-path="url(#clip862)" style="stroke:#808080; stroke-linecap:round; stroke-linejoin:round; stroke-width:4; stroke-opacity:1; fill:none" points="1498.69,430.409 1495.27,427.399 1491.7,424.821 1488.02,422.68 1484.27,420.975 1480.51,419.704 1476.78,418.854 1473.12,418.413 1469.57,418.362 1466.17,418.677 1462.96,419.334 1459.96,420.301 1457.21,421.548 1454.72,423.04 1452.52,424.74 1450.62,426.612 1449.03,428.616 1448.08,430.101 1449.09,427.831 1449.85,425.353 1450.31,422.693 1450.47,419.883 1450.29,416.954 1449.75,413.943 1448.85,410.889 1447.56,407.832 1445.88,404.815 1443.81,401.882 1441.36,399.076 1438.52,396.442 1435.32,394.024 1431.77,391.864 1427.89,390.005 1423.71,388.485 1419.26,387.34 1414.58,386.605 1409.7,386.309 1404.68,386.478 1399.54,387.133 1394.36,388.29 1389.16,389.962 1384.02,392.155 1378.97,394.868 1374.08,398.097 1369.4,401.832 1364.98,406.056 1360.86,410.747 1357.11,415.879 1353.76,421.418 1350.85,427.328 1348.44,433.567 1346.55,440.088 1345.21,446.843 1344.44,453.779 1344.28,460.84 1344.72,467.968 1345.78,475.106 1347.47,482.193 1349.77,489.169 1352.68,495.975 1356.18,502.553 1360.24,508.846 1364.85,514.8 1369.97,520.365 1375.55,525.492 1381.56,530.139 1387.95,534.266 1394.67,537.839 1401.66,540.83 1408.87,543.215 1416.24,544.978 1423.71,546.108 1431.21,546.6 1438.69,546.454 1446.09,545.679 1453.34,544.288 1460.39,542.3 1467.19,539.74 1473.69,536.639 1479.83,533.032 1485.57,528.959 1490.87,524.463 1495.7,519.592 1500.03,514.397 1503.83,508.929 1507.09,503.244 1509.79,497.397 1511.93,491.445 1513.5,485.443 1514.52,479.448 1514.99,473.513 1514.92,467.69 1514.35,462.03 1513.28,456.579 1511.77,451.381 1509.83,446.475 1507.52,441.896 1504.86,437.676 1501.9,433.84 1498.69,430.409 "/>
<line clip-path="url(#clip862)" x1="1555.86" y1="430.409" x2="1539.86" y2="414.409" style="stroke:#808080; stroke-width:3.2; stroke-opacity:1"/>
<line clip-path="url(#clip862)" x1="1555.86" y1="430.409" x2="1539.86" y2="446.409" style="stroke:#808080; stroke-width:3.2; stroke-opacity:1"/>
<line clip-path="url(#clip862)" x1="1555.86" y1="430.409" x2="1571.86" y2="446.409" style="stroke:#808080; stroke-width:3.2; stroke-opacity:1"/>
<line clip-path="url(#clip862)" x1="1555.86" y1="430.409" x2="1571.86" y2="414.409" style="stroke:#808080; stroke-width:3.2; stroke-opacity:1"/>
<polyline clip-path="url(#clip862)" style="stroke:#808080; stroke-linecap:round; stroke-linejoin:round; stroke-width:4; stroke-opacity:1; fill:none" points="1555.86,430.409 1536.65,465.474 "/>
<polyline clip-path="url(#clip862)" style="stroke:#808080; stroke-linecap:round; stroke-linejoin:round; stroke-width:4; stroke-opacity:1; fill:none" points="1569.73,442.543 1536.65,465.474 1538.16,425.253 "/>
<polyline clip-path="url(#clip862)" style="stroke:#808080; stroke-linecap:round; stroke-linejoin:round; stroke-width:4; stroke-opacity:1; fill:none" points="1536.65,465.474 1555.86,430.409 "/>
<polyline clip-path="url(#clip862)" style="stroke:#808080; stroke-linecap:round; stroke-linejoin:round; stroke-width:4; stroke-opacity:1; fill:none" points="737.67,681.588 740.511,680.625 743.338,679.293 746.11,677.588 748.785,675.509 751.319,673.06 753.669,670.252 755.793,667.099 757.651,663.618 759.202,659.835 760.409,655.777 761.238,651.477 761.658,646.972 761.641,642.301 761.165,637.508 760.21,632.639 758.762,627.743 756.814,622.87 754.36,618.072 751.404,613.401 747.952,608.909 744.018,604.649 739.621,600.671 734.784,597.024 729.537,593.755 723.914,590.907 717.954,588.521 711.701,586.633 705.2,585.275 698.504,584.475 691.666,584.255 684.741,584.63 677.786,585.613 670.862,587.207 664.026,589.411 657.339,592.219 650.858,595.617 644.641,599.585 638.742,604.1 633.214,609.129 628.105,614.638 623.461,620.585 619.323,626.926 615.727,633.611 612.704,640.587 610.28,647.8 608.474,655.19 607.301,662.698 606.767,670.265 606.876,677.827 607.621,685.325 608.992,692.699 610.973,699.89 613.541,706.842 616.667,713.501 620.319,719.817 624.458,725.744 629.043,731.24 634.026,736.266 639.358,740.792 644.987,744.789 650.858,748.237 656.916,751.12 663.103,753.429 669.362,755.16 675.637,756.315 681.871,756.901 688.011,756.934 694.004,756.431 699.801,755.417 705.355,753.92 710.625,751.974 715.572,749.615 720.162,746.884 724.366,743.825 728.159,740.481 731.522,736.902 734.442,733.134 736.91,729.228 738.924,725.231 740.484,721.193 741.599,717.161 742.279,713.18 742.543,709.293 742.41,705.541 741.905,701.962 741.058,698.591 739.898,695.457 738.461,692.587 736.782,690.003 734.899,687.723 732.851,685.76 730.678,684.123 728.419,682.816 726.113,681.838 726.95,682.003 729.462,682.38 732.109,682.45 734.857,682.192 737.67,681.588 "/>
<line clip-path="url(#clip862)" x1="833.293" y1="681.588" x2="817.293" y2="665.588" style="stroke:#808080; stroke-width:3.2; stroke-opacity:1"/>
<line clip-path="url(#clip862)" x1="833.293" y1="681.588" x2="817.293" y2="697.588" style="stroke:#808080; stroke-width:3.2; stroke-opacity:1"/>
<line clip-path="url(#clip862)" x1="833.293" y1="681.588" x2="849.293" y2="697.588" style="stroke:#808080; stroke-width:3.2; stroke-opacity:1"/>
<line clip-path="url(#clip862)" x1="833.293" y1="681.588" x2="849.293" y2="665.588" style="stroke:#808080; stroke-width:3.2; stroke-opacity:1"/>
<polyline clip-path="url(#clip862)" style="stroke:#808080; stroke-linecap:round; stroke-linejoin:round; stroke-width:4; stroke-opacity:1; fill:none" points="833.293,681.588 795.06,669.907 "/>
<polyline clip-path="url(#clip862)" style="stroke:#808080; stroke-linecap:round; stroke-linejoin:round; stroke-width:4; stroke-opacity:1; fill:none" points="824.23,697.64 795.06,669.907 834.748,663.211 "/>
<polyline clip-path="url(#clip862)" style="stroke:#808080; stroke-linecap:round; stroke-linejoin:round; stroke-width:4; stroke-opacity:1; fill:none" points="795.06,669.907 833.293,681.588 "/>
<polyline clip-path="url(#clip862)" style="stroke:#808080; stroke-linecap:round; stroke-linejoin:round; stroke-width:4; stroke-opacity:1; fill:none" points="904.821,1364.89 901.851,1363.94 898.915,1363.35 896.052,1363.11 893.298,1363.21 890.686,1363.62 888.247,1364.32 887.603,1364.51 889.767,1363.24 891.842,1361.65 893.79,1359.75 895.571,1357.53 897.148,1355.03 898.483,1352.25 899.542,1349.21 900.291,1345.95 900.7,1342.49 900.742,1338.87 900.393,1335.13 899.633,1331.3 898.447,1327.44 896.824,1323.58 894.757,1319.77 892.247,1316.05 889.296,1312.49 885.915,1309.12 882.118,1306 877.925,1303.17 873.36,1300.66 868.455,1298.54 863.243,1296.83 857.762,1295.57 852.057,1294.79 846.174,1294.53 840.161,1294.79 834.071,1295.61 827.958,1296.99 821.877,1298.93 815.886,1301.45 810.04,1304.53 804.396,1308.16 799.009,1312.33 793.933,1317.02 789.219,1322.19 784.915,1327.81 781.067,1333.85 777.715,1340.26 774.897,1346.99 772.644,1353.99 770.982,1361.22 769.933,1368.6 769.512,1376.09 769.728,1383.63 770.584,1391.14 772.076,1398.58 774.197,1405.88 776.929,1412.98 780.252,1419.82 784.139,1426.36 788.557,1432.53 793.468,1438.29 798.831,1443.6 804.599,1448.41 810.721,1452.69 817.146,1456.42 823.816,1459.56 830.674,1462.11 837.663,1464.04 844.72,1465.35 851.789,1466.05 858.808,1466.14 865.721,1465.63 872.473,1464.54 879.009,1462.9 885.279,1460.72 891.238,1458.05 896.841,1454.93 902.051,1451.39 906.835,1447.48 911.164,1443.25 915.015,1438.75 918.371,1434.03 921.218,1429.13 923.552,1424.13 925.372,1419.06 926.681,1413.98 927.491,1408.95 927.816,1404 927.676,1399.19 927.097,1394.56 926.106,1390.16 924.735,1386 923.021,1382.14 921.002,1378.59 918.717,1375.38 916.21,1372.53 913.523,1370.05 910.7,1367.94 907.785,1366.23 904.821,1364.89 "/>
<line clip-path="url(#clip862)" x1="994.74" y1="1364.89" x2="978.74" y2="1348.89" style="stroke:#808080; stroke-width:3.2; stroke-opacity:1"/>
<line clip-path="url(#clip862)" x1="994.74" y1="1364.89" x2="978.74" y2="1380.89" style="stroke:#808080; stroke-width:3.2; stroke-opacity:1"/>
<line clip-path="url(#clip862)" x1="994.74" y1="1364.89" x2="1010.74" y2="1380.89" style="stroke:#808080; stroke-width:3.2; stroke-opacity:1"/>
<line clip-path="url(#clip862)" x1="994.74" y1="1364.89" x2="1010.74" y2="1348.89" style="stroke:#808080; stroke-width:3.2; stroke-opacity:1"/>
<polyline clip-path="url(#clip862)" style="stroke:#808080; stroke-linecap:round; stroke-linejoin:round; stroke-width:4; stroke-opacity:1; fill:none" points="994.74,1364.89 958.255,1381.24 "/>
<polyline clip-path="url(#clip862)" style="stroke:#808080; stroke-linecap:round; stroke-linejoin:round; stroke-width:4; stroke-opacity:1; fill:none" points="998.468,1382.95 958.255,1381.24 983.752,1350.09 "/>
<polyline clip-path="url(#clip862)" style="stroke:#808080; stroke-linecap:round; stroke-linejoin:round; stroke-width:4; stroke-opacity:1; fill:none" points="958.255,1381.24 994.74,1364.89 "/>
<polyline clip-path="url(#clip862)" style="stroke:#808080; stroke-linecap:round; stroke-linejoin:round; stroke-width:4; stroke-opacity:1; fill:none" points="1382.74,1131.76 1382.61,1124.15 1381.85,1116.58 1380.45,1109.11 1378.42,1101.79 1375.79,1094.69 1372.58,1087.86 1368.82,1081.35 1364.54,1075.22 1359.79,1069.51 1354.6,1064.26 1349.03,1059.51 1343.13,1055.29 1336.95,1051.62 1330.54,1048.53 1323.98,1046.03 1317.3,1044.12 1310.58,1042.82 1303.86,1042.12 1297.22,1042 1290.7,1042.45 1284.35,1043.46 1278.23,1044.99 1272.38,1047.02 1266.84,1049.5 1261.67,1052.41 1256.88,1055.7 1252.51,1059.31 1248.59,1063.22 1245.12,1067.36 1242.14,1071.68 1239.63,1076.14 1237.62,1080.69 1236.08,1085.26 1235.03,1089.82 1234.43,1094.32 1234.29,1098.7 1234.56,1102.94 1235.23,1106.98 1236.27,1110.79 1237.64,1114.35 1239.31,1117.62 1241.24,1120.58 1243.39,1123.21 1245.72,1125.49 1248.18,1127.43 1250.74,1129.01 1253.36,1130.23 1255.98,1131.09 1258.58,1131.62 1261.12,1131.82 1262.28,1131.82 1259.82,1132.25 1257.33,1133.02 1254.86,1134.13 1252.43,1135.58 1250.09,1137.38 1247.88,1139.51 1245.84,1141.99 1244.02,1144.78 1242.44,1147.87 1241.16,1151.23 1240.2,1154.85 1239.59,1158.69 1239.37,1162.72 1239.56,1166.89 1240.18,1171.16 1241.25,1175.5 1242.78,1179.85 1244.79,1184.16 1247.27,1188.39 1250.22,1192.48 1253.63,1196.39 1257.5,1200.07 1261.79,1203.46 1266.49,1206.53 1271.57,1209.21 1276.99,1211.49 1282.71,1213.3 1288.7,1214.63 1294.9,1215.44 1301.27,1215.71 1307.75,1215.41 1314.28,1214.53 1320.82,1213.06 1327.31,1211 1333.68,1208.36 1339.88,1205.13 1345.84,1201.33 1351.53,1196.99 1356.88,1192.14 1361.83,1186.79 1366.36,1180.99 1370.4,1174.78 1373.92,1168.21 1376.89,1161.33 1379.28,1154.18 1381.06,1146.83 1382.22,1139.34 1382.74,1131.76 "/>
<line clip-path="url(#clip862)" x1="1370.87" y1="1131.76" x2="1354.87" y2="1115.76" style="stroke:#808080; stroke-width:3.2; stroke-opacity:1"/>
<line clip-path="url(#clip862)" x1="1370.87" y1="1131.76" x2="1354.87" y2="1147.76" style="stroke:#808080; stroke-width:3.2; stroke-opacity:1"/>
<line clip-path="url(#clip862)" x1="1370.87" y1="1131.76" x2="1386.87" y2="1147.76" style="stroke:#808080; stroke-width:3.2; stroke-opacity:1"/>
<line clip-path="url(#clip862)" x1="1370.87" y1="1131.76" x2="1386.87" y2="1115.76" style="stroke:#808080; stroke-width:3.2; stroke-opacity:1"/>
<polyline clip-path="url(#clip862)" style="stroke:#808080; stroke-linecap:round; stroke-linejoin:round; stroke-width:4; stroke-opacity:1; fill:none" points="1370.87,1131.76 1410.72,1128.63 "/>
<polyline clip-path="url(#clip862)" style="stroke:#808080; stroke-linecap:round; stroke-linejoin:round; stroke-width:4; stroke-opacity:1; fill:none" points="1373.42,1113.5 1410.72,1128.63 1376.24,1149.39 "/>
<polyline clip-path="url(#clip862)" style="stroke:#808080; stroke-linecap:round; stroke-linejoin:round; stroke-width:4; stroke-opacity:1; fill:none" points="1410.72,1128.63 1370.87,1131.76 "/>
<polyline clip-path="url(#clip862)" style="stroke:#808080; stroke-linecap:round; stroke-linejoin:round; stroke-width:4; stroke-opacity:1; fill:none" points="910.391,1228.83 907.587,1228.25 904.85,1228.01 902.217,1228.09 899.719,1228.49 899.418,1228.49 901.728,1227.5 903.989,1226.17 906.162,1224.51 908.207,1222.52 910.085,1220.22 911.758,1217.62 913.186,1214.73 914.335,1211.57 915.17,1208.18 915.659,1204.59 915.775,1200.82 915.494,1196.92 914.793,1192.92 913.658,1188.88 912.076,1184.83 910.039,1180.83 907.548,1176.92 904.604,1173.15 901.217,1169.57 897.4,1166.23 893.174,1163.17 888.561,1160.45 883.593,1158.1 878.302,1156.16 872.729,1154.68 866.914,1153.68 860.905,1153.19 854.752,1153.24 848.506,1153.85 842.221,1155.02 835.954,1156.77 829.762,1159.1 823.702,1162.01 817.83,1165.48 812.203,1169.49 806.875,1174.04 801.899,1179.08 797.323,1184.6 793.194,1190.54 789.554,1196.87 786.441,1203.55 783.888,1210.51 781.924,1217.71 780.569,1225.09 779.842,1232.59 779.752,1240.16 780.303,1247.73 781.495,1255.23 783.318,1262.62 785.76,1269.83 788.799,1276.79 792.41,1283.47 796.562,1289.8 801.218,1295.73 806.338,1301.23 811.875,1306.24 817.78,1310.73 824.002,1314.68 830.485,1318.06 837.172,1320.85 844.005,1323.04 850.924,1324.61 857.871,1325.57 864.787,1325.93 871.614,1325.69 878.297,1324.88 884.782,1323.5 891.018,1321.6 896.96,1319.21 902.563,1316.35 907.789,1313.07 912.603,1309.42 916.978,1305.44 920.889,1301.18 924.317,1296.69 927.251,1292.02 929.681,1287.23 931.608,1282.36 933.035,1277.48 933.969,1272.62 934.427,1267.84 934.427,1263.19 933.991,1258.7 933.148,1254.42 931.93,1250.38 930.369,1246.62 928.504,1243.16 926.375,1240.03 924.021,1237.25 921.486,1234.82 918.813,1232.77 916.045,1231.08 913.223,1229.77 910.391,1228.83 "/>
<line clip-path="url(#clip862)" x1="1006.33" y1="1228.83" x2="990.334" y2="1212.83" style="stroke:#808080; stroke-width:3.2; stroke-opacity:1"/>
<line clip-path="url(#clip862)" x1="1006.33" y1="1228.83" x2="990.334" y2="1244.83" style="stroke:#808080; stroke-width:3.2; stroke-opacity:1"/>
<line clip-path="url(#clip862)" x1="1006.33" y1="1228.83" x2="1022.33" y2="1244.83" style="stroke:#808080; stroke-width:3.2; stroke-opacity:1"/>
<line clip-path="url(#clip862)" x1="1006.33" y1="1228.83" x2="1022.33" y2="1212.83" style="stroke:#808080; stroke-width:3.2; stroke-opacity:1"/>
<polyline clip-path="url(#clip862)" style="stroke:#808080; stroke-linecap:round; stroke-linejoin:round; stroke-width:4; stroke-opacity:1; fill:none" points="1006.33,1228.83 968.018,1240.24 "/>
<polyline clip-path="url(#clip862)" style="stroke:#808080; stroke-linecap:round; stroke-linejoin:round; stroke-width:4; stroke-opacity:1; fill:none" points="1007.66,1247.22 968.018,1240.24 997.386,1212.71 "/>
<polyline clip-path="url(#clip862)" style="stroke:#808080; stroke-linecap:round; stroke-linejoin:round; stroke-width:4; stroke-opacity:1; fill:none" points="968.018,1240.24 1006.33,1228.83 "/>
<polyline clip-path="url(#clip862)" style="stroke:#808080; stroke-linecap:round; stroke-linejoin:round; stroke-width:4; stroke-opacity:1; fill:none" points="1373.55,1041.65 1371.05,1035.33 1368.05,1029.35 1364.61,1023.74 1360.75,1018.53 1356.52,1013.78 1351.98,1009.49 1347.17,1005.7 1342.16,1002.42 1336.98,999.669 1331.7,997.442 1326.36,995.743 1321.03,994.567 1315.76,993.903 1310.58,993.734 1305.56,994.04 1300.73,994.794 1296.13,995.968 1291.8,997.527 1287.78,999.436 1284.09,1001.65 1280.75,1004.14 1277.79,1006.85 1275.21,1009.74 1273.03,1012.77 1271.25,1015.89 1269.86,1019.05 1268.86,1022.22 1268.24,1025.35 1267.99,1028.4 1268.09,1031.34 1268.5,1034.13 1269.22,1036.73 1270.2,1039.13 1271.42,1041.3 1270.42,1040.03 1268.65,1038.18 1266.59,1036.5 1264.24,1035.02 1261.63,1033.76 1258.77,1032.78 1255.7,1032.1 1252.45,1031.75 1249.04,1031.75 1245.51,1032.14 1241.91,1032.92 1238.28,1034.11 1234.66,1035.73 1231.09,1037.78 1227.63,1040.25 1224.32,1043.15 1221.21,1046.47 1218.34,1050.18 1215.76,1054.28 1213.51,1058.72 1211.63,1063.5 1210.17,1068.56 1209.15,1073.87 1208.61,1079.4 1208.57,1085.08 1209.05,1090.88 1210.08,1096.74 1211.65,1102.61 1213.79,1108.43 1216.48,1114.15 1219.72,1119.72 1223.49,1125.07 1227.79,1130.15 1232.59,1134.91 1237.86,1139.3 1243.56,1143.28 1249.66,1146.79 1256.11,1149.8 1262.86,1152.27 1269.87,1154.18 1277.08,1155.49 1284.43,1156.19 1291.86,1156.26 1299.32,1155.7 1306.75,1154.5 1314.07,1152.67 1321.24,1150.22 1328.19,1147.17 1334.87,1143.53 1341.22,1139.34 1347.19,1134.63 1352.74,1129.43 1357.81,1123.8 1362.38,1117.78 1366.4,1111.41 1369.86,1104.76 1372.72,1097.88 1374.97,1090.83 1376.61,1083.67 1377.62,1076.45 1378,1069.24 1377.77,1062.1 1376.94,1055.09 1375.52,1048.25 1373.55,1041.65 "/>
<line clip-path="url(#clip862)" x1="1379.59" y1="1041.65" x2="1363.59" y2="1025.65" style="stroke:#808080; stroke-width:3.2; stroke-opacity:1"/>
<line clip-path="url(#clip862)" x1="1379.59" y1="1041.65" x2="1363.59" y2="1057.65" style="stroke:#808080; stroke-width:3.2; stroke-opacity:1"/>
<line clip-path="url(#clip862)" x1="1379.59" y1="1041.65" x2="1395.59" y2="1057.65" style="stroke:#808080; stroke-width:3.2; stroke-opacity:1"/>
<line clip-path="url(#clip862)" x1="1379.59" y1="1041.65" x2="1395.59" y2="1025.65" style="stroke:#808080; stroke-width:3.2; stroke-opacity:1"/>
<polyline clip-path="url(#clip862)" style="stroke:#808080; stroke-linecap:round; stroke-linejoin:round; stroke-width:4; stroke-opacity:1; fill:none" points="1379.59,1041.65 1402.1,1074.69 "/>
<polyline clip-path="url(#clip862)" style="stroke:#808080; stroke-linecap:round; stroke-linejoin:round; stroke-width:4; stroke-opacity:1; fill:none" points="1396.71,1034.8 1402.1,1074.69 1366.96,1055.07 "/>
<polyline clip-path="url(#clip862)" style="stroke:#808080; stroke-linecap:round; stroke-linejoin:round; stroke-width:4; stroke-opacity:1; fill:none" points="1402.1,1074.69 1379.59,1041.65 "/>
<polyline clip-path="url(#clip862)" style="stroke:#808080; stroke-linecap:round; stroke-linejoin:round; stroke-width:4; stroke-opacity:1; fill:none" points="1153.1,286.703 1156.29,284.154 1159.32,281.199 1162.14,277.847 1164.7,274.118 1166.95,270.031 1168.87,265.614 1170.4,260.898 1171.52,255.919 1172.19,250.716 1172.38,245.332 1172.07,239.815 1171.24,234.214 1169.88,228.58 1167.97,222.967 1165.52,217.429 1162.53,212.021 1159,206.799 1154.96,201.816 1150.41,197.126 1145.4,192.778 1139.94,188.822 1134.07,185.303 1127.84,182.263 1121.29,179.738 1114.46,177.763 1107.42,176.363 1100.21,175.563 1092.9,175.379 1085.54,175.822 1078.19,176.896 1070.91,178.6 1063.77,180.928 1056.82,183.864 1050.12,187.391 1043.72,191.482 1037.69,196.106 1032.06,201.228 1026.89,206.807 1022.21,212.796 1018.06,219.147 1014.48,225.808 1011.48,232.722 1009.09,239.832 1007.33,247.079 1006.19,254.403 1005.68,261.742 1005.8,269.038 1006.53,276.231 1007.86,283.264 1009.77,290.081 1012.23,296.63 1015.2,302.863 1018.65,308.733 1022.54,314.2 1026.83,319.229 1031.45,323.787 1036.38,327.85 1041.54,331.397 1046.89,334.414 1052.37,336.891 1057.93,338.827 1063.51,340.222 1069.07,341.086 1074.54,341.433 1079.88,341.281 1085.04,340.653 1089.99,339.577 1094.67,338.086 1099.05,336.215 1103.11,334.002 1106.82,331.489 1110.15,328.72 1113.09,325.738 1115.62,322.59 1117.74,319.321 1119.46,315.977 1120.76,312.603 1121.66,309.243 1122.17,305.939 1122.31,302.73 1122.11,299.654 1121.57,296.744 1120.74,294.031 1119.64,291.541 1118.3,289.297 1116.76,287.319 1117.36,287.815 1119.37,289.367 1121.64,290.716 1124.17,291.828 1126.92,292.67 1129.86,293.211 1132.98,293.424 1136.23,293.284 1139.58,292.77 1142.98,291.866 1146.4,290.558 1149.79,288.838 1153.1,286.703 "/>
<line clip-path="url(#clip862)" x1="1224.13" y1="286.703" x2="1208.13" y2="270.703" style="stroke:#808080; stroke-width:3.2; stroke-opacity:1"/>
<line clip-path="url(#clip862)" x1="1224.13" y1="286.703" x2="1208.13" y2="302.703" style="stroke:#808080; stroke-width:3.2; stroke-opacity:1"/>
<line clip-path="url(#clip862)" x1="1224.13" y1="286.703" x2="1240.13" y2="302.703" style="stroke:#808080; stroke-width:3.2; stroke-opacity:1"/>
<line clip-path="url(#clip862)" x1="1224.13" y1="286.703" x2="1240.13" y2="270.703" style="stroke:#808080; stroke-width:3.2; stroke-opacity:1"/>
<polyline clip-path="url(#clip862)" style="stroke:#808080; stroke-linecap:round; stroke-linejoin:round; stroke-width:4; stroke-opacity:1; fill:none" points="1224.13,286.703 1196.37,257.934 "/>
<polyline clip-path="url(#clip862)" style="stroke:#808080; stroke-linecap:round; stroke-linejoin:round; stroke-width:4; stroke-opacity:1; fill:none" points="1208.42,296.339 1196.37,257.934 1234.32,271.342 "/>
<polyline clip-path="url(#clip862)" style="stroke:#808080; stroke-linecap:round; stroke-linejoin:round; stroke-width:4; stroke-opacity:1; fill:none" points="1196.37,257.934 1224.13,286.703 "/>
<polyline clip-path="url(#clip862)" style="stroke:#808080; stroke-linecap:round; stroke-linejoin:round; stroke-width:4; stroke-opacity:1; fill:none" points="1636.38,326.964 1633.04,322.708 1629.42,318.879 1625.56,315.497 1621.53,312.574 1617.36,310.118 1613.11,308.132 1608.82,306.613 1604.55,305.553 1600.34,304.94 1596.23,304.755 1592.27,304.977 1588.49,305.58 1584.94,306.534 1581.63,307.808 1578.6,309.366 1575.87,311.172 1573.45,313.185 1571.36,315.366 1569.62,317.675 1568.21,320.071 1567.15,322.513 1566.42,324.964 1566.11,326.54 1566.21,324.053 1565.98,321.469 1565.42,318.824 1564.51,316.155 1563.25,313.502 1561.63,310.905 1559.64,308.407 1557.31,306.048 1554.62,303.871 1551.61,301.918 1548.28,300.227 1544.66,298.839 1540.78,297.787 1536.68,297.107 1532.38,296.827 1527.93,296.974 1523.37,297.571 1518.75,298.634 1514.11,300.178 1509.5,302.209 1504.98,304.73 1500.59,307.739 1496.39,311.228 1492.43,315.182 1488.76,319.582 1485.42,324.404 1482.46,329.618 1479.93,335.189 1477.85,341.079 1476.28,347.243 1475.23,353.635 1474.74,360.204 1474.82,366.897 1475.49,373.657 1476.77,380.429 1478.64,387.152 1481.12,393.77 1484.18,400.223 1487.83,406.453 1492.03,412.405 1496.77,418.024 1502,423.259 1507.7,428.063 1513.82,432.39 1520.31,436.202 1527.13,439.462 1534.22,442.142 1541.53,444.217 1549,445.669 1556.56,446.484 1564.17,446.657 1571.75,446.187 1579.24,445.081 1586.59,443.35 1593.73,441.013 1600.62,438.093 1607.2,434.621 1613.41,430.63 1619.21,426.16 1624.57,421.255 1629.44,415.961 1633.79,410.33 1637.6,404.414 1640.85,398.27 1643.52,391.953 1645.6,385.523 1647.09,379.036 1648,372.55 1648.33,366.121 1648.1,359.804 1647.32,353.652 1646.03,347.713 1644.26,342.034 1642.03,336.659 1639.39,331.624 1636.38,326.964 "/>
<line clip-path="url(#clip862)" x1="1674.01" y1="326.964" x2="1658.01" y2="310.964" style="stroke:#808080; stroke-width:3.2; stroke-opacity:1"/>
<line clip-path="url(#clip862)" x1="1674.01" y1="326.964" x2="1658.01" y2="342.964" style="stroke:#808080; stroke-width:3.2; stroke-opacity:1"/>
<line clip-path="url(#clip862)" x1="1674.01" y1="326.964" x2="1690.01" y2="342.964" style="stroke:#808080; stroke-width:3.2; stroke-opacity:1"/>
<line clip-path="url(#clip862)" x1="1674.01" y1="326.964" x2="1690.01" y2="310.964" style="stroke:#808080; stroke-width:3.2; stroke-opacity:1"/>
<polyline clip-path="url(#clip862)" style="stroke:#808080; stroke-linecap:round; stroke-linejoin:round; stroke-width:4; stroke-opacity:1; fill:none" points="1674.01,326.964 1669.13,366.644 "/>
<polyline clip-path="url(#clip862)" style="stroke:#808080; stroke-linecap:round; stroke-linejoin:round; stroke-width:4; stroke-opacity:1; fill:none" points="1691.39,333.106 1669.13,366.644 1655.66,328.718 "/>
<polyline clip-path="url(#clip862)" style="stroke:#808080; stroke-linecap:round; stroke-linejoin:round; stroke-width:4; stroke-opacity:1; fill:none" points="1669.13,366.644 1674.01,326.964 "/>
<polyline clip-path="url(#clip862)" style="stroke:#808080; stroke-linecap:round; stroke-linejoin:round; stroke-width:4; stroke-opacity:1; fill:none" points="1131.55,867.61 1128.64,861.983 1125.31,856.736 1121.6,851.902 1117.56,847.512 1113.24,843.59 1108.69,840.152 1103.96,837.213 1099.11,834.78 1094.18,832.854 1089.23,831.432 1084.32,830.505 1079.48,830.058 1074.77,830.073 1070.23,830.527 1065.89,831.39 1061.8,832.633 1057.99,834.22 1054.48,836.114 1051.31,838.276 1048.48,840.664 1046.01,843.235 1043.92,845.947 1042.2,848.755 1040.86,851.618 1039.89,854.493 1039.28,857.34 1039.02,860.121 1039.09,862.799 1039.47,865.34 1040.06,867.503 1039.1,865.222 1037.81,862.988 1036.19,860.84 1034.25,858.818 1031.99,856.959 1029.44,855.304 1026.6,853.89 1023.49,852.753 1020.16,851.926 1016.62,851.441 1012.9,851.326 1009.06,851.606 1005.12,852.3 1001.13,853.426 997.142,854.996 993.195,857.015 989.339,859.487 985.624,862.408 982.098,865.768 978.809,869.555 975.805,873.749 973.129,878.326 970.827,883.256 968.936,888.505 967.495,894.035 966.536,899.804 966.088,905.766 966.173,911.87 966.812,918.065 968.016,924.297 969.795,930.51 972.149,936.647 975.076,942.651 978.564,948.467 982.599,954.036 987.159,959.307 992.216,964.225 997.738,968.743 1003.69,972.814 1010.02,976.395 1016.7,979.45 1023.66,981.944 1030.86,983.851 1038.23,985.148 1045.73,985.819 1053.29,985.852 1060.84,985.244 1068.34,983.997 1075.71,982.119 1082.89,979.623 1089.84,976.53 1096.49,972.866 1102.8,968.662 1108.71,963.955 1114.17,958.785 1119.15,953.199 1123.62,947.245 1127.54,940.976 1130.88,934.448 1133.63,927.716 1135.77,920.84 1137.3,913.879 1138.22,906.892 1138.54,899.939 1138.25,893.076 1137.38,886.359 1135.96,879.843 1134.01,873.577 1131.55,867.61 "/>
<line clip-path="url(#clip862)" x1="1148.04" y1="867.61" x2="1132.04" y2="851.61" style="stroke:#808080; stroke-width:3.2; stroke-opacity:1"/>
<line clip-path="url(#clip862)" x1="1148.04" y1="867.61" x2="1132.04" y2="883.61" style="stroke:#808080; stroke-width:3.2; stroke-opacity:1"/>
<line clip-path="url(#clip862)" x1="1148.04" y1="867.61" x2="1164.04" y2="883.61" style="stroke:#808080; stroke-width:3.2; stroke-opacity:1"/>
<line clip-path="url(#clip862)" x1="1148.04" y1="867.61" x2="1164.04" y2="851.61" style="stroke:#808080; stroke-width:3.2; stroke-opacity:1"/>
<polyline clip-path="url(#clip862)" style="stroke:#808080; stroke-linecap:round; stroke-linejoin:round; stroke-width:4; stroke-opacity:1; fill:none" points="1148.04,867.61 1161,905.427 "/>
<polyline clip-path="url(#clip862)" style="stroke:#808080; stroke-linecap:round; stroke-linejoin:round; stroke-width:4; stroke-opacity:1; fill:none" points="1166.36,865.535 1161,905.427 1132.3,877.209 "/>
<polyline clip-path="url(#clip862)" style="stroke:#808080; stroke-linecap:round; stroke-linejoin:round; stroke-width:4; stroke-opacity:1; fill:none" points="1161,905.427 1148.04,867.61 "/>
<polyline clip-path="url(#clip862)" style="stroke:#808080; stroke-linecap:round; stroke-linejoin:round; stroke-width:4; stroke-opacity:1; fill:none" points="1402.18,949.729 1399.08,944.543 1395.61,939.758 1391.81,935.404 1387.72,931.503 1383.41,928.075 1378.92,925.133 1374.3,922.683 1369.6,920.729 1364.88,919.265 1360.19,918.285 1355.56,917.773 1351.06,917.712 1346.72,918.078 1342.57,918.845 1338.66,919.981 1335.03,921.453 1331.68,923.224 1328.66,925.255 1325.97,927.506 1323.64,929.935 1321.66,932.5 1320.05,935.158 1318.8,937.868 1317.92,940.588 1317.38,943.279 1317.18,945.904 1317.29,948.428 1317.25,948.62 1316.51,946.213 1315.44,943.817 1314.02,941.474 1312.27,939.221 1310.19,937.1 1307.78,935.15 1305.06,933.411 1302.05,931.921 1298.77,930.718 1295.25,929.835 1291.51,929.305 1287.6,929.156 1283.55,929.413 1279.4,930.097 1275.2,931.225 1270.99,932.809 1266.83,934.856 1262.76,937.368 1258.82,940.343 1255.08,943.77 1251.57,947.637 1248.36,951.923 1245.47,956.605 1242.96,961.652 1240.87,967.031 1239.24,972.703 1238.09,978.624 1237.46,984.749 1237.38,991.026 1237.85,997.404 1238.9,1003.83 1240.53,1010.24 1242.75,1016.59 1245.55,1022.81 1248.93,1028.85 1252.86,1034.64 1257.32,1040.15 1262.3,1045.31 1267.75,1050.07 1273.64,1054.38 1279.93,1058.22 1286.57,1061.52 1293.51,1064.27 1300.7,1066.43 1308.08,1067.98 1315.59,1068.91 1323.17,1069.19 1330.77,1068.84 1338.31,1067.84 1345.74,1066.21 1353,1063.96 1360.03,1061.11 1366.78,1057.68 1373.19,1053.71 1379.21,1049.22 1384.81,1044.27 1389.93,1038.9 1394.54,1033.16 1398.61,1027.09 1402.12,1020.75 1405.04,1014.2 1407.37,1007.5 1409.1,1000.7 1410.21,993.87 1410.73,987.06 1410.66,980.33 1410.01,973.736 1408.81,967.33 1407.08,961.163 1404.86,955.282 1402.18,949.729 "/>
<line clip-path="url(#clip862)" x1="1425.42" y1="949.729" x2="1409.42" y2="933.729" style="stroke:#808080; stroke-width:3.2; stroke-opacity:1"/>
<line clip-path="url(#clip862)" x1="1425.42" y1="949.729" x2="1409.42" y2="965.729" style="stroke:#808080; stroke-width:3.2; stroke-opacity:1"/>
<line clip-path="url(#clip862)" x1="1425.42" y1="949.729" x2="1441.42" y2="965.729" style="stroke:#808080; stroke-width:3.2; stroke-opacity:1"/>
<line clip-path="url(#clip862)" x1="1425.42" y1="949.729" x2="1441.42" y2="933.729" style="stroke:#808080; stroke-width:3.2; stroke-opacity:1"/>
<polyline clip-path="url(#clip862)" style="stroke:#808080; stroke-linecap:round; stroke-linejoin:round; stroke-width:4; stroke-opacity:1; fill:none" points="1425.42,949.729 1432.46,989.083 "/>
<polyline clip-path="url(#clip862)" style="stroke:#808080; stroke-linecap:round; stroke-linejoin:round; stroke-width:4; stroke-opacity:1; fill:none" points="1443.84,950.478 1432.46,989.083 1408.4,956.812 "/>
<polyline clip-path="url(#clip862)" style="stroke:#808080; stroke-linecap:round; stroke-linejoin:round; stroke-width:4; stroke-opacity:1; fill:none" points="1432.46,989.083 1425.42,949.729 "/>
<polyline clip-path="url(#clip862)" style="stroke:#808080; stroke-linecap:round; stroke-linejoin:round; stroke-width:4; stroke-opacity:1; fill:none" points="1149.8,626.665 1149.66,619.058 1148.87,611.49 1147.45,604.021 1145.41,596.711 1142.76,589.618 1139.54,582.798 1135.76,576.305 1131.47,570.187 1126.71,564.491 1121.52,559.258 1115.94,554.523 1110.03,550.32 1103.85,546.672 1097.45,543.6 1090.88,541.119 1084.21,539.235 1077.5,537.952 1070.79,537.266 1064.16,537.166 1057.65,537.637 1051.32,538.658 1045.21,540.203 1039.38,542.241 1033.87,544.737 1028.71,547.652 1023.95,550.944 1019.6,554.566 1015.7,558.472 1012.26,562.611 1009.29,566.933 1006.81,571.387 1004.82,575.923 1003.31,580.489 1002.27,585.036 1001.69,589.517 1001.56,593.887 1001.85,598.104 1002.54,602.127 1003.59,605.922 1004.97,609.458 1006.65,612.705 1008.58,615.642 1010.74,618.249 1013.07,620.513 1015.53,622.426 1018.09,623.982 1020.7,625.181 1023.32,626.03 1025.91,626.536 1028.44,626.713 1029.05,626.752 1026.58,627.206 1024.09,627.992 1021.6,629.12 1019.17,630.593 1016.83,632.411 1014.63,634.572 1012.6,637.064 1010.78,639.875 1009.21,642.986 1007.93,646.375 1006.98,650.014 1006.39,653.871 1006.18,657.912 1006.39,662.098 1007.03,666.386 1008.12,670.733 1009.68,675.092 1011.71,679.413 1014.21,683.648 1017.18,687.746 1020.62,691.657 1024.51,695.332 1028.82,698.72 1033.54,701.777 1038.64,704.457 1044.08,706.719 1049.82,708.525 1055.83,709.839 1062.05,710.634 1068.43,710.882 1074.92,710.565 1081.47,709.668 1088.01,708.181 1094.5,706.103 1100.87,703.435 1107.07,700.186 1113.04,696.372 1118.72,692.013 1124.06,687.136 1129.01,681.772 1133.52,675.958 1137.55,669.737 1141.06,663.153 1144.02,656.258 1146.39,649.104 1148.16,641.748 1149.3,634.248 1149.8,626.665 "/>
<line clip-path="url(#clip862)" x1="1137.91" y1="626.665" x2="1121.91" y2="610.665" style="stroke:#808080; stroke-width:3.2; stroke-opacity:1"/>
<line clip-path="url(#clip862)" x1="1137.91" y1="626.665" x2="1121.91" y2="642.665" style="stroke:#808080; stroke-width:3.2; stroke-opacity:1"/>
<line clip-path="url(#clip862)" x1="1137.91" y1="626.665" x2="1153.91" y2="642.665" style="stroke:#808080; stroke-width:3.2; stroke-opacity:1"/>
<line clip-path="url(#clip862)" x1="1137.91" y1="626.665" x2="1153.91" y2="610.665" style="stroke:#808080; stroke-width:3.2; stroke-opacity:1"/>
<polyline clip-path="url(#clip862)" style="stroke:#808080; stroke-linecap:round; stroke-linejoin:round; stroke-width:4; stroke-opacity:1; fill:none" points="1137.91,626.665 1177.78,623.818 "/>
<polyline clip-path="url(#clip862)" style="stroke:#808080; stroke-linecap:round; stroke-linejoin:round; stroke-width:4; stroke-opacity:1; fill:none" points="1140.59,608.427 1177.78,623.818 1143.16,644.336 "/>
<polyline clip-path="url(#clip862)" style="stroke:#808080; stroke-linecap:round; stroke-linejoin:round; stroke-width:4; stroke-opacity:1; fill:none" points="1177.78,623.818 1137.91,626.665 "/>
<polyline clip-path="url(#clip862)" style="stroke:#808080; stroke-linecap:round; stroke-linejoin:round; stroke-width:4; stroke-opacity:1; fill:none" points="838.148,950.572 835.459,944.534 832.306,938.85 828.731,933.558 824.778,928.692 820.496,924.283 815.934,920.354 811.144,916.923 806.179,914.003 801.092,911.601 795.936,909.72 790.765,908.354 785.629,907.495 780.579,907.129 775.66,907.234 770.918,907.789 766.393,908.763 762.122,910.126 758.139,911.842 754.472,913.873 751.146,916.179 748.18,918.716 745.588,921.443 743.38,924.313 741.561,927.285 740.13,930.313 739.083,933.354 738.41,936.368 738.096,939.315 738.126,942.158 738.476,944.863 739.122,947.397 740.037,949.735 739.695,949.261 738.212,947.205 736.416,945.269 734.314,943.489 731.92,941.904 729.251,940.551 726.328,939.465 723.177,938.679 719.827,938.224 716.313,938.128 712.67,938.413 708.938,939.102 705.16,940.209 701.38,941.747 697.644,943.722 694,946.137 690.495,948.986 687.178,952.263 684.095,955.954 681.292,960.038 678.815,964.494 676.704,969.29 675,974.395 673.739,979.769 672.952,985.371 672.667,991.155 672.907,997.073 673.692,1003.07 675.033,1009.1 676.937,1015.1 679.407,1021.02 682.438,1026.8 686.02,1032.39 690.137,1037.72 694.767,1042.75 699.883,1047.43 705.452,1051.7 711.437,1055.52 717.796,1058.85 724.481,1061.65 731.443,1063.9 738.627,1065.55 745.979,1066.6 753.438,1067.02 760.946,1066.8 768.442,1065.95 775.864,1064.46 783.153,1062.34 790.248,1059.61 797.092,1056.29 803.631,1052.4 809.811,1047.97 815.584,1043.05 820.905,1037.68 825.734,1031.89 830.036,1025.74 833.78,1019.29 836.942,1012.58 839.504,1005.68 841.453,998.649 842.783,991.539 843.493,984.414 843.589,977.333 843.082,970.353 841.99,963.53 840.336,956.92 838.148,950.572 "/>
<line clip-path="url(#clip862)" x1="848.392" y1="950.572" x2="832.392" y2="934.572" style="stroke:#808080; stroke-width:3.2; stroke-opacity:1"/>
<line clip-path="url(#clip862)" x1="848.392" y1="950.572" x2="832.392" y2="966.572" style="stroke:#808080; stroke-width:3.2; stroke-opacity:1"/>
<line clip-path="url(#clip862)" x1="848.392" y1="950.572" x2="864.392" y2="966.572" style="stroke:#808080; stroke-width:3.2; stroke-opacity:1"/>
<line clip-path="url(#clip862)" x1="848.392" y1="950.572" x2="864.392" y2="934.572" style="stroke:#808080; stroke-width:3.2; stroke-opacity:1"/>
<polyline clip-path="url(#clip862)" style="stroke:#808080; stroke-linecap:round; stroke-linejoin:round; stroke-width:4; stroke-opacity:1; fill:none" points="848.392,950.572 867.01,985.95 "/>
<polyline clip-path="url(#clip862)" style="stroke:#808080; stroke-linecap:round; stroke-linejoin:round; stroke-width:4; stroke-opacity:1; fill:none" points="866.174,945.71 867.01,985.95 834.316,962.475 "/>
<polyline clip-path="url(#clip862)" style="stroke:#808080; stroke-linecap:round; stroke-linejoin:round; stroke-width:4; stroke-opacity:1; fill:none" points="867.01,985.95 848.392,950.572 "/>
<polyline clip-path="url(#clip862)" style="stroke:#808080; stroke-linecap:round; stroke-linejoin:round; stroke-width:4; stroke-opacity:1; fill:none" points="1053.16,910.26 1054.59,903.182 1055.42,895.942 1055.63,888.595 1055.22,881.202 1054.17,873.823 1052.49,866.518 1050.18,859.347 1047.27,852.371 1043.77,845.647 1039.7,839.23 1035.1,833.172 1030,827.524 1024.44,822.331 1018.48,817.632 1012.15,813.465 1005.52,809.86 998.635,806.843 991.556,804.432 984.341,802.642 977.05,801.48 969.745,800.946 962.485,801.036 955.329,801.739 948.334,803.039 941.554,804.911 935.043,807.33 928.848,810.262 923.015,813.67 917.584,817.512 912.59,821.743 908.064,826.315 904.031,831.177 900.512,836.277 897.52,841.562 895.064,846.976 893.146,852.464 891.763,857.974 890.907,863.452 890.564,868.846 890.715,874.109 891.336,879.193 892.4,884.057 893.873,888.661 895.721,892.969 897.905,896.952 900.383,900.583 903.113,903.841 906.051,906.71 909.15,909.178 912.365,911.24 915.65,912.893 918.962,914.142 922.257,914.996 925.493,915.467 928.632,915.572 931.636,915.332 934.473,914.772 937.112,913.92 939.528,912.805 941.698,911.461 942.844,910.601 941.119,912.4 939.567,914.483 938.223,916.833 937.123,919.433 936.299,922.257 935.782,925.28 935.599,928.469 935.774,931.791 936.329,935.206 937.28,938.676 938.64,942.157 940.416,945.606 942.612,948.976 945.225,952.221 948.248,955.295 951.671,958.152 955.474,960.746 959.636,963.034 964.129,964.975 968.923,966.529 973.98,967.66 979.261,968.338 984.722,968.533 990.315,968.222 995.991,967.386 1001.7,966.012 1007.38,964.092 1012.99,961.624 1018.46,958.609 1023.74,955.059 1028.79,950.986 1033.53,946.413 1037.93,941.364 1041.94,935.871 1045.5,929.971 1048.58,923.705 1051.15,917.118 1053.16,910.26 "/>
<line clip-path="url(#clip862)" x1="1051.17" y1="910.26" x2="1035.17" y2="894.26" style="stroke:#808080; stroke-width:3.2; stroke-opacity:1"/>
<line clip-path="url(#clip862)" x1="1051.17" y1="910.26" x2="1035.17" y2="926.26" style="stroke:#808080; stroke-width:3.2; stroke-opacity:1"/>
<line clip-path="url(#clip862)" x1="1051.17" y1="910.26" x2="1067.17" y2="926.26" style="stroke:#808080; stroke-width:3.2; stroke-opacity:1"/>
<line clip-path="url(#clip862)" x1="1051.17" y1="910.26" x2="1067.17" y2="894.26" style="stroke:#808080; stroke-width:3.2; stroke-opacity:1"/>
<polyline clip-path="url(#clip862)" style="stroke:#808080; stroke-linecap:round; stroke-linejoin:round; stroke-width:4; stroke-opacity:1; fill:none" points="1051.17,910.26 1081.31,884.004 "/>
<polyline clip-path="url(#clip862)" style="stroke:#808080; stroke-linecap:round; stroke-linejoin:round; stroke-width:4; stroke-opacity:1; fill:none" points="1042.34,894.074 1081.31,884.004 1065.99,921.221 "/>
<polyline clip-path="url(#clip862)" style="stroke:#808080; stroke-linecap:round; stroke-linejoin:round; stroke-width:4; stroke-opacity:1; fill:none" points="1081.31,884.004 1051.17,910.26 "/>
<polyline clip-path="url(#clip862)" style="stroke:#808080; stroke-linecap:round; stroke-linejoin:round; stroke-width:4; stroke-opacity:1; fill:none" points="1175.56,508.69 1178.58,504.084 1181.24,499.102 1183.5,493.776 1185.3,488.144 1186.62,482.248 1187.43,476.134 1187.71,469.852 1187.42,463.452 1186.56,456.99 1185.12,450.522 1183.09,444.104 1180.47,437.795 1177.27,431.653 1173.51,425.734 1169.2,420.093 1164.38,414.785 1159.07,409.86 1153.3,405.366 1147.13,401.346 1140.58,397.841 1133.72,394.886 1126.6,392.511 1119.27,390.739 1111.79,389.59 1104.22,389.077 1096.62,389.206 1089.05,389.977 1081.57,391.385 1074.25,393.419 1067.13,396.059 1060.29,399.283 1053.76,403.061 1047.61,407.359 1041.88,412.136 1036.6,417.35 1031.82,422.953 1027.58,428.894 1023.88,435.119 1020.77,441.571 1018.24,448.195 1016.32,454.93 1015,461.718 1014.28,468.501 1014.16,475.22 1014.61,481.822 1015.62,488.251 1017.16,494.456 1019.2,500.391 1021.71,506.011 1024.65,511.276 1027.98,516.151 1031.64,520.606 1035.6,524.616 1039.8,528.161 1044.2,531.227 1048.73,533.804 1053.36,535.889 1058.02,537.485 1062.67,538.598 1067.27,539.241 1071.76,539.431 1076.1,539.19 1080.25,538.544 1084.17,537.523 1087.84,536.159 1091.22,534.488 1094.29,532.549 1097.03,530.382 1099.42,528.027 1101.46,525.526 1103.14,522.923 1104.45,520.258 1105.41,517.572 1106.02,514.906 1106.29,512.297 1106.24,509.78 1106.35,510.019 1107.03,512.454 1108.04,514.886 1109.4,517.275 1111.09,519.583 1113.12,521.768 1115.48,523.79 1118.16,525.61 1121.14,527.188 1124.4,528.487 1127.91,529.472 1131.64,530.109 1135.56,530.37 1139.63,530.228 1143.81,529.661 1148.05,528.651 1152.31,527.184 1156.55,525.253 1160.7,522.853 1164.73,519.987 1168.58,516.662 1172.21,512.89 1175.56,508.69 "/>
<line clip-path="url(#clip862)" x1="1214.06" y1="508.69" x2="1198.06" y2="492.69" style="stroke:#808080; stroke-width:3.2; stroke-opacity:1"/>
<line clip-path="url(#clip862)" x1="1214.06" y1="508.69" x2="1198.06" y2="524.69" style="stroke:#808080; stroke-width:3.2; stroke-opacity:1"/>
<line clip-path="url(#clip862)" x1="1214.06" y1="508.69" x2="1230.06" y2="524.69" style="stroke:#808080; stroke-width:3.2; stroke-opacity:1"/>
<line clip-path="url(#clip862)" x1="1214.06" y1="508.69" x2="1230.06" y2="492.69" style="stroke:#808080; stroke-width:3.2; stroke-opacity:1"/>
<polyline clip-path="url(#clip862)" style="stroke:#808080; stroke-linecap:round; stroke-linejoin:round; stroke-width:4; stroke-opacity:1; fill:none" points="1214.06,508.69 1208.49,469.101 "/>
<polyline clip-path="url(#clip862)" style="stroke:#808080; stroke-linecap:round; stroke-linejoin:round; stroke-width:4; stroke-opacity:1; fill:none" points="1195.68,507.254 1208.49,469.101 1231.33,502.247 "/>
<polyline clip-path="url(#clip862)" style="stroke:#808080; stroke-linecap:round; stroke-linejoin:round; stroke-width:4; stroke-opacity:1; fill:none" points="1208.49,469.101 1214.06,508.69 "/>
<polyline clip-path="url(#clip862)" style="stroke:#808080; stroke-linecap:round; stroke-linejoin:round; stroke-width:4; stroke-opacity:1; fill:none" points="1350.44,1166.6 1351.5,1159.3 1351.95,1151.88 1351.77,1144.41 1350.94,1136.94 1349.48,1129.54 1347.4,1122.26 1344.7,1115.16 1341.4,1108.31 1337.53,1101.76 1333.12,1095.56 1328.21,1089.76 1322.84,1084.4 1317.05,1079.54 1310.9,1075.19 1304.42,1071.41 1297.69,1068.2 1290.76,1065.59 1283.68,1063.6 1276.51,1062.23 1269.32,1061.48 1262.17,1061.35 1255.11,1061.83 1248.2,1062.9 1241.5,1064.54 1235.05,1066.72 1228.91,1069.42 1223.12,1072.58 1217.72,1076.18 1212.74,1080.17 1208.22,1084.5 1204.18,1089.12 1200.65,1093.97 1197.62,1099.02 1195.12,1104.2 1193.15,1109.45 1191.7,1114.73 1190.76,1119.98 1190.32,1125.16 1190.37,1130.21 1190.88,1135.09 1191.82,1139.76 1193.16,1144.18 1194.86,1148.31 1196.89,1152.13 1199.21,1155.61 1201.78,1158.72 1204.54,1161.46 1207.46,1163.81 1210.5,1165.77 1213.6,1167.33 1216.72,1168.5 1219.83,1169.29 1222.88,1169.71 1225.83,1169.77 1228.65,1169.5 1231.31,1168.93 1233.77,1168.08 1236.02,1166.97 1235.22,1167.58 1233.29,1169.23 1231.5,1171.19 1229.9,1173.44 1228.52,1175.97 1227.39,1178.75 1226.55,1181.77 1226.02,1184.98 1225.85,1188.37 1226.04,1191.89 1226.63,1195.51 1227.63,1199.19 1229.05,1202.87 1230.9,1206.52 1233.18,1210.09 1235.89,1213.54 1239.03,1216.8 1242.58,1219.85 1246.52,1222.63 1250.83,1225.09 1255.48,1227.2 1260.45,1228.92 1265.69,1230.2 1271.16,1231.02 1276.82,1231.35 1282.62,1231.16 1288.51,1230.44 1294.43,1229.17 1300.34,1227.34 1306.18,1224.95 1311.88,1222 1317.41,1218.5 1322.69,1214.47 1327.68,1209.93 1332.32,1204.9 1336.57,1199.42 1340.38,1193.51 1343.71,1187.23 1346.51,1180.62 1348.77,1173.72 1350.44,1166.6 "/>
<line clip-path="url(#clip862)" x1="1344.58" y1="1166.6" x2="1328.58" y2="1150.6" style="stroke:#808080; stroke-width:3.2; stroke-opacity:1"/>
<line clip-path="url(#clip862)" x1="1344.58" y1="1166.6" x2="1328.58" y2="1182.6" style="stroke:#808080; stroke-width:3.2; stroke-opacity:1"/>
<line clip-path="url(#clip862)" x1="1344.58" y1="1166.6" x2="1360.58" y2="1182.6" style="stroke:#808080; stroke-width:3.2; stroke-opacity:1"/>
<line clip-path="url(#clip862)" x1="1344.58" y1="1166.6" x2="1360.58" y2="1150.6" style="stroke:#808080; stroke-width:3.2; stroke-opacity:1"/>
<polyline clip-path="url(#clip862)" style="stroke:#808080; stroke-linecap:round; stroke-linejoin:round; stroke-width:4; stroke-opacity:1; fill:none" points="1344.58,1166.6 1378.49,1145.42 "/>
<polyline clip-path="url(#clip862)" style="stroke:#808080; stroke-linecap:round; stroke-linejoin:round; stroke-width:4; stroke-opacity:1; fill:none" points="1338.42,1149.22 1378.49,1145.42 1357.49,1179.76 "/>
<polyline clip-path="url(#clip862)" style="stroke:#808080; stroke-linecap:round; stroke-linejoin:round; stroke-width:4; stroke-opacity:1; fill:none" points="1378.49,1145.42 1344.58,1166.6 "/>
<polyline clip-path="url(#clip862)" style="stroke:#808080; stroke-linecap:round; stroke-linejoin:round; stroke-width:4; stroke-opacity:1; fill:none" points="799.62,823.938 796.862,823.444 794.179,823.288 791.605,823.453 789.174,823.916 791.351,823.195 793.677,822.101 795.946,820.674 798.116,818.915 800.149,816.83 802.006,814.428 803.646,811.724 805.032,808.736 806.129,805.49 806.903,802.011 807.323,798.332 807.362,794.488 806.995,790.519 806.203,786.464 804.97,782.37 803.286,778.282 801.144,774.247 798.544,770.315 795.491,766.535 791.994,762.956 788.069,759.627 783.735,756.594 779.02,753.902 773.952,751.595 768.568,749.712 762.907,748.289 757.012,747.358 750.932,746.948 744.715,747.08 738.416,747.773 732.088,749.039 725.788,750.885 719.574,753.311 713.502,756.312 707.63,759.878 702.013,763.991 696.706,768.628 691.76,773.761 687.224,779.357 683.144,785.377 679.561,791.777 676.512,798.511 674.029,805.527 672.14,812.771 670.865,820.185 670.22,827.711 670.213,835.289 670.85,842.858 672.125,850.355 674.03,857.722 676.55,864.899 679.664,871.827 683.344,878.453 687.559,884.724 692.271,890.593 697.437,896.014 703.012,900.949 708.947,905.362 715.187,909.225 721.679,912.514 728.364,915.212 735.183,917.305 742.079,918.789 748.992,919.665 755.864,919.937 762.636,919.619 769.255,918.728 775.668,917.287 781.824,915.325 787.678,912.875 793.188,909.974 798.315,906.664 803.028,902.988 807.297,898.993 811.101,894.73 814.423,890.249 817.25,885.601 819.576,880.839 821.402,876.016 822.731,871.181 823.574,866.385 823.946,861.675 823.866,857.098 823.36,852.695 822.455,848.505 821.183,844.563 819.579,840.902 817.681,837.548 815.529,834.523 813.163,831.844 810.626,829.526 807.961,827.575 805.21,825.995 802.416,824.785 799.62,823.938 "/>
<line clip-path="url(#clip862)" x1="897.029" y1="823.938" x2="881.029" y2="807.938" style="stroke:#808080; stroke-width:3.2; stroke-opacity:1"/>
<line clip-path="url(#clip862)" x1="897.029" y1="823.938" x2="881.029" y2="839.938" style="stroke:#808080; stroke-width:3.2; stroke-opacity:1"/>
<line clip-path="url(#clip862)" x1="897.029" y1="823.938" x2="913.029" y2="839.938" style="stroke:#808080; stroke-width:3.2; stroke-opacity:1"/>
<line clip-path="url(#clip862)" x1="897.029" y1="823.938" x2="913.029" y2="807.938" style="stroke:#808080; stroke-width:3.2; stroke-opacity:1"/>
<polyline clip-path="url(#clip862)" style="stroke:#808080; stroke-linecap:round; stroke-linejoin:round; stroke-width:4; stroke-opacity:1; fill:none" points="897.029,823.938 858.356,834.067 "/>
<polyline clip-path="url(#clip862)" style="stroke:#808080; stroke-linecap:round; stroke-linejoin:round; stroke-width:4; stroke-opacity:1; fill:none" points="897.742,842.358 858.356,834.067 888.621,807.533 "/>
<polyline clip-path="url(#clip862)" style="stroke:#808080; stroke-linecap:round; stroke-linejoin:round; stroke-width:4; stroke-opacity:1; fill:none" points="858.356,834.067 897.029,823.938 "/>
<polyline clip-path="url(#clip862)" style="stroke:#808080; stroke-linecap:round; stroke-linejoin:round; stroke-width:4; stroke-opacity:1; fill:none" points="1564.4,1097.69 1560.98,1094.42 1557.38,1091.58 1553.64,1089.18 1549.81,1087.23 1545.95,1085.72 1542.09,1084.64 1538.28,1083.99 1534.57,1083.74 1530.99,1083.88 1527.58,1084.38 1524.37,1085.21 1521.4,1086.34 1518.69,1087.74 1516.25,1089.38 1514.12,1091.2 1512.3,1093.19 1510.79,1095.29 1509.6,1097.47 1510.3,1095.61 1510.92,1093.13 1511.25,1090.47 1511.27,1087.69 1510.94,1084.8 1510.26,1081.85 1509.2,1078.88 1507.77,1075.92 1505.96,1073.02 1503.76,1070.23 1501.18,1067.59 1498.23,1065.13 1494.94,1062.91 1491.3,1060.96 1487.36,1059.33 1483.14,1058.05 1478.66,1057.17 1473.98,1056.7 1469.13,1056.67 1464.16,1057.12 1459.11,1058.06 1454.03,1059.49 1448.97,1061.44 1443.99,1063.91 1439.13,1066.89 1434.46,1070.37 1430.02,1074.35 1425.86,1078.8 1422.04,1083.69 1418.61,1089.01 1415.59,1094.71 1413.05,1100.75 1411,1107.09 1409.5,1113.69 1408.55,1120.49 1408.19,1127.43 1408.43,1134.47 1409.29,1141.54 1410.76,1148.59 1412.85,1155.55 1415.55,1162.37 1418.84,1168.98 1422.71,1175.34 1427.13,1181.37 1432.07,1187.04 1437.5,1192.3 1443.37,1197.09 1449.64,1201.37 1456.26,1205.12 1463.17,1208.3 1470.33,1210.88 1477.67,1212.84 1485.13,1214.17 1492.66,1214.86 1500.18,1214.92 1507.65,1214.33 1515,1213.13 1522.18,1211.31 1529.12,1208.92 1535.77,1205.96 1542.09,1202.48 1548.02,1198.51 1553.53,1194.1 1558.58,1189.29 1563.14,1184.13 1567.17,1178.67 1570.67,1172.97 1573.6,1167.09 1575.97,1161.07 1577.78,1154.97 1579.01,1148.86 1579.68,1142.79 1579.81,1136.81 1579.41,1130.96 1578.51,1125.31 1577.14,1119.9 1575.32,1114.76 1573.09,1109.94 1570.5,1105.47 1567.59,1101.38 1564.4,1097.69 "/>
<line clip-path="url(#clip862)" x1="1617.44" y1="1097.69" x2="1601.44" y2="1081.69" style="stroke:#808080; stroke-width:3.2; stroke-opacity:1"/>
<line clip-path="url(#clip862)" x1="1617.44" y1="1097.69" x2="1601.44" y2="1113.69" style="stroke:#808080; stroke-width:3.2; stroke-opacity:1"/>
<line clip-path="url(#clip862)" x1="1617.44" y1="1097.69" x2="1633.44" y2="1113.69" style="stroke:#808080; stroke-width:3.2; stroke-opacity:1"/>
<line clip-path="url(#clip862)" x1="1617.44" y1="1097.69" x2="1633.44" y2="1081.69" style="stroke:#808080; stroke-width:3.2; stroke-opacity:1"/>
<polyline clip-path="url(#clip862)" style="stroke:#808080; stroke-linecap:round; stroke-linejoin:round; stroke-width:4; stroke-opacity:1; fill:none" points="1617.44,1097.69 1601.07,1134.16 "/>
<polyline clip-path="url(#clip862)" style="stroke:#808080; stroke-linecap:round; stroke-linejoin:round; stroke-width:4; stroke-opacity:1; fill:none" points="1632.23,1108.69 1601.07,1134.16 1599.39,1093.94 "/>
<polyline clip-path="url(#clip862)" style="stroke:#808080; stroke-linecap:round; stroke-linejoin:round; stroke-width:4; stroke-opacity:1; fill:none" points="1601.07,1134.16 1617.44,1097.69 "/>
<polyline clip-path="url(#clip862)" style="stroke:#808080; stroke-linecap:round; stroke-linejoin:round; stroke-width:4; stroke-opacity:1; fill:none" points="631.815,547.252 628.729,542.034 625.264,537.217 621.467,532.829 617.386,528.894 613.071,525.431 608.574,522.454 603.945,519.971 599.237,517.983 594.501,516.488 589.787,515.478 585.143,514.938 580.614,514.851 576.243,515.194 572.071,515.94 568.133,517.058 564.463,518.516 561.086,520.275 558.029,522.298 555.308,524.544 552.939,526.972 550.93,529.538 549.287,532.201 548.008,534.919 547.09,537.65 546.523,540.355 546.295,542.996 546.386,545.538 546.485,546.547 545.775,544.148 544.732,541.76 543.352,539.419 541.634,537.166 539.583,535.042 537.208,533.086 534.521,531.337 531.541,529.835 528.29,528.616 524.795,527.714 521.087,527.162 517.199,526.988 513.171,527.218 509.044,527.873 504.861,528.971 500.669,530.522 496.515,532.536 492.449,535.014 488.519,537.953 484.776,541.345 481.269,545.177 478.045,549.429 475.151,554.077 472.63,559.093 470.524,564.442 468.87,570.085 467.701,575.98 467.049,582.081 466.936,588.338 467.383,594.699 468.403,601.109 470.006,607.512 472.194,613.85 474.964,620.066 478.307,626.103 482.208,631.905 486.646,637.415 491.594,642.582 497.02,647.355 502.888,651.688 509.155,655.536 515.776,658.863 522.699,661.633 529.873,663.818 537.24,665.394 544.743,666.345 552.321,666.659 559.913,666.33 567.458,665.36 574.896,663.755 582.167,661.529 589.211,658.701 595.975,655.295 602.404,651.343 608.449,646.88 614.064,641.946 619.21,636.586 623.848,630.849 627.949,624.786 631.486,618.452 634.44,611.903 636.798,605.197 638.55,598.393 639.697,591.55 640.241,584.727 640.193,577.98 639.569,571.365 638.39,564.937 636.684,558.744 634.48,552.835 631.815,547.252 "/>
<line clip-path="url(#clip862)" x1="654.573" y1="547.252" x2="638.573" y2="531.252" style="stroke:#808080; stroke-width:3.2; stroke-opacity:1"/>
<line clip-path="url(#clip862)" x1="654.573" y1="547.252" x2="638.573" y2="563.252" style="stroke:#808080; stroke-width:3.2; stroke-opacity:1"/>
<line clip-path="url(#clip862)" x1="654.573" y1="547.252" x2="670.573" y2="563.252" style="stroke:#808080; stroke-width:3.2; stroke-opacity:1"/>
<line clip-path="url(#clip862)" x1="654.573" y1="547.252" x2="670.573" y2="531.252" style="stroke:#808080; stroke-width:3.2; stroke-opacity:1"/>
<polyline clip-path="url(#clip862)" style="stroke:#808080; stroke-linecap:round; stroke-linejoin:round; stroke-width:4; stroke-opacity:1; fill:none" points="654.573,547.252 662.025,586.529 "/>
<polyline clip-path="url(#clip862)" style="stroke:#808080; stroke-linecap:round; stroke-linejoin:round; stroke-width:4; stroke-opacity:1; fill:none" points="672.999,547.804 662.025,586.529 637.63,554.515 "/>
<polyline clip-path="url(#clip862)" style="stroke:#808080; stroke-linecap:round; stroke-linejoin:round; stroke-width:4; stroke-opacity:1; fill:none" points="662.025,586.529 654.573,547.252 "/>
<polyline clip-path="url(#clip862)" style="stroke:#808080; stroke-linecap:round; stroke-linejoin:round; stroke-width:4; stroke-opacity:1; fill:none" points="969.025,798.329 972.127,796.432 975.126,794.137 977.976,791.449 980.634,788.378 983.055,784.938 985.196,781.149 987.016,777.036 988.476,772.628 989.541,767.959 990.177,763.066 990.358,757.99 990.057,752.777 989.256,747.475 987.939,742.133 986.096,736.803 983.725,731.539 980.826,726.394 977.406,721.423 973.478,716.679 969.061,712.214 964.179,708.078 958.86,704.321 953.14,700.988 947.058,698.12 940.657,695.755 933.984,693.926 927.092,692.663 920.034,691.989 912.866,691.921 905.647,692.471 898.436,693.645 891.293,695.444 884.279,697.861 877.453,700.884 870.872,704.494 864.592,708.667 858.667,713.373 853.146,718.578 848.075,724.242 843.498,730.319 839.45,736.761 835.965,743.517 833.068,750.53 830.781,757.745 829.119,765.1 828.09,772.537 827.698,779.993 827.938,787.41 828.802,794.726 830.274,801.884 832.332,808.828 834.95,815.503 838.096,821.861 841.733,827.853 845.82,833.439 850.312,838.58 855.161,843.244 860.315,847.404 865.723,851.037 871.329,854.128 877.078,856.667 882.914,858.648 888.781,860.075 894.625,860.952 900.393,861.294 906.033,861.117 911.498,860.445 916.743,859.305 921.726,857.729 926.408,855.752 930.758,853.413 934.747,850.753 938.35,847.816 941.549,844.649 944.331,841.296 946.687,837.806 948.614,834.225 950.113,830.601 951.193,826.978 951.863,823.4 952.14,819.909 952.044,816.543 951.598,813.34 950.831,810.331 949.772,807.545 948.454,805.008 946.912,802.741 945.182,800.76 943.301,799.077 943.281,798.969 945.519,800.129 947.983,801.041 950.647,801.676 953.483,802.006 956.459,802.006 959.54,801.654 962.689,800.933 965.864,799.827 969.025,798.329 "/>
<line clip-path="url(#clip862)" x1="1050.22" y1="798.329" x2="1034.22" y2="782.329" style="stroke:#808080; stroke-width:3.2; stroke-opacity:1"/>
<line clip-path="url(#clip862)" x1="1050.22" y1="798.329" x2="1034.22" y2="814.329" style="stroke:#808080; stroke-width:3.2; stroke-opacity:1"/>
<line clip-path="url(#clip862)" x1="1050.22" y1="798.329" x2="1066.22" y2="814.329" style="stroke:#808080; stroke-width:3.2; stroke-opacity:1"/>
<line clip-path="url(#clip862)" x1="1050.22" y1="798.329" x2="1066.22" y2="782.329" style="stroke:#808080; stroke-width:3.2; stroke-opacity:1"/>
<polyline clip-path="url(#clip862)" style="stroke:#808080; stroke-linecap:round; stroke-linejoin:round; stroke-width:4; stroke-opacity:1; fill:none" points="1050.22,798.329 1017.27,775.691 "/>
<polyline clip-path="url(#clip862)" style="stroke:#808080; stroke-linecap:round; stroke-linejoin:round; stroke-width:4; stroke-opacity:1; fill:none" points="1036.75,810.912 1017.27,775.691 1057.14,781.24 "/>
<polyline clip-path="url(#clip862)" style="stroke:#808080; stroke-linecap:round; stroke-linejoin:round; stroke-width:4; stroke-opacity:1; fill:none" points="1017.27,775.691 1050.22,798.329 "/>
<polyline clip-path="url(#clip862)" style="stroke:#808080; stroke-linecap:round; stroke-linejoin:round; stroke-width:4; stroke-opacity:1; fill:none" points="682.647,553.807 685.195,548.001 687.26,541.886 688.809,535.505 689.813,528.907 690.247,522.147 690.092,515.277 689.336,508.355 687.971,501.439 685.995,494.588 683.413,487.862 680.237,481.319 676.483,475.016 672.172,469.01 667.335,463.353 662.004,458.096 656.218,453.287 650.021,448.967 643.46,445.175 636.586,441.944 629.453,439.302 622.12,437.272 614.645,435.869 607.087,435.104 599.509,434.982 591.972,435.499 584.535,436.648 577.258,438.414 570.199,440.778 563.411,443.712 556.948,447.187 550.856,451.166 545.181,455.608 539.961,460.469 535.23,465.7 531.019,471.249 527.351,477.064 524.244,483.088 521.709,489.265 519.754,495.538 518.378,501.849 517.576,508.142 517.336,514.362 517.642,520.455 518.472,526.372 519.798,532.063 521.59,537.486 523.812,542.6 526.425,547.368 529.386,551.76 532.652,555.749 536.174,559.314 539.906,562.438 543.798,565.111 547.801,567.328 551.866,569.087 555.945,570.395 559.992,571.261 563.963,571.7 567.814,571.73 571.508,571.376 575.007,570.664 578.28,569.624 581.299,568.29 584.039,566.697 586.481,564.882 588.609,562.883 590.412,560.741 591.885,558.495 593.026,556.185 593.837,553.849 593.352,556.181 593.139,558.745 593.243,561.425 593.684,564.186 594.477,566.991 595.633,569.8 597.158,572.573 599.056,575.268 601.323,577.841 603.952,580.251 606.932,582.453 610.245,584.407 613.869,586.073 617.78,587.413 621.945,588.39 626.331,588.974 630.899,589.133 635.606,588.845 640.408,588.088 645.258,586.845 650.106,585.107 654.9,582.867 659.59,580.125 664.122,576.887 668.445,573.162 672.508,568.967 676.26,564.324 679.655,559.26 682.647,553.807 "/>
<line clip-path="url(#clip862)" x1="701.789" y1="553.807" x2="685.789" y2="537.807" style="stroke:#808080; stroke-width:3.2; stroke-opacity:1"/>
<line clip-path="url(#clip862)" x1="701.789" y1="553.807" x2="685.789" y2="569.807" style="stroke:#808080; stroke-width:3.2; stroke-opacity:1"/>
<line clip-path="url(#clip862)" x1="701.789" y1="553.807" x2="717.789" y2="569.807" style="stroke:#808080; stroke-width:3.2; stroke-opacity:1"/>
<line clip-path="url(#clip862)" x1="701.789" y1="553.807" x2="717.789" y2="537.807" style="stroke:#808080; stroke-width:3.2; stroke-opacity:1"/>
<polyline clip-path="url(#clip862)" style="stroke:#808080; stroke-linecap:round; stroke-linejoin:round; stroke-width:4; stroke-opacity:1; fill:none" points="701.789,553.807 712.398,515.262 "/>
<polyline clip-path="url(#clip862)" style="stroke:#808080; stroke-linecap:round; stroke-linejoin:round; stroke-width:4; stroke-opacity:1; fill:none" points="685.49,545.195 712.398,515.262 720.2,554.748 "/>
<polyline clip-path="url(#clip862)" style="stroke:#808080; stroke-linecap:round; stroke-linejoin:round; stroke-width:4; stroke-opacity:1; fill:none" points="712.398,515.262 701.789,553.807 "/>
<polyline clip-path="url(#clip862)" style="stroke:#808080; stroke-linecap:round; stroke-linejoin:round; stroke-width:4; stroke-opacity:1; fill:none" points="1172.24,591.609 1170.68,584.411 1168.53,577.43 1165.81,570.719 1162.57,564.328 1158.83,558.306 1154.64,552.693 1150.03,547.528 1145.07,542.845 1139.8,538.671 1134.27,535.029 1128.55,531.934 1122.67,529.398 1116.71,527.425 1110.72,526.015 1104.75,525.16 1098.85,524.849 1093.08,525.064 1087.49,525.781 1082.12,526.975 1077.02,528.613 1072.21,530.659 1067.75,533.075 1063.65,535.819 1059.94,538.847 1056.64,542.113 1053.77,545.57 1051.33,549.17 1049.32,552.866 1047.75,556.611 1046.61,560.357 1045.89,564.062 1045.57,567.682 1045.63,571.178 1046.05,574.512 1046.81,577.652 1047.86,580.567 1049.18,583.231 1050.74,585.624 1052.49,587.726 1054.4,589.526 1056.44,591.015 1056.28,591.017 1053.94,590.08 1051.39,589.411 1048.67,589.038 1045.81,588.985 1042.85,589.275 1039.81,589.926 1036.74,590.952 1033.68,592.362 1030.67,594.163 1027.77,596.355 1025,598.933 1022.42,601.889 1020.07,605.207 1017.99,608.87 1016.22,612.854 1014.8,617.129 1013.77,621.664 1013.16,626.421 1013,631.359 1013.31,636.434 1014.11,641.599 1015.42,646.806 1017.25,652.002 1019.6,657.135 1022.47,662.152 1025.85,666.998 1029.74,671.622 1034.1,675.97 1038.93,679.994 1044.2,683.643 1049.85,686.874 1055.87,689.645 1062.21,691.917 1068.81,693.657 1075.63,694.837 1082.62,695.433 1089.71,695.426 1096.85,694.806 1103.99,693.564 1111.06,691.703 1118,689.226 1124.75,686.146 1131.25,682.481 1137.46,678.255 1143.31,673.498 1148.76,668.244 1153.76,662.532 1158.26,656.408 1162.23,649.92 1165.64,643.119 1168.46,636.06 1170.67,628.802 1172.26,621.403 1173.21,613.923 1173.52,606.424 1173.19,598.965 1172.24,591.609 "/>
<line clip-path="url(#clip862)" x1="1165.37" y1="591.609" x2="1149.37" y2="575.609" style="stroke:#808080; stroke-width:3.2; stroke-opacity:1"/>
<line clip-path="url(#clip862)" x1="1165.37" y1="591.609" x2="1149.37" y2="607.609" style="stroke:#808080; stroke-width:3.2; stroke-opacity:1"/>
<line clip-path="url(#clip862)" x1="1165.37" y1="591.609" x2="1181.37" y2="607.609" style="stroke:#808080; stroke-width:3.2; stroke-opacity:1"/>
<line clip-path="url(#clip862)" x1="1165.37" y1="591.609" x2="1181.37" y2="575.609" style="stroke:#808080; stroke-width:3.2; stroke-opacity:1"/>
<polyline clip-path="url(#clip862)" style="stroke:#808080; stroke-linecap:round; stroke-linejoin:round; stroke-width:4; stroke-opacity:1; fill:none" points="1165.37,591.609 1200.27,611.106 "/>
<polyline clip-path="url(#clip862)" style="stroke:#808080; stroke-linecap:round; stroke-linejoin:round; stroke-width:4; stroke-opacity:1; fill:none" points="1177.62,577.834 1200.27,611.106 1160.06,609.263 "/>
<polyline clip-path="url(#clip862)" style="stroke:#808080; stroke-linecap:round; stroke-linejoin:round; stroke-width:4; stroke-opacity:1; fill:none" points="1200.27,611.106 1165.37,591.609 "/>
<polyline clip-path="url(#clip862)" style="stroke:#808080; stroke-linecap:round; stroke-linejoin:round; stroke-width:4; stroke-opacity:1; fill:none" points="1641.9,586.213 1642.28,578.665 1642.02,571.089 1641.13,563.545 1639.59,556.095 1637.43,548.799 1634.66,541.715 1631.31,534.901 1627.41,528.409 1622.98,522.291 1618.07,516.593 1612.72,511.359 1606.98,506.625 1600.91,502.424 1594.54,498.785 1587.95,495.727 1581.18,493.268 1574.31,491.416 1567.37,490.175 1560.45,489.543 1553.58,489.511 1546.84,490.065 1540.27,491.185 1533.93,492.845 1527.86,495.017 1522.11,497.664 1516.72,500.749 1511.73,504.228 1507.16,508.057 1503.05,512.187 1499.41,516.568 1496.26,521.149 1493.61,525.878 1491.46,530.701 1489.82,535.569 1488.67,540.429 1488,545.232 1487.8,549.931 1488.05,554.483 1488.71,558.844 1489.76,562.978 1491.17,566.851 1492.9,570.432 1494.91,573.697 1497.17,576.624 1499.62,579.197 1502.23,581.406 1504.95,583.243 1507.74,584.707 1510.57,585.802 1513.38,586.535 1516.14,586.918 1518.81,586.966 1521.36,586.7 1523.27,586.284 1520.95,587.148 1518.65,588.341 1516.43,589.866 1514.32,591.72 1512.36,593.895 1510.58,596.382 1509.04,599.163 1507.76,602.218 1506.78,605.522 1506.14,609.046 1505.85,612.758 1505.96,616.62 1506.47,620.594 1507.42,624.636 1508.81,628.701 1510.65,632.744 1512.95,636.716 1515.7,640.567 1518.9,644.25 1522.54,647.715 1526.6,650.914 1531.05,653.8 1535.88,656.331 1541.04,658.464 1546.51,660.16 1552.23,661.386 1558.17,662.11 1564.28,662.306 1570.51,661.954 1576.8,661.037 1583.09,659.546 1589.34,657.476 1595.47,654.828 1601.45,651.609 1607.2,647.834 1612.68,643.52 1617.84,638.692 1622.61,633.382 1626.95,627.623 1630.82,621.458 1634.19,614.929 1637,608.086 1639.24,600.982 1640.88,593.672 1641.9,586.213 "/>
<line clip-path="url(#clip862)" x1="1631.45" y1="586.213" x2="1615.45" y2="570.213" style="stroke:#808080; stroke-width:3.2; stroke-opacity:1"/>
<line clip-path="url(#clip862)" x1="1631.45" y1="586.213" x2="1615.45" y2="602.213" style="stroke:#808080; stroke-width:3.2; stroke-opacity:1"/>
<line clip-path="url(#clip862)" x1="1631.45" y1="586.213" x2="1647.45" y2="602.213" style="stroke:#808080; stroke-width:3.2; stroke-opacity:1"/>
<line clip-path="url(#clip862)" x1="1631.45" y1="586.213" x2="1647.45" y2="570.213" style="stroke:#808080; stroke-width:3.2; stroke-opacity:1"/>
<polyline clip-path="url(#clip862)" style="stroke:#808080; stroke-linecap:round; stroke-linejoin:round; stroke-width:4; stroke-opacity:1; fill:none" points="1631.45,586.213 1669.89,575.203 "/>
<polyline clip-path="url(#clip862)" style="stroke:#808080; stroke-linecap:round; stroke-linejoin:round; stroke-width:4; stroke-opacity:1; fill:none" points="1630.32,567.814 1669.89,575.203 1640.24,602.422 "/>
<polyline clip-path="url(#clip862)" style="stroke:#808080; stroke-linecap:round; stroke-linejoin:round; stroke-width:4; stroke-opacity:1; fill:none" points="1669.89,575.203 1631.45,586.213 "/>
<polyline clip-path="url(#clip862)" style="stroke:#808080; stroke-linecap:round; stroke-linejoin:round; stroke-width:4; stroke-opacity:1; fill:none" points="632.15,1366.51 1831.49,1366.51 1831.49,167.178 632.15,167.178 632.15,1366.51 "/>
<polyline clip-path="url(#clip862)" style="stroke:#000000; stroke-linecap:round; stroke-linejoin:round; stroke-width:4; stroke-opacity:1; fill:none" stroke-dasharray="16, 10" points="332.316,1366.51 344.328,1366.51 356.339,1366.51 368.351,1366.51 380.362,1366.51 392.374,1366.51 404.385,1366.51 416.397,1366.51 428.408,1366.51 440.42,1366.51 452.431,1366.51 464.443,1366.51 476.454,1366.51 488.466,1366.51 500.477,1366.51 512.489,1366.51 524.501,1366.51 536.512,1366.51 548.524,1366.51 560.535,1366.51 572.547,1366.51 584.558,1366.51 596.57,1366.51 608.581,1366.51 620.593,1366.51 632.604,1366.51 644.593,1365.87 656.458,1364.03 668.079,1361.01 679.339,1356.84 690.127,1351.57 700.334,1345.25 709.865,1337.95 719.127,1330.3 728.388,1322.65 737.649,1315 746.91,1307.35 756.172,1299.7 765.433,1292.05 774.694,1284.4 783.956,1276.75 793.217,1269.1 802.478,1261.46 811.739,1253.81 821.001,1246.16 830.262,1238.51 839.523,1230.86 848.784,1223.21 858.046,1215.56 867.307,1207.91 876.568,1200.26 885.83,1192.62 895.091,1184.97 904.352,1177.32 913.613,1169.67 922.875,1162.02 932.136,1154.37 941.397,1146.72 950.658,1139.07 959.92,1131.42 969.36,1124 979.463,1117.52 990.165,1112.07 1001.36,1107.72 1012.69,1103.76 1023.63,1098.81 1034.49,1093.67 1045.35,1088.54 1056.21,1083.41 1067.07,1078.27 1077.93,1073.14 1088.79,1068 1099.64,1062.87 1110.5,1057.73 1121.36,1052.6 1132.22,1047.46 1143.08,1042.33 1153.94,1037.2 1164.8,1032.06 1175.66,1026.94 1186.08,1020.98 1195.86,1014 1204.88,1006.09 1213.07,997.306 1220.34,987.752 1226.71,977.568 1232.89,967.27 1239.07,956.972 1245.26,946.674 1251.44,936.376 1257.62,926.078 1263.81,915.78 1269.99,905.482 1276.17,895.184 1282.35,884.886 1288.54,874.588 1294.72,864.29 1300.9,853.992 1307.09,843.694 1313.27,833.396 1319.45,823.098 1325.63,812.799 1331.82,802.501 1338,792.203 1344.18,781.905 1350.37,771.607 1356.55,761.309 1362.73,751.011 1368.91,740.713 1375.1,730.415 1381.28,720.117 1387.46,709.819 1393.65,699.521 1399.83,689.223 1406.01,678.925 1412.19,668.627 1418.38,658.329 1424.54,648.018 1429.97,637.314 1434.31,626.119 1437.51,614.546 1439.54,602.712 1440.39,590.735 1440.81,578.731 1441.23,566.727 1441.65,554.722 1441.35,542.719 1439.97,530.79 1439.23,518.806 1439.69,506.808 1441.34,494.917 1444.18,483.25 1448.17,471.926 1453.27,461.057 1459.43,450.753 1466.6,441.117 1474.26,431.868 1481.92,422.62 1489.59,413.371 1497.25,404.123 1504.92,394.874 1512.58,385.626 1520.25,376.377 1527.91,367.129 1535.5,357.82 1542.3,347.924 1548.12,337.418 1554.3,327.127 1561.48,317.506 1569.59,308.65 1578.54,300.65 1588.25,293.586 1598.5,287.322 1608.79,281.129 1619.08,274.937 1629.38,268.745 1639.67,262.552 1649.96,256.36 1660.25,250.167 1670.55,243.975 1680.84,237.783 1691.13,231.59 1701.42,225.398 1711.71,219.205 1722.01,213.013 1732.3,206.821 1742.59,200.628 1752.88,194.436 1763.18,188.243 1773.51,182.122 1784.3,176.851 1795.56,172.686 1807.18,169.667 1819.04,167.825 1831.03,167.179 1843.04,167.178 1855.06,167.178 1867.07,167.178 1879.08,167.178 1891.09,167.178 1903.1,167.178 1915.11,167.178 1927.12,167.178 1939.14,167.178 1951.15,167.178 1963.16,167.178 1975.17,167.178 1987.18,167.178 1999.19,167.178 2011.21,167.178 2023.22,167.178 2035.23,167.178 2047.24,167.178 2059.25,167.178 2071.26,167.178 2083.27,167.178 2095.29,167.178 2107.3,167.178 2119.31,167.178 2131.32,167.178 "/>
<polyline clip-path="url(#clip862)" style="stroke:#008000; stroke-linecap:round; stroke-linejoin:round; stroke-width:4; stroke-opacity:1; fill:none" stroke-dasharray="16, 10" points="272.349,1426.48 284.361,1426.48 296.372,1426.48 308.384,1426.48 320.395,1426.48 332.407,1426.48 344.418,1426.48 356.43,1426.48 368.441,1426.48 380.453,1426.48 392.465,1426.48 404.476,1426.48 416.488,1426.48 428.499,1426.48 440.511,1426.48 452.522,1426.48 464.534,1426.48 476.545,1426.48 488.557,1426.48 500.568,1426.48 512.58,1426.48 524.591,1426.48 536.603,1426.48 548.614,1426.48 560.626,1426.48 572.637,1426.48 584.649,1426.48 596.661,1426.48 608.672,1426.48 620.684,1426.48 632.968,1426.48 650.951,1425.5 668.745,1422.72 686.173,1418.18 703.059,1411.92 719.235,1404 734.538,1394.5 748.122,1384.12 757.383,1376.47 766.645,1368.83 775.906,1361.18 785.167,1353.53 794.428,1345.88 803.69,1338.23 812.951,1330.58 822.212,1322.93 831.473,1315.28 840.735,1307.63 849.996,1299.99 859.257,1292.34 868.519,1284.69 877.78,1277.04 887.041,1269.39 896.302,1261.74 905.564,1254.09 914.825,1246.44 924.086,1238.79 933.348,1231.15 942.609,1223.5 951.87,1215.85 961.131,1208.2 970.393,1200.55 979.654,1192.9 988.915,1185.25 998.176,1177.6 1004.28,1172.75 1009.34,1169.51 1014.69,1166.79 1020.29,1164.63 1035.25,1159.32 1049.35,1152.98 1060.21,1147.85 1071.06,1142.71 1081.92,1137.58 1092.78,1132.44 1103.64,1127.31 1114.5,1122.18 1125.36,1117.04 1136.22,1111.91 1147.08,1106.77 1157.94,1101.64 1168.79,1096.5 1179.65,1091.37 1190.51,1086.23 1202.92,1080.35 1218.54,1071.4 1233.2,1060.93 1246.73,1049.04 1259,1035.86 1269.9,1021.52 1278.17,1008.36 1284.35,998.059 1290.53,987.761 1296.72,977.463 1302.9,967.165 1309.08,956.867 1315.26,946.569 1321.45,936.271 1327.63,925.973 1333.81,915.675 1340,905.377 1346.18,895.079 1352.36,884.781 1358.54,874.483 1364.73,864.185 1370.91,853.887 1377.09,843.589 1383.28,833.291 1389.46,822.993 1395.64,812.695 1401.82,802.397 1408.01,792.099 1414.19,781.801 1420.37,771.503 1426.56,761.205 1432.74,750.907 1438.92,740.609 1445.1,730.311 1451.29,720.013 1457.47,709.715 1463.65,699.417 1469.84,689.119 1476.64,677.7 1484.79,661.637 1491.28,644.84 1496.07,627.478 1499.1,609.724 1500.32,592.749 1500.74,580.744 1501.16,568.74 1501.6,556.101 1501.14,538.097 1499.56,524.044 1499.19,518.052 1499.42,512.054 1500.26,506.108 1501.68,500.276 1503.68,494.615 1506.23,489.183 1509.32,484.033 1512.9,479.218 1520.49,470.062 1528.16,460.814 1535.82,451.565 1543.48,442.317 1551.15,433.069 1558.81,423.82 1566.48,414.572 1574.14,405.323 1583.25,394.098 1593.44,379.246 1601.02,365.654 1604.12,360.511 1607.71,355.703 1611.77,351.278 1616.25,347.282 1621.1,343.753 1629.49,338.659 1639.78,332.466 1650.08,326.274 1660.37,320.081 1670.66,313.889 1680.95,307.697 1691.25,301.504 1701.54,295.312 1711.83,289.119 1722.12,282.927 1732.42,276.734 1742.71,270.542 1753,264.35 1763.29,258.157 1773.58,251.965 1783.88,245.772 1794.17,239.58 1802.54,234.595 1807.93,231.964 1813.57,229.885 1819.38,228.38 1825.31,227.463 1831.3,227.145 1843.13,227.145 1855.15,227.145 1867.16,227.145 1879.17,227.145 1891.18,227.145 1903.19,227.145 1915.2,227.145 1927.22,227.145 1939.23,227.145 1951.24,227.145 1963.25,227.145 1975.26,227.145 1987.27,227.145 1999.28,227.145 2011.3,227.145 2023.31,227.145 2035.32,227.145 2047.33,227.145 2059.34,227.145 2071.35,227.145 "/>
<polyline clip-path="url(#clip862)" style="stroke:#000000; stroke-linecap:round; stroke-linejoin:round; stroke-width:12; stroke-opacity:1; fill:none" points="332.316,1366.51 332.316,1366.51 "/>
<polyline clip-path="url(#clip862)" style="stroke:#008000; stroke-linecap:round; stroke-linejoin:round; stroke-width:12; stroke-opacity:1; fill:none" points="272.349,1426.48 272.349,1426.48 "/>
<polyline clip-path="url(#clip862)" style="stroke:#0000ff; stroke-linecap:round; stroke-linejoin:round; stroke-width:12; stroke-opacity:1; fill:none" stroke-dasharray="48, 30" points="272.349,1426.48 275.115,1426.48 277.88,1426.48 280.646,1426.48 283.411,1426.48 286.177,1426.48 288.942,1426.48 291.708,1426.48 294.473,1426.48 297.239,1426.48 300.004,1426.48 302.77,1426.48 305.535,1426.48 308.301,1426.48 311.066,1426.48 313.832,1426.48 316.597,1426.48 319.362,1426.48 322.128,1426.48 324.893,1426.48 327.659,1426.48 330.424,1426.48 333.19,1426.48 335.955,1426.48 338.721,1426.48 341.486,1426.48 344.252,1426.48 347.017,1426.48 349.783,1426.48 352.548,1426.48 355.314,1426.48 358.079,1426.48 360.845,1426.48 363.61,1426.48 366.376,1426.48 369.141,1426.48 371.907,1426.48 374.672,1426.48 377.438,1426.48 380.203,1426.48 382.969,1426.48 385.734,1426.48 388.5,1426.48 391.265,1426.48 394.031,1426.48 396.796,1426.48 399.562,1426.48 402.327,1426.48 405.093,1426.48 407.858,1426.48 410.624,1426.48 413.389,1426.48 416.155,1426.48 418.92,1426.48 421.686,1426.48 424.451,1426.48 427.216,1426.48 429.982,1426.48 432.747,1426.48 435.513,1426.48 438.278,1426.48 441.044,1426.48 443.809,1426.48 446.575,1426.48 449.34,1426.48 452.106,1426.48 454.871,1426.48 457.637,1426.48 460.402,1426.48 463.168,1426.48 465.933,1426.48 468.699,1426.48 471.464,1426.48 474.23,1426.48 476.995,1426.48 479.761,1426.48 482.526,1426.48 485.292,1426.48 488.057,1426.48 490.823,1426.48 493.588,1426.48 496.354,1426.48 499.119,1426.48 501.885,1426.48 504.65,1426.48 507.416,1426.48 510.181,1426.48 512.947,1426.48 515.712,1426.48 518.478,1426.48 521.243,1426.48 524.009,1426.48 526.774,1426.48 529.54,1426.48 532.305,1426.48 535.07,1426.48 537.836,1426.48 540.601,1426.48 543.367,1426.48 546.132,1426.48 548.898,1426.48 551.663,1426.48 554.429,1426.48 557.194,1426.48 559.96,1426.48 562.725,1426.48 565.491,1426.48 568.256,1426.48 571.022,1426.48 573.787,1426.48 576.553,1426.48 579.318,1426.48 582.084,1426.48 584.849,1426.48 587.615,1426.48 590.38,1426.48 593.146,1426.48 595.911,1426.48 598.677,1426.48 601.442,1426.48 604.208,1426.48 606.973,1426.48 609.739,1426.48 612.504,1426.48 615.27,1426.48 618.035,1426.48 620.801,1426.48 623.566,1426.48 626.332,1426.48 629.097,1426.48 631.863,1426.48 634.628,1426.46 637.392,1426.37 640.153,1426.22 642.91,1426 645.662,1425.72 648.406,1425.38 651.142,1424.98 653.867,1424.51 656.582,1423.98 659.284,1423.39 661.972,1422.74 664.644,1422.03 667.3,1421.26 669.938,1420.43 672.557,1419.54 675.156,1418.6 677.733,1417.6 680.288,1416.54 682.819,1415.42 685.326,1414.26 687.807,1413.03 690.261,1411.76 692.687,1410.43 695.085,1409.06 697.454,1407.63 699.792,1406.15 702.099,1404.63 704.375,1403.05 706.617,1401.44 708.826,1399.77 711.018,1398.09 713.214,1396.4 715.414,1394.73 717.618,1393.06 719.825,1391.39 722.035,1389.73 724.248,1388.07 726.464,1386.42 728.682,1384.77 730.902,1383.12 733.124,1381.47 735.348,1379.83 737.573,1378.18 739.799,1376.54 742.027,1374.9 744.255,1373.27 746.484,1371.63 748.714,1369.99 750.944,1368.36 753.175,1366.72 755.405,1365.09 757.636,1363.45 759.867,1361.82 762.098,1360.19 764.329,1358.55 766.56,1356.92 768.79,1355.28 771.019,1353.65 773.249,1352.01 775.477,1350.37 777.706,1348.73 779.933,1347.09 782.16,1345.45 784.386,1343.81 786.611,1342.17 788.835,1340.53 791.059,1338.88 793.281,1337.24 795.502,1335.59 "/>
<polyline clip-path="url(#clip862)" style="stroke:#800080; stroke-linecap:round; stroke-linejoin:round; stroke-width:12; stroke-opacity:1; fill:none" stroke-dasharray="48, 30" points="795.502,1335.59 798.225,1333.51 800.886,1331.35 803.485,1329.12 806.02,1326.81 808.487,1324.44 810.885,1321.99 813.213,1319.48 815.467,1316.9 817.647,1314.25 819.751,1311.55 821.777,1308.79 823.723,1305.97 825.587,1303.09 827.369,1300.16 829.066,1297.19 830.677,1294.16 832.202,1291.1 833.638,1287.98 834.985,1284.83 836.241,1281.65 837.406,1278.42 838.501,1275.18 839.591,1271.93 840.682,1268.68 841.773,1265.43 842.863,1262.19 843.954,1258.94 845.044,1255.69 846.135,1252.44 847.226,1249.19 848.327,1245.95 849.508,1242.73 850.78,1239.55 852.143,1236.41 853.595,1233.3 855.135,1230.24 856.762,1227.23 858.475,1224.26 860.271,1221.34 862.15,1218.48 864.11,1215.67 866.15,1212.91 868.267,1210.22 870.461,1207.59 872.729,1205.02 875.069,1202.52 877.48,1200.08 879.959,1197.72 882.505,1195.43 885.115,1193.21 "/>
<polyline clip-path="url(#clip862)" style="stroke:#800080; stroke-linecap:round; stroke-linejoin:round; stroke-width:12; stroke-opacity:1; fill:none" stroke-dasharray="48, 30" points="885.115,1193.21 887.387,1191.33 889.658,1189.45 891.929,1187.58 894.201,1185.7 896.472,1183.83 898.743,1181.95 901.015,1180.07 903.286,1178.2 905.557,1176.32 907.829,1174.45 910.1,1172.57 912.371,1170.7 914.643,1168.82 916.914,1166.94 919.185,1165.07 921.457,1163.19 923.728,1161.32 925.999,1159.44 928.271,1157.56 930.542,1155.69 932.813,1153.81 935.085,1151.94 937.356,1150.06 939.628,1148.18 941.899,1146.31 944.17,1144.43 946.442,1142.56 948.713,1140.68 950.984,1138.8 953.256,1136.93 955.527,1135.05 957.798,1133.18 960.07,1131.3 962.341,1129.43 964.628,1127.57 966.958,1125.77 969.333,1124.02 971.749,1122.34 974.206,1120.71 976.702,1119.15 979.236,1117.65 981.806,1116.21 984.411,1114.83 987.049,1113.52 989.718,1112.27 992.416,1111.09 995.143,1109.98 997.897,1108.93 1000.68,1107.95 1003.48,1107.04 "/>
<polyline clip-path="url(#clip862)" style="stroke:#800080; stroke-linecap:round; stroke-linejoin:round; stroke-width:12; stroke-opacity:1; fill:none" stroke-dasharray="48, 30" points="1003.48,1107.04 1006.97,1105.9 1010.43,1104.64 1013.85,1103.28 1017.22,1101.82 1020.56,1100.26 1023.88,1098.69 1027.21,1097.12 1030.53,1095.54 1033.86,1093.97 1037.19,1092.4 1040.51,1090.83 1043.84,1089.25 1047.16,1087.68 1050.49,1086.11 1053.81,1084.54 1057.14,1082.96 1060.47,1081.39 1063.79,1079.82 1067.12,1078.25 1070.44,1076.67 1073.77,1075.1 1077.09,1073.53 1080.42,1071.96 1083.75,1070.39 1087.07,1068.81 1090.4,1067.24 1093.72,1065.67 1097.05,1064.1 1100.37,1062.52 1103.7,1060.95 1107.03,1059.38 1110.35,1057.81 1113.68,1056.23 1117,1054.66 1120.33,1053.09 1123.65,1051.52 1126.98,1049.94 1130.31,1048.37 1133.63,1046.8 1136.96,1045.23 1140.28,1043.65 1143.61,1042.08 1146.93,1040.51 1150.26,1038.94 1153.59,1037.36 1156.91,1035.79 1160.24,1034.22 1163.56,1032.65 1166.89,1031.07 1170.23,1029.53 "/>
<polyline clip-path="url(#clip862)" style="stroke:#800080; stroke-linecap:round; stroke-linejoin:round; stroke-width:12; stroke-opacity:1; fill:none" stroke-dasharray="48, 30" points="1170.23,1029.53 1179.21,1025.06 1187.79,1019.87 1195.9,1013.97 1203.49,1007.41 1210.51,1000.25 1216.9,992.521 1222.63,984.287 1227.83,975.706 1232.99,967.104 1238.15,958.503 1243.32,949.901 1248.48,941.3 1253.65,932.699 1258.81,924.097 1263.98,915.496 1269.14,906.894 1274.3,898.293 1279.47,889.692 1284.63,881.09 1289.8,872.489 1294.96,863.887 1300.12,855.286 1305.29,846.685 1310.45,838.083 1315.62,829.482 1320.78,820.88 1325.95,812.279 1331.11,803.678 1336.27,795.076 1341.44,786.475 1346.6,777.873 1351.77,769.272 1356.93,760.671 1362.1,752.069 1367.26,743.468 1372.42,734.866 1377.59,726.265 1382.75,717.664 1387.92,709.062 1393.08,700.461 1398.25,691.859 1403.41,683.258 1408.57,674.657 1413.74,666.055 1418.9,657.454 1424.06,648.847 1428.74,639.98 1432.67,630.752 1435.82,621.228 1438.16,611.475 "/>
<polyline clip-path="url(#clip862)" style="stroke:#800080; stroke-linecap:round; stroke-linejoin:round; stroke-width:12; stroke-opacity:1; fill:none" stroke-dasharray="48, 30" points="1438.16,611.475 1438.44,609.959 1438.71,608.439 1438.96,606.916 1439.19,605.39 1439.4,603.861 1439.59,602.329 1439.75,600.795 1439.9,599.259 1440.03,597.721 1440.14,596.182 1440.23,594.641 1440.3,593.1 1440.36,591.558 1440.41,590.015 1440.47,588.473 1440.52,586.931 1440.57,585.389 1440.63,583.846 1440.68,582.304 1440.74,580.762 1440.79,579.22 1440.85,577.677 1440.9,576.135 1440.95,574.593 1441.01,573.051 1441.06,571.508 1441.12,569.966 1441.17,568.424 1441.22,566.882 1441.28,565.339 1441.33,563.797 1441.39,562.255 1441.44,560.713 1441.5,559.17 1441.55,557.628 1441.6,556.086 1441.65,554.543 1441.68,553 1441.68,551.457 1441.67,549.914 1441.64,548.371 1441.59,546.829 1441.51,545.287 1441.42,543.747 1441.31,542.208 1441.18,540.67 1441.02,539.135 1440.85,537.601 1440.66,536.07 1440.45,534.541 "/>
<polyline clip-path="url(#clip862)" style="stroke:#800080; stroke-linecap:round; stroke-linejoin:round; stroke-width:12; stroke-opacity:1; fill:none" stroke-dasharray="48, 30" points="1440.45,534.541 1439.88,529.984 1439.49,525.408 1439.27,520.821 1439.22,516.228 1439.36,511.638 1439.66,507.055 1440.15,502.488 1440.81,497.943 1441.64,493.426 1442.64,488.945 1443.81,484.505 1445.16,480.113 1446.67,475.776 1448.34,471.5 1450.18,467.292 1452.18,463.156 1454.34,459.101 1456.64,455.13 1459.1,451.251 1461.71,447.469 1464.46,443.79 1467.34,440.217 1470.27,436.68 1473.2,433.144 1476.13,429.608 1479.06,426.071 1482,422.535 1484.93,418.999 1487.86,415.462 1490.79,411.926 1493.72,408.39 1496.65,404.853 1499.58,401.317 1502.51,397.781 1505.44,394.244 1508.37,390.708 1511.3,387.172 1514.23,383.635 1517.16,380.099 1520.09,376.563 1523.02,373.026 1525.95,369.49 1528.89,365.954 1531.82,362.417 1534.71,358.849 1537.46,355.175 1540.08,351.399 1542.54,347.525 1544.86,343.56 1547.02,339.509 "/>
<polyline clip-path="url(#clip862)" style="stroke:#800080; stroke-linecap:round; stroke-linejoin:round; stroke-width:12; stroke-opacity:1; fill:none" stroke-dasharray="48, 30" points="1547.02,339.509 1550.27,333.556 1553.85,327.796 1557.75,322.248 1561.96,316.93 1566.46,311.857 1571.24,307.047 1576.29,302.516 1581.58,298.276 1587.11,294.343 1592.84,290.725 1598.66,287.228 1604.47,283.731 1610.28,280.234 1616.09,276.738 1621.9,273.241 1627.72,269.744 1633.53,266.247 1639.34,262.751 1645.15,259.254 1650.96,255.757 1656.77,252.26 1662.59,248.764 1668.4,245.267 1674.21,241.77 1680.02,238.273 1685.83,234.777 1691.65,231.28 1697.46,227.783 1703.27,224.286 1709.08,220.79 1714.89,217.293 1720.7,213.796 1726.52,210.299 1732.33,206.803 1738.14,203.306 1743.95,199.809 1749.76,196.312 1755.58,192.816 1761.39,189.319 1767.2,185.822 1773.04,182.381 1779.06,179.245 1785.24,176.454 1791.57,174.016 1798.02,171.941 1804.59,170.233 1811.24,168.9 1817.95,167.944 1824.71,167.369 1831.49,167.178 "/>
<polyline clip-path="url(#clip862)" style="stroke:#800080; stroke-linecap:round; stroke-linejoin:round; stroke-width:12; stroke-opacity:1; fill:none" stroke-dasharray="48, 30" points="1831.49,167.178 1837.48,167.178 1843.48,167.178 1849.48,167.178 1855.47,167.178 1861.47,167.178 1867.47,167.178 1873.46,167.178 1879.46,167.178 1885.46,167.178 1891.45,167.178 1897.45,167.178 1903.45,167.178 1909.44,167.178 1915.44,167.178 1921.44,167.178 1927.43,167.178 1933.43,167.178 1939.43,167.178 1945.42,167.178 1951.42,167.178 1957.42,167.178 1963.41,167.178 1969.41,167.178 1975.41,167.178 1981.4,167.178 1987.4,167.178 1993.4,167.178 1999.39,167.178 2005.39,167.178 2011.39,167.178 2017.38,167.178 2023.38,167.178 2029.38,167.178 2035.37,167.178 2041.37,167.178 2047.37,167.178 2053.36,167.178 2059.36,167.178 2065.36,167.178 2071.35,167.178 2077.35,167.178 2083.35,167.178 2089.34,167.178 2095.34,167.178 2101.34,167.178 2107.33,167.178 2113.33,167.178 2119.33,167.178 2125.32,167.178 2131.32,167.178 "/>
<circle clip-path="url(#clip862)" cx="332.316" cy="1366.51" r="18" fill="#000000" fill-rule="evenodd" fill-opacity="1" stroke="none"/>
<polyline clip-path="url(#clip862)" style="stroke:#000000; stroke-linecap:round; stroke-linejoin:round; stroke-width:12; stroke-opacity:1; fill:none" points="332.316,1366.51 452.25,1366.51 "/>
<polyline clip-path="url(#clip862)" style="stroke:#000000; stroke-linecap:round; stroke-linejoin:round; stroke-width:12; stroke-opacity:1; fill:none" points="416.25,1348.51 452.25,1366.51 416.25,1384.51 "/>
<polyline clip-path="url(#clip862)" style="stroke:#000000; stroke-linecap:round; stroke-linejoin:round; stroke-width:12; stroke-opacity:1; fill:none" points="452.25,1366.51 332.316,1366.51 "/>
<circle clip-path="url(#clip862)" cx="272.349" cy="1426.48" r="18" fill="#008000" fill-rule="evenodd" fill-opacity="1" stroke="#000000" stroke-opacity="1" stroke-width="3.2"/>
<polyline clip-path="url(#clip862)" style="stroke:#008000; stroke-linecap:round; stroke-linejoin:round; stroke-width:12; stroke-opacity:1; fill:none" points="272.349,1426.48 392.283,1426.48 "/>
<polyline clip-path="url(#clip862)" style="stroke:#008000; stroke-linecap:round; stroke-linejoin:round; stroke-width:12; stroke-opacity:1; fill:none" points="356.283,1408.48 392.283,1426.48 356.283,1444.48 "/>
<polyline clip-path="url(#clip862)" style="stroke:#008000; stroke-linecap:round; stroke-linejoin:round; stroke-width:12; stroke-opacity:1; fill:none" points="392.283,1426.48 272.349,1426.48 "/>
</svg>
