<?xml version="1.0" encoding="utf-8"?>
<svg xmlns="http://www.w3.org/2000/svg" xmlns:xlink="http://www.w3.org/1999/xlink" width="600" height="400" viewBox="0 0 2400 1600">
<defs>
  <clipPath id="clip900">
    <rect x="0" y="0" width="2400" height="1600"/>
  </clipPath>
</defs>
<path clip-path="url(#clip900)" d="M0 1600 L2400 1600 L2400 0 L0 0  Z" fill="#ffffff" fill-rule="evenodd" fill-opacity="1"/>
<defs>
  <clipPath id="clip901">
    <rect x="480" y="0" width="1681" height="1600"/>
  </clipPath>
</defs>
<path clip-path="url(#clip900)" d="M152.416 1486.45 L2311.22 1486.45 L2311.22 47.2441 L152.416 47.2441  Z" fill="#ffffff" fill-rule="evenodd" fill-opacity="1"/>
<defs>
  <clipPath id="clip902">
    <rect x="152" y="47" width="2160" height="1440"/>
  </clipPath>
</defs>
<polyline clip-path="url(#clip902)" style="stroke:#808080; stroke-linecap:round; stroke-linejoin:round; stroke-width:4; stroke-opacity:1; fill:none" points="692.254,1010.14 688.842,1006.53 685.214,1003.36 681.419,1000.64 677.504,998.363 673.52,996.542 669.513,995.169 665.531,994.236 661.617,993.728 657.814,993.628 654.162,993.912 650.696,994.554 647.448,995.526 644.449,996.794 641.722,998.323 639.288,1000.08 637.161,1002.02 635.355,1004.11 633.875,1006.3 632.723,1008.57 632.352,1009.4 632.895,1006.96 633.142,1004.36 633.071,1001.64 632.662,998.837 631.899,995.982 630.77,993.116 629.268,990.281 627.39,987.519 625.138,984.873 622.518,982.386 619.542,980.101 616.225,978.06 612.59,976.305 608.661,974.872 604.468,973.8 600.047,973.12 595.435,972.863 590.674,973.054 585.809,973.716 580.886,974.864 575.957,976.511 571.071,978.663 566.28,981.322 561.639,984.484 557.197,988.138 553.009,992.269 549.122,996.857 545.587,1001.87 542.447,1007.29 539.747,1013.07 537.525,1019.17 535.815,1025.55 534.649,1032.15 534.05,1038.94 534.039,1045.84 534.63,1052.81 535.833,1059.78 537.648,1066.7 540.073,1073.51 543.097,1080.15 546.706,1086.56 550.878,1092.68 555.584,1098.47 560.794,1103.86 566.468,1108.82 572.564,1113.3 579.035,1117.25 585.831,1120.66 592.898,1123.47 600.178,1125.68 607.615,1127.27 615.146,1128.22 622.711,1128.53 630.25,1128.2 637.701,1127.23 645.006,1125.65 652.106,1123.46 658.946,1120.7 665.475,1117.4 671.643,1113.58 677.405,1109.29 682.722,1104.58 687.558,1099.48 691.883,1094.06 695.673,1088.36 698.907,1082.44 701.574,1076.36 703.666,1070.17 705.182,1063.93 706.125,1057.7 706.508,1051.52 706.344,1045.47 705.656,1039.58 704.469,1033.9 702.814,1028.48 700.725,1023.36 698.241,1018.58 695.402,1014.16 692.254,1010.14 "/>
<line clip-path="url(#clip902)" x1="720.141" y1="947.656" x2="704.141" y2="931.656" style="stroke:#808080; stroke-width:3.2; stroke-opacity:1"/>
<line clip-path="url(#clip902)" x1="720.141" y1="947.656" x2="704.141" y2="963.656" style="stroke:#808080; stroke-width:3.2; stroke-opacity:1"/>
<line clip-path="url(#clip902)" x1="720.141" y1="947.656" x2="736.141" y2="963.656" style="stroke:#808080; stroke-width:3.2; stroke-opacity:1"/>
<line clip-path="url(#clip902)" x1="720.141" y1="947.656" x2="736.141" y2="931.656" style="stroke:#808080; stroke-width:3.2; stroke-opacity:1"/>
<polyline clip-path="url(#clip902)" style="stroke:#808080; stroke-linecap:round; stroke-linejoin:round; stroke-width:4; stroke-opacity:1; fill:none" points="720.141,947.656 707.507,985.585 "/>
<polyline clip-path="url(#clip902)" style="stroke:#808080; stroke-linecap:round; stroke-linejoin:round; stroke-width:4; stroke-opacity:1; fill:none" points="735.962,957.119 707.507,985.585 701.806,945.742 "/>
<polyline clip-path="url(#clip902)" style="stroke:#808080; stroke-linecap:round; stroke-linejoin:round; stroke-width:4; stroke-opacity:1; fill:none" points="707.507,985.585 720.141,947.656 "/>
<polyline clip-path="url(#clip902)" style="stroke:#808080; stroke-linecap:round; stroke-linejoin:round; stroke-width:4; stroke-opacity:1; fill:none" points="1390.31,331.688 1392.71,325.646 1394.61,319.312 1395.98,312.734 1396.78,305.964 1396.99,299.056 1396.61,292.066 1395.61,285.051 1394,278.072 1391.77,271.187 1388.95,264.456 1385.53,257.938 1381.54,251.688 1377,245.762 1371.95,240.212 1366.42,235.086 1360.46,230.429 1354.11,226.282 1347.42,222.68 1340.44,219.653 1333.22,217.227 1325.84,215.421 1318.34,214.248 1310.79,213.715 1303.25,213.822 1295.77,214.564 1288.43,215.93 1281.27,217.902 1274.36,220.457 1267.74,223.566 1261.47,227.196 1255.59,231.308 1250.14,235.859 1245.16,240.802 1240.68,246.088 1236.73,251.665 1233.33,257.477 1230.49,263.469 1228.22,269.585 1226.52,275.767 1225.4,281.959 1224.84,288.105 1224.82,294.152 1225.34,300.048 1226.36,305.746 1227.85,311.198 1229.78,316.364 1232.12,321.206 1234.83,325.691 1237.85,329.791 1241.15,333.482 1244.67,336.746 1248.38,339.57 1252.21,341.947 1256.13,343.875 1260.08,345.355 1264.02,346.397 1267.91,347.012 1271.69,347.218 1275.34,347.036 1278.81,346.492 1282.07,345.613 1285.09,344.432 1287.85,342.982 1290.32,341.301 1292.49,339.425 1294.34,337.393 1295.87,335.244 1297.08,333.018 1297.3,332.64 1296.7,335.078 1296.38,337.678 1296.38,340.408 1296.72,343.235 1297.4,346.121 1298.46,349.028 1299.89,351.914 1301.7,354.737 1303.88,357.454 1306.44,360.022 1309.37,362.398 1312.64,364.538 1316.23,366.402 1320.13,367.95 1324.31,369.145 1328.72,369.952 1333.34,370.342 1338.11,370.287 1343.01,369.765 1347.98,368.756 1352.97,367.249 1357.92,365.234 1362.8,362.709 1367.55,359.677 1372.1,356.146 1376.42,352.13 1380.45,347.649 1384.13,342.727 1387.44,337.396 1390.31,331.688 "/>
<line clip-path="url(#clip902)" x1="1385.65" y1="269.206" x2="1369.65" y2="253.206" style="stroke:#808080; stroke-width:3.2; stroke-opacity:1"/>
<line clip-path="url(#clip902)" x1="1385.65" y1="269.206" x2="1369.65" y2="285.206" style="stroke:#808080; stroke-width:3.2; stroke-opacity:1"/>
<line clip-path="url(#clip902)" x1="1385.65" y1="269.206" x2="1401.65" y2="285.206" style="stroke:#808080; stroke-width:3.2; stroke-opacity:1"/>
<line clip-path="url(#clip902)" x1="1385.65" y1="269.206" x2="1401.65" y2="253.206" style="stroke:#808080; stroke-width:3.2; stroke-opacity:1"/>
<polyline clip-path="url(#clip902)" style="stroke:#808080; stroke-linecap:round; stroke-linejoin:round; stroke-width:4; stroke-opacity:1; fill:none" points="1385.65,269.206 1399.71,231.782 "/>
<polyline clip-path="url(#clip902)" style="stroke:#808080; stroke-linecap:round; stroke-linejoin:round; stroke-width:4; stroke-opacity:1; fill:none" points="1370.2,259.153 1399.71,231.782 1403.9,271.813 "/>
<polyline clip-path="url(#clip902)" style="stroke:#808080; stroke-linecap:round; stroke-linejoin:round; stroke-width:4; stroke-opacity:1; fill:none" points="1399.71,231.782 1385.65,269.206 "/>
<polyline clip-path="url(#clip902)" style="stroke:#808080; stroke-linecap:round; stroke-linejoin:round; stroke-width:4; stroke-opacity:1; fill:none" points="1518.61,492.891 1515.2,489.881 1511.62,487.303 1507.94,485.162 1504.2,483.457 1500.43,482.185 1496.7,481.336 1493.04,480.895 1489.49,480.844 1486.09,481.159 1482.88,481.816 1479.88,482.783 1477.13,484.03 1474.64,485.522 1472.44,487.222 1470.54,489.094 1468.95,491.098 1468,492.583 1469.02,490.312 1469.77,487.835 1470.24,485.175 1470.39,482.365 1470.21,479.436 1469.67,476.425 1468.77,473.371 1467.48,470.314 1465.8,467.297 1463.74,464.363 1461.28,461.558 1458.45,458.924 1455.24,456.506 1451.69,454.346 1447.81,452.487 1443.63,450.967 1439.18,449.822 1434.5,449.087 1429.63,448.791 1424.6,448.96 1419.47,449.615 1414.28,450.772 1409.09,452.444 1403.94,454.636 1398.9,457.35 1394.01,460.579 1389.32,464.314 1384.9,468.538 1380.78,473.229 1377.03,478.36 1373.68,483.9 1370.78,489.81 1368.36,496.049 1366.47,502.57 1365.13,509.325 1364.37,516.261 1364.2,523.322 1364.64,530.45 1365.71,537.588 1367.39,544.675 1369.69,551.651 1372.6,558.457 1376.1,565.034 1380.17,571.328 1384.78,577.282 1389.89,582.847 1395.48,587.974 1401.49,592.621 1407.88,596.748 1414.59,600.321 1421.59,603.312 1428.8,605.697 1436.16,607.46 1443.63,608.59 1451.13,609.081 1458.61,608.936 1466.01,608.161 1473.26,606.769 1480.32,604.782 1487.12,602.222 1493.61,599.121 1499.75,595.514 1505.49,591.441 1510.79,586.945 1515.62,582.074 1519.95,576.879 1523.75,571.411 1527.01,565.726 1529.71,559.879 1531.85,553.927 1533.43,547.925 1534.44,541.93 1534.91,535.995 1534.84,530.172 1534.27,524.512 1533.21,519.061 1531.69,513.863 1529.76,508.956 1527.44,504.378 1524.78,500.158 1521.82,496.322 1518.61,492.891 "/>
<line clip-path="url(#clip902)" x1="1555.86" y1="430.409" x2="1539.86" y2="414.409" style="stroke:#808080; stroke-width:3.2; stroke-opacity:1"/>
<line clip-path="url(#clip902)" x1="1555.86" y1="430.409" x2="1539.86" y2="446.409" style="stroke:#808080; stroke-width:3.2; stroke-opacity:1"/>
<line clip-path="url(#clip902)" x1="1555.86" y1="430.409" x2="1571.86" y2="446.409" style="stroke:#808080; stroke-width:3.2; stroke-opacity:1"/>
<line clip-path="url(#clip902)" x1="1555.86" y1="430.409" x2="1571.86" y2="414.409" style="stroke:#808080; stroke-width:3.2; stroke-opacity:1"/>
<polyline clip-path="url(#clip902)" style="stroke:#808080; stroke-linecap:round; stroke-linejoin:round; stroke-width:4; stroke-opacity:1; fill:none" points="1555.86,430.409 1536.65,465.474 "/>
<polyline clip-path="url(#clip902)" style="stroke:#808080; stroke-linecap:round; stroke-linejoin:round; stroke-width:4; stroke-opacity:1; fill:none" points="1569.73,442.543 1536.65,465.474 1538.16,425.253 "/>
<polyline clip-path="url(#clip902)" style="stroke:#808080; stroke-linecap:round; stroke-linejoin:round; stroke-width:4; stroke-opacity:1; fill:none" points="1536.65,465.474 1555.86,430.409 "/>
<polyline clip-path="url(#clip902)" style="stroke:#808080; stroke-linecap:round; stroke-linejoin:round; stroke-width:4; stroke-opacity:1; fill:none" points="757.593,744.07 760.433,743.107 763.26,741.775 766.033,740.07 768.707,737.99 771.241,735.542 773.592,732.734 775.716,729.58 777.573,726.1 779.124,722.317 780.331,718.259 781.16,713.959 781.58,709.454 781.564,704.783 781.087,699.99 780.132,695.121 778.685,690.225 776.736,685.352 774.283,680.554 771.326,675.883 767.875,671.391 763.941,667.131 759.544,663.153 754.707,659.506 749.46,656.237 743.837,653.389 737.877,651.003 731.623,649.115 725.123,647.757 718.427,646.957 711.588,646.737 704.663,647.112 697.709,648.094 690.784,649.689 683.949,651.893 677.262,654.701 670.781,658.099 664.564,662.067 658.665,666.582 653.137,671.611 648.028,677.12 643.384,683.067 639.246,689.408 635.65,696.093 632.627,703.069 630.202,710.282 628.397,717.672 627.223,725.18 626.69,732.747 626.798,740.309 627.543,747.807 628.915,755.181 630.896,762.372 633.464,769.324 636.59,775.983 640.242,782.299 644.381,788.226 648.965,793.722 653.948,798.748 659.28,803.274 664.909,807.271 670.781,810.719 676.838,813.602 683.025,815.911 689.285,817.642 695.559,818.796 701.794,819.383 707.933,819.416 713.926,818.913 719.723,817.899 725.278,816.402 730.548,814.456 735.495,812.097 740.085,809.366 744.288,806.306 748.081,802.963 751.445,799.383 754.365,795.616 756.833,791.71 758.846,787.713 760.407,783.675 761.521,779.643 762.202,775.661 762.465,771.775 762.332,768.023 761.828,764.444 760.98,761.073 759.821,757.939 758.383,755.069 756.704,752.485 754.822,750.205 752.774,748.242 750.601,746.605 748.342,745.298 746.036,744.32 746.873,744.484 749.385,744.862 752.031,744.932 754.779,744.674 757.593,744.07 "/>
<line clip-path="url(#clip902)" x1="833.293" y1="681.588" x2="817.293" y2="665.588" style="stroke:#808080; stroke-width:3.2; stroke-opacity:1"/>
<line clip-path="url(#clip902)" x1="833.293" y1="681.588" x2="817.293" y2="697.588" style="stroke:#808080; stroke-width:3.2; stroke-opacity:1"/>
<line clip-path="url(#clip902)" x1="833.293" y1="681.588" x2="849.293" y2="697.588" style="stroke:#808080; stroke-width:3.2; stroke-opacity:1"/>
<line clip-path="url(#clip902)" x1="833.293" y1="681.588" x2="849.293" y2="665.588" style="stroke:#808080; stroke-width:3.2; stroke-opacity:1"/>
<polyline clip-path="url(#clip902)" style="stroke:#808080; stroke-linecap:round; stroke-linejoin:round; stroke-width:4; stroke-opacity:1; fill:none" points="833.293,681.588 795.06,669.907 "/>
<polyline clip-path="url(#clip902)" style="stroke:#808080; stroke-linecap:round; stroke-linejoin:round; stroke-width:4; stroke-opacity:1; fill:none" points="824.23,697.64 795.06,669.907 834.748,663.211 "/>
<polyline clip-path="url(#clip902)" style="stroke:#808080; stroke-linecap:round; stroke-linejoin:round; stroke-width:4; stroke-opacity:1; fill:none" points="795.06,669.907 833.293,681.588 "/>
<polyline clip-path="url(#clip902)" style="stroke:#808080; stroke-linecap:round; stroke-linejoin:round; stroke-width:4; stroke-opacity:1; fill:none" points="924.744,1427.38 921.774,1426.42 918.838,1425.83 915.974,1425.59 913.22,1425.69 910.608,1426.1 908.17,1426.8 907.526,1426.99 909.69,1425.73 911.765,1424.14 913.713,1422.23 915.494,1420.02 917.07,1417.51 918.406,1414.73 919.464,1411.69 920.214,1408.43 920.623,1404.97 920.665,1401.35 920.316,1397.61 919.556,1393.79 918.37,1389.92 916.746,1386.06 914.68,1382.25 912.169,1378.54 909.219,1374.97 905.837,1371.61 902.04,1368.48 897.847,1365.65 893.283,1363.15 888.377,1361.02 883.165,1359.31 877.685,1358.05 871.98,1357.28 866.096,1357.01 860.083,1357.28 853.993,1358.09 847.88,1359.47 841.8,1361.42 835.809,1363.93 829.963,1367.01 824.319,1370.65 818.932,1374.82 813.856,1379.5 809.142,1384.67 804.838,1390.29 800.99,1396.33 797.638,1402.74 794.82,1409.47 792.566,1416.48 790.905,1423.7 789.856,1431.09 789.434,1438.58 789.65,1446.11 790.506,1453.63 791.999,1461.06 794.119,1468.36 796.852,1475.46 800.175,1482.31 804.061,1488.84 808.479,1495.01 813.391,1500.77 818.753,1506.08 824.521,1510.89 830.644,1515.18 837.068,1518.9 843.738,1522.04 850.597,1524.59 857.585,1526.52 864.643,1527.84 871.711,1528.53 878.731,1528.62 885.644,1528.11 892.395,1527.02 898.931,1525.38 905.202,1523.2 911.16,1520.54 916.764,1517.41 921.974,1513.87 926.758,1509.96 931.087,1505.73 934.938,1501.23 938.293,1496.51 941.141,1491.62 943.475,1486.61 945.294,1481.54 946.604,1476.47 947.414,1471.43 947.739,1466.49 947.599,1461.68 947.019,1457.05 946.028,1452.64 944.658,1448.48 942.944,1444.62 940.924,1441.07 938.64,1437.86 936.132,1435.01 933.445,1432.53 930.623,1430.43 927.708,1428.71 924.744,1427.38 "/>
<line clip-path="url(#clip902)" x1="994.74" y1="1364.89" x2="978.74" y2="1348.89" style="stroke:#808080; stroke-width:3.2; stroke-opacity:1"/>
<line clip-path="url(#clip902)" x1="994.74" y1="1364.89" x2="978.74" y2="1380.89" style="stroke:#808080; stroke-width:3.2; stroke-opacity:1"/>
<line clip-path="url(#clip902)" x1="994.74" y1="1364.89" x2="1010.74" y2="1380.89" style="stroke:#808080; stroke-width:3.2; stroke-opacity:1"/>
<line clip-path="url(#clip902)" x1="994.74" y1="1364.89" x2="1010.74" y2="1348.89" style="stroke:#808080; stroke-width:3.2; stroke-opacity:1"/>
<polyline clip-path="url(#clip902)" style="stroke:#808080; stroke-linecap:round; stroke-linejoin:round; stroke-width:4; stroke-opacity:1; fill:none" points="994.74,1364.89 958.255,1381.24 "/>
<polyline clip-path="url(#clip902)" style="stroke:#808080; stroke-linecap:round; stroke-linejoin:round; stroke-width:4; stroke-opacity:1; fill:none" points="998.468,1382.95 958.255,1381.24 983.752,1350.09 "/>
<polyline clip-path="url(#clip902)" style="stroke:#808080; stroke-linecap:round; stroke-linejoin:round; stroke-width:4; stroke-opacity:1; fill:none" points="958.255,1381.24 994.74,1364.89 "/>
<polyline clip-path="url(#clip902)" style="stroke:#808080; stroke-linecap:round; stroke-linejoin:round; stroke-width:4; stroke-opacity:1; fill:none" points="1402.66,1194.24 1402.54,1186.63 1401.77,1179.06 1400.37,1171.59 1398.34,1164.27 1395.71,1157.17 1392.5,1150.34 1388.74,1143.84 1384.46,1137.7 1379.71,1131.99 1374.52,1126.74 1368.95,1121.99 1363.05,1117.77 1356.87,1114.1 1350.47,1111.01 1343.9,1108.51 1337.22,1106.61 1330.5,1105.3 1323.79,1104.6 1317.14,1104.48 1310.62,1104.93 1304.27,1105.94 1298.15,1107.47 1292.3,1109.5 1286.77,1111.98 1281.59,1114.89 1276.8,1118.18 1272.43,1121.8 1268.51,1125.7 1265.04,1129.84 1262.06,1134.17 1259.55,1138.63 1257.54,1143.17 1256.01,1147.75 1254.95,1152.3 1254.36,1156.8 1254.21,1161.19 1254.48,1165.42 1255.15,1169.46 1256.19,1173.28 1257.56,1176.83 1259.23,1180.1 1261.16,1183.06 1263.31,1185.69 1265.64,1187.98 1268.1,1189.91 1270.66,1191.49 1273.28,1192.71 1275.91,1193.58 1278.51,1194.1 1281.05,1194.3 1282.2,1194.3 1279.74,1194.74 1277.26,1195.5 1274.78,1196.61 1272.35,1198.06 1270.01,1199.86 1267.8,1202 1265.77,1204.47 1263.94,1207.26 1262.37,1210.35 1261.08,1213.72 1260.12,1217.33 1259.51,1221.17 1259.29,1225.2 1259.48,1229.37 1260.1,1233.64 1261.17,1237.98 1262.71,1242.33 1264.71,1246.64 1267.19,1250.87 1270.14,1254.97 1273.56,1258.88 1277.42,1262.55 1281.71,1265.95 1286.41,1269.01 1291.49,1271.7 1296.91,1273.97 1302.63,1275.79 1308.62,1277.11 1314.82,1277.92 1321.19,1278.19 1327.67,1277.89 1334.21,1277.01 1340.75,1275.55 1347.23,1273.49 1353.6,1270.84 1359.8,1267.61 1365.77,1263.82 1371.45,1259.48 1376.8,1254.62 1381.76,1249.27 1386.28,1243.47 1390.32,1237.27 1393.85,1230.69 1396.82,1223.81 1399.2,1216.67 1400.98,1209.32 1402.14,1201.82 1402.66,1194.24 "/>
<line clip-path="url(#clip902)" x1="1370.87" y1="1131.76" x2="1354.87" y2="1115.76" style="stroke:#808080; stroke-width:3.2; stroke-opacity:1"/>
<line clip-path="url(#clip902)" x1="1370.87" y1="1131.76" x2="1354.87" y2="1147.76" style="stroke:#808080; stroke-width:3.2; stroke-opacity:1"/>
<line clip-path="url(#clip902)" x1="1370.87" y1="1131.76" x2="1386.87" y2="1147.76" style="stroke:#808080; stroke-width:3.2; stroke-opacity:1"/>
<line clip-path="url(#clip902)" x1="1370.87" y1="1131.76" x2="1386.87" y2="1115.76" style="stroke:#808080; stroke-width:3.2; stroke-opacity:1"/>
<polyline clip-path="url(#clip902)" style="stroke:#808080; stroke-linecap:round; stroke-linejoin:round; stroke-width:4; stroke-opacity:1; fill:none" points="1370.87,1131.76 1410.72,1128.63 "/>
<polyline clip-path="url(#clip902)" style="stroke:#808080; stroke-linecap:round; stroke-linejoin:round; stroke-width:4; stroke-opacity:1; fill:none" points="1373.42,1113.5 1410.72,1128.63 1376.24,1149.39 "/>
<polyline clip-path="url(#clip902)" style="stroke:#808080; stroke-linecap:round; stroke-linejoin:round; stroke-width:4; stroke-opacity:1; fill:none" points="1410.72,1128.63 1370.87,1131.76 "/>
<polyline clip-path="url(#clip902)" style="stroke:#808080; stroke-linecap:round; stroke-linejoin:round; stroke-width:4; stroke-opacity:1; fill:none" points="930.313,1291.31 927.51,1290.73 924.773,1290.49 922.139,1290.58 919.642,1290.97 919.341,1290.98 921.651,1289.98 923.911,1288.65 926.084,1286.99 928.13,1285.01 930.008,1282.7 931.68,1280.1 933.109,1277.21 934.257,1274.05 935.092,1270.66 935.582,1267.07 935.698,1263.3 935.416,1259.4 934.716,1255.4 933.58,1251.36 931.998,1247.31 929.962,1243.31 927.47,1239.4 924.527,1235.63 921.139,1232.05 917.323,1228.71 913.096,1225.65 908.484,1222.93 903.515,1220.58 898.225,1218.64 892.651,1217.16 886.837,1216.16 880.828,1215.67 874.674,1215.72 868.428,1216.33 862.144,1217.5 855.877,1219.25 849.685,1221.58 843.624,1224.49 837.753,1227.96 832.126,1231.98 826.798,1236.52 821.821,1241.57 817.245,1247.08 813.116,1253.02 809.476,1259.36 806.364,1266.03 803.811,1272.99 801.846,1280.19 800.492,1287.57 799.764,1295.08 799.674,1302.64 800.226,1310.21 801.417,1317.72 803.241,1325.1 805.683,1332.31 808.722,1339.28 812.333,1345.95 816.485,1352.28 821.141,1358.21 826.26,1363.71 831.797,1368.72 837.703,1373.22 843.924,1377.17 850.407,1380.54 857.094,1383.33 863.927,1385.52 870.847,1387.09 877.794,1388.06 884.71,1388.41 891.537,1388.17 898.22,1387.36 904.704,1385.99 910.941,1384.08 916.882,1381.69 922.485,1378.83 927.711,1375.55 932.526,1371.9 936.901,1367.92 940.811,1363.66 944.24,1359.17 947.173,1354.5 949.604,1349.71 951.531,1344.84 952.957,1339.96 953.892,1335.1 954.35,1330.33 954.349,1325.67 953.914,1321.18 953.071,1316.9 951.852,1312.87 950.292,1309.1 948.427,1305.65 946.297,1302.52 943.944,1299.73 941.409,1297.31 938.736,1295.25 935.967,1293.57 933.146,1292.26 930.313,1291.31 "/>
<line clip-path="url(#clip902)" x1="1006.33" y1="1228.83" x2="990.334" y2="1212.83" style="stroke:#808080; stroke-width:3.2; stroke-opacity:1"/>
<line clip-path="url(#clip902)" x1="1006.33" y1="1228.83" x2="990.334" y2="1244.83" style="stroke:#808080; stroke-width:3.2; stroke-opacity:1"/>
<line clip-path="url(#clip902)" x1="1006.33" y1="1228.83" x2="1022.33" y2="1244.83" style="stroke:#808080; stroke-width:3.2; stroke-opacity:1"/>
<line clip-path="url(#clip902)" x1="1006.33" y1="1228.83" x2="1022.33" y2="1212.83" style="stroke:#808080; stroke-width:3.2; stroke-opacity:1"/>
<polyline clip-path="url(#clip902)" style="stroke:#808080; stroke-linecap:round; stroke-linejoin:round; stroke-width:4; stroke-opacity:1; fill:none" points="1006.33,1228.83 968.018,1240.24 "/>
<polyline clip-path="url(#clip902)" style="stroke:#808080; stroke-linecap:round; stroke-linejoin:round; stroke-width:4; stroke-opacity:1; fill:none" points="1007.66,1247.22 968.018,1240.24 997.386,1212.71 "/>
<polyline clip-path="url(#clip902)" style="stroke:#808080; stroke-linecap:round; stroke-linejoin:round; stroke-width:4; stroke-opacity:1; fill:none" points="968.018,1240.24 1006.33,1228.83 "/>
<polyline clip-path="url(#clip902)" style="stroke:#808080; stroke-linecap:round; stroke-linejoin:round; stroke-width:4; stroke-opacity:1; fill:none" points="1393.47,1104.13 1390.97,1097.82 1387.98,1091.83 1384.53,1086.22 1380.67,1081.02 1376.44,1076.26 1371.9,1071.97 1367.1,1068.18 1362.08,1064.91 1356.9,1062.15 1351.62,1059.92 1346.29,1058.23 1340.96,1057.05 1335.68,1056.38 1330.51,1056.22 1325.48,1056.52 1320.65,1057.28 1316.05,1058.45 1311.73,1060.01 1307.7,1061.92 1304.01,1064.14 1300.68,1066.62 1297.71,1069.33 1295.14,1072.22 1292.95,1075.25 1291.17,1078.37 1289.78,1081.53 1288.78,1084.7 1288.17,1087.83 1287.91,1090.88 1288.01,1093.82 1288.42,1096.61 1289.14,1099.21 1290.12,1101.61 1291.34,1103.78 1290.34,1102.51 1288.57,1100.67 1286.51,1098.98 1284.16,1097.5 1281.55,1096.25 1278.7,1095.26 1275.62,1094.58 1272.37,1094.23 1268.96,1094.23 1265.44,1094.62 1261.84,1095.4 1258.2,1096.59 1254.58,1098.21 1251.02,1100.26 1247.55,1102.74 1244.24,1105.64 1241.13,1108.95 1238.26,1112.66 1235.68,1116.76 1233.43,1121.21 1231.56,1125.98 1230.09,1131.04 1229.07,1136.36 1228.53,1141.88 1228.49,1147.56 1228.98,1153.36 1230,1159.22 1231.58,1165.09 1233.71,1170.92 1236.4,1176.64 1239.64,1182.2 1243.42,1187.55 1247.72,1192.63 1252.51,1197.39 1257.78,1201.78 1263.48,1205.76 1269.58,1209.27 1276.03,1212.28 1282.78,1214.75 1289.79,1216.66 1297,1217.97 1304.35,1218.67 1311.79,1218.74 1319.25,1218.18 1326.67,1216.99 1333.99,1215.16 1341.16,1212.71 1348.11,1209.65 1354.79,1206.01 1361.14,1201.82 1367.11,1197.11 1372.66,1191.91 1377.73,1186.28 1382.3,1180.26 1386.33,1173.9 1389.78,1167.25 1392.64,1160.36 1394.9,1153.31 1396.53,1146.15 1397.54,1138.93 1397.92,1131.73 1397.69,1124.58 1396.86,1117.57 1395.44,1110.73 1393.47,1104.13 "/>
<line clip-path="url(#clip902)" x1="1379.59" y1="1041.65" x2="1363.59" y2="1025.65" style="stroke:#808080; stroke-width:3.2; stroke-opacity:1"/>
<line clip-path="url(#clip902)" x1="1379.59" y1="1041.65" x2="1363.59" y2="1057.65" style="stroke:#808080; stroke-width:3.2; stroke-opacity:1"/>
<line clip-path="url(#clip902)" x1="1379.59" y1="1041.65" x2="1395.59" y2="1057.65" style="stroke:#808080; stroke-width:3.2; stroke-opacity:1"/>
<line clip-path="url(#clip902)" x1="1379.59" y1="1041.65" x2="1395.59" y2="1025.65" style="stroke:#808080; stroke-width:3.2; stroke-opacity:1"/>
<polyline clip-path="url(#clip902)" style="stroke:#808080; stroke-linecap:round; stroke-linejoin:round; stroke-width:4; stroke-opacity:1; fill:none" points="1379.59,1041.65 1402.1,1074.69 "/>
<polyline clip-path="url(#clip902)" style="stroke:#808080; stroke-linecap:round; stroke-linejoin:round; stroke-width:4; stroke-opacity:1; fill:none" points="1396.71,1034.8 1402.1,1074.69 1366.96,1055.07 "/>
<polyline clip-path="url(#clip902)" style="stroke:#808080; stroke-linecap:round; stroke-linejoin:round; stroke-width:4; stroke-opacity:1; fill:none" points="1402.1,1074.69 1379.59,1041.65 "/>
<polyline clip-path="url(#clip902)" style="stroke:#808080; stroke-linecap:round; stroke-linejoin:round; stroke-width:4; stroke-opacity:1; fill:none" points="1173.02,349.185 1176.22,346.636 1179.24,343.68 1182.06,340.329 1184.62,336.6 1186.88,332.513 1188.79,328.096 1190.33,323.38 1191.44,318.401 1192.11,313.197 1192.3,307.814 1191.99,302.297 1191.16,296.696 1189.8,291.062 1187.89,285.449 1185.44,279.911 1182.45,274.503 1178.92,269.281 1174.88,264.298 1170.34,259.607 1165.32,255.26 1159.86,251.304 1153.99,247.785 1147.76,244.745 1141.21,242.22 1134.38,240.244 1127.34,238.845 1120.13,238.045 1112.82,237.861 1105.46,238.303 1098.11,239.378 1090.83,241.082 1083.69,243.41 1076.74,246.346 1070.04,249.873 1063.65,253.964 1057.61,258.588 1051.98,263.71 1046.81,269.289 1042.13,275.278 1037.99,281.629 1034.4,288.29 1031.4,295.204 1029.02,302.314 1027.25,309.561 1026.11,316.885 1025.6,324.224 1025.72,331.52 1026.45,338.713 1027.78,345.746 1029.69,352.563 1032.15,359.112 1035.12,365.344 1038.58,371.215 1042.47,376.682 1046.75,381.711 1051.38,386.269 1056.3,390.332 1061.46,393.879 1066.81,396.896 1072.29,399.373 1077.85,401.308 1083.44,402.704 1088.99,403.568 1094.46,403.915 1099.8,403.762 1104.97,403.134 1109.91,402.059 1114.59,400.568 1118.98,398.697 1123.04,396.484 1126.74,393.971 1130.07,391.202 1133.01,388.22 1135.54,385.072 1137.67,381.803 1139.38,378.459 1140.68,375.085 1141.58,371.725 1142.09,368.421 1142.24,365.212 1142.03,362.136 1141.49,359.226 1140.66,356.512 1139.56,354.023 1138.22,351.779 1136.68,349.801 1137.28,350.296 1139.29,351.849 1141.56,353.198 1144.09,354.31 1146.84,355.152 1149.79,355.693 1152.9,355.906 1156.15,355.766 1159.5,355.252 1162.9,354.348 1166.32,353.04 1169.71,351.32 1173.02,349.185 "/>
<line clip-path="url(#clip902)" x1="1224.13" y1="286.703" x2="1208.13" y2="270.703" style="stroke:#808080; stroke-width:3.2; stroke-opacity:1"/>
<line clip-path="url(#clip902)" x1="1224.13" y1="286.703" x2="1208.13" y2="302.703" style="stroke:#808080; stroke-width:3.2; stroke-opacity:1"/>
<line clip-path="url(#clip902)" x1="1224.13" y1="286.703" x2="1240.13" y2="302.703" style="stroke:#808080; stroke-width:3.2; stroke-opacity:1"/>
<line clip-path="url(#clip902)" x1="1224.13" y1="286.703" x2="1240.13" y2="270.703" style="stroke:#808080; stroke-width:3.2; stroke-opacity:1"/>
<polyline clip-path="url(#clip902)" style="stroke:#808080; stroke-linecap:round; stroke-linejoin:round; stroke-width:4; stroke-opacity:1; fill:none" points="1224.13,286.703 1196.37,257.934 "/>
<polyline clip-path="url(#clip902)" style="stroke:#808080; stroke-linecap:round; stroke-linejoin:round; stroke-width:4; stroke-opacity:1; fill:none" points="1208.42,296.339 1196.37,257.934 1234.32,271.342 "/>
<polyline clip-path="url(#clip902)" style="stroke:#808080; stroke-linecap:round; stroke-linejoin:round; stroke-width:4; stroke-opacity:1; fill:none" points="1196.37,257.934 1224.13,286.703 "/>
<polyline clip-path="url(#clip902)" style="stroke:#808080; stroke-linecap:round; stroke-linejoin:round; stroke-width:4; stroke-opacity:1; fill:none" points="1656.3,389.446 1652.96,385.19 1649.34,381.361 1645.49,377.979 1641.45,375.056 1637.28,372.6 1633.03,370.614 1628.74,369.095 1624.47,368.035 1620.26,367.421 1616.15,367.237 1612.19,367.458 1608.42,368.061 1604.86,369.016 1601.55,370.29 1598.52,371.848 1595.79,373.653 1593.37,375.667 1591.29,377.848 1589.54,380.157 1588.13,382.553 1587.07,384.995 1586.34,387.446 1586.04,389.022 1586.13,386.535 1585.9,383.951 1585.34,381.306 1584.44,378.637 1583.17,375.984 1581.55,373.387 1579.57,370.889 1577.23,368.53 1574.54,366.353 1571.53,364.4 1568.2,362.709 1564.58,361.32 1560.71,360.269 1556.6,359.589 1552.3,359.309 1547.85,359.456 1543.29,360.053 1538.67,361.116 1534.03,362.659 1529.42,364.691 1524.9,367.212 1520.52,370.221 1516.32,373.71 1512.36,377.664 1508.68,382.064 1505.34,386.886 1502.38,392.1 1499.85,397.671 1497.78,403.561 1496.2,409.725 1495.16,416.117 1494.66,422.686 1494.75,429.378 1495.42,436.139 1496.69,442.91 1498.56,449.634 1501.04,456.252 1504.11,462.705 1507.75,468.935 1511.95,474.887 1516.69,480.506 1521.92,485.741 1527.62,490.545 1533.74,494.872 1540.23,498.684 1547.05,501.944 1554.15,504.624 1561.45,506.699 1568.92,508.15 1576.49,508.966 1584.09,509.139 1591.67,508.669 1599.16,507.563 1606.51,505.832 1613.66,503.495 1620.54,500.575 1627.12,497.103 1633.33,493.112 1639.14,488.642 1644.49,483.737 1649.36,478.443 1653.72,472.812 1657.53,466.896 1660.77,460.752 1663.44,454.435 1665.52,448.005 1667.01,441.518 1667.92,435.032 1668.25,428.603 1668.02,422.286 1667.25,416.133 1665.96,410.195 1664.18,404.516 1661.95,399.141 1659.31,394.106 1656.3,389.446 "/>
<line clip-path="url(#clip902)" x1="1674.01" y1="326.964" x2="1658.01" y2="310.964" style="stroke:#808080; stroke-width:3.2; stroke-opacity:1"/>
<line clip-path="url(#clip902)" x1="1674.01" y1="326.964" x2="1658.01" y2="342.964" style="stroke:#808080; stroke-width:3.2; stroke-opacity:1"/>
<line clip-path="url(#clip902)" x1="1674.01" y1="326.964" x2="1690.01" y2="342.964" style="stroke:#808080; stroke-width:3.2; stroke-opacity:1"/>
<line clip-path="url(#clip902)" x1="1674.01" y1="326.964" x2="1690.01" y2="310.964" style="stroke:#808080; stroke-width:3.2; stroke-opacity:1"/>
<polyline clip-path="url(#clip902)" style="stroke:#808080; stroke-linecap:round; stroke-linejoin:round; stroke-width:4; stroke-opacity:1; fill:none" points="1674.01,326.964 1669.13,366.644 "/>
<polyline clip-path="url(#clip902)" style="stroke:#808080; stroke-linecap:round; stroke-linejoin:round; stroke-width:4; stroke-opacity:1; fill:none" points="1691.39,333.106 1669.13,366.644 1655.66,328.718 "/>
<polyline clip-path="url(#clip902)" style="stroke:#808080; stroke-linecap:round; stroke-linejoin:round; stroke-width:4; stroke-opacity:1; fill:none" points="1669.13,366.644 1674.01,326.964 "/>
<polyline clip-path="url(#clip902)" style="stroke:#808080; stroke-linecap:round; stroke-linejoin:round; stroke-width:4; stroke-opacity:1; fill:none" points="1151.48,930.091 1148.56,924.464 1145.23,919.217 1141.52,914.384 1137.48,909.994 1133.16,906.071 1128.61,902.634 1123.88,899.695 1119.03,897.262 1114.1,895.336 1109.16,893.914 1104.24,892.987 1099.4,892.54 1094.69,892.555 1090.15,893.008 1085.81,893.872 1081.72,895.115 1077.91,896.702 1074.41,898.596 1071.23,900.758 1068.4,903.146 1065.94,905.717 1063.84,908.429 1062.13,911.237 1060.78,914.1 1059.81,916.975 1059.21,919.822 1058.95,922.603 1059.02,925.281 1059.4,927.822 1059.99,929.985 1059.02,927.704 1057.73,925.47 1056.11,923.322 1054.17,921.299 1051.92,919.441 1049.36,917.786 1046.52,916.372 1043.42,915.235 1040.08,914.408 1036.54,913.923 1032.83,913.808 1028.98,914.088 1025.04,914.782 1021.05,915.908 1017.06,917.478 1013.12,919.497 1009.26,921.969 1005.55,924.89 1002.02,928.25 998.732,932.037 995.727,936.231 993.052,940.807 990.749,945.737 988.859,950.987 987.418,956.517 986.459,962.286 986.01,968.247 986.096,974.352 986.734,980.547 987.939,986.779 989.717,992.992 992.072,999.129 994.998,1005.13 998.487,1010.95 1002.52,1016.52 1007.08,1021.79 1012.14,1026.71 1017.66,1031.22 1023.61,1035.3 1029.95,1038.88 1036.62,1041.93 1043.58,1044.43 1050.78,1046.33 1058.16,1047.63 1065.65,1048.3 1073.21,1048.33 1080.76,1047.73 1088.26,1046.48 1095.63,1044.6 1102.82,1042.1 1109.76,1039.01 1116.42,1035.35 1122.72,1031.14 1128.63,1026.44 1134.09,1021.27 1139.08,1015.68 1143.54,1009.73 1147.46,1003.46 1150.8,996.93 1153.55,990.198 1155.69,983.322 1157.23,976.361 1158.15,969.374 1158.46,962.421 1158.17,955.558 1157.31,948.841 1155.88,942.325 1153.93,936.059 1151.48,930.091 "/>
<line clip-path="url(#clip902)" x1="1148.04" y1="867.61" x2="1132.04" y2="851.61" style="stroke:#808080; stroke-width:3.2; stroke-opacity:1"/>
<line clip-path="url(#clip902)" x1="1148.04" y1="867.61" x2="1132.04" y2="883.61" style="stroke:#808080; stroke-width:3.2; stroke-opacity:1"/>
<line clip-path="url(#clip902)" x1="1148.04" y1="867.61" x2="1164.04" y2="883.61" style="stroke:#808080; stroke-width:3.2; stroke-opacity:1"/>
<line clip-path="url(#clip902)" x1="1148.04" y1="867.61" x2="1164.04" y2="851.61" style="stroke:#808080; stroke-width:3.2; stroke-opacity:1"/>
<polyline clip-path="url(#clip902)" style="stroke:#808080; stroke-linecap:round; stroke-linejoin:round; stroke-width:4; stroke-opacity:1; fill:none" points="1148.04,867.61 1161,905.427 "/>
<polyline clip-path="url(#clip902)" style="stroke:#808080; stroke-linecap:round; stroke-linejoin:round; stroke-width:4; stroke-opacity:1; fill:none" points="1166.36,865.535 1161,905.427 1132.3,877.209 "/>
<polyline clip-path="url(#clip902)" style="stroke:#808080; stroke-linecap:round; stroke-linejoin:round; stroke-width:4; stroke-opacity:1; fill:none" points="1161,905.427 1148.04,867.61 "/>
<polyline clip-path="url(#clip902)" style="stroke:#808080; stroke-linecap:round; stroke-linejoin:round; stroke-width:4; stroke-opacity:1; fill:none" points="1422.1,1012.21 1419,1007.02 1415.53,1002.24 1411.73,997.886 1407.65,993.985 1403.33,990.557 1398.84,987.615 1394.22,985.165 1389.53,983.21 1384.81,981.747 1380.11,980.767 1375.49,980.255 1370.98,980.194 1366.64,980.56 1362.49,981.327 1358.59,982.463 1354.95,983.935 1351.6,985.706 1348.58,987.737 1345.89,989.988 1343.56,992.417 1341.58,994.982 1339.97,997.64 1338.73,1000.35 1337.84,1003.07 1337.3,1005.76 1337.1,1008.39 1337.22,1010.91 1337.17,1011.1 1336.43,1008.69 1335.36,1006.3 1333.95,1003.96 1332.2,1001.7 1330.11,999.582 1327.7,997.632 1324.99,995.893 1321.97,994.403 1318.69,993.2 1315.17,992.317 1311.43,991.787 1307.52,991.638 1303.47,991.895 1299.32,992.579 1295.12,993.707 1290.92,995.291 1286.75,997.338 1282.68,999.85 1278.75,1002.82 1275,1006.25 1271.5,1010.12 1268.28,1014.4 1265.39,1019.09 1262.89,1024.13 1260.8,1029.51 1259.16,1035.18 1258.01,1041.11 1257.39,1047.23 1257.3,1053.51 1257.77,1059.89 1258.82,1066.31 1260.46,1072.72 1262.67,1079.07 1265.47,1085.29 1268.85,1091.33 1272.78,1097.13 1277.25,1102.63 1282.22,1107.79 1287.67,1112.55 1293.57,1116.87 1299.86,1120.7 1306.5,1124 1313.44,1126.75 1320.62,1128.91 1328,1130.46 1335.51,1131.39 1343.09,1131.68 1350.69,1131.32 1358.23,1130.32 1365.66,1128.69 1372.92,1126.44 1379.95,1123.59 1386.7,1120.16 1393.11,1116.19 1399.14,1111.71 1404.73,1106.76 1409.85,1101.38 1414.46,1095.64 1418.53,1089.57 1422.04,1083.23 1424.97,1076.68 1427.3,1069.98 1429.02,1063.18 1430.14,1056.35 1430.65,1049.54 1430.58,1042.81 1429.93,1036.22 1428.73,1029.81 1427,1023.65 1424.78,1017.76 1422.1,1012.21 "/>
<line clip-path="url(#clip902)" x1="1425.42" y1="949.729" x2="1409.42" y2="933.729" style="stroke:#808080; stroke-width:3.2; stroke-opacity:1"/>
<line clip-path="url(#clip902)" x1="1425.42" y1="949.729" x2="1409.42" y2="965.729" style="stroke:#808080; stroke-width:3.2; stroke-opacity:1"/>
<line clip-path="url(#clip902)" x1="1425.42" y1="949.729" x2="1441.42" y2="965.729" style="stroke:#808080; stroke-width:3.2; stroke-opacity:1"/>
<line clip-path="url(#clip902)" x1="1425.42" y1="949.729" x2="1441.42" y2="933.729" style="stroke:#808080; stroke-width:3.2; stroke-opacity:1"/>
<polyline clip-path="url(#clip902)" style="stroke:#808080; stroke-linecap:round; stroke-linejoin:round; stroke-width:4; stroke-opacity:1; fill:none" points="1425.42,949.729 1432.46,989.083 "/>
<polyline clip-path="url(#clip902)" style="stroke:#808080; stroke-linecap:round; stroke-linejoin:round; stroke-width:4; stroke-opacity:1; fill:none" points="1443.84,950.478 1432.46,989.083 1408.4,956.812 "/>
<polyline clip-path="url(#clip902)" style="stroke:#808080; stroke-linecap:round; stroke-linejoin:round; stroke-width:4; stroke-opacity:1; fill:none" points="1432.46,989.083 1425.42,949.729 "/>
<polyline clip-path="url(#clip902)" style="stroke:#808080; stroke-linecap:round; stroke-linejoin:round; stroke-width:4; stroke-opacity:1; fill:none" points="1169.72,689.146 1169.58,681.54 1168.8,673.972 1167.38,666.503 1165.33,659.192 1162.69,652.1 1159.46,645.28 1155.69,638.787 1151.4,632.669 1146.63,626.973 1141.44,621.739 1135.86,617.005 1129.96,612.801 1123.77,609.154 1117.37,606.082 1110.8,603.601 1104.13,601.717 1097.42,600.434 1090.71,599.748 1084.08,599.648 1077.57,600.119 1071.24,601.14 1065.13,602.685 1059.3,604.723 1053.79,607.219 1048.63,610.134 1043.87,613.426 1039.52,617.048 1035.62,620.953 1032.18,625.093 1029.21,629.415 1026.73,633.869 1024.74,638.405 1023.23,642.97 1022.19,647.518 1021.62,651.999 1021.49,656.369 1021.78,660.585 1022.46,664.609 1023.51,668.404 1024.89,671.939 1026.57,675.187 1028.51,678.124 1030.66,680.731 1032.99,682.995 1035.45,684.908 1038.01,686.463 1040.62,687.663 1043.24,688.512 1045.83,689.018 1048.36,689.195 1048.97,689.234 1046.5,689.688 1044.01,690.474 1041.53,691.602 1039.1,693.075 1036.76,694.893 1034.55,697.053 1032.52,699.546 1030.7,702.357 1029.13,705.468 1027.86,708.857 1026.91,712.496 1026.31,716.353 1026.11,720.394 1026.31,724.58 1026.95,728.868 1028.05,733.215 1029.6,737.574 1031.63,741.895 1034.13,746.13 1037.11,750.228 1040.54,754.139 1044.43,757.813 1048.74,761.202 1053.47,764.259 1058.56,766.939 1064,769.201 1069.75,771.006 1075.75,772.321 1081.97,773.115 1088.35,773.364 1094.84,773.047 1101.39,772.15 1107.94,770.663 1114.42,768.585 1120.8,765.917 1127,762.668 1132.96,758.854 1138.64,754.495 1143.98,749.618 1148.93,744.254 1153.45,738.44 1157.48,732.218 1160.99,725.635 1163.94,718.74 1166.31,711.586 1168.08,704.23 1169.22,696.73 1169.72,689.146 "/>
<line clip-path="url(#clip902)" x1="1137.91" y1="626.665" x2="1121.91" y2="610.665" style="stroke:#808080; stroke-width:3.2; stroke-opacity:1"/>
<line clip-path="url(#clip902)" x1="1137.91" y1="626.665" x2="1121.91" y2="642.665" style="stroke:#808080; stroke-width:3.2; stroke-opacity:1"/>
<line clip-path="url(#clip902)" x1="1137.91" y1="626.665" x2="1153.91" y2="642.665" style="stroke:#808080; stroke-width:3.2; stroke-opacity:1"/>
<line clip-path="url(#clip902)" x1="1137.91" y1="626.665" x2="1153.91" y2="610.665" style="stroke:#808080; stroke-width:3.2; stroke-opacity:1"/>
<polyline clip-path="url(#clip902)" style="stroke:#808080; stroke-linecap:round; stroke-linejoin:round; stroke-width:4; stroke-opacity:1; fill:none" points="1137.91,626.665 1177.78,623.818 "/>
<polyline clip-path="url(#clip902)" style="stroke:#808080; stroke-linecap:round; stroke-linejoin:round; stroke-width:4; stroke-opacity:1; fill:none" points="1140.59,608.427 1177.78,623.818 1143.16,644.336 "/>
<polyline clip-path="url(#clip902)" style="stroke:#808080; stroke-linecap:round; stroke-linejoin:round; stroke-width:4; stroke-opacity:1; fill:none" points="1177.78,623.818 1137.91,626.665 "/>
<polyline clip-path="url(#clip902)" style="stroke:#808080; stroke-linecap:round; stroke-linejoin:round; stroke-width:4; stroke-opacity:1; fill:none" points="858.07,1013.05 855.381,1007.02 852.229,1001.33 848.653,996.04 844.701,991.174 840.418,986.765 835.856,982.836 831.066,979.405 826.101,976.485 821.014,974.083 815.859,972.202 810.688,970.836 805.552,969.977 800.501,969.61 795.583,969.716 790.84,970.271 786.315,971.245 782.045,972.608 778.062,974.324 774.395,976.355 771.069,978.661 768.103,981.198 765.511,983.924 763.303,986.795 761.484,989.767 760.053,992.794 759.006,995.836 758.332,998.85 758.019,1001.8 758.048,1004.64 758.398,1007.34 759.045,1009.88 759.959,1012.22 759.617,1011.74 758.134,1009.69 756.338,1007.75 754.237,1005.97 751.843,1004.39 749.174,1003.03 746.251,1001.95 743.1,1001.16 739.75,1000.71 736.235,1000.61 732.592,1000.9 728.86,1001.58 725.082,1002.69 721.302,1004.23 717.567,1006.2 713.923,1008.62 710.418,1011.47 707.1,1014.75 704.017,1018.44 701.215,1022.52 698.737,1026.98 696.627,1031.77 694.923,1036.88 693.661,1042.25 692.874,1047.85 692.589,1053.64 692.83,1059.55 693.614,1065.55 694.955,1071.58 696.86,1077.58 699.33,1083.5 702.361,1089.28 705.943,1094.87 710.059,1100.2 714.689,1105.23 719.805,1109.91 725.375,1114.18 731.36,1118 737.718,1121.33 744.403,1124.13 751.365,1126.38 758.55,1128.03 765.901,1129.08 773.361,1129.5 780.869,1129.28 788.365,1128.43 795.787,1126.94 803.075,1124.82 810.171,1122.09 817.015,1118.77 823.553,1114.88 829.734,1110.46 835.506,1105.53 840.828,1100.16 845.657,1094.37 849.958,1088.22 853.702,1081.77 856.865,1075.06 859.427,1068.17 861.376,1061.13 862.706,1054.02 863.416,1046.9 863.511,1039.81 863.005,1032.83 861.913,1026.01 860.259,1019.4 858.07,1013.05 "/>
<line clip-path="url(#clip902)" x1="848.392" y1="950.572" x2="832.392" y2="934.572" style="stroke:#808080; stroke-width:3.2; stroke-opacity:1"/>
<line clip-path="url(#clip902)" x1="848.392" y1="950.572" x2="832.392" y2="966.572" style="stroke:#808080; stroke-width:3.2; stroke-opacity:1"/>
<line clip-path="url(#clip902)" x1="848.392" y1="950.572" x2="864.392" y2="966.572" style="stroke:#808080; stroke-width:3.2; stroke-opacity:1"/>
<line clip-path="url(#clip902)" x1="848.392" y1="950.572" x2="864.392" y2="934.572" style="stroke:#808080; stroke-width:3.2; stroke-opacity:1"/>
<polyline clip-path="url(#clip902)" style="stroke:#808080; stroke-linecap:round; stroke-linejoin:round; stroke-width:4; stroke-opacity:1; fill:none" points="848.392,950.572 867.01,985.95 "/>
<polyline clip-path="url(#clip902)" style="stroke:#808080; stroke-linecap:round; stroke-linejoin:round; stroke-width:4; stroke-opacity:1; fill:none" points="866.174,945.71 867.01,985.95 834.316,962.475 "/>
<polyline clip-path="url(#clip902)" style="stroke:#808080; stroke-linecap:round; stroke-linejoin:round; stroke-width:4; stroke-opacity:1; fill:none" points="867.01,985.95 848.392,950.572 "/>
<polyline clip-path="url(#clip902)" style="stroke:#808080; stroke-linecap:round; stroke-linejoin:round; stroke-width:4; stroke-opacity:1; fill:none" points="1073.08,972.742 1074.51,965.664 1075.34,958.423 1075.56,951.077 1075.14,943.684 1074.09,936.304 1072.41,929 1070.11,921.829 1067.19,914.853 1063.69,908.129 1059.62,901.711 1055.02,895.654 1049.92,890.006 1044.36,884.812 1038.4,880.114 1032.08,875.947 1025.44,872.342 1018.56,869.325 1011.48,866.914 1004.26,865.124 996.973,863.962 989.668,863.428 982.408,863.518 975.251,864.221 968.256,865.52 961.477,867.393 954.966,869.812 948.771,872.744 942.938,876.152 937.506,879.993 932.512,884.225 927.987,888.797 923.954,893.659 920.435,898.759 917.443,904.044 914.986,909.457 913.068,914.946 911.686,920.456 910.83,925.933 910.487,931.328 910.638,936.591 911.259,941.675 912.322,946.539 913.796,951.143 915.643,955.451 917.827,959.434 920.306,963.065 923.036,966.323 925.973,969.192 929.072,971.66 932.287,973.721 935.573,975.375 938.885,976.624 942.18,977.478 945.416,977.949 948.554,978.054 951.559,977.814 954.396,977.254 957.035,976.402 959.451,975.287 961.621,973.943 962.767,973.083 961.042,974.882 959.49,976.964 958.146,979.315 957.046,981.914 956.222,984.739 955.704,987.762 955.521,990.951 955.697,994.272 956.252,997.688 957.203,1001.16 958.562,1004.64 960.338,1008.09 962.534,1011.46 965.147,1014.7 968.171,1017.78 971.593,1020.63 975.396,1023.23 979.558,1025.52 984.052,1027.46 988.846,1029.01 993.903,1030.14 999.184,1030.82 1004.64,1031.01 1010.24,1030.7 1015.91,1029.87 1021.62,1028.49 1027.3,1026.57 1032.91,1024.11 1038.38,1021.09 1043.67,1017.54 1048.71,1013.47 1053.45,1008.89 1057.85,1003.85 1061.86,998.353 1065.42,992.453 1068.5,986.187 1071.07,979.6 1073.08,972.742 "/>
<line clip-path="url(#clip902)" x1="1051.17" y1="910.26" x2="1035.17" y2="894.26" style="stroke:#808080; stroke-width:3.2; stroke-opacity:1"/>
<line clip-path="url(#clip902)" x1="1051.17" y1="910.26" x2="1035.17" y2="926.26" style="stroke:#808080; stroke-width:3.2; stroke-opacity:1"/>
<line clip-path="url(#clip902)" x1="1051.17" y1="910.26" x2="1067.17" y2="926.26" style="stroke:#808080; stroke-width:3.2; stroke-opacity:1"/>
<line clip-path="url(#clip902)" x1="1051.17" y1="910.26" x2="1067.17" y2="894.26" style="stroke:#808080; stroke-width:3.2; stroke-opacity:1"/>
<polyline clip-path="url(#clip902)" style="stroke:#808080; stroke-linecap:round; stroke-linejoin:round; stroke-width:4; stroke-opacity:1; fill:none" points="1051.17,910.26 1081.31,884.004 "/>
<polyline clip-path="url(#clip902)" style="stroke:#808080; stroke-linecap:round; stroke-linejoin:round; stroke-width:4; stroke-opacity:1; fill:none" points="1042.34,894.074 1081.31,884.004 1065.99,921.221 "/>
<polyline clip-path="url(#clip902)" style="stroke:#808080; stroke-linecap:round; stroke-linejoin:round; stroke-width:4; stroke-opacity:1; fill:none" points="1081.31,884.004 1051.17,910.26 "/>
<polyline clip-path="url(#clip902)" style="stroke:#808080; stroke-linecap:round; stroke-linejoin:round; stroke-width:4; stroke-opacity:1; fill:none" points="1195.48,571.172 1198.51,566.566 1201.17,561.584 1203.42,556.258 1205.22,550.626 1206.55,544.73 1207.36,538.616 1207.63,532.334 1207.34,525.934 1206.48,519.472 1205.04,513.004 1203.01,506.586 1200.39,500.277 1197.19,494.135 1193.43,488.216 1189.13,482.575 1184.3,477.267 1178.99,472.342 1173.22,467.847 1167.05,463.828 1160.51,460.323 1153.65,457.368 1146.52,454.992 1139.19,453.221 1131.71,452.072 1124.14,451.559 1116.54,451.687 1108.97,452.459 1101.49,453.867 1094.17,455.901 1087.06,458.541 1080.21,461.765 1073.69,465.543 1067.53,469.84 1061.8,474.618 1056.52,479.832 1051.75,485.435 1047.5,491.376 1043.81,497.601 1040.69,504.053 1038.17,510.676 1036.24,517.411 1034.92,524.2 1034.21,530.982 1034.08,537.702 1034.53,544.304 1035.54,550.733 1037.08,556.938 1039.13,562.873 1041.64,568.492 1044.58,573.758 1047.9,578.633 1051.56,583.088 1055.52,587.098 1059.72,590.643 1064.12,593.709 1068.65,596.286 1073.28,598.371 1077.94,599.966 1082.6,601.08 1087.19,601.723 1091.68,601.913 1096.02,601.672 1100.17,601.026 1104.09,600.005 1107.76,598.641 1111.14,596.97 1114.21,595.031 1116.95,592.864 1119.35,590.509 1121.38,588.008 1123.06,585.405 1124.37,582.74 1125.33,580.054 1125.94,577.388 1126.21,574.779 1126.16,572.262 1126.27,572.501 1126.95,574.936 1127.96,577.368 1129.32,579.757 1131.01,582.065 1133.04,584.25 1135.41,586.272 1138.09,588.092 1141.07,589.67 1144.32,590.969 1147.83,591.954 1151.56,592.591 1155.48,592.852 1159.55,592.71 1163.73,592.143 1167.97,591.133 1172.24,589.666 1176.47,587.735 1180.62,585.335 1184.65,582.469 1188.5,579.144 1192.13,575.372 1195.48,571.172 "/>
<line clip-path="url(#clip902)" x1="1214.06" y1="508.69" x2="1198.06" y2="492.69" style="stroke:#808080; stroke-width:3.2; stroke-opacity:1"/>
<line clip-path="url(#clip902)" x1="1214.06" y1="508.69" x2="1198.06" y2="524.69" style="stroke:#808080; stroke-width:3.2; stroke-opacity:1"/>
<line clip-path="url(#clip902)" x1="1214.06" y1="508.69" x2="1230.06" y2="524.69" style="stroke:#808080; stroke-width:3.2; stroke-opacity:1"/>
<line clip-path="url(#clip902)" x1="1214.06" y1="508.69" x2="1230.06" y2="492.69" style="stroke:#808080; stroke-width:3.2; stroke-opacity:1"/>
<polyline clip-path="url(#clip902)" style="stroke:#808080; stroke-linecap:round; stroke-linejoin:round; stroke-width:4; stroke-opacity:1; fill:none" points="1214.06,508.69 1208.49,469.101 "/>
<polyline clip-path="url(#clip902)" style="stroke:#808080; stroke-linecap:round; stroke-linejoin:round; stroke-width:4; stroke-opacity:1; fill:none" points="1195.68,507.254 1208.49,469.101 1231.33,502.247 "/>
<polyline clip-path="url(#clip902)" style="stroke:#808080; stroke-linecap:round; stroke-linejoin:round; stroke-width:4; stroke-opacity:1; fill:none" points="1208.49,469.101 1214.06,508.69 "/>
<polyline clip-path="url(#clip902)" style="stroke:#808080; stroke-linecap:round; stroke-linejoin:round; stroke-width:4; stroke-opacity:1; fill:none" points="1370.36,1229.08 1371.43,1221.78 1371.87,1214.36 1371.69,1206.89 1370.87,1199.42 1369.41,1192.02 1367.32,1184.74 1364.62,1177.64 1361.32,1170.79 1357.45,1164.24 1353.05,1158.04 1348.14,1152.24 1342.77,1146.88 1336.98,1142.02 1330.82,1137.68 1324.35,1133.89 1317.61,1130.68 1310.68,1128.07 1303.6,1126.08 1296.44,1124.71 1289.25,1123.96 1282.09,1123.83 1275.04,1124.31 1268.13,1125.38 1261.42,1127.02 1254.98,1129.21 1248.84,1131.9 1243.04,1135.06 1237.64,1138.66 1232.67,1142.65 1228.15,1146.98 1224.11,1151.6 1220.57,1156.46 1217.55,1161.5 1215.04,1166.68 1213.07,1171.93 1211.62,1177.21 1210.68,1182.47 1210.25,1187.64 1210.29,1192.69 1210.8,1197.58 1211.74,1202.24 1213.08,1206.66 1214.78,1210.8 1216.82,1214.61 1219.13,1218.09 1221.7,1221.21 1224.46,1223.94 1227.39,1226.29 1230.42,1228.25 1233.52,1229.81 1236.65,1230.98 1239.75,1231.77 1242.8,1232.19 1245.76,1232.25 1248.58,1231.99 1251.23,1231.41 1253.69,1230.56 1255.94,1229.45 1255.14,1230.06 1253.21,1231.71 1251.43,1233.67 1249.82,1235.93 1248.44,1238.45 1247.31,1241.24 1246.47,1244.25 1245.95,1247.47 1245.77,1250.85 1245.97,1254.38 1246.55,1257.99 1247.55,1261.67 1248.97,1265.35 1250.82,1269 1253.1,1272.58 1255.82,1276.02 1258.95,1279.29 1262.5,1282.33 1266.44,1285.11 1270.75,1287.57 1275.41,1289.68 1280.37,1291.4 1285.61,1292.68 1291.08,1293.5 1296.74,1293.83 1302.54,1293.64 1308.43,1292.92 1314.35,1291.65 1320.26,1289.82 1326.1,1287.43 1331.81,1284.48 1337.33,1280.99 1342.61,1276.96 1347.6,1272.41 1352.24,1267.38 1356.49,1261.9 1360.3,1256 1363.63,1249.72 1366.43,1243.1 1368.69,1236.21 1370.36,1229.08 "/>
<line clip-path="url(#clip902)" x1="1344.58" y1="1166.6" x2="1328.58" y2="1150.6" style="stroke:#808080; stroke-width:3.2; stroke-opacity:1"/>
<line clip-path="url(#clip902)" x1="1344.58" y1="1166.6" x2="1328.58" y2="1182.6" style="stroke:#808080; stroke-width:3.2; stroke-opacity:1"/>
<line clip-path="url(#clip902)" x1="1344.58" y1="1166.6" x2="1360.58" y2="1182.6" style="stroke:#808080; stroke-width:3.2; stroke-opacity:1"/>
<line clip-path="url(#clip902)" x1="1344.58" y1="1166.6" x2="1360.58" y2="1150.6" style="stroke:#808080; stroke-width:3.2; stroke-opacity:1"/>
<polyline clip-path="url(#clip902)" style="stroke:#808080; stroke-linecap:round; stroke-linejoin:round; stroke-width:4; stroke-opacity:1; fill:none" points="1344.58,1166.6 1378.49,1145.42 "/>
<polyline clip-path="url(#clip902)" style="stroke:#808080; stroke-linecap:round; stroke-linejoin:round; stroke-width:4; stroke-opacity:1; fill:none" points="1338.42,1149.22 1378.49,1145.42 1357.49,1179.76 "/>
<polyline clip-path="url(#clip902)" style="stroke:#808080; stroke-linecap:round; stroke-linejoin:round; stroke-width:4; stroke-opacity:1; fill:none" points="1378.49,1145.42 1344.58,1166.6 "/>
<polyline clip-path="url(#clip902)" style="stroke:#808080; stroke-linecap:round; stroke-linejoin:round; stroke-width:4; stroke-opacity:1; fill:none" points="819.543,886.42 816.785,885.926 814.101,885.77 811.528,885.935 809.097,886.398 811.273,885.677 813.6,884.583 815.868,883.156 818.039,881.397 820.072,879.312 821.928,876.91 823.568,874.205 824.955,871.218 826.052,867.972 826.825,864.493 827.245,860.814 827.284,856.97 826.917,853.001 826.125,848.946 824.893,844.852 823.208,840.763 821.067,836.729 818.467,832.797 815.414,829.017 811.917,825.438 807.991,822.109 803.658,819.076 798.942,816.384 793.875,814.077 788.49,812.194 782.829,810.771 776.935,809.84 770.854,809.43 764.638,809.562 758.338,810.255 752.011,811.521 745.711,813.367 739.497,815.793 733.425,818.794 727.553,822.36 721.936,826.472 716.629,831.11 711.682,836.243 707.147,841.839 703.066,847.859 699.483,854.259 696.435,860.993 693.952,868.009 692.063,875.252 690.787,882.667 690.142,890.193 690.136,897.771 690.772,905.339 692.047,912.837 693.953,920.204 696.473,927.381 699.587,934.309 703.267,940.935 707.482,947.206 712.193,953.074 717.36,958.496 722.935,963.43 728.869,967.844 735.11,971.707 741.601,974.996 748.286,977.693 755.106,979.787 762.002,981.271 768.915,982.146 775.786,982.419 782.559,982.101 789.178,981.209 795.59,979.769 801.746,977.807 807.6,975.357 813.11,972.456 818.238,969.145 822.95,965.469 827.22,961.475 831.024,957.212 834.345,952.731 837.172,948.083 839.499,943.321 841.324,938.498 842.653,933.663 843.496,928.867 843.868,924.157 843.789,919.58 843.283,915.176 842.378,910.987 841.106,907.045 839.502,903.384 837.604,900.03 835.451,897.005 833.085,894.326 830.548,892.008 827.883,890.057 825.133,888.477 822.339,887.267 819.543,886.42 "/>
<line clip-path="url(#clip902)" x1="897.029" y1="823.938" x2="881.029" y2="807.938" style="stroke:#808080; stroke-width:3.2; stroke-opacity:1"/>
<line clip-path="url(#clip902)" x1="897.029" y1="823.938" x2="881.029" y2="839.938" style="stroke:#808080; stroke-width:3.2; stroke-opacity:1"/>
<line clip-path="url(#clip902)" x1="897.029" y1="823.938" x2="913.029" y2="839.938" style="stroke:#808080; stroke-width:3.2; stroke-opacity:1"/>
<line clip-path="url(#clip902)" x1="897.029" y1="823.938" x2="913.029" y2="807.938" style="stroke:#808080; stroke-width:3.2; stroke-opacity:1"/>
<polyline clip-path="url(#clip902)" style="stroke:#808080; stroke-linecap:round; stroke-linejoin:round; stroke-width:4; stroke-opacity:1; fill:none" points="897.029,823.938 858.356,834.067 "/>
<polyline clip-path="url(#clip902)" style="stroke:#808080; stroke-linecap:round; stroke-linejoin:round; stroke-width:4; stroke-opacity:1; fill:none" points="897.742,842.358 858.356,834.067 888.621,807.533 "/>
<polyline clip-path="url(#clip902)" style="stroke:#808080; stroke-linecap:round; stroke-linejoin:round; stroke-width:4; stroke-opacity:1; fill:none" points="858.356,834.067 897.029,823.938 "/>
<polyline clip-path="url(#clip902)" style="stroke:#808080; stroke-linecap:round; stroke-linejoin:round; stroke-width:4; stroke-opacity:1; fill:none" points="1584.33,1160.17 1580.9,1156.9 1577.3,1154.06 1573.56,1151.66 1569.73,1149.71 1565.87,1148.2 1562.01,1147.12 1558.2,1146.47 1554.49,1146.22 1550.91,1146.36 1547.5,1146.86 1544.29,1147.69 1541.32,1148.83 1538.61,1150.23 1536.18,1151.86 1534.04,1153.68 1532.22,1155.67 1530.71,1157.77 1529.53,1159.95 1530.22,1158.09 1530.84,1155.61 1531.18,1152.96 1531.19,1150.17 1530.86,1147.28 1530.18,1144.33 1529.13,1141.36 1527.69,1138.4 1525.88,1135.51 1523.68,1132.71 1521.1,1130.07 1518.16,1127.61 1514.86,1125.39 1511.22,1123.44 1507.28,1121.81 1503.06,1120.54 1498.59,1119.65 1493.91,1119.18 1489.06,1119.15 1484.08,1119.6 1479.03,1120.54 1473.95,1121.98 1468.89,1123.93 1463.91,1126.39 1459.05,1129.37 1454.38,1132.85 1449.94,1136.83 1445.79,1141.28 1441.97,1146.17 1438.53,1151.49 1435.52,1157.19 1432.97,1163.23 1430.93,1169.57 1429.42,1176.17 1428.47,1182.97 1428.12,1189.92 1428.36,1196.95 1429.21,1204.03 1430.68,1211.07 1432.77,1218.03 1435.47,1224.85 1438.76,1231.47 1442.63,1237.82 1447.05,1243.86 1452,1249.53 1457.42,1254.78 1463.29,1259.57 1469.56,1263.86 1476.18,1267.6 1483.09,1270.78 1490.25,1273.36 1497.59,1275.32 1505.05,1276.65 1512.58,1277.34 1520.11,1277.4 1527.57,1276.82 1534.92,1275.61 1542.1,1273.8 1549.04,1271.4 1555.69,1268.44 1562.01,1264.96 1567.94,1260.99 1573.45,1256.58 1578.5,1251.77 1583.06,1246.61 1587.09,1241.15 1590.59,1235.45 1593.53,1229.57 1595.9,1223.55 1597.7,1217.46 1598.93,1211.35 1599.61,1205.27 1599.74,1199.29 1599.34,1193.45 1598.43,1187.8 1597.06,1182.38 1595.24,1177.25 1593.02,1172.42 1590.43,1167.95 1587.51,1163.86 1584.33,1160.17 "/>
<line clip-path="url(#clip902)" x1="1617.44" y1="1097.69" x2="1601.44" y2="1081.69" style="stroke:#808080; stroke-width:3.2; stroke-opacity:1"/>
<line clip-path="url(#clip902)" x1="1617.44" y1="1097.69" x2="1601.44" y2="1113.69" style="stroke:#808080; stroke-width:3.2; stroke-opacity:1"/>
<line clip-path="url(#clip902)" x1="1617.44" y1="1097.69" x2="1633.44" y2="1113.69" style="stroke:#808080; stroke-width:3.2; stroke-opacity:1"/>
<line clip-path="url(#clip902)" x1="1617.44" y1="1097.69" x2="1633.44" y2="1081.69" style="stroke:#808080; stroke-width:3.2; stroke-opacity:1"/>
<polyline clip-path="url(#clip902)" style="stroke:#808080; stroke-linecap:round; stroke-linejoin:round; stroke-width:4; stroke-opacity:1; fill:none" points="1617.44,1097.69 1601.07,1134.16 "/>
<polyline clip-path="url(#clip902)" style="stroke:#808080; stroke-linecap:round; stroke-linejoin:round; stroke-width:4; stroke-opacity:1; fill:none" points="1632.23,1108.69 1601.07,1134.16 1599.39,1093.94 "/>
<polyline clip-path="url(#clip902)" style="stroke:#808080; stroke-linecap:round; stroke-linejoin:round; stroke-width:4; stroke-opacity:1; fill:none" points="1601.07,1134.16 1617.44,1097.69 "/>
<polyline clip-path="url(#clip902)" style="stroke:#808080; stroke-linecap:round; stroke-linejoin:round; stroke-width:4; stroke-opacity:1; fill:none" points="651.738,609.734 648.651,604.516 645.187,599.699 641.39,595.31 637.309,591.376 632.994,587.913 628.496,584.936 623.868,582.453 619.16,580.465 614.424,578.97 609.71,577.96 605.065,577.42 600.536,577.333 596.166,577.676 591.994,578.422 588.056,579.54 584.385,580.998 581.009,582.757 577.951,584.78 575.231,587.026 572.861,589.454 570.853,592.02 569.209,594.683 567.931,597.401 567.013,600.132 566.446,602.837 566.217,605.478 566.309,608.02 566.408,609.029 565.697,606.63 564.655,604.242 563.274,601.901 561.557,599.648 559.506,597.524 557.13,595.568 554.444,593.819 551.464,592.317 548.213,591.098 544.718,590.196 541.009,589.644 537.122,589.47 533.094,589.7 528.967,590.355 524.784,591.453 520.592,593.004 516.438,595.018 512.371,597.496 508.442,600.435 504.699,603.827 501.192,607.659 497.968,611.911 495.073,616.559 492.552,621.575 490.446,626.924 488.792,632.567 487.624,638.462 486.971,644.563 486.858,650.82 487.305,657.181 488.326,663.591 489.929,669.993 492.117,676.332 494.887,682.548 498.23,688.585 502.131,694.387 506.568,699.897 511.516,705.064 516.943,709.837 522.81,714.17 529.078,718.018 535.698,721.345 542.622,724.115 549.796,726.3 557.163,727.876 564.666,728.827 572.243,729.141 579.836,728.812 587.381,727.842 594.819,726.237 602.089,724.011 609.134,721.182 615.897,717.777 622.326,713.825 628.371,709.362 633.987,704.428 639.132,699.068 643.771,693.331 647.871,687.268 651.408,680.934 654.363,674.385 656.72,667.679 658.473,660.875 659.619,654.032 660.163,647.209 660.116,640.462 659.492,633.847 658.313,627.418 656.606,621.226 654.402,615.316 651.738,609.734 "/>
<line clip-path="url(#clip902)" x1="654.573" y1="547.252" x2="638.573" y2="531.252" style="stroke:#808080; stroke-width:3.2; stroke-opacity:1"/>
<line clip-path="url(#clip902)" x1="654.573" y1="547.252" x2="638.573" y2="563.252" style="stroke:#808080; stroke-width:3.2; stroke-opacity:1"/>
<line clip-path="url(#clip902)" x1="654.573" y1="547.252" x2="670.573" y2="563.252" style="stroke:#808080; stroke-width:3.2; stroke-opacity:1"/>
<line clip-path="url(#clip902)" x1="654.573" y1="547.252" x2="670.573" y2="531.252" style="stroke:#808080; stroke-width:3.2; stroke-opacity:1"/>
<polyline clip-path="url(#clip902)" style="stroke:#808080; stroke-linecap:round; stroke-linejoin:round; stroke-width:4; stroke-opacity:1; fill:none" points="654.573,547.252 662.025,586.529 "/>
<polyline clip-path="url(#clip902)" style="stroke:#808080; stroke-linecap:round; stroke-linejoin:round; stroke-width:4; stroke-opacity:1; fill:none" points="672.999,547.804 662.025,586.529 637.63,554.515 "/>
<polyline clip-path="url(#clip902)" style="stroke:#808080; stroke-linecap:round; stroke-linejoin:round; stroke-width:4; stroke-opacity:1; fill:none" points="662.025,586.529 654.573,547.252 "/>
<polyline clip-path="url(#clip902)" style="stroke:#808080; stroke-linecap:round; stroke-linejoin:round; stroke-width:4; stroke-opacity:1; fill:none" points="988.947,860.81 992.049,858.914 995.048,856.619 997.899,853.931 1000.56,850.86 1002.98,847.42 1005.12,843.631 1006.94,839.518 1008.4,835.11 1009.46,830.441 1010.1,825.547 1010.28,820.472 1009.98,815.259 1009.18,809.957 1007.86,804.615 1006.02,799.285 1003.65,794.021 1000.75,788.876 997.329,783.905 993.401,779.16 988.984,774.695 984.101,770.56 978.783,766.803 973.063,763.47 966.98,760.602 960.579,758.237 953.907,756.408 947.015,755.145 939.956,754.471 932.788,754.403 925.569,754.953 918.358,756.127 911.216,757.926 904.202,760.343 897.375,763.365 890.794,766.975 884.515,771.149 878.589,775.855 873.068,781.06 867.998,786.724 863.42,792.801 859.373,799.243 855.887,805.999 852.99,813.012 850.703,820.226 849.041,827.582 848.012,835.018 847.62,842.475 847.861,849.892 848.725,857.208 850.196,864.366 852.255,871.31 854.873,877.985 858.019,884.342 861.655,890.335 865.742,895.921 870.234,901.062 875.083,905.726 880.238,909.885 885.646,913.519 891.252,916.61 897.001,919.149 902.837,921.13 908.704,922.556 914.548,923.434 920.315,923.776 925.956,923.599 931.421,922.927 936.666,921.787 941.648,920.211 946.331,918.234 950.681,915.895 954.669,913.235 958.273,910.298 961.472,907.13 964.254,903.778 966.61,900.288 968.536,896.707 970.036,893.083 971.115,889.46 971.785,885.882 972.062,882.39 971.966,879.025 971.521,875.822 970.754,872.813 969.695,870.027 968.377,867.49 966.835,865.223 965.104,863.242 963.223,861.559 963.204,861.451 965.442,862.61 967.905,863.523 970.569,864.158 973.405,864.488 976.381,864.488 979.463,864.136 982.611,863.414 985.787,862.309 988.947,860.81 "/>
<line clip-path="url(#clip902)" x1="1050.22" y1="798.329" x2="1034.22" y2="782.329" style="stroke:#808080; stroke-width:3.2; stroke-opacity:1"/>
<line clip-path="url(#clip902)" x1="1050.22" y1="798.329" x2="1034.22" y2="814.329" style="stroke:#808080; stroke-width:3.2; stroke-opacity:1"/>
<line clip-path="url(#clip902)" x1="1050.22" y1="798.329" x2="1066.22" y2="814.329" style="stroke:#808080; stroke-width:3.2; stroke-opacity:1"/>
<line clip-path="url(#clip902)" x1="1050.22" y1="798.329" x2="1066.22" y2="782.329" style="stroke:#808080; stroke-width:3.2; stroke-opacity:1"/>
<polyline clip-path="url(#clip902)" style="stroke:#808080; stroke-linecap:round; stroke-linejoin:round; stroke-width:4; stroke-opacity:1; fill:none" points="1050.22,798.329 1017.27,775.691 "/>
<polyline clip-path="url(#clip902)" style="stroke:#808080; stroke-linecap:round; stroke-linejoin:round; stroke-width:4; stroke-opacity:1; fill:none" points="1036.75,810.912 1017.27,775.691 1057.14,781.24 "/>
<polyline clip-path="url(#clip902)" style="stroke:#808080; stroke-linecap:round; stroke-linejoin:round; stroke-width:4; stroke-opacity:1; fill:none" points="1017.27,775.691 1050.22,798.329 "/>
<polyline clip-path="url(#clip902)" style="stroke:#808080; stroke-linecap:round; stroke-linejoin:round; stroke-width:4; stroke-opacity:1; fill:none" points="702.57,616.289 705.118,610.483 707.183,604.367 708.732,597.986 709.736,591.389 710.169,584.628 710.015,577.759 709.259,570.837 707.893,563.921 705.917,557.07 703.336,550.344 700.16,543.8 696.405,537.498 692.095,531.491 687.258,525.835 681.927,520.578 676.141,515.769 669.943,511.449 663.382,507.657 656.508,504.426 649.376,501.784 642.043,499.754 634.567,498.351 627.01,497.586 619.432,497.463 611.894,497.981 604.458,499.13 597.181,500.896 590.121,503.259 583.334,506.194 576.87,509.669 570.779,513.648 565.103,518.09 559.883,522.951 555.153,528.182 550.942,533.731 547.274,539.546 544.166,545.57 541.632,551.747 539.677,558.02 538.301,564.331 537.499,570.624 537.259,576.843 537.565,582.937 538.395,588.854 539.721,594.545 541.513,599.968 543.735,605.082 546.347,609.85 549.309,614.242 552.574,618.231 556.097,621.796 559.828,624.92 563.72,627.593 567.723,629.81 571.789,631.569 575.868,632.877 579.915,633.743 583.885,634.182 587.737,634.212 591.43,633.858 594.93,633.146 598.203,632.106 601.222,630.772 603.962,629.179 606.403,627.364 608.531,625.365 610.335,623.223 611.808,620.977 612.949,618.667 613.76,616.331 613.275,618.663 613.062,621.227 613.166,623.907 613.607,626.668 614.4,629.473 615.555,632.282 617.081,635.055 618.978,637.75 621.245,640.323 623.875,642.733 626.854,644.935 630.167,646.889 633.792,648.555 637.703,649.895 641.868,650.872 646.254,651.455 650.821,651.615 655.529,651.327 660.331,650.569 665.181,649.327 670.028,647.589 674.823,645.349 679.513,642.607 684.045,639.368 688.368,635.644 692.43,631.449 696.183,626.806 699.578,621.742 702.57,616.289 "/>
<line clip-path="url(#clip902)" x1="701.789" y1="553.807" x2="685.789" y2="537.807" style="stroke:#808080; stroke-width:3.2; stroke-opacity:1"/>
<line clip-path="url(#clip902)" x1="701.789" y1="553.807" x2="685.789" y2="569.807" style="stroke:#808080; stroke-width:3.2; stroke-opacity:1"/>
<line clip-path="url(#clip902)" x1="701.789" y1="553.807" x2="717.789" y2="569.807" style="stroke:#808080; stroke-width:3.2; stroke-opacity:1"/>
<line clip-path="url(#clip902)" x1="701.789" y1="553.807" x2="717.789" y2="537.807" style="stroke:#808080; stroke-width:3.2; stroke-opacity:1"/>
<polyline clip-path="url(#clip902)" style="stroke:#808080; stroke-linecap:round; stroke-linejoin:round; stroke-width:4; stroke-opacity:1; fill:none" points="701.789,553.807 712.398,515.262 "/>
<polyline clip-path="url(#clip902)" style="stroke:#808080; stroke-linecap:round; stroke-linejoin:round; stroke-width:4; stroke-opacity:1; fill:none" points="685.49,545.195 712.398,515.262 720.2,554.748 "/>
<polyline clip-path="url(#clip902)" style="stroke:#808080; stroke-linecap:round; stroke-linejoin:round; stroke-width:4; stroke-opacity:1; fill:none" points="712.398,515.262 701.789,553.807 "/>
<polyline clip-path="url(#clip902)" style="stroke:#808080; stroke-linecap:round; stroke-linejoin:round; stroke-width:4; stroke-opacity:1; fill:none" points="1192.16,654.09 1190.6,646.893 1188.45,639.912 1185.74,633.201 1182.49,626.81 1178.75,620.787 1174.56,615.175 1169.96,610.01 1164.99,605.327 1159.72,601.153 1154.2,597.511 1148.47,594.416 1142.6,591.88 1136.63,589.907 1130.64,588.497 1124.67,587.642 1118.77,587.331 1113,587.546 1107.41,588.263 1102.04,589.457 1096.94,591.095 1092.14,593.141 1087.67,595.557 1083.57,598.301 1079.86,601.329 1076.57,604.595 1073.69,608.052 1071.25,611.652 1069.24,615.348 1067.68,619.093 1066.53,622.839 1065.81,626.544 1065.49,630.164 1065.56,633.66 1065.98,636.994 1066.73,640.134 1067.78,643.049 1069.11,645.713 1070.66,648.106 1072.41,650.208 1074.33,652.008 1076.36,653.496 1076.2,653.499 1073.86,652.562 1071.31,651.893 1068.6,651.519 1065.74,651.467 1062.77,651.757 1059.73,652.408 1056.66,653.434 1053.6,654.844 1050.6,656.645 1047.69,658.837 1044.92,661.415 1042.34,664.37 1039.99,667.689 1037.91,671.352 1036.14,675.336 1034.72,679.611 1033.69,684.146 1033.08,688.902 1032.92,693.84 1033.23,698.916 1034.03,704.081 1035.34,709.288 1037.17,714.484 1039.52,719.617 1042.39,724.634 1045.77,729.48 1049.66,734.104 1054.03,738.452 1058.86,742.475 1064.12,746.125 1069.78,749.356 1075.8,752.127 1082.13,754.399 1088.73,756.139 1095.55,757.319 1102.54,757.914 1109.63,757.908 1116.78,757.288 1123.91,756.046 1130.98,754.184 1137.92,751.708 1144.67,748.628 1151.18,744.963 1157.38,740.737 1163.23,735.98 1168.68,730.726 1173.68,725.014 1178.18,718.89 1182.15,712.402 1185.57,705.601 1188.39,698.542 1190.6,691.284 1192.18,683.885 1193.13,676.405 1193.44,668.906 1193.11,661.447 1192.16,654.09 "/>
<line clip-path="url(#clip902)" x1="1165.37" y1="591.609" x2="1149.37" y2="575.609" style="stroke:#808080; stroke-width:3.2; stroke-opacity:1"/>
<line clip-path="url(#clip902)" x1="1165.37" y1="591.609" x2="1149.37" y2="607.609" style="stroke:#808080; stroke-width:3.2; stroke-opacity:1"/>
<line clip-path="url(#clip902)" x1="1165.37" y1="591.609" x2="1181.37" y2="607.609" style="stroke:#808080; stroke-width:3.2; stroke-opacity:1"/>
<line clip-path="url(#clip902)" x1="1165.37" y1="591.609" x2="1181.37" y2="575.609" style="stroke:#808080; stroke-width:3.2; stroke-opacity:1"/>
<polyline clip-path="url(#clip902)" style="stroke:#808080; stroke-linecap:round; stroke-linejoin:round; stroke-width:4; stroke-opacity:1; fill:none" points="1165.37,591.609 1200.27,611.106 "/>
<polyline clip-path="url(#clip902)" style="stroke:#808080; stroke-linecap:round; stroke-linejoin:round; stroke-width:4; stroke-opacity:1; fill:none" points="1177.62,577.834 1200.27,611.106 1160.06,609.263 "/>
<polyline clip-path="url(#clip902)" style="stroke:#808080; stroke-linecap:round; stroke-linejoin:round; stroke-width:4; stroke-opacity:1; fill:none" points="1200.27,611.106 1165.37,591.609 "/>
<polyline clip-path="url(#clip902)" style="stroke:#808080; stroke-linecap:round; stroke-linejoin:round; stroke-width:4; stroke-opacity:1; fill:none" points="1661.82,648.695 1662.2,641.147 1661.95,633.571 1661.05,626.027 1659.51,618.577 1657.35,611.281 1654.59,604.197 1651.24,597.383 1647.33,590.891 1642.9,584.773 1637.99,579.075 1632.64,573.841 1626.91,569.107 1620.83,564.906 1614.46,561.267 1607.87,558.209 1601.11,555.75 1594.23,553.898 1587.3,552.657 1580.37,552.025 1573.51,551.993 1566.76,552.547 1560.19,553.666 1553.85,555.327 1547.78,557.499 1542.03,560.146 1536.64,563.231 1531.65,566.71 1527.08,570.539 1522.97,574.669 1519.33,579.05 1516.18,583.631 1513.53,588.36 1511.39,593.183 1509.74,598.051 1508.59,602.91 1507.93,607.714 1507.73,612.413 1507.97,616.964 1508.63,621.326 1509.69,625.46 1511.1,629.333 1512.83,632.914 1514.84,636.179 1517.09,639.106 1519.54,641.679 1522.15,643.887 1524.87,645.725 1527.67,647.189 1530.49,648.284 1533.3,649.017 1536.06,649.4 1538.73,649.448 1541.28,649.182 1543.2,648.766 1540.87,649.63 1538.57,650.823 1536.35,652.348 1534.24,654.201 1532.28,656.377 1530.51,658.864 1528.96,661.645 1527.68,664.7 1526.71,668.004 1526.06,671.528 1525.78,675.24 1525.88,679.102 1526.4,683.075 1527.34,687.117 1528.73,691.183 1530.57,695.226 1532.87,699.198 1535.62,703.049 1538.82,706.732 1542.46,710.196 1546.52,713.395 1550.97,716.282 1555.8,718.813 1560.96,720.946 1566.43,722.642 1572.16,723.868 1578.1,724.591 1584.21,724.788 1590.43,724.436 1596.72,723.519 1603.01,722.028 1609.26,719.958 1615.4,717.31 1621.37,714.091 1627.13,710.316 1632.61,706.002 1637.76,701.174 1642.53,695.864 1646.87,690.105 1650.75,683.939 1654.11,677.411 1656.92,670.568 1659.16,663.464 1660.8,656.154 1661.82,648.695 "/>
<line clip-path="url(#clip902)" x1="1631.45" y1="586.213" x2="1615.45" y2="570.213" style="stroke:#808080; stroke-width:3.2; stroke-opacity:1"/>
<line clip-path="url(#clip902)" x1="1631.45" y1="586.213" x2="1615.45" y2="602.213" style="stroke:#808080; stroke-width:3.2; stroke-opacity:1"/>
<line clip-path="url(#clip902)" x1="1631.45" y1="586.213" x2="1647.45" y2="602.213" style="stroke:#808080; stroke-width:3.2; stroke-opacity:1"/>
<line clip-path="url(#clip902)" x1="1631.45" y1="586.213" x2="1647.45" y2="570.213" style="stroke:#808080; stroke-width:3.2; stroke-opacity:1"/>
<polyline clip-path="url(#clip902)" style="stroke:#808080; stroke-linecap:round; stroke-linejoin:round; stroke-width:4; stroke-opacity:1; fill:none" points="1631.45,586.213 1669.89,575.203 "/>
<polyline clip-path="url(#clip902)" style="stroke:#808080; stroke-linecap:round; stroke-linejoin:round; stroke-width:4; stroke-opacity:1; fill:none" points="1630.32,567.814 1669.89,575.203 1640.24,602.422 "/>
<polyline clip-path="url(#clip902)" style="stroke:#808080; stroke-linecap:round; stroke-linejoin:round; stroke-width:4; stroke-opacity:1; fill:none" points="1669.89,575.203 1631.45,586.213 "/>
<polyline clip-path="url(#clip902)" style="stroke:#808080; stroke-linecap:round; stroke-linejoin:round; stroke-width:4; stroke-opacity:1; fill:none" points="632.15,1366.51 1831.49,1366.51 1831.49,167.178 632.15,167.178 632.15,1366.51 "/>
<polyline clip-path="url(#clip902)" style="stroke:#000000; stroke-linecap:round; stroke-linejoin:round; stroke-width:4; stroke-opacity:1; fill:none" stroke-dasharray="16, 10" points="332.316,1366.51 344.328,1366.51 356.339,1366.51 368.351,1366.51 380.362,1366.51 392.374,1366.51 404.385,1366.51 416.397,1366.51 428.408,1366.51 440.42,1366.51 452.431,1366.51 464.443,1366.51 476.454,1366.51 488.466,1366.51 500.477,1366.51 512.489,1366.51 524.501,1366.51 536.512,1366.51 548.524,1366.51 560.535,1366.51 572.547,1366.51 584.558,1366.51 596.57,1366.51 608.581,1366.51 620.593,1366.51 632.604,1366.51 644.593,1365.87 656.458,1364.03 668.079,1361.01 679.339,1356.84 690.127,1351.57 700.334,1345.25 709.865,1337.95 719.127,1330.3 728.388,1322.65 737.649,1315 746.91,1307.35 756.172,1299.7 765.433,1292.05 774.694,1284.4 783.956,1276.75 793.217,1269.1 802.478,1261.46 811.739,1253.81 821.001,1246.16 830.262,1238.51 839.523,1230.86 848.784,1223.21 858.046,1215.56 867.307,1207.91 876.568,1200.26 885.83,1192.62 895.091,1184.97 904.352,1177.32 913.613,1169.67 922.875,1162.02 932.136,1154.37 941.397,1146.72 950.658,1139.07 959.92,1131.42 969.36,1124 979.463,1117.52 990.165,1112.07 1001.36,1107.72 1012.69,1103.76 1023.63,1098.81 1034.49,1093.67 1045.35,1088.54 1056.21,1083.41 1067.07,1078.27 1077.93,1073.14 1088.79,1068 1099.64,1062.87 1110.5,1057.73 1121.36,1052.6 1132.22,1047.46 1143.08,1042.33 1153.94,1037.2 1164.8,1032.06 1175.66,1026.94 1186.08,1020.98 1195.86,1014 1204.88,1006.09 1213.07,997.306 1220.34,987.752 1226.71,977.568 1232.89,967.27 1239.07,956.972 1245.26,946.674 1251.44,936.376 1257.62,926.078 1263.81,915.78 1269.99,905.482 1276.17,895.184 1282.35,884.886 1288.54,874.588 1294.72,864.29 1300.9,853.992 1307.09,843.694 1313.27,833.396 1319.45,823.098 1325.63,812.799 1331.82,802.501 1338,792.203 1344.18,781.905 1350.37,771.607 1356.55,761.309 1362.73,751.011 1368.91,740.713 1375.1,730.415 1381.28,720.117 1387.46,709.819 1393.65,699.521 1399.83,689.223 1406.01,678.925 1412.19,668.627 1418.38,658.329 1424.54,648.018 1429.97,637.314 1434.31,626.119 1437.51,614.546 1439.54,602.712 1440.39,590.735 1440.81,578.731 1441.23,566.727 1441.65,554.722 1441.35,542.719 1439.97,530.79 1439.23,518.806 1439.69,506.808 1441.34,494.917 1444.18,483.25 1448.17,471.926 1453.27,461.057 1459.43,450.753 1466.6,441.117 1474.26,431.868 1481.92,422.62 1489.59,413.371 1497.25,404.123 1504.92,394.874 1512.58,385.626 1520.25,376.377 1527.91,367.129 1535.5,357.82 1542.3,347.924 1548.12,337.418 1554.3,327.127 1561.48,317.506 1569.59,308.65 1578.54,300.65 1588.25,293.586 1598.5,287.322 1608.79,281.129 1619.08,274.937 1629.38,268.745 1639.67,262.552 1649.96,256.36 1660.25,250.167 1670.55,243.975 1680.84,237.783 1691.13,231.59 1701.42,225.398 1711.71,219.205 1722.01,213.013 1732.3,206.821 1742.59,200.628 1752.88,194.436 1763.18,188.243 1773.51,182.122 1784.3,176.851 1795.56,172.686 1807.18,169.667 1819.04,167.825 1831.03,167.179 1843.04,167.178 1855.06,167.178 1867.07,167.178 1879.08,167.178 1891.09,167.178 1903.1,167.178 1915.11,167.178 1927.12,167.178 1939.14,167.178 1951.15,167.178 1963.16,167.178 1975.17,167.178 1987.18,167.178 1999.19,167.178 2011.21,167.178 2023.22,167.178 2035.23,167.178 2047.24,167.178 2059.25,167.178 2071.26,167.178 2083.27,167.178 2095.29,167.178 2107.3,167.178 2119.31,167.178 2131.32,167.178 "/>
<polyline clip-path="url(#clip902)" style="stroke:#008000; stroke-linecap:round; stroke-linejoin:round; stroke-width:4; stroke-opacity:1; fill:none" stroke-dasharray="16, 10" points="272.349,1426.48 284.361,1426.48 296.372,1426.48 308.384,1426.48 320.395,1426.48 332.407,1426.48 344.418,1426.48 356.43,1426.48 368.441,1426.48 380.453,1426.48 392.465,1426.48 404.476,1426.48 416.488,1426.48 428.499,1426.48 440.511,1426.48 452.522,1426.48 464.534,1426.48 476.545,1426.48 488.557,1426.48 500.568,1426.48 512.58,1426.48 524.591,1426.48 536.603,1426.48 548.614,1426.48 560.626,1426.48 572.637,1426.48 584.649,1426.48 596.661,1426.48 608.672,1426.48 620.684,1426.48 632.968,1426.48 650.951,1425.5 668.745,1422.72 686.173,1418.18 703.059,1411.92 719.235,1404 734.538,1394.5 748.122,1384.12 757.383,1376.47 766.645,1368.83 775.906,1361.18 785.167,1353.53 794.428,1345.88 803.69,1338.23 812.951,1330.58 822.212,1322.93 831.473,1315.28 840.735,1307.63 849.996,1299.99 859.257,1292.34 868.519,1284.69 877.78,1277.04 887.041,1269.39 896.302,1261.74 905.564,1254.09 914.825,1246.44 924.086,1238.79 933.348,1231.15 942.609,1223.5 951.87,1215.85 961.131,1208.2 970.393,1200.55 979.654,1192.9 988.915,1185.25 998.176,1177.6 1004.28,1172.75 1009.34,1169.51 1014.69,1166.79 1020.29,1164.63 1035.25,1159.32 1049.35,1152.98 1060.21,1147.85 1071.06,1142.71 1081.92,1137.58 1092.78,1132.44 1103.64,1127.31 1114.5,1122.18 1125.36,1117.04 1136.22,1111.91 1147.08,1106.77 1157.94,1101.64 1168.79,1096.5 1179.65,1091.37 1190.51,1086.23 1202.92,1080.35 1218.54,1071.4 1233.2,1060.93 1246.73,1049.04 1259,1035.86 1269.9,1021.52 1278.17,1008.36 1284.35,998.059 1290.53,987.761 1296.72,977.463 1302.9,967.165 1309.08,956.867 1315.26,946.569 1321.45,936.271 1327.63,925.973 1333.81,915.675 1340,905.377 1346.18,895.079 1352.36,884.781 1358.54,874.483 1364.73,864.185 1370.91,853.887 1377.09,843.589 1383.28,833.291 1389.46,822.993 1395.64,812.695 1401.82,802.397 1408.01,792.099 1414.19,781.801 1420.37,771.503 1426.56,761.205 1432.74,750.907 1438.92,740.609 1445.1,730.311 1451.29,720.013 1457.47,709.715 1463.65,699.417 1469.84,689.119 1476.64,677.7 1484.79,661.637 1491.28,644.84 1496.07,627.478 1499.1,609.724 1500.32,592.749 1500.74,580.744 1501.16,568.74 1501.6,556.101 1501.14,538.097 1499.56,524.044 1499.19,518.052 1499.42,512.054 1500.26,506.108 1501.68,500.276 1503.68,494.615 1506.23,489.183 1509.32,484.033 1512.9,479.218 1520.49,470.062 1528.16,460.814 1535.82,451.565 1543.48,442.317 1551.15,433.069 1558.81,423.82 1566.48,414.572 1574.14,405.323 1583.25,394.098 1593.44,379.246 1601.02,365.654 1604.12,360.511 1607.71,355.703 1611.77,351.278 1616.25,347.282 1621.1,343.753 1629.49,338.659 1639.78,332.466 1650.08,326.274 1660.37,320.081 1670.66,313.889 1680.95,307.697 1691.25,301.504 1701.54,295.312 1711.83,289.119 1722.12,282.927 1732.42,276.734 1742.71,270.542 1753,264.35 1763.29,258.157 1773.58,251.965 1783.88,245.772 1794.17,239.58 1802.54,234.595 1807.93,231.964 1813.57,229.885 1819.38,228.38 1825.31,227.463 1831.3,227.145 1843.13,227.145 1855.15,227.145 1867.16,227.145 1879.17,227.145 1891.18,227.145 1903.19,227.145 1915.2,227.145 1927.22,227.145 1939.23,227.145 1951.24,227.145 1963.25,227.145 1975.26,227.145 1987.27,227.145 1999.28,227.145 2011.3,227.145 2023.31,227.145 2035.32,227.145 2047.33,227.145 2059.34,227.145 2071.35,227.145 "/>
<polyline clip-path="url(#clip902)" style="stroke:#000000; stroke-linecap:round; stroke-linejoin:round; stroke-width:12; stroke-opacity:1; fill:none" points="332.316,1366.51 335.932,1366.51 339.548,1366.51 343.164,1366.51 346.78,1366.51 350.396,1366.51 354.013,1366.51 357.629,1366.51 361.245,1366.51 364.861,1366.51 368.477,1366.51 372.093,1366.51 375.709,1366.51 379.325,1366.51 382.941,1366.51 386.557,1366.51 390.173,1366.51 393.79,1366.51 397.406,1366.51 401.022,1366.51 404.638,1366.51 408.254,1366.51 411.87,1366.51 415.486,1366.51 419.102,1366.51 422.718,1366.51 426.334,1366.51 429.95,1366.51 433.567,1366.51 437.183,1366.51 440.799,1366.51 444.415,1366.51 448.031,1366.51 451.647,1366.51 455.263,1366.51 458.879,1366.51 462.495,1366.51 466.111,1366.51 469.727,1366.51 473.344,1366.51 476.96,1366.51 480.576,1366.51 484.192,1366.51 487.808,1366.51 491.424,1366.51 495.04,1366.51 498.656,1366.51 502.272,1366.51 505.888,1366.51 509.504,1366.51 513.121,1366.51 516.737,1366.51 520.353,1366.51 523.969,1366.51 527.585,1366.51 531.201,1366.51 534.817,1366.51 538.433,1366.51 542.049,1366.51 545.665,1366.51 549.281,1366.51 552.898,1366.51 556.514,1366.51 560.13,1366.51 563.746,1366.51 567.362,1366.51 570.978,1366.51 574.594,1366.51 578.21,1366.51 581.826,1366.51 585.442,1366.51 589.058,1366.51 592.675,1366.51 596.291,1366.51 599.907,1366.51 603.523,1366.51 607.139,1366.51 610.755,1366.51 614.371,1366.51 617.987,1366.51 621.603,1366.51 625.219,1366.51 628.835,1366.51 632.451,1366.51 636.067,1366.45 639.679,1366.28 643.284,1366 646.879,1365.61 650.46,1365.11 654.025,1364.5 657.57,1363.79 661.092,1362.97 664.587,1362.04 668.053,1361.01 671.487,1359.88 674.884,1358.64 678.243,1357.3 681.56,1355.86 684.832,1354.32 688.056,1352.69 691.23,1350.95 694.349,1349.13 697.412,1347.2 700.416,1345.19 703.358,1343.09 706.235,1340.9 709.045,1338.62 711.833,1336.32 714.622,1334.02 717.41,1331.71 720.198,1329.41 722.986,1327.11 725.774,1324.81 728.562,1322.5 731.35,1320.2 734.138,1317.9 736.927,1315.6 739.715,1313.29 742.503,1310.99 745.291,1308.69 748.079,1306.38 750.867,1304.08 753.655,1301.78 756.443,1299.48 759.232,1297.17 762.02,1294.87 764.808,1292.57 767.596,1290.27 770.384,1287.96 773.172,1285.66 775.96,1283.36 778.748,1281.05 781.537,1278.75 784.325,1276.45 787.113,1274.15 789.901,1271.84 792.689,1269.54 795.477,1267.24 798.265,1264.94 801.053,1262.63 803.841,1260.33 806.63,1258.03 809.418,1255.72 812.206,1253.42 814.994,1251.12 817.782,1248.82 820.57,1246.51 823.358,1244.21 826.146,1241.91 828.935,1239.61 831.723,1237.3 834.511,1235 837.299,1232.7 840.087,1230.39 842.875,1228.09 845.663,1225.79 848.451,1223.49 851.24,1221.18 854.028,1218.88 856.816,1216.58 859.604,1214.28 862.392,1211.97 865.18,1209.67 867.968,1207.37 870.756,1205.06 873.545,1202.76 876.333,1200.46 879.121,1198.16 881.909,1195.85 884.697,1193.55 887.485,1191.25 890.273,1188.95 893.061,1186.64 895.85,1184.34 898.638,1182.04 901.426,1179.74 904.214,1177.43 907.002,1175.13 909.79,1172.83 912.578,1170.52 915.366,1168.22 918.154,1165.92 920.943,1163.62 923.731,1161.31 926.519,1159.01 929.307,1156.71 932.095,1154.41 934.883,1152.1 937.671,1149.8 940.459,1147.5 943.248,1145.19 946.036,1142.89 948.824,1140.59 951.612,1138.29 954.4,1135.98 957.188,1133.68 959.976,1131.38 962.764,1129.08 965.587,1126.82 968.476,1124.64 "/>
<polyline clip-path="url(#clip902)" style="stroke:#008000; stroke-linecap:round; stroke-linejoin:round; stroke-width:12; stroke-opacity:1; fill:none" points="272.349,1426.48 275.965,1426.48 279.581,1426.48 283.197,1426.48 286.814,1426.48 290.43,1426.48 294.046,1426.48 297.662,1426.48 301.278,1426.48 304.894,1426.48 308.51,1426.48 312.126,1426.48 315.742,1426.48 319.358,1426.48 322.974,1426.48 326.591,1426.48 330.207,1426.48 333.823,1426.48 337.439,1426.48 341.055,1426.48 344.671,1426.48 348.287,1426.48 351.903,1426.48 355.519,1426.48 359.135,1426.48 362.751,1426.48 366.368,1426.48 369.984,1426.48 373.6,1426.48 377.216,1426.48 380.832,1426.48 384.448,1426.48 388.064,1426.48 391.68,1426.48 395.296,1426.48 398.912,1426.48 402.528,1426.48 406.145,1426.48 409.761,1426.48 413.377,1426.48 416.993,1426.48 420.609,1426.48 424.225,1426.48 427.841,1426.48 431.457,1426.48 435.073,1426.48 438.689,1426.48 442.305,1426.48 445.922,1426.48 449.538,1426.48 453.154,1426.48 456.77,1426.48 460.386,1426.48 464.002,1426.48 467.618,1426.48 471.234,1426.48 474.85,1426.48 478.466,1426.48 482.082,1426.48 485.699,1426.48 489.315,1426.48 492.931,1426.48 496.547,1426.48 500.163,1426.48 503.779,1426.48 507.395,1426.48 511.011,1426.48 514.627,1426.48 518.243,1426.48 521.859,1426.48 525.476,1426.48 529.092,1426.48 532.708,1426.48 536.324,1426.48 539.94,1426.48 543.556,1426.48 547.172,1426.48 550.788,1426.48 554.404,1426.48 558.02,1426.48 561.636,1426.48 565.252,1426.48 568.869,1426.48 572.485,1426.48 576.101,1426.48 579.717,1426.48 583.333,1426.48 586.949,1426.48 590.565,1426.48 594.181,1426.48 597.797,1426.48 601.413,1426.48 605.029,1426.48 608.646,1426.48 612.262,1426.48 615.878,1426.48 619.494,1426.48 623.11,1426.48 626.726,1426.48 630.342,1426.48 633.958,1426.47 637.573,1426.36 641.182,1426.14 644.783,1425.82 648.373,1425.39 651.949,1424.85 655.506,1424.2 659.043,1423.45 662.557,1422.59 666.043,1421.63 669.5,1420.57 672.925,1419.41 676.315,1418.16 679.667,1416.8 682.98,1415.35 686.25,1413.81 689.476,1412.17 692.655,1410.45 695.785,1408.64 698.865,1406.75 701.892,1404.77 704.864,1402.71 707.78,1400.57 710.649,1398.37 713.521,1396.17 716.399,1393.98 719.283,1391.8 722.173,1389.63 725.068,1387.46 727.967,1385.3 730.869,1383.14 733.775,1380.99 736.683,1378.84 739.594,1376.69 742.507,1374.55 745.421,1372.41 748.336,1370.27 751.252,1368.13 754.169,1365.99 757.086,1363.86 760.003,1361.72 762.92,1359.58 765.837,1357.45 768.753,1355.31 771.669,1353.17 774.583,1351.03 777.497,1348.89 780.409,1346.74 783.321,1344.6 786.231,1342.45 789.139,1340.3 792.046,1338.15 794.951,1336 797.835,1333.82 800.665,1331.57 803.427,1329.23 806.116,1326.82 808.732,1324.32 811.275,1321.75 813.739,1319.1 816.123,1316.38 818.424,1313.6 820.642,1310.74 822.792,1307.83 824.892,1304.89 826.942,1301.91 828.959,1298.91 830.95,1295.89 832.916,1292.85 834.873,1289.81 836.808,1286.76 838.733,1283.7 840.654,1280.63 842.562,1277.56 844.5,1274.51 846.431,1271.45 848.39,1268.41 850.369,1265.39 852.347,1262.36 854.382,1259.37 856.409,1256.37 858.506,1253.43 860.59,1250.47 862.741,1247.57 864.888,1244.66 867.101,1241.8 869.399,1239 871.745,1236.25 874.107,1233.52 876.551,1230.85 879.071,1228.26 881.659,1225.73 884.309,1223.27 887.014,1220.87 889.768,1218.53 892.567,1216.24 895.406,1214 898.281,1211.81 901.188,1209.66 904.123,1207.54 "/>
<polyline clip-path="url(#clip902)" style="stroke:#0000ff; stroke-linecap:round; stroke-linejoin:round; stroke-width:12; stroke-opacity:1; fill:none" stroke-dasharray="48, 30" points="904.123,1207.54 906.409,1205.94 908.71,1204.35 911.022,1202.78 913.347,1201.23 915.682,1199.69 918.027,1198.17 920.38,1196.67 922.741,1195.17 925.11,1193.69 927.485,1192.22 929.866,1190.75 932.252,1189.3 934.642,1187.85 937.037,1186.41 939.435,1184.98 941.836,1183.55 944.24,1182.12 946.646,1180.7 949.055,1179.28 951.486,1177.91 953.95,1176.59 956.442,1175.33 958.963,1174.12 961.51,1172.97 964.082,1171.88 966.676,1170.84 969.291,1169.85 971.927,1168.92 974.581,1168.05 977.252,1167.23 979.939,1166.46 982.64,1165.75 985.355,1165.08 988.082,1164.48 990.821,1163.92 993.568,1163.41 996.308,1162.86 999.033,1162.24 1001.74,1161.56 1004.44,1160.82 1007.11,1160.02 1009.77,1159.16 1012.43,1158.28 1015.08,1157.4 1017.73,1156.51 1020.37,1155.61 1023.02,1154.7 1025.65,1153.78 1028.29,1152.85 1030.92,1151.92 1033.55,1150.97 1036.18,1150.02 1038.81,1149.06 1041.43,1148.1 1044.05,1147.13 1046.67,1146.15 1049.28,1145.16 1051.89,1144.17 1054.5,1143.17 1057.11,1142.17 1059.72,1141.16 1062.32,1140.14 1064.92,1139.12 1067.52,1138.09 1070.12,1137.06 1072.71,1136.02 1075.31,1134.98 1077.9,1133.94 1080.49,1132.89 1083.07,1131.83 1085.66,1130.77 1088.24,1129.71 1090.83,1128.64 1093.41,1127.57 1095.99,1126.49 1098.56,1125.41 1101.14,1124.33 1103.72,1123.24 1106.29,1122.15 1108.86,1121.06 1111.43,1119.97 1114,1118.87 1116.57,1117.76 1119.14,1116.66 1121.7,1115.55 1124.27,1114.44 1126.83,1113.33 1129.39,1112.21 1131.95,1111.1 1134.51,1109.98 1137.07,1108.85 1139.63,1107.73 1142.19,1106.6 1144.74,1105.47 1147.3,1104.34 1149.85,1103.21 1152.41,1102.07 1154.96,1100.93 1157.51,1099.8 1160.06,1098.66 1162.61,1097.52 1165.18,1096.42 1167.73,1095.26 1170.24,1094.05 1172.73,1092.78 1175.19,1091.45 1177.62,1090.06 1180.01,1088.62 1182.38,1087.13 1184.7,1085.59 1187,1083.99 1189.26,1082.35 1191.49,1080.66 1193.68,1078.92 1195.83,1077.14 1197.95,1075.32 1200.02,1073.45 1202.06,1071.54 1204.07,1069.59 1206.03,1067.6 1207.96,1065.58 1209.84,1063.52 1211.69,1061.42 1213.49,1059.28 1215.25,1057.12 1216.98,1054.92 1218.66,1052.69 1220.3,1050.43 1221.95,1048.17 1223.6,1045.91 1225.26,1043.67 1226.93,1041.43 1228.61,1039.19 1230.3,1036.96 1231.99,1034.74 1233.68,1032.52 1235.38,1030.3 1237.09,1028.08 1238.79,1025.87 1240.51,1023.66 1242.22,1021.45 1243.93,1019.25 1245.65,1017.04 1247.37,1014.84 1249.09,1012.63 1250.81,1010.43 1252.53,1008.23 1254.24,1006.03 1255.96,1003.82 1257.68,1001.62 1259.4,999.415 1261.12,997.209 1262.83,995.003 1264.54,992.796 1266.26,990.587 1267.97,988.377 1269.67,986.165 1271.38,983.952 1273.08,981.737 1274.79,979.52 1276.49,977.302 1278.18,975.081 1279.88,972.859 1281.57,970.634 1283.26,968.407 1284.94,966.178 1286.62,963.947 1288.3,961.714 1289.98,959.478 1291.65,957.24 1293.32,955 1294.99,952.757 1296.66,950.512 1298.32,948.265 1299.97,946.016 1301.63,943.764 1303.28,941.51 1304.93,939.253 1306.57,936.994 1308.22,934.733 1309.85,932.47 1311.49,930.204 1313.12,927.936 1314.75,925.666 1316.38,923.393 1318,921.118 1319.62,918.841 1321.24,916.562 1322.85,914.281 1324.46,911.998 1326.07,909.712 1327.68,907.425 1329.28,905.135 1330.88,902.843 1332.47,900.55 1334.07,898.254 1335.66,895.957 1337.25,893.657 1338.83,891.356 "/>
<polyline clip-path="url(#clip902)" style="stroke:#800080; stroke-linecap:round; stroke-linejoin:round; stroke-width:12; stroke-opacity:1; fill:none" stroke-dasharray="48, 30" points="1338.83,891.356 1340.75,888.477 1342.59,885.544 1344.34,882.56 1346,879.526 1347.58,876.445 1349.06,873.32 1350.46,870.154 1351.76,866.949 1352.97,863.707 1354.09,860.432 1355.11,857.126 1356.04,853.792 1356.86,850.433 1357.6,847.051 1358.23,843.649 1358.77,840.231 1359.2,836.798 1359.54,833.355 1359.78,829.903 1359.92,826.445 1359.99,822.986 1360.07,819.526 1360.14,816.067 1360.21,812.607 1360.29,809.148 1360.36,805.689 1360.44,802.229 1360.51,798.77 1360.59,795.31 1360.66,791.851 1360.73,788.391 1360.81,784.932 1360.93,781.474 1361.16,778.021 1361.48,774.576 1361.9,771.142 1362.42,767.721 1363.04,764.317 1363.76,760.932 1364.58,757.569 1365.49,754.231 1366.49,750.921 1367.6,747.641 1368.79,744.395 1370.08,741.184 1371.47,738.012 1372.94,734.881 1374.5,731.794 1376.15,728.753 1377.89,725.761 "/>
<polyline clip-path="url(#clip902)" style="stroke:#800080; stroke-linecap:round; stroke-linejoin:round; stroke-width:12; stroke-opacity:1; fill:none" stroke-dasharray="48, 30" points="1377.89,725.761 1379.23,723.535 1380.56,721.309 1381.9,719.082 1383.24,716.856 1384.57,714.63 1385.91,712.403 1387.25,710.177 1388.58,707.951 1389.92,705.725 1391.26,703.498 1392.59,701.272 1393.93,699.046 1395.27,696.819 1396.6,694.593 1397.94,692.367 1399.28,690.141 1400.61,687.914 1401.95,685.688 1403.29,683.462 1404.62,681.235 1405.96,679.009 1407.3,676.783 1408.63,674.557 1409.97,672.33 1411.31,670.104 1412.64,667.878 1413.98,665.651 1415.32,663.425 1416.65,661.199 1417.99,658.973 1419.33,656.746 1420.66,654.52 1422,652.294 1423.34,650.067 1424.65,647.826 1425.91,645.556 1427.12,643.26 1428.28,640.938 1429.4,638.591 1430.46,636.221 1431.47,633.828 1432.42,631.415 1433.33,628.981 1434.18,626.528 1434.98,624.057 1435.72,621.569 1436.41,619.066 1437.05,616.548 1437.63,614.018 1438.16,611.475 "/>
<polyline clip-path="url(#clip902)" style="stroke:#800080; stroke-linecap:round; stroke-linejoin:round; stroke-width:12; stroke-opacity:1; fill:none" stroke-dasharray="48, 30" points="1438.16,611.475 1438.44,609.959 1438.71,608.439 1438.96,606.916 1439.19,605.39 1439.4,603.861 1439.59,602.329 1439.75,600.795 1439.9,599.259 1440.03,597.721 1440.14,596.182 1440.23,594.641 1440.3,593.1 1440.36,591.558 1440.41,590.015 1440.47,588.473 1440.52,586.931 1440.57,585.389 1440.63,583.846 1440.68,582.304 1440.74,580.762 1440.79,579.22 1440.85,577.677 1440.9,576.135 1440.95,574.593 1441.01,573.051 1441.06,571.508 1441.12,569.966 1441.17,568.424 1441.22,566.882 1441.28,565.339 1441.33,563.797 1441.39,562.255 1441.44,560.713 1441.5,559.17 1441.55,557.628 1441.6,556.086 1441.65,554.543 1441.68,553 1441.68,551.457 1441.67,549.914 1441.64,548.371 1441.59,546.829 1441.51,545.287 1441.42,543.747 1441.31,542.208 1441.18,540.67 1441.02,539.135 1440.85,537.601 1440.66,536.07 1440.45,534.541 "/>
<polyline clip-path="url(#clip902)" style="stroke:#800080; stroke-linecap:round; stroke-linejoin:round; stroke-width:12; stroke-opacity:1; fill:none" stroke-dasharray="48, 30" points="1440.45,534.541 1439.88,529.984 1439.49,525.408 1439.27,520.821 1439.22,516.228 1439.36,511.638 1439.66,507.055 1440.15,502.488 1440.81,497.943 1441.64,493.426 1442.64,488.945 1443.81,484.505 1445.16,480.113 1446.67,475.776 1448.34,471.5 1450.18,467.292 1452.18,463.156 1454.34,459.101 1456.64,455.13 1459.1,451.251 1461.71,447.469 1464.46,443.79 1467.34,440.217 1470.27,436.68 1473.2,433.144 1476.13,429.608 1479.06,426.071 1482,422.535 1484.93,418.999 1487.86,415.462 1490.79,411.926 1493.72,408.39 1496.65,404.853 1499.58,401.317 1502.51,397.781 1505.44,394.244 1508.37,390.708 1511.3,387.172 1514.23,383.635 1517.16,380.099 1520.09,376.563 1523.02,373.026 1525.95,369.49 1528.89,365.954 1531.82,362.417 1534.71,358.849 1537.46,355.175 1540.08,351.399 1542.54,347.525 1544.86,343.56 1547.02,339.509 "/>
<polyline clip-path="url(#clip902)" style="stroke:#800080; stroke-linecap:round; stroke-linejoin:round; stroke-width:12; stroke-opacity:1; fill:none" stroke-dasharray="48, 30" points="1547.02,339.509 1550.27,333.556 1553.85,327.796 1557.75,322.248 1561.96,316.93 1566.46,311.857 1571.24,307.047 1576.29,302.516 1581.58,298.276 1587.11,294.343 1592.84,290.725 1598.66,287.228 1604.47,283.731 1610.28,280.234 1616.09,276.738 1621.9,273.241 1627.72,269.744 1633.53,266.247 1639.34,262.751 1645.15,259.254 1650.96,255.757 1656.77,252.26 1662.59,248.764 1668.4,245.267 1674.21,241.77 1680.02,238.273 1685.83,234.777 1691.65,231.28 1697.46,227.783 1703.27,224.286 1709.08,220.79 1714.89,217.293 1720.7,213.796 1726.52,210.299 1732.33,206.803 1738.14,203.306 1743.95,199.809 1749.76,196.312 1755.58,192.816 1761.39,189.319 1767.2,185.822 1773.04,182.381 1779.06,179.245 1785.24,176.454 1791.57,174.016 1798.02,171.941 1804.59,170.233 1811.24,168.9 1817.95,167.944 1824.71,167.369 1831.49,167.178 "/>
<polyline clip-path="url(#clip902)" style="stroke:#800080; stroke-linecap:round; stroke-linejoin:round; stroke-width:12; stroke-opacity:1; fill:none" stroke-dasharray="48, 30" points="1831.49,167.178 1837.48,167.178 1843.48,167.178 1849.48,167.178 1855.47,167.178 1861.47,167.178 1867.47,167.178 1873.46,167.178 1879.46,167.178 1885.46,167.178 1891.45,167.178 1897.45,167.178 1903.45,167.178 1909.44,167.178 1915.44,167.178 1921.44,167.178 1927.43,167.178 1933.43,167.178 1939.43,167.178 1945.42,167.178 1951.42,167.178 1957.42,167.178 1963.41,167.178 1969.41,167.178 1975.41,167.178 1981.4,167.178 1987.4,167.178 1993.4,167.178 1999.39,167.178 2005.39,167.178 2011.39,167.178 2017.38,167.178 2023.38,167.178 2029.38,167.178 2035.37,167.178 2041.37,167.178 2047.37,167.178 2053.36,167.178 2059.36,167.178 2065.36,167.178 2071.35,167.178 2077.35,167.178 2083.35,167.178 2089.34,167.178 2095.34,167.178 2101.34,167.178 2107.33,167.178 2113.33,167.178 2119.33,167.178 2125.32,167.178 2131.32,167.178 "/>
<circle clip-path="url(#clip902)" cx="968.476" cy="1124.64" r="18" fill="#000000" fill-rule="evenodd" fill-opacity="1" stroke="none"/>
<polyline clip-path="url(#clip902)" style="stroke:#000000; stroke-linecap:round; stroke-linejoin:round; stroke-width:12; stroke-opacity:1; fill:none" points="968.476,1124.64 1065.39,1053.99 "/>
<polyline clip-path="url(#clip902)" style="stroke:#000000; stroke-linecap:round; stroke-linejoin:round; stroke-width:12; stroke-opacity:1; fill:none" points="1025.7,1060.65 1065.39,1053.99 1046.9,1089.74 "/>
<polyline clip-path="url(#clip902)" style="stroke:#000000; stroke-linecap:round; stroke-linejoin:round; stroke-width:12; stroke-opacity:1; fill:none" points="1065.39,1053.99 968.476,1124.64 "/>
<circle clip-path="url(#clip902)" cx="904.123" cy="1207.54" r="18" fill="#008000" fill-rule="evenodd" fill-opacity="1" stroke="#000000" stroke-opacity="1" stroke-width="3.2"/>
<polyline clip-path="url(#clip902)" style="stroke:#008000; stroke-linecap:round; stroke-linejoin:round; stroke-width:12; stroke-opacity:1; fill:none" points="904.123,1207.54 1001.92,1138.12 "/>
<polyline clip-path="url(#clip902)" style="stroke:#008000; stroke-linecap:round; stroke-linejoin:round; stroke-width:12; stroke-opacity:1; fill:none" points="962.146,1144.28 1001.92,1138.12 982.985,1173.64 "/>
<polyline clip-path="url(#clip902)" style="stroke:#008000; stroke-linecap:round; stroke-linejoin:round; stroke-width:12; stroke-opacity:1; fill:none" points="1001.92,1138.12 904.123,1207.54 "/>
</svg>
