<?xml version="1.0" encoding="utf-8"?>
<svg xmlns="http://www.w3.org/2000/svg" xmlns:xlink="http://www.w3.org/1999/xlink" width="600" height="400" viewBox="0 0 2400 1600">
<defs>
  <clipPath id="clip510">
    <rect x="0" y="0" width="2400" height="1600"/>
  </clipPath>
</defs>
<path clip-path="url(#clip510)" d="M0 1600 L2400 1600 L2400 0 L0 0  Z" fill="#ffffff" fill-rule="evenodd" fill-opacity="1"/>
<defs>
  <clipPath id="clip511">
    <rect x="480" y="0" width="1681" height="1600"/>
  </clipPath>
</defs>
<path clip-path="url(#clip510)" d="M156.598 1486.45 L2352.76 1486.45 L2352.76 47.2441 L156.598 47.2441  Z" fill="#ffffff" fill-rule="evenodd" fill-opacity="1"/>
<defs>
  <clipPath id="clip512">
    <rect x="156" y="47" width="2197" height="1440"/>
  </clipPath>
</defs>
<polyline clip-path="url(#clip512)" style="stroke:#000000; stroke-linecap:round; stroke-linejoin:round; stroke-width:2; stroke-opacity:0.1; fill:none" points="218.754,1486.45 218.754,47.2441 "/>
<polyline clip-path="url(#clip512)" style="stroke:#000000; stroke-linecap:round; stroke-linejoin:round; stroke-width:2; stroke-opacity:0.1; fill:none" points="736.715,1486.45 736.715,47.2441 "/>
<polyline clip-path="url(#clip512)" style="stroke:#000000; stroke-linecap:round; stroke-linejoin:round; stroke-width:2; stroke-opacity:0.1; fill:none" points="1254.68,1486.45 1254.68,47.2441 "/>
<polyline clip-path="url(#clip512)" style="stroke:#000000; stroke-linecap:round; stroke-linejoin:round; stroke-width:2; stroke-opacity:0.1; fill:none" points="1772.64,1486.45 1772.64,47.2441 "/>
<polyline clip-path="url(#clip512)" style="stroke:#000000; stroke-linecap:round; stroke-linejoin:round; stroke-width:2; stroke-opacity:0.1; fill:none" points="2290.6,1486.45 2290.6,47.2441 "/>
<polyline clip-path="url(#clip512)" style="stroke:#000000; stroke-linecap:round; stroke-linejoin:round; stroke-width:2; stroke-opacity:0.1; fill:none" points="156.598,1326.54 2352.76,1326.54 "/>
<polyline clip-path="url(#clip512)" style="stroke:#000000; stroke-linecap:round; stroke-linejoin:round; stroke-width:2; stroke-opacity:0.1; fill:none" points="156.598,1006.71 2352.76,1006.71 "/>
<polyline clip-path="url(#clip512)" style="stroke:#000000; stroke-linecap:round; stroke-linejoin:round; stroke-width:2; stroke-opacity:0.1; fill:none" points="156.598,686.89 2352.76,686.89 "/>
<polyline clip-path="url(#clip512)" style="stroke:#000000; stroke-linecap:round; stroke-linejoin:round; stroke-width:2; stroke-opacity:0.1; fill:none" points="156.598,367.067 2352.76,367.067 "/>
<polyline clip-path="url(#clip512)" style="stroke:#000000; stroke-linecap:round; stroke-linejoin:round; stroke-width:2; stroke-opacity:0.1; fill:none" points="156.598,47.2441 2352.76,47.2441 "/>
<polyline clip-path="url(#clip510)" style="stroke:#000000; stroke-linecap:round; stroke-linejoin:round; stroke-width:4; stroke-opacity:1; fill:none" points="156.598,1486.45 2352.76,1486.45 "/>
<polyline clip-path="url(#clip510)" style="stroke:#000000; stroke-linecap:round; stroke-linejoin:round; stroke-width:4; stroke-opacity:1; fill:none" points="218.754,1486.45 218.754,1467.55 "/>
<polyline clip-path="url(#clip510)" style="stroke:#000000; stroke-linecap:round; stroke-linejoin:round; stroke-width:4; stroke-opacity:1; fill:none" points="736.715,1486.45 736.715,1467.55 "/>
<polyline clip-path="url(#clip510)" style="stroke:#000000; stroke-linecap:round; stroke-linejoin:round; stroke-width:4; stroke-opacity:1; fill:none" points="1254.68,1486.45 1254.68,1467.55 "/>
<polyline clip-path="url(#clip510)" style="stroke:#000000; stroke-linecap:round; stroke-linejoin:round; stroke-width:4; stroke-opacity:1; fill:none" points="1772.64,1486.45 1772.64,1467.55 "/>
<polyline clip-path="url(#clip510)" style="stroke:#000000; stroke-linecap:round; stroke-linejoin:round; stroke-width:4; stroke-opacity:1; fill:none" points="2290.6,1486.45 2290.6,1467.55 "/>
<path clip-path="url(#clip510)" d="M196.138 1517.37 Q192.527 1517.37 190.698 1520.93 Q188.893 1524.47 188.893 1531.6 Q188.893 1538.71 190.698 1542.27 Q192.527 1545.82 196.138 1545.82 Q199.772 1545.82 201.578 1542.27 Q203.407 1538.71 203.407 1531.6 Q203.407 1524.47 201.578 1520.93 Q199.772 1517.37 196.138 1517.37 M196.138 1513.66 Q201.948 1513.66 205.004 1518.27 Q208.082 1522.85 208.082 1531.6 Q208.082 1540.33 205.004 1544.94 Q201.948 1549.52 196.138 1549.52 Q190.328 1549.52 187.249 1544.94 Q184.194 1540.33 184.194 1531.6 Q184.194 1522.85 187.249 1518.27 Q190.328 1513.66 196.138 1513.66 Z" fill="#000000" fill-rule="nonzero" fill-opacity="1" /><path clip-path="url(#clip510)" d="M216.3 1542.97 L221.184 1542.97 L221.184 1548.85 L216.3 1548.85 L216.3 1542.97 Z" fill="#000000" fill-rule="nonzero" fill-opacity="1" /><path clip-path="url(#clip510)" d="M241.369 1517.37 Q237.758 1517.37 235.929 1520.93 Q234.124 1524.47 234.124 1531.6 Q234.124 1538.71 235.929 1542.27 Q237.758 1545.82 241.369 1545.82 Q245.003 1545.82 246.809 1542.27 Q248.638 1538.71 248.638 1531.6 Q248.638 1524.47 246.809 1520.93 Q245.003 1517.37 241.369 1517.37 M241.369 1513.66 Q247.179 1513.66 250.235 1518.27 Q253.314 1522.85 253.314 1531.6 Q253.314 1540.33 250.235 1544.94 Q247.179 1549.52 241.369 1549.52 Q235.559 1549.52 232.48 1544.94 Q229.425 1540.33 229.425 1531.6 Q229.425 1522.85 232.48 1518.27 Q235.559 1513.66 241.369 1513.66 Z" fill="#000000" fill-rule="nonzero" fill-opacity="1" /><path clip-path="url(#clip510)" d="M714.597 1517.37 Q710.986 1517.37 709.158 1520.93 Q707.352 1524.47 707.352 1531.6 Q707.352 1538.71 709.158 1542.27 Q710.986 1545.82 714.597 1545.82 Q718.232 1545.82 720.037 1542.27 Q721.866 1538.71 721.866 1531.6 Q721.866 1524.47 720.037 1520.93 Q718.232 1517.37 714.597 1517.37 M714.597 1513.66 Q720.408 1513.66 723.463 1518.27 Q726.542 1522.85 726.542 1531.6 Q726.542 1540.33 723.463 1544.94 Q720.408 1549.52 714.597 1549.52 Q708.787 1549.52 705.709 1544.94 Q702.653 1540.33 702.653 1531.6 Q702.653 1522.85 705.709 1518.27 Q708.787 1513.66 714.597 1513.66 Z" fill="#000000" fill-rule="nonzero" fill-opacity="1" /><path clip-path="url(#clip510)" d="M734.759 1542.97 L739.644 1542.97 L739.644 1548.85 L734.759 1548.85 L734.759 1542.97 Z" fill="#000000" fill-rule="nonzero" fill-opacity="1" /><path clip-path="url(#clip510)" d="M749.875 1514.29 L768.231 1514.29 L768.231 1518.22 L754.157 1518.22 L754.157 1526.7 Q755.176 1526.35 756.194 1526.19 Q757.213 1526 758.231 1526 Q764.018 1526 767.398 1529.17 Q770.778 1532.34 770.778 1537.76 Q770.778 1543.34 767.305 1546.44 Q763.833 1549.52 757.514 1549.52 Q755.338 1549.52 753.069 1549.15 Q750.824 1548.78 748.417 1548.04 L748.417 1543.34 Q750.5 1544.47 752.722 1545.03 Q754.944 1545.58 757.421 1545.58 Q761.426 1545.58 763.764 1543.48 Q766.102 1541.37 766.102 1537.76 Q766.102 1534.15 763.764 1532.04 Q761.426 1529.94 757.421 1529.94 Q755.546 1529.94 753.671 1530.35 Q751.819 1530.77 749.875 1531.65 L749.875 1514.29 Z" fill="#000000" fill-rule="nonzero" fill-opacity="1" /><path clip-path="url(#clip510)" d="M1221.83 1544.91 L1229.47 1544.91 L1229.47 1518.55 L1221.16 1520.21 L1221.16 1515.95 L1229.42 1514.29 L1234.1 1514.29 L1234.1 1544.91 L1241.74 1544.91 L1241.74 1548.85 L1221.83 1548.85 L1221.83 1544.91 Z" fill="#000000" fill-rule="nonzero" fill-opacity="1" /><path clip-path="url(#clip510)" d="M1251.18 1542.97 L1256.07 1542.97 L1256.07 1548.85 L1251.18 1548.85 L1251.18 1542.97 Z" fill="#000000" fill-rule="nonzero" fill-opacity="1" /><path clip-path="url(#clip510)" d="M1276.25 1517.37 Q1272.64 1517.37 1270.81 1520.93 Q1269.01 1524.47 1269.01 1531.6 Q1269.01 1538.71 1270.81 1542.27 Q1272.64 1545.82 1276.25 1545.82 Q1279.89 1545.82 1281.69 1542.27 Q1283.52 1538.71 1283.52 1531.6 Q1283.52 1524.47 1281.69 1520.93 Q1279.89 1517.37 1276.25 1517.37 M1276.25 1513.66 Q1282.06 1513.66 1285.12 1518.27 Q1288.2 1522.85 1288.2 1531.6 Q1288.2 1540.33 1285.12 1544.94 Q1282.06 1549.52 1276.25 1549.52 Q1270.44 1549.52 1267.36 1544.94 Q1264.31 1540.33 1264.31 1531.6 Q1264.31 1522.85 1267.36 1518.27 Q1270.44 1513.66 1276.25 1513.66 Z" fill="#000000" fill-rule="nonzero" fill-opacity="1" /><path clip-path="url(#clip510)" d="M1740.29 1544.91 L1747.93 1544.91 L1747.93 1518.55 L1739.62 1520.21 L1739.62 1515.95 L1747.88 1514.29 L1752.56 1514.29 L1752.56 1544.91 L1760.2 1544.91 L1760.2 1548.85 L1740.29 1548.85 L1740.29 1544.91 Z" fill="#000000" fill-rule="nonzero" fill-opacity="1" /><path clip-path="url(#clip510)" d="M1769.64 1542.97 L1774.53 1542.97 L1774.53 1548.85 L1769.64 1548.85 L1769.64 1542.97 Z" fill="#000000" fill-rule="nonzero" fill-opacity="1" /><path clip-path="url(#clip510)" d="M1784.76 1514.29 L1803.11 1514.29 L1803.11 1518.22 L1789.04 1518.22 L1789.04 1526.7 Q1790.06 1526.35 1791.08 1526.19 Q1792.09 1526 1793.11 1526 Q1798.9 1526 1802.28 1529.17 Q1805.66 1532.34 1805.66 1537.76 Q1805.66 1543.34 1802.19 1546.44 Q1798.72 1549.52 1792.4 1549.52 Q1790.22 1549.52 1787.95 1549.15 Q1785.71 1548.78 1783.3 1548.04 L1783.3 1543.34 Q1785.38 1544.47 1787.6 1545.03 Q1789.83 1545.58 1792.3 1545.58 Q1796.31 1545.58 1798.65 1543.48 Q1800.98 1541.37 1800.98 1537.76 Q1800.98 1534.15 1798.65 1532.04 Q1796.31 1529.94 1792.3 1529.94 Q1790.43 1529.94 1788.55 1530.35 Q1786.7 1530.77 1784.76 1531.65 L1784.76 1514.29 Z" fill="#000000" fill-rule="nonzero" fill-opacity="1" /><path clip-path="url(#clip510)" d="M2261.84 1544.91 L2278.16 1544.91 L2278.16 1548.85 L2256.21 1548.85 L2256.21 1544.91 Q2258.88 1542.16 2263.46 1537.53 Q2268.07 1532.88 2269.25 1531.53 Q2271.49 1529.01 2272.37 1527.27 Q2273.27 1525.51 2273.27 1523.82 Q2273.27 1521.07 2271.33 1519.33 Q2269.41 1517.6 2266.31 1517.6 Q2264.11 1517.6 2261.65 1518.36 Q2259.22 1519.13 2256.45 1520.68 L2256.45 1515.95 Q2259.27 1514.82 2261.72 1514.24 Q2264.18 1513.66 2266.21 1513.66 Q2271.58 1513.66 2274.78 1516.35 Q2277.97 1519.03 2277.97 1523.52 Q2277.97 1525.65 2277.16 1527.57 Q2276.38 1529.47 2274.27 1532.07 Q2273.69 1532.74 2270.59 1535.95 Q2267.49 1539.15 2261.84 1544.91 Z" fill="#000000" fill-rule="nonzero" fill-opacity="1" /><path clip-path="url(#clip510)" d="M2287.97 1542.97 L2292.86 1542.97 L2292.86 1548.85 L2287.97 1548.85 L2287.97 1542.97 Z" fill="#000000" fill-rule="nonzero" fill-opacity="1" /><path clip-path="url(#clip510)" d="M2313.04 1517.37 Q2309.43 1517.37 2307.6 1520.93 Q2305.8 1524.47 2305.8 1531.6 Q2305.8 1538.71 2307.6 1542.27 Q2309.43 1545.82 2313.04 1545.82 Q2316.68 1545.82 2318.48 1542.27 Q2320.31 1538.71 2320.31 1531.6 Q2320.31 1524.47 2318.48 1520.93 Q2316.68 1517.37 2313.04 1517.37 M2313.04 1513.66 Q2318.85 1513.66 2321.91 1518.27 Q2324.99 1522.85 2324.99 1531.6 Q2324.99 1540.33 2321.91 1544.94 Q2318.85 1549.52 2313.04 1549.52 Q2307.23 1549.52 2304.15 1544.94 Q2301.1 1540.33 2301.1 1531.6 Q2301.1 1522.85 2304.15 1518.27 Q2307.23 1513.66 2313.04 1513.66 Z" fill="#000000" fill-rule="nonzero" fill-opacity="1" /><polyline clip-path="url(#clip510)" style="stroke:#000000; stroke-linecap:round; stroke-linejoin:round; stroke-width:4; stroke-opacity:1; fill:none" points="156.598,1486.45 156.598,47.2441 "/>
<polyline clip-path="url(#clip510)" style="stroke:#000000; stroke-linecap:round; stroke-linejoin:round; stroke-width:4; stroke-opacity:1; fill:none" points="156.598,1326.54 175.496,1326.54 "/>
<polyline clip-path="url(#clip510)" style="stroke:#000000; stroke-linecap:round; stroke-linejoin:round; stroke-width:4; stroke-opacity:1; fill:none" points="156.598,1006.71 175.496,1006.71 "/>
<polyline clip-path="url(#clip510)" style="stroke:#000000; stroke-linecap:round; stroke-linejoin:round; stroke-width:4; stroke-opacity:1; fill:none" points="156.598,686.89 175.496,686.89 "/>
<polyline clip-path="url(#clip510)" style="stroke:#000000; stroke-linecap:round; stroke-linejoin:round; stroke-width:4; stroke-opacity:1; fill:none" points="156.598,367.067 175.496,367.067 "/>
<polyline clip-path="url(#clip510)" style="stroke:#000000; stroke-linecap:round; stroke-linejoin:round; stroke-width:4; stroke-opacity:1; fill:none" points="156.598,47.2441 175.496,47.2441 "/>
<path clip-path="url(#clip510)" d="M63.4226 1312.34 Q59.8115 1312.34 57.9828 1315.9 Q56.1773 1319.44 56.1773 1326.57 Q56.1773 1333.68 57.9828 1337.24 Q59.8115 1340.78 63.4226 1340.78 Q67.0569 1340.78 68.8624 1337.24 Q70.6911 1333.68 70.6911 1326.57 Q70.6911 1319.44 68.8624 1315.9 Q67.0569 1312.34 63.4226 1312.34 M63.4226 1308.63 Q69.2328 1308.63 72.2883 1313.24 Q75.367 1317.82 75.367 1326.57 Q75.367 1335.3 72.2883 1339.9 Q69.2328 1344.49 63.4226 1344.49 Q57.6125 1344.49 54.5338 1339.9 Q51.4782 1335.3 51.4782 1326.57 Q51.4782 1317.82 54.5338 1313.24 Q57.6125 1308.63 63.4226 1308.63 Z" fill="#000000" fill-rule="nonzero" fill-opacity="1" /><path clip-path="url(#clip510)" d="M83.5845 1337.94 L88.4688 1337.94 L88.4688 1343.82 L83.5845 1343.82 L83.5845 1337.94 Z" fill="#000000" fill-rule="nonzero" fill-opacity="1" /><path clip-path="url(#clip510)" d="M108.654 1312.34 Q105.043 1312.34 103.214 1315.9 Q101.409 1319.44 101.409 1326.57 Q101.409 1333.68 103.214 1337.24 Q105.043 1340.78 108.654 1340.78 Q112.288 1340.78 114.094 1337.24 Q115.922 1333.68 115.922 1326.57 Q115.922 1319.44 114.094 1315.9 Q112.288 1312.34 108.654 1312.34 M108.654 1308.63 Q114.464 1308.63 117.52 1313.24 Q120.598 1317.82 120.598 1326.57 Q120.598 1335.3 117.52 1339.9 Q114.464 1344.49 108.654 1344.49 Q102.844 1344.49 99.765 1339.9 Q96.7095 1335.3 96.7095 1326.57 Q96.7095 1317.82 99.765 1313.24 Q102.844 1308.63 108.654 1308.63 Z" fill="#000000" fill-rule="nonzero" fill-opacity="1" /><path clip-path="url(#clip510)" d="M64.6495 992.512 Q61.0384 992.512 59.2097 996.077 Q57.4041 999.618 57.4041 1006.75 Q57.4041 1013.85 59.2097 1017.42 Q61.0384 1020.96 64.6495 1020.96 Q68.2837 1020.96 70.0892 1017.42 Q71.9179 1013.85 71.9179 1006.75 Q71.9179 999.618 70.0892 996.077 Q68.2837 992.512 64.6495 992.512 M64.6495 988.808 Q70.4596 988.808 73.5152 993.415 Q76.5938 997.998 76.5938 1006.75 Q76.5938 1015.47 73.5152 1020.08 Q70.4596 1024.66 64.6495 1024.66 Q58.8393 1024.66 55.7606 1020.08 Q52.7051 1015.47 52.7051 1006.75 Q52.7051 997.998 55.7606 993.415 Q58.8393 988.808 64.6495 988.808 Z" fill="#000000" fill-rule="nonzero" fill-opacity="1" /><path clip-path="url(#clip510)" d="M84.8114 1018.11 L89.6956 1018.11 L89.6956 1023.99 L84.8114 1023.99 L84.8114 1018.11 Z" fill="#000000" fill-rule="nonzero" fill-opacity="1" /><path clip-path="url(#clip510)" d="M100.691 1020.06 L108.33 1020.06 L108.33 993.693 L100.02 995.359 L100.02 991.1 L108.283 989.433 L112.959 989.433 L112.959 1020.06 L120.598 1020.06 L120.598 1023.99 L100.691 1023.99 L100.691 1020.06 Z" fill="#000000" fill-rule="nonzero" fill-opacity="1" /><path clip-path="url(#clip510)" d="M65.0198 672.689 Q61.4087 672.689 59.58 676.254 Q57.7745 679.795 57.7745 686.925 Q57.7745 694.031 59.58 697.596 Q61.4087 701.138 65.0198 701.138 Q68.6541 701.138 70.4596 697.596 Q72.2883 694.031 72.2883 686.925 Q72.2883 679.795 70.4596 676.254 Q68.6541 672.689 65.0198 672.689 M65.0198 668.985 Q70.83 668.985 73.8855 673.592 Q76.9642 678.175 76.9642 686.925 Q76.9642 695.652 73.8855 700.258 Q70.83 704.842 65.0198 704.842 Q59.2097 704.842 56.131 700.258 Q53.0754 695.652 53.0754 686.925 Q53.0754 678.175 56.131 673.592 Q59.2097 668.985 65.0198 668.985 Z" fill="#000000" fill-rule="nonzero" fill-opacity="1" /><path clip-path="url(#clip510)" d="M85.1818 698.291 L90.066 698.291 L90.066 704.17 L85.1818 704.17 L85.1818 698.291 Z" fill="#000000" fill-rule="nonzero" fill-opacity="1" /><path clip-path="url(#clip510)" d="M104.279 700.235 L120.598 700.235 L120.598 704.17 L98.6539 704.17 L98.6539 700.235 Q101.316 697.48 105.899 692.851 Q110.506 688.198 111.686 686.855 Q113.932 684.332 114.811 682.596 Q115.714 680.837 115.714 679.147 Q115.714 676.393 113.77 674.656 Q111.848 672.92 108.746 672.92 Q106.547 672.92 104.094 673.684 Q101.663 674.448 98.8854 675.999 L98.8854 671.277 Q101.709 670.143 104.163 669.564 Q106.617 668.985 108.654 668.985 Q114.024 668.985 117.219 671.67 Q120.413 674.356 120.413 678.846 Q120.413 680.976 119.603 682.897 Q118.816 684.795 116.709 687.388 Q116.131 688.059 113.029 691.277 Q109.927 694.471 104.279 700.235 Z" fill="#000000" fill-rule="nonzero" fill-opacity="1" /><path clip-path="url(#clip510)" d="M64.0708 352.866 Q60.4597 352.866 58.631 356.431 Q56.8254 359.972 56.8254 367.102 Q56.8254 374.208 58.631 377.773 Q60.4597 381.315 64.0708 381.315 Q67.705 381.315 69.5105 377.773 Q71.3392 374.208 71.3392 367.102 Q71.3392 359.972 69.5105 356.431 Q67.705 352.866 64.0708 352.866 M64.0708 349.162 Q69.8809 349.162 72.9365 353.769 Q76.0151 358.352 76.0151 367.102 Q76.0151 375.829 72.9365 380.435 Q69.8809 385.018 64.0708 385.018 Q58.2606 385.018 55.1819 380.435 Q52.1264 375.829 52.1264 367.102 Q52.1264 358.352 55.1819 353.769 Q58.2606 349.162 64.0708 349.162 Z" fill="#000000" fill-rule="nonzero" fill-opacity="1" /><path clip-path="url(#clip510)" d="M84.2327 378.468 L89.1169 378.468 L89.1169 384.347 L84.2327 384.347 L84.2327 378.468 Z" fill="#000000" fill-rule="nonzero" fill-opacity="1" /><path clip-path="url(#clip510)" d="M113.469 365.713 Q116.825 366.431 118.7 368.699 Q120.598 370.968 120.598 374.301 Q120.598 379.417 117.08 382.218 Q113.561 385.018 107.08 385.018 Q104.904 385.018 102.589 384.579 Q100.297 384.162 97.8437 383.305 L97.8437 378.792 Q99.7882 379.926 102.103 380.505 Q104.418 381.083 106.941 381.083 Q111.339 381.083 113.631 379.347 Q115.945 377.611 115.945 374.301 Q115.945 371.245 113.793 369.532 Q111.663 367.796 107.844 367.796 L103.816 367.796 L103.816 363.954 L108.029 363.954 Q111.478 363.954 113.307 362.588 Q115.135 361.199 115.135 358.607 Q115.135 355.945 113.237 354.533 Q111.362 353.097 107.844 353.097 Q105.922 353.097 103.723 353.514 Q101.524 353.931 98.8854 354.81 L98.8854 350.644 Q101.547 349.903 103.862 349.533 Q106.2 349.162 108.26 349.162 Q113.584 349.162 116.686 351.593 Q119.788 354 119.788 358.12 Q119.788 360.991 118.145 362.982 Q116.501 364.949 113.469 365.713 Z" fill="#000000" fill-rule="nonzero" fill-opacity="1" /><path clip-path="url(#clip510)" d="M62.9365 33.0428 Q59.3254 33.0428 57.4967 36.6076 Q55.6912 40.1492 55.6912 47.2788 Q55.6912 54.3853 57.4967 57.9501 Q59.3254 61.4917 62.9365 61.4917 Q66.5707 61.4917 68.3763 57.9501 Q70.205 54.3853 70.205 47.2788 Q70.205 40.1492 68.3763 36.6076 Q66.5707 33.0428 62.9365 33.0428 M62.9365 29.3391 Q68.7467 29.3391 71.8022 33.9456 Q74.8809 38.5289 74.8809 47.2788 Q74.8809 56.0056 71.8022 60.6121 Q68.7467 65.1954 62.9365 65.1954 Q57.1264 65.1954 54.0477 60.6121 Q50.9921 56.0056 50.9921 47.2788 Q50.9921 38.5289 54.0477 33.9456 Q57.1264 29.3391 62.9365 29.3391 Z" fill="#000000" fill-rule="nonzero" fill-opacity="1" /><path clip-path="url(#clip510)" d="M83.0984 58.6445 L87.9827 58.6445 L87.9827 64.5241 L83.0984 64.5241 L83.0984 58.6445 Z" fill="#000000" fill-rule="nonzero" fill-opacity="1" /><path clip-path="url(#clip510)" d="M111.015 34.0381 L99.2095 52.4871 L111.015 52.4871 L111.015 34.0381 M109.788 29.9641 L115.668 29.9641 L115.668 52.4871 L120.598 52.4871 L120.598 56.376 L115.668 56.376 L115.668 64.5241 L111.015 64.5241 L111.015 56.376 L95.4132 56.376 L95.4132 51.8621 L109.788 29.9641 Z" fill="#000000" fill-rule="nonzero" fill-opacity="1" /><polyline clip-path="url(#clip512)" style="stroke:#000000; stroke-linecap:round; stroke-linejoin:round; stroke-width:4; stroke-opacity:1; fill:none" stroke-dasharray="16, 10" points="-2039.56,1326.54 4548.91,1326.54 "/>
<polyline clip-path="url(#clip512)" style="stroke:#e26f46; stroke-linecap:round; stroke-linejoin:round; stroke-width:4; stroke-opacity:1; fill:none" points="218.754,1326.54 240.068,1313.38 364.905,1236.29 422.979,1200.43 500.82,1152.58 516.9,1143.46 532.98,1135.4 549.06,1128.8 565.14,1123.04 595.046,1111.45 624.952,1098.04 662.494,1078.93 700.036,1058.11 733.711,1038.56 767.387,1018.52 844.479,971.672 902.106,937.845 975.811,893.966 1043.08,853.094 1062.22,841.294 1081.36,830.767 1100.5,822.985 1119.65,816.527 1149.99,805.51 1180.34,792.273 1218.04,772.658 1255.74,751.585 1284.62,734.992 1313.49,718.075 1354.2,693.85 1394.9,669.33 1425.32,650.876 1455.74,633.449 1473.04,626.011 1490.34,621.406 1507.63,617.263 1524.93,613.213 1533.5,612.288 1542.06,611.092 1550.63,608.668 1559.19,605.117 1567.76,600.646 1576.32,595.512 1584.89,589.976 1593.45,584.287 1668.84,543.137 1726.42,511.448 1799.08,473.328 1866.29,434.872 1900.94,415.151 1935.6,396.226 1953.16,386.456 1970.72,376.571 1988.29,367.775 2005.85,361.429 2024.19,358.311 2042.53,356.724 2060.87,354.146 2079.21,350.637 2108.1,343.356 2137,334.224 2169.9,321.968 2202.8,308.113 2235.7,292.981 2268.6,276.831 2272.29,274.965 2275.98,273.089 2279.67,271.203 2283.36,269.308 "/>
<polyline clip-path="url(#clip512)" style="stroke:#3da44d; stroke-linecap:round; stroke-linejoin:round; stroke-width:4; stroke-opacity:1; fill:none" points="218.754,1326.54 240.068,1313.38 364.905,1236.29 422.979,1200.43 500.82,1152.37 508.86,1147.41 516.9,1142.44 520.92,1139.96 524.94,1137.48 526.95,1136.24 528.96,1135 530.97,1131.53 532.98,1127.19 541.02,1109.87 549.06,1092.71 557.1,1075.81 565.14,1059.26 580.093,1029.67 595.046,1002.02 598.784,995.448 602.522,991.013 606.261,989.672 609.999,988.338 617.475,985.665 624.952,982.948 662.494,967.916 700.036,950.311 733.711,932.807 767.387,914.2 805.933,892.021 844.479,867.983 858.886,857.849 873.292,847.246 876.894,844.549 880.496,841.842 884.097,839.129 887.699,839.222 894.902,844.636 902.106,849.961 906.712,853.346 911.319,856.735 915.925,860.144 920.532,863.583 922.835,865.319 925.139,867.068 927.442,864.699 929.745,859.378 934.352,848.689 938.958,838.004 943.565,831.986 948.172,828.561 952.778,825.231 957.385,821.998 966.598,815.812 975.811,809.887 1009.45,789.049 1043.08,768.457 1052.65,762.595 1062.22,756.731 1071.79,750.863 1081.36,744.992 1082.56,744.258 1083.76,745.211 1084.95,746.32 1086.15,743.789 1088.54,738.633 1090.93,733.489 1095.72,723.25 1100.5,713.105 1110.07,693.222 1119.65,674.104 1127.23,659.656 1134.82,645.947 1138.61,639.398 1142.4,633.067 1146.2,626.962 1149.99,623.394 1157.58,621.726 1165.16,620.018 1172.75,618.213 1180.34,616.283 1218.04,604.631 1255.74,589.922 1284.62,577.059 1313.49,563.134 1394.9,519.964 1455.74,485.357 1464.39,480.333 1473.04,475.289 1477.36,472.759 1481.69,470.225 1486.01,462.025 1490.34,453.048 1498.99,435.555 1507.63,418.828 1516.28,403.053 1524.93,388.394 1529.21,381.592 1533.5,375.113 1537.78,372.944 1542.06,372.285 1550.63,370.877 1559.19,369.297 1563.47,368.433 1567.76,365.713 1572.04,359.299 1576.32,353.206 1578.46,350.283 1580.6,347.443 1582.75,344.688 1584.89,342.019 1587.03,344.618 1589.17,347.205 1591.31,349.749 1593.45,352.249 1612.3,372.378 1631.14,390.008 1640.57,398.35 1649.99,406.603 1659.41,414.917 1668.84,423.426 1670.64,425.084 1672.44,425.281 1674.24,424.273 1676.03,423.276 1679.63,421.308 1683.23,419.364 1690.43,415.512 1697.63,411.672 1712.02,403.951 1726.42,396.132 1735.5,391.145 1744.58,386.118 1749.12,383.59 1753.67,381.053 1755.94,379.782 1758.21,378.508 1760.48,377.102 1762.75,372.357 1767.29,362.732 1771.83,352.963 1776.37,343.098 1780.91,333.186 1782.05,330.706 1783.19,328.227 1784.32,329.048 1785.46,330.078 1787.73,332.146 1790,334.226 1794.54,338.42 1799.08,342.651 1815.88,358.595 1832.68,375.407 1836.88,379.827 1841.08,384.292 1845.28,383.199 1849.48,382.109 1857.88,379.878 1866.29,377.389 1883.61,371.216 1900.94,363.805 1918.27,355.616 1935.6,347.122 1939.99,347.55 1944.38,347.503 1948.77,345.551 1953.16,343.568 1961.94,339.607 1970.72,335.738 1988.29,328.432 2005.85,321.469 2010.43,319.625 2015.02,317.757 2017.31,316.813 2019.6,315.863 2021.9,317.557 2024.19,319.948 2028.77,326.043 2033.36,333.79 2037.94,341.623 2042.53,350.027 2060.87,383.521 2079.21,416.967 2082.82,420.808 2086.43,424.623 2090.04,428.384 2093.66,432.058 2100.88,439.172 2108.1,445.974 2115.33,452.503 2122.55,458.729 2129.77,464.716 2137,470.09 2145.22,471.219 2153.45,472.019 2161.67,472.507 2169.9,472.688 2186.35,472.181 2202.8,470.604 2235.7,464.668 2268.6,455.656 2272.29,454.483 2275.98,453.28 2279.67,452.048 2283.36,450.788 "/>
<polyline clip-path="url(#clip512)" style="stroke:#c271d2; stroke-linecap:round; stroke-linejoin:round; stroke-width:4; stroke-opacity:1; fill:none" points="218.754,1326.54 240.068,1313.38 364.905,1236.29 422.979,1200.43 500.82,1152.37 508.86,1147.41 516.9,1142.44 520.92,1139.96 524.94,1137.48 526.95,1136.24 528.96,1135 530.97,1135.98 532.98,1137.84 541.02,1145.28 549.06,1152.7 557.1,1160.06 565.14,1167.37 580.093,1180.83 595.046,1194.05 598.784,1197.29 602.522,1198.92 606.261,1198.09 609.999,1197.24 617.475,1195.46 624.952,1193.54 643.723,1187.94 662.494,1181.15 681.265,1173.23 700.036,1164.37 733.711,1146.75 767.387,1127.73 805.933,1105.02 844.479,1081.78 858.886,1073.02 873.292,1064.23 876.894,1062.03 880.496,1059.83 884.097,1057.62 887.699,1052.56 894.902,1036.99 902.106,1021.43 906.712,1011.52 911.319,1001.7 915.925,991.967 920.532,982.363 922.835,977.614 925.139,972.905 927.442,972.214 929.745,974.356 934.352,978.651 938.958,982.955 943.565,982.711 948.172,979.992 952.778,977.272 957.385,974.55 966.598,969.096 975.811,963.627 1009.45,943.513 1043.08,923.195 1062.22,911.563 1081.36,899.894 1082.56,899.163 1083.76,896.748 1084.95,894.181 1086.15,895.242 1088.54,897.465 1090.93,899.684 1095.72,904.107 1100.5,908.51 1110.07,917.329 1119.65,926.459 1127.23,933.946 1134.82,941.618 1138.61,945.515 1142.4,949.433 1146.2,953.378 1149.99,954.917 1157.58,951.93 1165.16,948.3 1172.75,944.042 1180.34,939.195 1199.19,924.961 1218.04,908.492 1236.89,891.049 1255.74,873.85 1270.18,861.551 1284.62,850.396 1299.05,840.444 1313.49,831.175 1394.9,781.057 1455.74,743.67 1464.39,738.348 1473.04,733.024 1477.36,730.362 1481.69,727.7 1486.01,730.795 1490.34,734.79 1507.63,750.748 1524.93,767.131 1529.21,771.333 1533.5,775.612 1537.78,775.685 1542.06,774.207 1550.63,771.293 1559.19,768.35 1563.47,766.849 1567.76,767.24 1572.04,771.789 1576.32,776.41 1578.46,778.75 1580.6,781.109 1582.75,783.49 1584.89,785.892 1587.03,782.783 1589.17,779.523 1591.31,776.145 1593.45,772.652 1602.88,756.01 1612.3,737.584 1621.72,717.867 1631.14,697.392 1640.57,676.662 1649.99,656.113 1654.7,646.023 1659.41,636.11 1664.13,626.41 1668.84,616.953 1672.44,611.339 1676.03,609.602 1679.63,607.895 1683.23,606.208 1690.43,602.857 1697.63,599.503 1712.02,592.697 1726.42,585.705 1735.5,581.19 1744.58,576.6 1749.12,574.277 1753.67,571.937 1758.21,569.58 1762.75,570.722 1767.29,575.057 1771.83,579.313 1776.37,583.5 1780.91,587.631 1782.05,588.657 1783.19,589.681 1784.32,587.407 1785.46,584.932 1787.73,580 1790,575.092 1794.54,565.353 1799.08,555.732 1807.48,538.29 1815.88,521.419 1824.28,505.294 1832.68,490.116 1836.88,482.925 1841.08,476.078 1845.28,475.001 1849.48,473.892 1857.88,471.562 1866.29,469.076 1900.94,457.237 1935.6,443.229 1970.72,427.317 2005.85,410.083 2010.43,407.754 2015.02,405.407 2017.31,404.228 2019.6,403.045 2021.9,399.148 2024.19,394.612 2033.36,377.066 2042.53,360.597 2051.7,345.385 2060.87,331.596 2065.45,325.279 2070.04,319.369 2072.33,316.57 2074.62,313.877 2076.92,312.166 2079.21,312.329 2093.66,313.005 2108.1,312.907 2122.55,312.02 2137,310.406 2169.9,304.367 2202.8,295.572 2235.7,284.553 2268.6,271.74 2272.29,270.207 2275.98,268.655 2279.67,267.087 2283.36,265.502 "/>
</svg>
