<?xml version="1.0" encoding="utf-8"?>
<svg xmlns="http://www.w3.org/2000/svg" xmlns:xlink="http://www.w3.org/1999/xlink" width="600" height="400" viewBox="0 0 2400 1600">
<defs>
  <clipPath id="clip770">
    <rect x="0" y="0" width="2400" height="1600"/>
  </clipPath>
</defs>
<path clip-path="url(#clip770)" d="M0 1600 L2400 1600 L2400 0 L0 0  Z" fill="#ffffff" fill-rule="evenodd" fill-opacity="1"/>
<defs>
  <clipPath id="clip771">
    <rect x="480" y="0" width="1681" height="1600"/>
  </clipPath>
</defs>
<path clip-path="url(#clip770)" d="M156.598 1486.45 L2352.76 1486.45 L2352.76 47.2441 L156.598 47.2441  Z" fill="#ffffff" fill-rule="evenodd" fill-opacity="1"/>
<defs>
  <clipPath id="clip772">
    <rect x="156" y="47" width="2197" height="1440"/>
  </clipPath>
</defs>
<polyline clip-path="url(#clip772)" style="stroke:#000000; stroke-linecap:round; stroke-linejoin:round; stroke-width:2; stroke-opacity:0.1; fill:none" points="218.754,1486.45 218.754,47.2441 "/>
<polyline clip-path="url(#clip772)" style="stroke:#000000; stroke-linecap:round; stroke-linejoin:round; stroke-width:2; stroke-opacity:0.1; fill:none" points="736.715,1486.45 736.715,47.2441 "/>
<polyline clip-path="url(#clip772)" style="stroke:#000000; stroke-linecap:round; stroke-linejoin:round; stroke-width:2; stroke-opacity:0.1; fill:none" points="1254.68,1486.45 1254.68,47.2441 "/>
<polyline clip-path="url(#clip772)" style="stroke:#000000; stroke-linecap:round; stroke-linejoin:round; stroke-width:2; stroke-opacity:0.1; fill:none" points="1772.64,1486.45 1772.64,47.2441 "/>
<polyline clip-path="url(#clip772)" style="stroke:#000000; stroke-linecap:round; stroke-linejoin:round; stroke-width:2; stroke-opacity:0.1; fill:none" points="2290.6,1486.45 2290.6,47.2441 "/>
<polyline clip-path="url(#clip772)" style="stroke:#000000; stroke-linecap:round; stroke-linejoin:round; stroke-width:2; stroke-opacity:0.1; fill:none" points="156.598,1326.54 2352.76,1326.54 "/>
<polyline clip-path="url(#clip772)" style="stroke:#000000; stroke-linecap:round; stroke-linejoin:round; stroke-width:2; stroke-opacity:0.1; fill:none" points="156.598,1006.71 2352.76,1006.71 "/>
<polyline clip-path="url(#clip772)" style="stroke:#000000; stroke-linecap:round; stroke-linejoin:round; stroke-width:2; stroke-opacity:0.1; fill:none" points="156.598,686.89 2352.76,686.89 "/>
<polyline clip-path="url(#clip772)" style="stroke:#000000; stroke-linecap:round; stroke-linejoin:round; stroke-width:2; stroke-opacity:0.1; fill:none" points="156.598,367.067 2352.76,367.067 "/>
<polyline clip-path="url(#clip772)" style="stroke:#000000; stroke-linecap:round; stroke-linejoin:round; stroke-width:2; stroke-opacity:0.1; fill:none" points="156.598,47.2441 2352.76,47.2441 "/>
<polyline clip-path="url(#clip770)" style="stroke:#000000; stroke-linecap:round; stroke-linejoin:round; stroke-width:4; stroke-opacity:1; fill:none" points="156.598,1486.45 2352.76,1486.45 "/>
<polyline clip-path="url(#clip770)" style="stroke:#000000; stroke-linecap:round; stroke-linejoin:round; stroke-width:4; stroke-opacity:1; fill:none" points="218.754,1486.45 218.754,1467.55 "/>
<polyline clip-path="url(#clip770)" style="stroke:#000000; stroke-linecap:round; stroke-linejoin:round; stroke-width:4; stroke-opacity:1; fill:none" points="736.715,1486.45 736.715,1467.55 "/>
<polyline clip-path="url(#clip770)" style="stroke:#000000; stroke-linecap:round; stroke-linejoin:round; stroke-width:4; stroke-opacity:1; fill:none" points="1254.68,1486.45 1254.68,1467.55 "/>
<polyline clip-path="url(#clip770)" style="stroke:#000000; stroke-linecap:round; stroke-linejoin:round; stroke-width:4; stroke-opacity:1; fill:none" points="1772.64,1486.45 1772.64,1467.55 "/>
<polyline clip-path="url(#clip770)" style="stroke:#000000; stroke-linecap:round; stroke-linejoin:round; stroke-width:4; stroke-opacity:1; fill:none" points="2290.6,1486.45 2290.6,1467.55 "/>
<path clip-path="url(#clip770)" d="M196.138 1517.37 Q192.527 1517.37 190.698 1520.93 Q188.893 1524.47 188.893 1531.6 Q188.893 1538.71 190.698 1542.27 Q192.527 1545.82 196.138 1545.82 Q199.772 1545.82 201.578 1542.27 Q203.407 1538.71 203.407 1531.6 Q203.407 1524.47 201.578 1520.93 Q199.772 1517.37 196.138 1517.37 M196.138 1513.66 Q201.948 1513.66 205.004 1518.27 Q208.082 1522.85 208.082 1531.6 Q208.082 1540.33 205.004 1544.94 Q201.948 1549.52 196.138 1549.52 Q190.328 1549.52 187.249 1544.94 Q184.194 1540.33 184.194 1531.6 Q184.194 1522.85 187.249 1518.27 Q190.328 1513.66 196.138 1513.66 Z" fill="#000000" fill-rule="nonzero" fill-opacity="1" /><path clip-path="url(#clip770)" d="M216.3 1542.97 L221.184 1542.97 L221.184 1548.85 L216.3 1548.85 L216.3 1542.97 Z" fill="#000000" fill-rule="nonzero" fill-opacity="1" /><path clip-path="url(#clip770)" d="M241.369 1517.37 Q237.758 1517.37 235.929 1520.93 Q234.124 1524.47 234.124 1531.6 Q234.124 1538.71 235.929 1542.27 Q237.758 1545.82 241.369 1545.82 Q245.003 1545.82 246.809 1542.27 Q248.638 1538.71 248.638 1531.6 Q248.638 1524.47 246.809 1520.93 Q245.003 1517.37 241.369 1517.37 M241.369 1513.66 Q247.179 1513.66 250.235 1518.27 Q253.314 1522.85 253.314 1531.6 Q253.314 1540.33 250.235 1544.94 Q247.179 1549.52 241.369 1549.52 Q235.559 1549.52 232.48 1544.94 Q229.425 1540.33 229.425 1531.6 Q229.425 1522.85 232.48 1518.27 Q235.559 1513.66 241.369 1513.66 Z" fill="#000000" fill-rule="nonzero" fill-opacity="1" /><path clip-path="url(#clip770)" d="M714.597 1517.37 Q710.986 1517.37 709.158 1520.93 Q707.352 1524.47 707.352 1531.6 Q707.352 1538.71 709.158 1542.27 Q710.986 1545.82 714.597 1545.82 Q718.232 1545.82 720.037 1542.27 Q721.866 1538.71 721.866 1531.6 Q721.866 1524.47 720.037 1520.93 Q718.232 1517.37 714.597 1517.37 M714.597 1513.66 Q720.408 1513.66 723.463 1518.27 Q726.542 1522.85 726.542 1531.6 Q726.542 1540.33 723.463 1544.94 Q720.408 1549.52 714.597 1549.52 Q708.787 1549.52 705.709 1544.94 Q702.653 1540.33 702.653 1531.6 Q702.653 1522.85 705.709 1518.27 Q708.787 1513.66 714.597 1513.66 Z" fill="#000000" fill-rule="nonzero" fill-opacity="1" /><path clip-path="url(#clip770)" d="M734.759 1542.97 L739.644 1542.97 L739.644 1548.85 L734.759 1548.85 L734.759 1542.97 Z" fill="#000000" fill-rule="nonzero" fill-opacity="1" /><path clip-path="url(#clip770)" d="M749.875 1514.29 L768.231 1514.29 L768.231 1518.22 L754.157 1518.22 L754.157 1526.7 Q755.176 1526.35 756.194 1526.19 Q757.213 1526 758.231 1526 Q764.018 1526 767.398 1529.17 Q770.778 1532.34 770.778 1537.76 Q770.778 1543.34 767.305 1546.44 Q763.833 1549.52 757.514 1549.52 Q755.338 1549.52 753.069 1549.15 Q750.824 1548.78 748.417 1548.04 L748.417 1543.34 Q750.5 1544.47 752.722 1545.03 Q754.944 1545.58 757.421 1545.58 Q761.426 1545.58 763.764 1543.48 Q766.102 1541.37 766.102 1537.76 Q766.102 1534.15 763.764 1532.04 Q761.426 1529.94 757.421 1529.94 Q755.546 1529.94 753.671 1530.35 Q751.819 1530.77 749.875 1531.65 L749.875 1514.29 Z" fill="#000000" fill-rule="nonzero" fill-opacity="1" /><path clip-path="url(#clip770)" d="M1221.83 1544.91 L1229.47 1544.91 L1229.47 1518.55 L1221.16 1520.21 L1221.16 1515.95 L1229.42 1514.29 L1234.1 1514.29 L1234.1 1544.91 L1241.74 1544.91 L1241.74 1548.85 L1221.83 1548.85 L1221.83 1544.91 Z" fill="#000000" fill-rule="nonzero" fill-opacity="1" /><path clip-path="url(#clip770)" d="M1251.18 1542.97 L1256.07 1542.97 L1256.07 1548.85 L1251.18 1548.85 L1251.18 1542.97 Z" fill="#000000" fill-rule="nonzero" fill-opacity="1" /><path clip-path="url(#clip770)" d="M1276.25 1517.37 Q1272.64 1517.37 1270.81 1520.93 Q1269.01 1524.47 1269.01 1531.6 Q1269.01 1538.71 1270.81 1542.27 Q1272.64 1545.82 1276.25 1545.82 Q1279.89 1545.82 1281.69 1542.27 Q1283.52 1538.71 1283.52 1531.6 Q1283.52 1524.47 1281.69 1520.93 Q1279.89 1517.37 1276.25 1517.37 M1276.25 1513.66 Q1282.06 1513.66 1285.12 1518.27 Q1288.2 1522.85 1288.2 1531.6 Q1288.2 1540.33 1285.12 1544.94 Q1282.06 1549.52 1276.25 1549.52 Q1270.44 1549.52 1267.36 1544.94 Q1264.31 1540.33 1264.31 1531.6 Q1264.31 1522.85 1267.36 1518.27 Q1270.44 1513.66 1276.25 1513.66 Z" fill="#000000" fill-rule="nonzero" fill-opacity="1" /><path clip-path="url(#clip770)" d="M1740.29 1544.91 L1747.93 1544.91 L1747.93 1518.55 L1739.62 1520.21 L1739.62 1515.95 L1747.88 1514.29 L1752.56 1514.29 L1752.56 1544.91 L1760.2 1544.91 L1760.2 1548.85 L1740.29 1548.85 L1740.29 1544.91 Z" fill="#000000" fill-rule="nonzero" fill-opacity="1" /><path clip-path="url(#clip770)" d="M1769.64 1542.97 L1774.53 1542.97 L1774.53 1548.85 L1769.64 1548.85 L1769.64 1542.97 Z" fill="#000000" fill-rule="nonzero" fill-opacity="1" /><path clip-path="url(#clip770)" d="M1784.76 1514.29 L1803.11 1514.29 L1803.11 1518.22 L1789.04 1518.22 L1789.04 1526.7 Q1790.06 1526.35 1791.08 1526.19 Q1792.09 1526 1793.11 1526 Q1798.9 1526 1802.28 1529.17 Q1805.66 1532.34 1805.66 1537.76 Q1805.66 1543.34 1802.19 1546.44 Q1798.72 1549.52 1792.4 1549.52 Q1790.22 1549.52 1787.95 1549.15 Q1785.71 1548.78 1783.3 1548.04 L1783.3 1543.34 Q1785.38 1544.47 1787.6 1545.03 Q1789.83 1545.58 1792.3 1545.58 Q1796.31 1545.58 1798.65 1543.48 Q1800.98 1541.37 1800.98 1537.76 Q1800.98 1534.15 1798.65 1532.04 Q1796.31 1529.94 1792.3 1529.94 Q1790.43 1529.94 1788.55 1530.35 Q1786.7 1530.77 1784.76 1531.65 L1784.76 1514.29 Z" fill="#000000" fill-rule="nonzero" fill-opacity="1" /><path clip-path="url(#clip770)" d="M2261.84 1544.91 L2278.16 1544.91 L2278.16 1548.85 L2256.21 1548.85 L2256.21 1544.91 Q2258.88 1542.16 2263.46 1537.53 Q2268.07 1532.88 2269.25 1531.53 Q2271.49 1529.01 2272.37 1527.27 Q2273.27 1525.51 2273.27 1523.82 Q2273.27 1521.07 2271.33 1519.33 Q2269.41 1517.6 2266.31 1517.6 Q2264.11 1517.6 2261.65 1518.36 Q2259.22 1519.13 2256.45 1520.68 L2256.45 1515.95 Q2259.27 1514.82 2261.72 1514.24 Q2264.18 1513.66 2266.21 1513.66 Q2271.58 1513.66 2274.78 1516.35 Q2277.97 1519.03 2277.97 1523.52 Q2277.97 1525.65 2277.16 1527.57 Q2276.38 1529.47 2274.27 1532.07 Q2273.69 1532.74 2270.59 1535.95 Q2267.49 1539.15 2261.84 1544.91 Z" fill="#000000" fill-rule="nonzero" fill-opacity="1" /><path clip-path="url(#clip770)" d="M2287.97 1542.97 L2292.86 1542.97 L2292.86 1548.85 L2287.97 1548.85 L2287.97 1542.97 Z" fill="#000000" fill-rule="nonzero" fill-opacity="1" /><path clip-path="url(#clip770)" d="M2313.04 1517.37 Q2309.43 1517.37 2307.6 1520.93 Q2305.8 1524.47 2305.8 1531.6 Q2305.8 1538.71 2307.6 1542.27 Q2309.43 1545.82 2313.04 1545.82 Q2316.68 1545.82 2318.48 1542.27 Q2320.31 1538.71 2320.31 1531.6 Q2320.31 1524.47 2318.48 1520.93 Q2316.68 1517.37 2313.04 1517.37 M2313.04 1513.66 Q2318.85 1513.66 2321.91 1518.27 Q2324.99 1522.85 2324.99 1531.6 Q2324.99 1540.33 2321.91 1544.94 Q2318.85 1549.52 2313.04 1549.52 Q2307.23 1549.52 2304.15 1544.94 Q2301.1 1540.33 2301.1 1531.6 Q2301.1 1522.85 2304.15 1518.27 Q2307.23 1513.66 2313.04 1513.66 Z" fill="#000000" fill-rule="nonzero" fill-opacity="1" /><polyline clip-path="url(#clip770)" style="stroke:#000000; stroke-linecap:round; stroke-linejoin:round; stroke-width:4; stroke-opacity:1; fill:none" points="156.598,1486.45 156.598,47.2441 "/>
<polyline clip-path="url(#clip770)" style="stroke:#000000; stroke-linecap:round; stroke-linejoin:round; stroke-width:4; stroke-opacity:1; fill:none" points="156.598,1326.54 175.496,1326.54 "/>
<polyline clip-path="url(#clip770)" style="stroke:#000000; stroke-linecap:round; stroke-linejoin:round; stroke-width:4; stroke-opacity:1; fill:none" points="156.598,1006.71 175.496,1006.71 "/>
<polyline clip-path="url(#clip770)" style="stroke:#000000; stroke-linecap:round; stroke-linejoin:round; stroke-width:4; stroke-opacity:1; fill:none" points="156.598,686.89 175.496,686.89 "/>
<polyline clip-path="url(#clip770)" style="stroke:#000000; stroke-linecap:round; stroke-linejoin:round; stroke-width:4; stroke-opacity:1; fill:none" points="156.598,367.067 175.496,367.067 "/>
<polyline clip-path="url(#clip770)" style="stroke:#000000; stroke-linecap:round; stroke-linejoin:round; stroke-width:4; stroke-opacity:1; fill:none" points="156.598,47.2441 175.496,47.2441 "/>
<path clip-path="url(#clip770)" d="M63.4226 1312.34 Q59.8115 1312.34 57.9828 1315.9 Q56.1773 1319.44 56.1773 1326.57 Q56.1773 1333.68 57.9828 1337.24 Q59.8115 1340.78 63.4226 1340.78 Q67.0569 1340.78 68.8624 1337.24 Q70.6911 1333.68 70.6911 1326.57 Q70.6911 1319.44 68.8624 1315.9 Q67.0569 1312.34 63.4226 1312.34 M63.4226 1308.63 Q69.2328 1308.63 72.2883 1313.24 Q75.367 1317.82 75.367 1326.57 Q75.367 1335.3 72.2883 1339.9 Q69.2328 1344.49 63.4226 1344.49 Q57.6125 1344.49 54.5338 1339.9 Q51.4782 1335.3 51.4782 1326.57 Q51.4782 1317.82 54.5338 1313.24 Q57.6125 1308.63 63.4226 1308.63 Z" fill="#000000" fill-rule="nonzero" fill-opacity="1" /><path clip-path="url(#clip770)" d="M83.5845 1337.94 L88.4688 1337.94 L88.4688 1343.82 L83.5845 1343.82 L83.5845 1337.94 Z" fill="#000000" fill-rule="nonzero" fill-opacity="1" /><path clip-path="url(#clip770)" d="M108.654 1312.34 Q105.043 1312.34 103.214 1315.9 Q101.409 1319.44 101.409 1326.57 Q101.409 1333.68 103.214 1337.24 Q105.043 1340.78 108.654 1340.78 Q112.288 1340.78 114.094 1337.24 Q115.922 1333.68 115.922 1326.57 Q115.922 1319.44 114.094 1315.9 Q112.288 1312.34 108.654 1312.34 M108.654 1308.63 Q114.464 1308.63 117.52 1313.24 Q120.598 1317.82 120.598 1326.57 Q120.598 1335.3 117.52 1339.9 Q114.464 1344.49 108.654 1344.49 Q102.844 1344.49 99.765 1339.9 Q96.7095 1335.3 96.7095 1326.57 Q96.7095 1317.82 99.765 1313.24 Q102.844 1308.63 108.654 1308.63 Z" fill="#000000" fill-rule="nonzero" fill-opacity="1" /><path clip-path="url(#clip770)" d="M64.6495 992.512 Q61.0384 992.512 59.2097 996.077 Q57.4041 999.618 57.4041 1006.75 Q57.4041 1013.85 59.2097 1017.42 Q61.0384 1020.96 64.6495 1020.96 Q68.2837 1020.96 70.0892 1017.42 Q71.9179 1013.85 71.9179 1006.75 Q71.9179 999.618 70.0892 996.077 Q68.2837 992.512 64.6495 992.512 M64.6495 988.808 Q70.4596 988.808 73.5152 993.415 Q76.5938 997.998 76.5938 1006.75 Q76.5938 1015.47 73.5152 1020.08 Q70.4596 1024.66 64.6495 1024.66 Q58.8393 1024.66 55.7606 1020.08 Q52.7051 1015.47 52.7051 1006.75 Q52.7051 997.998 55.7606 993.415 Q58.8393 988.808 64.6495 988.808 Z" fill="#000000" fill-rule="nonzero" fill-opacity="1" /><path clip-path="url(#clip770)" d="M84.8114 1018.11 L89.6956 1018.11 L89.6956 1023.99 L84.8114 1023.99 L84.8114 1018.11 Z" fill="#000000" fill-rule="nonzero" fill-opacity="1" /><path clip-path="url(#clip770)" d="M100.691 1020.06 L108.33 1020.06 L108.33 993.693 L100.02 995.359 L100.02 991.1 L108.283 989.433 L112.959 989.433 L112.959 1020.06 L120.598 1020.06 L120.598 1023.99 L100.691 1023.99 L100.691 1020.06 Z" fill="#000000" fill-rule="nonzero" fill-opacity="1" /><path clip-path="url(#clip770)" d="M65.0198 672.689 Q61.4087 672.689 59.58 676.254 Q57.7745 679.795 57.7745 686.925 Q57.7745 694.031 59.58 697.596 Q61.4087 701.138 65.0198 701.138 Q68.6541 701.138 70.4596 697.596 Q72.2883 694.031 72.2883 686.925 Q72.2883 679.795 70.4596 676.254 Q68.6541 672.689 65.0198 672.689 M65.0198 668.985 Q70.83 668.985 73.8855 673.592 Q76.9642 678.175 76.9642 686.925 Q76.9642 695.652 73.8855 700.258 Q70.83 704.842 65.0198 704.842 Q59.2097 704.842 56.131 700.258 Q53.0754 695.652 53.0754 686.925 Q53.0754 678.175 56.131 673.592 Q59.2097 668.985 65.0198 668.985 Z" fill="#000000" fill-rule="nonzero" fill-opacity="1" /><path clip-path="url(#clip770)" d="M85.1818 698.291 L90.066 698.291 L90.066 704.17 L85.1818 704.17 L85.1818 698.291 Z" fill="#000000" fill-rule="nonzero" fill-opacity="1" /><path clip-path="url(#clip770)" d="M104.279 700.235 L120.598 700.235 L120.598 704.17 L98.6539 704.17 L98.6539 700.235 Q101.316 697.48 105.899 692.851 Q110.506 688.198 111.686 686.855 Q113.932 684.332 114.811 682.596 Q115.714 680.837 115.714 679.147 Q115.714 676.393 113.77 674.656 Q111.848 672.92 108.746 672.92 Q106.547 672.92 104.094 673.684 Q101.663 674.448 98.8854 675.999 L98.8854 671.277 Q101.709 670.143 104.163 669.564 Q106.617 668.985 108.654 668.985 Q114.024 668.985 117.219 671.67 Q120.413 674.356 120.413 678.846 Q120.413 680.976 119.603 682.897 Q118.816 684.795 116.709 687.388 Q116.131 688.059 113.029 691.277 Q109.927 694.471 104.279 700.235 Z" fill="#000000" fill-rule="nonzero" fill-opacity="1" /><path clip-path="url(#clip770)" d="M64.0708 352.866 Q60.4597 352.866 58.631 356.431 Q56.8254 359.972 56.8254 367.102 Q56.8254 374.208 58.631 377.773 Q60.4597 381.315 64.0708 381.315 Q67.705 381.315 69.5105 377.773 Q71.3392 374.208 71.3392 367.102 Q71.3392 359.972 69.5105 356.431 Q67.705 352.866 64.0708 352.866 M64.0708 349.162 Q69.8809 349.162 72.9365 353.769 Q76.0151 358.352 76.0151 367.102 Q76.0151 375.829 72.9365 380.435 Q69.8809 385.018 64.0708 385.018 Q58.2606 385.018 55.1819 380.435 Q52.1264 375.829 52.1264 367.102 Q52.1264 358.352 55.1819 353.769 Q58.2606 349.162 64.0708 349.162 Z" fill="#000000" fill-rule="nonzero" fill-opacity="1" /><path clip-path="url(#clip770)" d="M84.2327 378.468 L89.1169 378.468 L89.1169 384.347 L84.2327 384.347 L84.2327 378.468 Z" fill="#000000" fill-rule="nonzero" fill-opacity="1" /><path clip-path="url(#clip770)" d="M113.469 365.713 Q116.825 366.431 118.7 368.699 Q120.598 370.968 120.598 374.301 Q120.598 379.417 117.08 382.218 Q113.561 385.018 107.08 385.018 Q104.904 385.018 102.589 384.579 Q100.297 384.162 97.8437 383.305 L97.8437 378.792 Q99.7882 379.926 102.103 380.505 Q104.418 381.083 106.941 381.083 Q111.339 381.083 113.631 379.347 Q115.945 377.611 115.945 374.301 Q115.945 371.245 113.793 369.532 Q111.663 367.796 107.844 367.796 L103.816 367.796 L103.816 363.954 L108.029 363.954 Q111.478 363.954 113.307 362.588 Q115.135 361.199 115.135 358.607 Q115.135 355.945 113.237 354.533 Q111.362 353.097 107.844 353.097 Q105.922 353.097 103.723 353.514 Q101.524 353.931 98.8854 354.81 L98.8854 350.644 Q101.547 349.903 103.862 349.533 Q106.2 349.162 108.26 349.162 Q113.584 349.162 116.686 351.593 Q119.788 354 119.788 358.12 Q119.788 360.991 118.145 362.982 Q116.501 364.949 113.469 365.713 Z" fill="#000000" fill-rule="nonzero" fill-opacity="1" /><path clip-path="url(#clip770)" d="M62.9365 33.0428 Q59.3254 33.0428 57.4967 36.6076 Q55.6912 40.1492 55.6912 47.2788 Q55.6912 54.3853 57.4967 57.9501 Q59.3254 61.4917 62.9365 61.4917 Q66.5707 61.4917 68.3763 57.9501 Q70.205 54.3853 70.205 47.2788 Q70.205 40.1492 68.3763 36.6076 Q66.5707 33.0428 62.9365 33.0428 M62.9365 29.3391 Q68.7467 29.3391 71.8022 33.9456 Q74.8809 38.5289 74.8809 47.2788 Q74.8809 56.0056 71.8022 60.6121 Q68.7467 65.1954 62.9365 65.1954 Q57.1264 65.1954 54.0477 60.6121 Q50.9921 56.0056 50.9921 47.2788 Q50.9921 38.5289 54.0477 33.9456 Q57.1264 29.3391 62.9365 29.3391 Z" fill="#000000" fill-rule="nonzero" fill-opacity="1" /><path clip-path="url(#clip770)" d="M83.0984 58.6445 L87.9827 58.6445 L87.9827 64.5241 L83.0984 64.5241 L83.0984 58.6445 Z" fill="#000000" fill-rule="nonzero" fill-opacity="1" /><path clip-path="url(#clip770)" d="M111.015 34.0381 L99.2095 52.4871 L111.015 52.4871 L111.015 34.0381 M109.788 29.9641 L115.668 29.9641 L115.668 52.4871 L120.598 52.4871 L120.598 56.376 L115.668 56.376 L115.668 64.5241 L111.015 64.5241 L111.015 56.376 L95.4132 56.376 L95.4132 51.8621 L109.788 29.9641 Z" fill="#000000" fill-rule="nonzero" fill-opacity="1" /><polyline clip-path="url(#clip772)" style="stroke:#000000; stroke-linecap:round; stroke-linejoin:round; stroke-width:4; stroke-opacity:1; fill:none" stroke-dasharray="16, 10" points="-2039.56,1326.54 4548.91,1326.54 "/>
<polyline clip-path="url(#clip772)" style="stroke:#e26f46; stroke-linecap:round; stroke-linejoin:round; stroke-width:4; stroke-opacity:1; fill:none" points="218.754,1326.54 224.082,1326.53 229.411,1326.53 234.739,1326.53 240.068,1326.53 271.277,1326.53 302.486,1326.53 333.696,1326.53 364.905,1326.53 393.942,1326.53 422.979,1326.53 461.899,1326.53 500.82,1326.54 516.9,1326.53 532.98,1326.53 541.02,1326.53 549.06,1326.53 553.08,1326.53 557.1,1326.53 561.12,1326.53 565.14,1326.53 572.616,1326.53 580.093,1326.53 587.569,1326.53 595.046,1326.52 602.522,1326.52 609.999,1326.52 617.475,1326.52 624.952,1326.52 662.494,1326.52 700.036,1326.52 733.711,1326.53 767.387,1326.53 786.66,1326.53 805.933,1326.53 815.57,1326.53 825.206,1326.53 830.024,1326.53 834.843,1326.53 839.661,1326.53 844.479,1326.53 851.683,1326.52 858.886,1326.52 866.089,1326.52 873.292,1326.51 874.193,1326.51 875.093,1326.51 875.994,1326.51 876.894,1326.5 878.695,1326.5 880.496,1326.49 882.297,1326.48 884.097,1326.48 885.898,1326.47 887.699,1326.47 889.5,1326.46 891.301,1326.45 893.102,1326.44 894.902,1326.44 898.504,1326.42 902.106,1326.41 906.712,1326.39 911.319,1326.38 915.925,1326.37 920.532,1326.36 925.139,1326.35 929.745,1326.34 934.352,1326.34 938.958,1326.34 943.565,1326.33 948.172,1326.33 952.778,1326.33 957.385,1326.33 961.991,1326.33 966.598,1326.33 971.204,1326.34 975.811,1326.34 984.22,1326.35 992.629,1326.35 1001.04,1326.36 1009.45,1326.37 1017.86,1326.38 1026.26,1326.39 1028.37,1326.39 1030.47,1326.39 1031.52,1326.39 1032.57,1326.39 1033.62,1326.39 1034.67,1326.4 1036.78,1326.4 1038.88,1326.41 1040.98,1326.41 1043.08,1326.42 1052.65,1326.44 1062.22,1326.47 1071.79,1326.5 1081.36,1326.52 1082.56,1326.53 1083.76,1326.53 1084.95,1326.53 1086.15,1326.54 1087.35,1326.53 1088.54,1326.53 1089.74,1326.53 1090.93,1326.52 1093.33,1326.52 1095.72,1326.51 1098.11,1326.51 1100.5,1326.51 1110.07,1326.5 1119.65,1326.5 1134.82,1326.5 1149.99,1326.5 1165.16,1326.5 1180.34,1326.5 1199.19,1326.5 1218.04,1326.51 1227.47,1326.51 1236.89,1326.51 1241.6,1326.51 1246.32,1326.51 1248.67,1326.51 1251.03,1326.51 1252.21,1326.51 1253.39,1326.51 1254.56,1326.51 1255.74,1326.51 1256.19,1326.51 1256.64,1326.52 1257.1,1326.5 1257.55,1326.49 1258.45,1326.47 1259.35,1326.44 1261.16,1326.4 1262.96,1326.35 1264.76,1326.31 1266.57,1326.27 1268.37,1326.23 1270.18,1326.2 1271.98,1326.16 1273.79,1326.13 1275.59,1326.1 1277.4,1326.07 1279.2,1326.04 1281.01,1326.01 1282.81,1325.99 1284.62,1325.96 1286.42,1325.94 1288.22,1325.92 1290.03,1325.9 1291.83,1325.88 1293.64,1325.86 1295.44,1325.84 1297.25,1325.83 1299.05,1325.82 1300.86,1325.8 1302.66,1325.79 1304.47,1325.78 1306.27,1325.77 1308.07,1325.76 1309.88,1325.75 1311.68,1325.74 1313.49,1325.74 1316.03,1325.73 1318.58,1325.72 1321.12,1325.71 1323.67,1325.71 1326.21,1325.71 1328.75,1325.71 1331.3,1325.7 1333.84,1325.7 1336.39,1325.71 1338.93,1325.71 1341.47,1325.71 1344.02,1325.71 1346.56,1325.72 1349.11,1325.72 1351.65,1325.73 1354.2,1325.74 1359.28,1325.75 1364.37,1325.77 1369.46,1325.78 1374.55,1325.8 1379.64,1325.82 1384.73,1325.84 1389.81,1325.87 1394.9,1325.89 1402.51,1325.92 1410.11,1325.96 1417.72,1325.99 1425.32,1326.03 1427.22,1326.03 1429.13,1326.04 1430.08,1326.05 1431.03,1326.05 1431.98,1326.06 1432.93,1326.07 1434.83,1326.08 1436.73,1326.1 1438.63,1326.11 1440.53,1326.13 1444.34,1326.15 1448.14,1326.18 1451.94,1326.2 1455.74,1326.22 1460.07,1326.24 1464.39,1326.26 1468.72,1326.28 1473.04,1326.3 1477.36,1326.31 1481.69,1326.33 1486.01,1326.34 1490.34,1326.35 1494.66,1326.36 1498.99,1326.36 1503.31,1326.37 1507.63,1326.37 1511.96,1326.38 1516.28,1326.38 1520.61,1326.38 1524.93,1326.37 1542.06,1326.37 1559.19,1326.37 1567.76,1326.37 1576.32,1326.37 1584.89,1326.37 1593.45,1326.37 1602.88,1326.37 1612.3,1326.38 1614.65,1326.38 1617.01,1326.38 1618.19,1326.38 1619.37,1326.38 1620.54,1326.38 1621.72,1326.38 1626.43,1326.36 1631.14,1326.35 1635.86,1326.34 1640.57,1326.33 1645.28,1326.32 1649.99,1326.32 1654.7,1326.31 1659.41,1326.31 1664.13,1326.31 1668.84,1326.31 1676.03,1326.31 1683.23,1326.31 1690.43,1326.31 1697.63,1326.32 1704.83,1326.32 1712.02,1326.33 1719.22,1326.34 1726.42,1326.35 1728.69,1326.35 1730.96,1326.35 1733.23,1326.35 1735.5,1326.35 1740.04,1326.35 1744.58,1326.35 1753.67,1326.35 1762.75,1326.36 1771.83,1326.36 1780.91,1326.37 1783.19,1326.37 1785.46,1326.37 1787.73,1326.38 1790,1326.38 1792.27,1326.37 1794.54,1326.37 1796.81,1326.37 1799.08,1326.37 1803.28,1326.36 1807.48,1326.36 1811.68,1326.36 1815.88,1326.36 1824.28,1326.36 1832.68,1326.36 1841.08,1326.37 1849.48,1326.37 1857.88,1326.38 1866.29,1326.38 1883.61,1326.4 1900.94,1326.42 1918.27,1326.43 1935.6,1326.45 1953.16,1326.46 1970.72,1326.47 1988.29,1326.48 2005.85,1326.5 2015.02,1326.5 2024.19,1326.51 2033.36,1326.52 2042.53,1326.53 2047.11,1326.53 2051.7,1326.53 2056.28,1326.53 2060.87,1326.53 2065.45,1326.53 2070.04,1326.53 2074.62,1326.53 2079.21,1326.53 2093.66,1326.52 2108.1,1326.52 2122.55,1326.52 2137,1326.52 2202.8,1326.52 2268.6,1326.53 2275.98,1326.53 2283.36,1326.53 "/>
<polyline clip-path="url(#clip772)" style="stroke:#3da44d; stroke-linecap:round; stroke-linejoin:round; stroke-width:4; stroke-opacity:1; fill:none" points="218.754,1326.54 240.068,1326.54 364.905,1326.54 422.979,1326.54 500.82,1326.54 508.86,1326.54 516.9,1326.54 520.92,1326.54 524.94,1326.54 526.95,1326.54 528.96,1326.54 529.462,1326.54 529.965,1325.87 530.467,1325.09 530.97,1324.32 531.975,1322.76 532.98,1321.21 537,1315.01 541.02,1308.81 545.04,1302.62 549.06,1296.44 557.1,1284.11 565.14,1271.85 572.616,1260.54 580.093,1249.33 587.569,1238.25 595.046,1227.32 596.915,1224.62 598.784,1221.92 599.719,1220.58 600.653,1219.24 601.588,1218.7 602.522,1218.73 604.391,1218.79 606.261,1218.86 608.13,1218.92 609.999,1218.99 617.475,1219.29 624.952,1219.61 662.494,1221.16 700.036,1222.23 704.245,1222.18 708.455,1222.01 712.664,1221.7 716.874,1221.19 721.083,1220.45 725.293,1219.44 729.502,1218.16 733.711,1216.65 737.921,1214.91 742.13,1212.99 746.34,1210.89 750.549,1208.61 758.968,1203.72 767.387,1198.63 777.023,1192.76 786.66,1187.22 791.478,1184.68 796.297,1182.24 801.115,1180.29 805.933,1178.49 810.751,1177.14 815.57,1176.24 820.388,1175.73 825.206,1175.56 830.024,1175.69 834.843,1176.05 839.661,1176.62 844.479,1177.36 858.886,1180.26 873.292,1183.74 876.894,1184.64 880.496,1185.54 882.297,1185.99 884.097,1186.44 884.998,1186.66 885.898,1186.95 886.799,1188.32 887.699,1189.68 891.301,1195.18 894.902,1200.7 898.504,1206.25 902.106,1211.83 906.712,1218.98 911.319,1226.15 915.925,1233.33 920.532,1240.51 921.684,1242.31 922.835,1244.11 923.987,1245.9 925.139,1247.7 925.714,1248.6 926.29,1248.93 926.866,1248.14 927.442,1247.36 928.594,1245.78 929.745,1244.21 932.048,1241.06 934.352,1237.91 935.503,1236.33 936.655,1234.76 937.807,1233.18 938.958,1231.61 939.534,1230.82 940.11,1230.04 940.686,1229.4 941.262,1229.46 942.413,1229.57 943.565,1229.68 945.868,1229.89 948.172,1230.09 952.778,1230.45 957.385,1230.77 966.598,1231.32 975.811,1231.75 1009.45,1232.69 1043.08,1233.09 1052.65,1233.15 1062.22,1233.2 1067.01,1233.22 1071.79,1233.24 1076.58,1233.25 1081.36,1233.26 1081.96,1233.27 1082.56,1233.27 1083.16,1234.03 1083.76,1234.96 1084.35,1235.88 1084.95,1236.81 1085.55,1235.94 1086.15,1235.01 1087.35,1233.17 1088.54,1231.33 1089.74,1229.49 1090.93,1227.65 1095.72,1220.33 1100.5,1213.04 1110.07,1198.63 1119.65,1184.51 1127.23,1173.57 1134.82,1162.9 1138.61,1157.68 1142.4,1152.54 1144.3,1150 1146.2,1147.49 1147.15,1146.24 1148.09,1144.99 1149.04,1144.89 1149.99,1144.98 1151.89,1145.17 1153.78,1145.37 1155.68,1145.57 1157.58,1145.78 1161.37,1146.19 1165.16,1146.62 1172.75,1147.49 1180.34,1148.35 1199.19,1150.37 1218.04,1152.1 1236.89,1153.52 1255.74,1154.64 1284.62,1155.86 1313.49,1156.64 1394.9,1157.53 1455.74,1157.77 1464.39,1157.79 1473.04,1157.8 1475.2,1157.81 1477.36,1157.81 1479.53,1157.82 1481.69,1157.82 1482.23,1157.82 1482.77,1157.06 1483.31,1156.23 1483.85,1155.4 1484.93,1153.73 1486.01,1152.07 1488.18,1148.75 1490.34,1145.44 1498.99,1132.31 1507.63,1119.43 1516.28,1106.9 1524.93,1094.81 1527.07,1091.89 1529.21,1089.01 1531.36,1086.16 1533.5,1083.35 1534.03,1082.65 1534.57,1081.96 1535.1,1081.89 1535.64,1081.96 1536.71,1082.09 1537.78,1082.22 1539.92,1082.48 1542.06,1082.76 1550.63,1083.9 1559.19,1085.07 1561.33,1085.36 1563.47,1085.65 1564.54,1085.8 1565.62,1085.94 1566.15,1086.01 1566.69,1085.66 1567.22,1084.95 1567.76,1084.25 1572.04,1078.7 1576.32,1073.27 1578.46,1070.6 1580.6,1067.97 1581.67,1066.66 1582.75,1065.36 1583.28,1064.72 1583.82,1064.08 1584.35,1063.44 1584.89,1062.8 1585.42,1063.6 1585.96,1064.43 1586.49,1065.26 1587.03,1066.08 1588.1,1067.71 1589.17,1069.32 1591.31,1072.48 1593.45,1075.55 1598.16,1082.05 1602.88,1088.28 1607.59,1094.22 1612.3,1099.84 1617.01,1105.23 1621.72,1110.35 1626.43,1115.19 1631.14,1119.78 1635.86,1124.09 1640.57,1127.77 1645.28,1130.71 1649.99,1133.57 1654.7,1136.42 1659.41,1139.25 1664.13,1142.05 1668.84,1144.69 1669.74,1145.16 1670.64,1145.64 1671.09,1145.87 1671.54,1145.97 1671.99,1145.51 1672.44,1145.04 1674.24,1143.12 1676.03,1141.22 1679.63,1137.53 1683.23,1133.98 1686.83,1130.61 1690.43,1127.41 1694.03,1124.41 1697.63,1121.62 1701.23,1119.05 1704.83,1116.7 1708.42,1114.58 1712.02,1112.69 1715.62,1111.03 1719.22,1109.61 1722.82,1108.42 1726.42,1107.47 1730.96,1106.58 1735.5,1106.02 1740.04,1105.75 1744.58,1105.72 1749.12,1105.89 1753.67,1106.21 1755.94,1106.43 1758.21,1106.67 1759.34,1106.81 1760.48,1106.83 1761.61,1105.45 1762.75,1104.09 1765.02,1101.4 1767.29,1098.76 1769.56,1096.17 1771.83,1093.63 1774.1,1091.15 1776.37,1088.72 1778.64,1086.33 1780.91,1084 1781.48,1083.43 1782.05,1082.86 1782.62,1082.29 1783.19,1081.72 1783.75,1082.43 1784.32,1083.3 1784.89,1084.17 1785.46,1085.04 1787.73,1088.54 1790,1092.03 1794.54,1098.85 1799.08,1105.49 1807.48,1117.38 1815.88,1129 1824.28,1140.39 1832.68,1151.73 1834.78,1154.6 1836.88,1157.48 1837.93,1158.93 1838.98,1160.38 1840.03,1161.84 1841.08,1163.23 1842.13,1163.13 1843.18,1163.04 1844.23,1162.95 1845.28,1162.86 1847.38,1162.71 1849.48,1162.58 1857.88,1162.22 1866.29,1162.08 1900.94,1162.85 1935.6,1164.2 1970.72,1165.33 2005.85,1166.08 2010.43,1166.15 2015.02,1166.22 2016.17,1166.24 2017.31,1166.25 2018.46,1166.27 2019.6,1166.29 2020.75,1167.35 2021.9,1169.12 2023.04,1170.89 2024.19,1172.67 2033.36,1186.82 2042.53,1200.85 2051.7,1214.68 2060.87,1228.18 2065.45,1234.76 2070.04,1241.18 2072.33,1244.31 2074.62,1247.39 2075.77,1248.9 2076.92,1249.49 2078.06,1249.57 2079.21,1249.66 2093.66,1250.99 2108.1,1252.58 2122.55,1254.24 2137,1255.82 2153.45,1257.43 2169.9,1258.8 2186.35,1259.91 2202.8,1260.79 2235.7,1261.97 2268.6,1262.6 2272.29,1262.65 2275.98,1262.7 2279.67,1262.74 2283.36,1262.78 "/>
<polyline clip-path="url(#clip772)" style="stroke:#c271d2; stroke-linecap:round; stroke-linejoin:round; stroke-width:4; stroke-opacity:1; fill:none" points="218.754,1326.54 240.068,1326.54 364.905,1326.54 422.979,1326.54 500.82,1326.54 508.86,1326.54 516.9,1326.54 520.92,1326.54 524.94,1326.54 526.95,1326.54 528.96,1326.54 530.97,1324.87 532.98,1323.01 541.02,1315.57 549.06,1308.14 557.1,1300.75 565.14,1293.39 580.093,1279.85 595.046,1266.55 596.915,1264.9 598.784,1263.27 599.719,1262.45 600.653,1261.64 601.588,1261.61 602.522,1262.16 606.261,1264.37 609.999,1266.57 617.475,1271 624.952,1275.44 643.723,1286.53 662.494,1297.3 667.187,1299.87 671.879,1302.36 676.572,1304.74 681.265,1306.96 685.958,1308.96 690.65,1310.66 695.343,1311.95 700.036,1312.73 708.455,1313.75 716.874,1314.74 725.293,1315.69 733.711,1316.59 750.549,1317.63 767.387,1318.54 805.933,1320.69 844.479,1322.57 858.886,1323.16 873.292,1323.69 876.894,1323.81 880.496,1323.93 882.297,1323.99 884.097,1324.04 884.998,1324.07 885.898,1324.1 886.799,1323.74 887.699,1322.85 889.5,1320.5 891.301,1317.91 893.102,1315.23 894.902,1312.53 898.504,1307.08 902.106,1301.61 906.712,1294.6 911.319,1287.6 915.925,1280.62 920.532,1273.66 921.684,1271.92 922.835,1270.19 923.987,1268.46 925.139,1266.73 925.714,1265.86 926.29,1265.59 926.866,1266.47 927.442,1267.34 928.594,1269.09 929.745,1270.85 932.048,1274.36 934.352,1277.88 936.655,1281.41 938.958,1284.94 939.534,1285.82 940.11,1286.7 940.686,1287.43 941.262,1287.43 942.413,1287.44 943.565,1287.45 945.868,1287.46 948.172,1287.47 952.778,1287.5 957.385,1287.52 966.598,1287.56 975.811,1287.6 984.22,1287.62 992.629,1287.63 1001.04,1287.44 1009.45,1286.86 1013.65,1286.38 1017.86,1285.76 1022.06,1285.02 1026.26,1284.15 1034.67,1281.97 1043.08,1279.49 1052.65,1276.74 1062.22,1274.18 1067.01,1273.15 1071.79,1272.33 1074.19,1271.99 1076.58,1271.69 1078.97,1271.44 1081.36,1271.23 1081.96,1271.18 1082.56,1271.14 1083.16,1270.52 1083.76,1269.8 1084.35,1269.07 1084.95,1268.34 1085.55,1268.96 1086.15,1269.62 1087.35,1270.92 1088.54,1272.21 1089.74,1273.49 1090.93,1274.74 1095.72,1279.54 1100.5,1283.89 1102.9,1285.84 1105.29,1287.63 1107.68,1289.2 1110.07,1290.55 1112.47,1291.64 1114.86,1292.45 1117.25,1292.96 1119.65,1293.15 1123.44,1292.91 1127.23,1292.42 1131.03,1291.7 1134.82,1290.77 1138.61,1289.64 1142.4,1288.34 1144.3,1287.63 1146.2,1286.89 1147.15,1286.5 1148.09,1286.11 1149.04,1286.2 1149.99,1286.37 1153.78,1287.03 1157.58,1287.64 1161.37,1288.2 1165.16,1288.7 1172.75,1289.48 1180.34,1290.25 1189.76,1291.51 1199.19,1293.04 1208.61,1294.75 1218.04,1296.58 1236.89,1300.41 1255.74,1304.23 1270.18,1307.01 1284.62,1309.62 1299.05,1312.01 1313.49,1314.17 1333.84,1316.82 1354.2,1319.04 1374.55,1320.85 1394.9,1322.3 1410.11,1323.18 1425.32,1323.91 1440.53,1324.51 1455.74,1325 1464.39,1325.24 1473.04,1325.44 1475.2,1325.49 1477.36,1325.54 1479.53,1325.58 1481.69,1325.63 1482.77,1325.41 1483.85,1324.54 1484.93,1323.62 1486.01,1322.66 1488.18,1320.7 1490.34,1318.73 1507.63,1302.87 1524.93,1287.15 1527.07,1285.22 1529.21,1283.3 1531.36,1281.37 1533.5,1279.46 1534.03,1278.98 1534.57,1278.5 1535.1,1278.69 1535.64,1279.01 1536.71,1279.66 1537.78,1280.3 1539.92,1281.59 1542.06,1282.88 1550.63,1288.01 1559.19,1293.13 1561.33,1294.4 1563.47,1295.67 1564.54,1296.3 1565.62,1296.93 1566.15,1297.25 1566.69,1297.15 1567.22,1296.7 1567.76,1296.25 1569.9,1294.45 1572.04,1292.64 1574.18,1290.38 1576.32,1287.71 1578.46,1285.82 1580.6,1283.92 1581.67,1282.98 1582.75,1282.03 1583.28,1281.56 1583.82,1281.09 1584.35,1280.62 1584.89,1280.15 1585.42,1281.18 1585.96,1282.23 1586.49,1283.28 1587.03,1284.33 1588.1,1286.43 1589.17,1288.51 1591.31,1292.61 1593.45,1296.63 1595.81,1300.88 1598.16,1304.87 1599.34,1306.7 1600.52,1308.39 1601.7,1309.89 1602.88,1311.14 1604.05,1312.08 1605.23,1312.64 1606.41,1312.78 1607.59,1312.65 1608.76,1312.32 1609.94,1311.78 1611.12,1311.08 1612.3,1310.22 1614.65,1308.13 1617.01,1305.68 1619.37,1302.98 1621.72,1300.11 1626.43,1294.04 1631.14,1287.72 1640.57,1274.72 1649.99,1261.58 1654.7,1255.01 1659.41,1248.46 1661.77,1245.2 1664.13,1241.94 1666.48,1238.7 1668.84,1235.47 1669.74,1234.24 1670.64,1233.01 1671.09,1232.39 1671.54,1231.9 1671.99,1231.92 1672.44,1231.95 1674.24,1232.05 1676.03,1232.15 1679.63,1232.36 1683.23,1232.58 1690.43,1233.03 1697.63,1233.48 1712.02,1234.36 1726.42,1235.17 1735.5,1235.64 1744.58,1236.06 1749.12,1236.25 1753.67,1236.43 1755.94,1236.52 1758.21,1236.6 1759.34,1236.65 1760.48,1236.81 1761.61,1238.56 1762.75,1240.31 1767.29,1247.32 1771.83,1254.34 1774.1,1257.86 1776.37,1261.37 1778.64,1264.88 1780.91,1268.39 1781.48,1269.27 1782.05,1270.15 1782.62,1271.02 1783.19,1271.9 1783.75,1271.23 1784.32,1270.35 1784.89,1269.48 1785.46,1268.61 1787.73,1265.11 1790,1261.62 1794.54,1254.67 1799.08,1247.75 1815.88,1222.49 1832.68,1197.94 1834.78,1194.94 1836.88,1191.95 1837.93,1190.46 1838.98,1188.98 1840.03,1187.5 1841.08,1186.1 1842.13,1186.16 1843.18,1186.22 1844.23,1186.28 1845.28,1186.34 1847.38,1186.46 1849.48,1186.58 1857.88,1187.1 1866.29,1187.62 1900.94,1189.54 1935.6,1190.9 1970.72,1191.75 2005.85,1192.23 2010.43,1192.27 2015.02,1192.32 2016.17,1192.32 2017.31,1192.33 2018.46,1192.34 2019.6,1192.35 2020.18,1192.19 2020.75,1191.31 2021.32,1190.44 2021.9,1189.56 2023.04,1187.81 2024.19,1186.07 2033.36,1172.22 2042.53,1158.64 2051.7,1145.4 2060.87,1132.59 2065.45,1126.37 2070.04,1120.28 2072.33,1117.29 2074.62,1114.34 2075.2,1113.61 2075.77,1112.88 2076.34,1112.38 2076.92,1112.45 2078.06,1112.6 2079.21,1112.75 2093.66,1114.74 2108.1,1116.56 2122.55,1118.38 2137,1120.09 2153.45,1121.81 2169.9,1123.26 2186.35,1124.45 2202.8,1125.4 2235.7,1126.76 2268.6,1127.57 2272.29,1127.64 2275.98,1127.71 2279.67,1127.77 2283.36,1127.82 "/>
</svg>
