<?xml version="1.0" encoding="utf-8"?>
<svg xmlns="http://www.w3.org/2000/svg" xmlns:xlink="http://www.w3.org/1999/xlink" width="600" height="400" viewBox="0 0 2400 1600">
<defs>
  <clipPath id="clip360">
    <rect x="0" y="0" width="2400" height="1600"/>
  </clipPath>
</defs>
<path clip-path="url(#clip360)" d="M0 1600 L2400 1600 L2400 0 L0 0  Z" fill="#ffffff" fill-rule="evenodd" fill-opacity="1"/>
<defs>
  <clipPath id="clip361">
    <rect x="480" y="0" width="1681" height="1600"/>
  </clipPath>
</defs>
<path clip-path="url(#clip360)" d="M606.441 1486.45 L1969.42 1486.45 L1969.42 123.472 L606.441 123.472  Z" fill="#ffffff" fill-rule="evenodd" fill-opacity="1"/>
<defs>
  <clipPath id="clip362">
    <rect x="606" y="123" width="1364" height="1364"/>
  </clipPath>
</defs>
<polyline clip-path="url(#clip362)" style="stroke:#000000; stroke-linecap:round; stroke-linejoin:round; stroke-width:2; stroke-opacity:0.1; fill:none" points="720.023,1486.45 720.023,123.472 "/>
<polyline clip-path="url(#clip362)" style="stroke:#000000; stroke-linecap:round; stroke-linejoin:round; stroke-width:2; stroke-opacity:0.1; fill:none" points="909.325,1486.45 909.325,123.472 "/>
<polyline clip-path="url(#clip362)" style="stroke:#000000; stroke-linecap:round; stroke-linejoin:round; stroke-width:2; stroke-opacity:0.1; fill:none" points="1098.63,1486.45 1098.63,123.472 "/>
<polyline clip-path="url(#clip362)" style="stroke:#000000; stroke-linecap:round; stroke-linejoin:round; stroke-width:2; stroke-opacity:0.1; fill:none" points="1287.93,1486.45 1287.93,123.472 "/>
<polyline clip-path="url(#clip362)" style="stroke:#000000; stroke-linecap:round; stroke-linejoin:round; stroke-width:2; stroke-opacity:0.1; fill:none" points="1477.23,1486.45 1477.23,123.472 "/>
<polyline clip-path="url(#clip362)" style="stroke:#000000; stroke-linecap:round; stroke-linejoin:round; stroke-width:2; stroke-opacity:0.1; fill:none" points="1666.53,1486.45 1666.53,123.472 "/>
<polyline clip-path="url(#clip362)" style="stroke:#000000; stroke-linecap:round; stroke-linejoin:round; stroke-width:2; stroke-opacity:0.1; fill:none" points="1855.84,1486.45 1855.84,123.472 "/>
<polyline clip-path="url(#clip362)" style="stroke:#000000; stroke-linecap:round; stroke-linejoin:round; stroke-width:2; stroke-opacity:0.1; fill:none" points="606.441,1372.87 1969.42,1372.87 "/>
<polyline clip-path="url(#clip362)" style="stroke:#000000; stroke-linecap:round; stroke-linejoin:round; stroke-width:2; stroke-opacity:0.1; fill:none" points="606.441,1183.56 1969.42,1183.56 "/>
<polyline clip-path="url(#clip362)" style="stroke:#000000; stroke-linecap:round; stroke-linejoin:round; stroke-width:2; stroke-opacity:0.1; fill:none" points="606.441,994.262 1969.42,994.262 "/>
<polyline clip-path="url(#clip362)" style="stroke:#000000; stroke-linecap:round; stroke-linejoin:round; stroke-width:2; stroke-opacity:0.1; fill:none" points="606.441,804.96 1969.42,804.96 "/>
<polyline clip-path="url(#clip362)" style="stroke:#000000; stroke-linecap:round; stroke-linejoin:round; stroke-width:2; stroke-opacity:0.1; fill:none" points="606.441,615.658 1969.42,615.658 "/>
<polyline clip-path="url(#clip362)" style="stroke:#000000; stroke-linecap:round; stroke-linejoin:round; stroke-width:2; stroke-opacity:0.1; fill:none" points="606.441,426.356 1969.42,426.356 "/>
<polyline clip-path="url(#clip362)" style="stroke:#000000; stroke-linecap:round; stroke-linejoin:round; stroke-width:2; stroke-opacity:0.1; fill:none" points="606.441,237.053 1969.42,237.053 "/>
<polyline clip-path="url(#clip360)" style="stroke:#000000; stroke-linecap:round; stroke-linejoin:round; stroke-width:4; stroke-opacity:1; fill:none" points="606.441,1486.45 1969.42,1486.45 "/>
<polyline clip-path="url(#clip360)" style="stroke:#000000; stroke-linecap:round; stroke-linejoin:round; stroke-width:4; stroke-opacity:1; fill:none" points="720.023,1486.45 720.023,1467.55 "/>
<polyline clip-path="url(#clip360)" style="stroke:#000000; stroke-linecap:round; stroke-linejoin:round; stroke-width:4; stroke-opacity:1; fill:none" points="909.325,1486.45 909.325,1467.55 "/>
<polyline clip-path="url(#clip360)" style="stroke:#000000; stroke-linecap:round; stroke-linejoin:round; stroke-width:4; stroke-opacity:1; fill:none" points="1098.63,1486.45 1098.63,1467.55 "/>
<polyline clip-path="url(#clip360)" style="stroke:#000000; stroke-linecap:round; stroke-linejoin:round; stroke-width:4; stroke-opacity:1; fill:none" points="1287.93,1486.45 1287.93,1467.55 "/>
<polyline clip-path="url(#clip360)" style="stroke:#000000; stroke-linecap:round; stroke-linejoin:round; stroke-width:4; stroke-opacity:1; fill:none" points="1477.23,1486.45 1477.23,1467.55 "/>
<polyline clip-path="url(#clip360)" style="stroke:#000000; stroke-linecap:round; stroke-linejoin:round; stroke-width:4; stroke-opacity:1; fill:none" points="1666.53,1486.45 1666.53,1467.55 "/>
<polyline clip-path="url(#clip360)" style="stroke:#000000; stroke-linecap:round; stroke-linejoin:round; stroke-width:4; stroke-opacity:1; fill:none" points="1855.84,1486.45 1855.84,1467.55 "/>
<path clip-path="url(#clip360)" d="M651.967 1532.02 L681.643 1532.02 L681.643 1535.95 L651.967 1535.95 L651.967 1532.02 Z" fill="#000000" fill-rule="nonzero" fill-opacity="1" /><path clip-path="url(#clip360)" d="M701.736 1517.37 Q698.125 1517.37 696.296 1520.93 Q694.49 1524.47 694.49 1531.6 Q694.49 1538.71 696.296 1542.27 Q698.125 1545.82 701.736 1545.82 Q705.37 1545.82 707.175 1542.27 Q709.004 1538.71 709.004 1531.6 Q709.004 1524.47 707.175 1520.93 Q705.37 1517.37 701.736 1517.37 M701.736 1513.66 Q707.546 1513.66 710.601 1518.27 Q713.68 1522.85 713.68 1531.6 Q713.68 1540.33 710.601 1544.94 Q707.546 1549.52 701.736 1549.52 Q695.926 1549.52 692.847 1544.94 Q689.791 1540.33 689.791 1531.6 Q689.791 1522.85 692.847 1518.27 Q695.926 1513.66 701.736 1513.66 Z" fill="#000000" fill-rule="nonzero" fill-opacity="1" /><path clip-path="url(#clip360)" d="M721.898 1542.97 L726.782 1542.97 L726.782 1548.85 L721.898 1548.85 L721.898 1542.97 Z" fill="#000000" fill-rule="nonzero" fill-opacity="1" /><path clip-path="url(#clip360)" d="M740.995 1544.91 L757.314 1544.91 L757.314 1548.85 L735.37 1548.85 L735.37 1544.91 Q738.032 1542.16 742.615 1537.53 Q747.222 1532.88 748.402 1531.53 Q750.647 1529.01 751.527 1527.27 Q752.43 1525.51 752.43 1523.82 Q752.43 1521.07 750.485 1519.33 Q748.564 1517.6 745.462 1517.6 Q743.263 1517.6 740.81 1518.36 Q738.379 1519.13 735.601 1520.68 L735.601 1515.95 Q738.425 1514.82 740.879 1514.24 Q743.333 1513.66 745.37 1513.66 Q750.74 1513.66 753.935 1516.35 Q757.129 1519.03 757.129 1523.52 Q757.129 1525.65 756.319 1527.57 Q755.532 1529.47 753.425 1532.07 Q752.847 1532.74 749.745 1535.95 Q746.643 1539.15 740.995 1544.91 Z" fill="#000000" fill-rule="nonzero" fill-opacity="1" /><path clip-path="url(#clip360)" d="M767.175 1514.29 L785.532 1514.29 L785.532 1518.22 L771.458 1518.22 L771.458 1526.7 Q772.476 1526.35 773.495 1526.19 Q774.513 1526 775.532 1526 Q781.319 1526 784.698 1529.17 Q788.078 1532.34 788.078 1537.76 Q788.078 1543.34 784.606 1546.44 Q781.133 1549.52 774.814 1549.52 Q772.638 1549.52 770.37 1549.15 Q768.124 1548.78 765.717 1548.04 L765.717 1543.34 Q767.8 1544.47 770.022 1545.03 Q772.245 1545.58 774.721 1545.58 Q778.726 1545.58 781.064 1543.48 Q783.402 1541.37 783.402 1537.76 Q783.402 1534.15 781.064 1532.04 Q778.726 1529.94 774.721 1529.94 Q772.846 1529.94 770.971 1530.35 Q769.12 1530.77 767.175 1531.65 L767.175 1514.29 Z" fill="#000000" fill-rule="nonzero" fill-opacity="1" /><path clip-path="url(#clip360)" d="M871.628 1517.37 Q868.017 1517.37 866.188 1520.93 Q864.383 1524.47 864.383 1531.6 Q864.383 1538.71 866.188 1542.27 Q868.017 1545.82 871.628 1545.82 Q875.263 1545.82 877.068 1542.27 Q878.897 1538.71 878.897 1531.6 Q878.897 1524.47 877.068 1520.93 Q875.263 1517.37 871.628 1517.37 M871.628 1513.66 Q877.438 1513.66 880.494 1518.27 Q883.573 1522.85 883.573 1531.6 Q883.573 1540.33 880.494 1544.94 Q877.438 1549.52 871.628 1549.52 Q865.818 1549.52 862.739 1544.94 Q859.684 1540.33 859.684 1531.6 Q859.684 1522.85 862.739 1518.27 Q865.818 1513.66 871.628 1513.66 Z" fill="#000000" fill-rule="nonzero" fill-opacity="1" /><path clip-path="url(#clip360)" d="M891.79 1542.97 L896.674 1542.97 L896.674 1548.85 L891.79 1548.85 L891.79 1542.97 Z" fill="#000000" fill-rule="nonzero" fill-opacity="1" /><path clip-path="url(#clip360)" d="M916.86 1517.37 Q913.248 1517.37 911.42 1520.93 Q909.614 1524.47 909.614 1531.6 Q909.614 1538.71 911.42 1542.27 Q913.248 1545.82 916.86 1545.82 Q920.494 1545.82 922.299 1542.27 Q924.128 1538.71 924.128 1531.6 Q924.128 1524.47 922.299 1520.93 Q920.494 1517.37 916.86 1517.37 M916.86 1513.66 Q922.67 1513.66 925.725 1518.27 Q928.804 1522.85 928.804 1531.6 Q928.804 1540.33 925.725 1544.94 Q922.67 1549.52 916.86 1549.52 Q911.049 1549.52 907.971 1544.94 Q904.915 1540.33 904.915 1531.6 Q904.915 1522.85 907.971 1518.27 Q911.049 1513.66 916.86 1513.66 Z" fill="#000000" fill-rule="nonzero" fill-opacity="1" /><path clip-path="url(#clip360)" d="M947.021 1517.37 Q943.41 1517.37 941.582 1520.93 Q939.776 1524.47 939.776 1531.6 Q939.776 1538.71 941.582 1542.27 Q943.41 1545.82 947.021 1545.82 Q950.656 1545.82 952.461 1542.27 Q954.29 1538.71 954.29 1531.6 Q954.29 1524.47 952.461 1520.93 Q950.656 1517.37 947.021 1517.37 M947.021 1513.66 Q952.832 1513.66 955.887 1518.27 Q958.966 1522.85 958.966 1531.6 Q958.966 1540.33 955.887 1544.94 Q952.832 1549.52 947.021 1549.52 Q941.211 1549.52 938.133 1544.94 Q935.077 1540.33 935.077 1531.6 Q935.077 1522.85 938.133 1518.27 Q941.211 1513.66 947.021 1513.66 Z" fill="#000000" fill-rule="nonzero" fill-opacity="1" /><path clip-path="url(#clip360)" d="M1061.43 1517.37 Q1057.82 1517.37 1055.99 1520.93 Q1054.18 1524.47 1054.18 1531.6 Q1054.18 1538.71 1055.99 1542.27 Q1057.82 1545.82 1061.43 1545.82 Q1065.06 1545.82 1066.87 1542.27 Q1068.7 1538.71 1068.7 1531.6 Q1068.7 1524.47 1066.87 1520.93 Q1065.06 1517.37 1061.43 1517.37 M1061.43 1513.66 Q1067.24 1513.66 1070.29 1518.27 Q1073.37 1522.85 1073.37 1531.6 Q1073.37 1540.33 1070.29 1544.94 Q1067.24 1549.52 1061.43 1549.52 Q1055.62 1549.52 1052.54 1544.94 Q1049.48 1540.33 1049.48 1531.6 Q1049.48 1522.85 1052.54 1518.27 Q1055.62 1513.66 1061.43 1513.66 Z" fill="#000000" fill-rule="nonzero" fill-opacity="1" /><path clip-path="url(#clip360)" d="M1081.59 1542.97 L1086.47 1542.97 L1086.47 1548.85 L1081.59 1548.85 L1081.59 1542.97 Z" fill="#000000" fill-rule="nonzero" fill-opacity="1" /><path clip-path="url(#clip360)" d="M1100.69 1544.91 L1117.01 1544.91 L1117.01 1548.85 L1095.06 1548.85 L1095.06 1544.91 Q1097.72 1542.16 1102.31 1537.53 Q1106.91 1532.88 1108.09 1531.53 Q1110.34 1529.01 1111.22 1527.27 Q1112.12 1525.51 1112.12 1523.82 Q1112.12 1521.07 1110.18 1519.33 Q1108.26 1517.6 1105.15 1517.6 Q1102.96 1517.6 1100.5 1518.36 Q1098.07 1519.13 1095.29 1520.68 L1095.29 1515.95 Q1098.12 1514.82 1100.57 1514.24 Q1103.03 1513.66 1105.06 1513.66 Q1110.43 1513.66 1113.63 1516.35 Q1116.82 1519.03 1116.82 1523.52 Q1116.82 1525.65 1116.01 1527.57 Q1115.22 1529.47 1113.12 1532.07 Q1112.54 1532.74 1109.44 1535.95 Q1106.34 1539.15 1100.69 1544.91 Z" fill="#000000" fill-rule="nonzero" fill-opacity="1" /><path clip-path="url(#clip360)" d="M1126.87 1514.29 L1145.22 1514.29 L1145.22 1518.22 L1131.15 1518.22 L1131.15 1526.7 Q1132.17 1526.35 1133.19 1526.19 Q1134.21 1526 1135.22 1526 Q1141.01 1526 1144.39 1529.17 Q1147.77 1532.34 1147.77 1537.76 Q1147.77 1543.34 1144.3 1546.44 Q1140.83 1549.52 1134.51 1549.52 Q1132.33 1549.52 1130.06 1549.15 Q1127.82 1548.78 1125.41 1548.04 L1125.41 1543.34 Q1127.49 1544.47 1129.71 1545.03 Q1131.94 1545.58 1134.41 1545.58 Q1138.42 1545.58 1140.76 1543.48 Q1143.09 1541.37 1143.09 1537.76 Q1143.09 1534.15 1140.76 1532.04 Q1138.42 1529.94 1134.41 1529.94 Q1132.54 1529.94 1130.66 1530.35 Q1128.81 1530.77 1126.87 1531.65 L1126.87 1514.29 Z" fill="#000000" fill-rule="nonzero" fill-opacity="1" /><path clip-path="url(#clip360)" d="M1250.23 1517.37 Q1246.62 1517.37 1244.79 1520.93 Q1242.99 1524.47 1242.99 1531.6 Q1242.99 1538.71 1244.79 1542.27 Q1246.62 1545.82 1250.23 1545.82 Q1253.87 1545.82 1255.67 1542.27 Q1257.5 1538.71 1257.5 1531.6 Q1257.5 1524.47 1255.67 1520.93 Q1253.87 1517.37 1250.23 1517.37 M1250.23 1513.66 Q1256.04 1513.66 1259.1 1518.27 Q1262.18 1522.85 1262.18 1531.6 Q1262.18 1540.33 1259.1 1544.94 Q1256.04 1549.52 1250.23 1549.52 Q1244.42 1549.52 1241.34 1544.94 Q1238.29 1540.33 1238.29 1531.6 Q1238.29 1522.85 1241.34 1518.27 Q1244.42 1513.66 1250.23 1513.66 Z" fill="#000000" fill-rule="nonzero" fill-opacity="1" /><path clip-path="url(#clip360)" d="M1270.39 1542.97 L1275.28 1542.97 L1275.28 1548.85 L1270.39 1548.85 L1270.39 1542.97 Z" fill="#000000" fill-rule="nonzero" fill-opacity="1" /><path clip-path="url(#clip360)" d="M1285.51 1514.29 L1303.87 1514.29 L1303.87 1518.22 L1289.79 1518.22 L1289.79 1526.7 Q1290.81 1526.35 1291.83 1526.19 Q1292.85 1526 1293.87 1526 Q1299.65 1526 1303.03 1529.17 Q1306.41 1532.34 1306.41 1537.76 Q1306.41 1543.34 1302.94 1546.44 Q1299.47 1549.52 1293.15 1549.52 Q1290.97 1549.52 1288.7 1549.15 Q1286.46 1548.78 1284.05 1548.04 L1284.05 1543.34 Q1286.14 1544.47 1288.36 1545.03 Q1290.58 1545.58 1293.06 1545.58 Q1297.06 1545.58 1299.4 1543.48 Q1301.74 1541.37 1301.74 1537.76 Q1301.74 1534.15 1299.4 1532.04 Q1297.06 1529.94 1293.06 1529.94 Q1291.18 1529.94 1289.31 1530.35 Q1287.45 1530.77 1285.51 1531.65 L1285.51 1514.29 Z" fill="#000000" fill-rule="nonzero" fill-opacity="1" /><path clip-path="url(#clip360)" d="M1325.63 1517.37 Q1322.01 1517.37 1320.19 1520.93 Q1318.38 1524.47 1318.38 1531.6 Q1318.38 1538.71 1320.19 1542.27 Q1322.01 1545.82 1325.63 1545.82 Q1329.26 1545.82 1331.07 1542.27 Q1332.89 1538.71 1332.89 1531.6 Q1332.89 1524.47 1331.07 1520.93 Q1329.26 1517.37 1325.63 1517.37 M1325.63 1513.66 Q1331.44 1513.66 1334.49 1518.27 Q1337.57 1522.85 1337.57 1531.6 Q1337.57 1540.33 1334.49 1544.94 Q1331.44 1549.52 1325.63 1549.52 Q1319.82 1549.52 1316.74 1544.94 Q1313.68 1540.33 1313.68 1531.6 Q1313.68 1522.85 1316.74 1518.27 Q1319.82 1513.66 1325.63 1513.66 Z" fill="#000000" fill-rule="nonzero" fill-opacity="1" /><path clip-path="url(#clip360)" d="M1440.03 1517.37 Q1436.42 1517.37 1434.59 1520.93 Q1432.79 1524.47 1432.79 1531.6 Q1432.79 1538.71 1434.59 1542.27 Q1436.42 1545.82 1440.03 1545.82 Q1443.67 1545.82 1445.47 1542.27 Q1447.3 1538.71 1447.3 1531.6 Q1447.3 1524.47 1445.47 1520.93 Q1443.67 1517.37 1440.03 1517.37 M1440.03 1513.66 Q1445.84 1513.66 1448.9 1518.27 Q1451.98 1522.85 1451.98 1531.6 Q1451.98 1540.33 1448.9 1544.94 Q1445.84 1549.52 1440.03 1549.52 Q1434.22 1549.52 1431.14 1544.94 Q1428.09 1540.33 1428.09 1531.6 Q1428.09 1522.85 1431.14 1518.27 Q1434.22 1513.66 1440.03 1513.66 Z" fill="#000000" fill-rule="nonzero" fill-opacity="1" /><path clip-path="url(#clip360)" d="M1460.19 1542.97 L1465.08 1542.97 L1465.08 1548.85 L1460.19 1548.85 L1460.19 1542.97 Z" fill="#000000" fill-rule="nonzero" fill-opacity="1" /><path clip-path="url(#clip360)" d="M1474.08 1514.29 L1496.31 1514.29 L1496.31 1516.28 L1483.76 1548.85 L1478.87 1548.85 L1490.68 1518.22 L1474.08 1518.22 L1474.08 1514.29 Z" fill="#000000" fill-rule="nonzero" fill-opacity="1" /><path clip-path="url(#clip360)" d="M1505.47 1514.29 L1523.83 1514.29 L1523.83 1518.22 L1509.75 1518.22 L1509.75 1526.7 Q1510.77 1526.35 1511.79 1526.19 Q1512.81 1526 1513.83 1526 Q1519.62 1526 1523 1529.17 Q1526.37 1532.34 1526.37 1537.76 Q1526.37 1543.34 1522.9 1546.44 Q1519.43 1549.52 1513.11 1549.52 Q1510.93 1549.52 1508.67 1549.15 Q1506.42 1548.78 1504.01 1548.04 L1504.01 1543.34 Q1506.1 1544.47 1508.32 1545.03 Q1510.54 1545.58 1513.02 1545.58 Q1517.02 1545.58 1519.36 1543.48 Q1521.7 1541.37 1521.7 1537.76 Q1521.7 1534.15 1519.36 1532.04 Q1517.02 1529.94 1513.02 1529.94 Q1511.14 1529.94 1509.27 1530.35 Q1507.42 1530.77 1505.47 1531.65 L1505.47 1514.29 Z" fill="#000000" fill-rule="nonzero" fill-opacity="1" /><path clip-path="url(#clip360)" d="M1618.61 1544.91 L1626.24 1544.91 L1626.24 1518.55 L1617.93 1520.21 L1617.93 1515.95 L1626.2 1514.29 L1630.87 1514.29 L1630.87 1544.91 L1638.51 1544.91 L1638.51 1548.85 L1618.61 1548.85 L1618.61 1544.91 Z" fill="#000000" fill-rule="nonzero" fill-opacity="1" /><path clip-path="url(#clip360)" d="M1647.96 1542.97 L1652.84 1542.97 L1652.84 1548.85 L1647.96 1548.85 L1647.96 1542.97 Z" fill="#000000" fill-rule="nonzero" fill-opacity="1" /><path clip-path="url(#clip360)" d="M1673.03 1517.37 Q1669.42 1517.37 1667.59 1520.93 Q1665.78 1524.47 1665.78 1531.6 Q1665.78 1538.71 1667.59 1542.27 Q1669.42 1545.82 1673.03 1545.82 Q1676.66 1545.82 1678.47 1542.27 Q1680.3 1538.71 1680.3 1531.6 Q1680.3 1524.47 1678.47 1520.93 Q1676.66 1517.37 1673.03 1517.37 M1673.03 1513.66 Q1678.84 1513.66 1681.89 1518.27 Q1684.97 1522.85 1684.97 1531.6 Q1684.97 1540.33 1681.89 1544.94 Q1678.84 1549.52 1673.03 1549.52 Q1667.22 1549.52 1664.14 1544.94 Q1661.08 1540.33 1661.08 1531.6 Q1661.08 1522.85 1664.14 1518.27 Q1667.22 1513.66 1673.03 1513.66 Z" fill="#000000" fill-rule="nonzero" fill-opacity="1" /><path clip-path="url(#clip360)" d="M1703.19 1517.37 Q1699.58 1517.37 1697.75 1520.93 Q1695.94 1524.47 1695.94 1531.6 Q1695.94 1538.71 1697.75 1542.27 Q1699.58 1545.82 1703.19 1545.82 Q1706.82 1545.82 1708.63 1542.27 Q1710.46 1538.71 1710.46 1531.6 Q1710.46 1524.47 1708.63 1520.93 Q1706.82 1517.37 1703.19 1517.37 M1703.19 1513.66 Q1709 1513.66 1712.05 1518.27 Q1715.13 1522.85 1715.13 1531.6 Q1715.13 1540.33 1712.05 1544.94 Q1709 1549.52 1703.19 1549.52 Q1697.38 1549.52 1694.3 1544.94 Q1691.24 1540.33 1691.24 1531.6 Q1691.24 1522.85 1694.3 1518.27 Q1697.38 1513.66 1703.19 1513.66 Z" fill="#000000" fill-rule="nonzero" fill-opacity="1" /><path clip-path="url(#clip360)" d="M1808.41 1544.91 L1816.04 1544.91 L1816.04 1518.55 L1807.73 1520.21 L1807.73 1515.95 L1816 1514.29 L1820.67 1514.29 L1820.67 1544.91 L1828.31 1544.91 L1828.31 1548.85 L1808.41 1548.85 L1808.41 1544.91 Z" fill="#000000" fill-rule="nonzero" fill-opacity="1" /><path clip-path="url(#clip360)" d="M1837.76 1542.97 L1842.64 1542.97 L1842.64 1548.85 L1837.76 1548.85 L1837.76 1542.97 Z" fill="#000000" fill-rule="nonzero" fill-opacity="1" /><path clip-path="url(#clip360)" d="M1856.85 1544.91 L1873.17 1544.91 L1873.17 1548.85 L1851.23 1548.85 L1851.23 1544.91 Q1853.89 1542.16 1858.47 1537.53 Q1863.08 1532.88 1864.26 1531.53 Q1866.51 1529.01 1867.39 1527.27 Q1868.29 1525.51 1868.29 1523.82 Q1868.29 1521.07 1866.34 1519.33 Q1864.42 1517.6 1861.32 1517.6 Q1859.12 1517.6 1856.67 1518.36 Q1854.24 1519.13 1851.46 1520.68 L1851.46 1515.95 Q1854.28 1514.82 1856.74 1514.24 Q1859.19 1513.66 1861.23 1513.66 Q1866.6 1513.66 1869.79 1516.35 Q1872.99 1519.03 1872.99 1523.52 Q1872.99 1525.65 1872.18 1527.57 Q1871.39 1529.47 1869.28 1532.07 Q1868.71 1532.74 1865.6 1535.95 Q1862.5 1539.15 1856.85 1544.91 Z" fill="#000000" fill-rule="nonzero" fill-opacity="1" /><path clip-path="url(#clip360)" d="M1883.03 1514.29 L1901.39 1514.29 L1901.39 1518.22 L1887.32 1518.22 L1887.32 1526.7 Q1888.34 1526.35 1889.35 1526.19 Q1890.37 1526 1891.39 1526 Q1897.18 1526 1900.56 1529.17 Q1903.94 1532.34 1903.94 1537.76 Q1903.94 1543.34 1900.47 1546.44 Q1896.99 1549.52 1890.67 1549.52 Q1888.5 1549.52 1886.23 1549.15 Q1883.98 1548.78 1881.58 1548.04 L1881.58 1543.34 Q1883.66 1544.47 1885.88 1545.03 Q1888.1 1545.58 1890.58 1545.58 Q1894.59 1545.58 1896.92 1543.48 Q1899.26 1541.37 1899.26 1537.76 Q1899.26 1534.15 1896.92 1532.04 Q1894.59 1529.94 1890.58 1529.94 Q1888.71 1529.94 1886.83 1530.35 Q1884.98 1530.77 1883.03 1531.65 L1883.03 1514.29 Z" fill="#000000" fill-rule="nonzero" fill-opacity="1" /><polyline clip-path="url(#clip360)" style="stroke:#000000; stroke-linecap:round; stroke-linejoin:round; stroke-width:4; stroke-opacity:1; fill:none" points="606.441,1486.45 606.441,123.472 "/>
<polyline clip-path="url(#clip360)" style="stroke:#000000; stroke-linecap:round; stroke-linejoin:round; stroke-width:4; stroke-opacity:1; fill:none" points="606.441,1372.87 618.536,1372.87 "/>
<polyline clip-path="url(#clip360)" style="stroke:#000000; stroke-linecap:round; stroke-linejoin:round; stroke-width:4; stroke-opacity:1; fill:none" points="606.441,1183.56 618.536,1183.56 "/>
<polyline clip-path="url(#clip360)" style="stroke:#000000; stroke-linecap:round; stroke-linejoin:round; stroke-width:4; stroke-opacity:1; fill:none" points="606.441,994.262 618.536,994.262 "/>
<polyline clip-path="url(#clip360)" style="stroke:#000000; stroke-linecap:round; stroke-linejoin:round; stroke-width:4; stroke-opacity:1; fill:none" points="606.441,804.96 618.536,804.96 "/>
<polyline clip-path="url(#clip360)" style="stroke:#000000; stroke-linecap:round; stroke-linejoin:round; stroke-width:4; stroke-opacity:1; fill:none" points="606.441,615.658 618.536,615.658 "/>
<polyline clip-path="url(#clip360)" style="stroke:#000000; stroke-linecap:round; stroke-linejoin:round; stroke-width:4; stroke-opacity:1; fill:none" points="606.441,426.356 618.536,426.356 "/>
<polyline clip-path="url(#clip360)" style="stroke:#000000; stroke-linecap:round; stroke-linejoin:round; stroke-width:4; stroke-opacity:1; fill:none" points="606.441,237.053 618.536,237.053 "/>
<path clip-path="url(#clip360)" d="M434.331 1373.32 L464.007 1373.32 L464.007 1377.25 L434.331 1377.25 L434.331 1373.32 Z" fill="#000000" fill-rule="nonzero" fill-opacity="1" /><path clip-path="url(#clip360)" d="M484.099 1358.67 Q480.488 1358.67 478.659 1362.23 Q476.854 1365.77 476.854 1372.9 Q476.854 1380.01 478.659 1383.57 Q480.488 1387.11 484.099 1387.11 Q487.733 1387.11 489.539 1383.57 Q491.368 1380.01 491.368 1372.9 Q491.368 1365.77 489.539 1362.23 Q487.733 1358.67 484.099 1358.67 M484.099 1354.96 Q489.909 1354.96 492.965 1359.57 Q496.044 1364.15 496.044 1372.9 Q496.044 1381.63 492.965 1386.23 Q489.909 1390.82 484.099 1390.82 Q478.289 1390.82 475.21 1386.23 Q472.155 1381.63 472.155 1372.9 Q472.155 1364.15 475.21 1359.57 Q478.289 1354.96 484.099 1354.96 Z" fill="#000000" fill-rule="nonzero" fill-opacity="1" /><path clip-path="url(#clip360)" d="M504.261 1384.27 L509.145 1384.27 L509.145 1390.15 L504.261 1390.15 L504.261 1384.27 Z" fill="#000000" fill-rule="nonzero" fill-opacity="1" /><path clip-path="url(#clip360)" d="M523.358 1386.21 L539.678 1386.21 L539.678 1390.15 L517.733 1390.15 L517.733 1386.21 Q520.395 1383.46 524.979 1378.83 Q529.585 1374.17 530.766 1372.83 Q533.011 1370.31 533.891 1368.57 Q534.793 1366.81 534.793 1365.12 Q534.793 1362.37 532.849 1360.63 Q530.928 1358.9 527.826 1358.9 Q525.627 1358.9 523.173 1359.66 Q520.743 1360.42 517.965 1361.98 L517.965 1357.25 Q520.789 1356.12 523.243 1355.54 Q525.696 1354.96 527.733 1354.96 Q533.104 1354.96 536.298 1357.65 Q539.492 1360.33 539.492 1364.82 Q539.492 1366.95 538.682 1368.87 Q537.895 1370.77 535.789 1373.36 Q535.21 1374.04 532.108 1377.25 Q529.006 1380.45 523.358 1386.21 Z" fill="#000000" fill-rule="nonzero" fill-opacity="1" /><path clip-path="url(#clip360)" d="M549.539 1355.59 L567.895 1355.59 L567.895 1359.52 L553.821 1359.52 L553.821 1367.99 Q554.84 1367.65 555.858 1367.48 Q556.877 1367.3 557.895 1367.3 Q563.682 1367.3 567.062 1370.47 Q570.441 1373.64 570.441 1379.06 Q570.441 1384.64 566.969 1387.74 Q563.497 1390.82 557.178 1390.82 Q555.002 1390.82 552.733 1390.45 Q550.488 1390.08 548.08 1389.34 L548.08 1384.64 Q550.164 1385.77 552.386 1386.33 Q554.608 1386.88 557.085 1386.88 Q561.09 1386.88 563.427 1384.78 Q565.765 1382.67 565.765 1379.06 Q565.765 1375.45 563.427 1373.34 Q561.09 1371.23 557.085 1371.23 Q555.21 1371.23 553.335 1371.65 Q551.483 1372.07 549.539 1372.95 L549.539 1355.59 Z" fill="#000000" fill-rule="nonzero" fill-opacity="1" /><path clip-path="url(#clip360)" d="M483.104 1169.36 Q479.493 1169.36 477.664 1172.93 Q475.859 1176.47 475.859 1183.6 Q475.859 1190.71 477.664 1194.27 Q479.493 1197.81 483.104 1197.81 Q486.738 1197.81 488.544 1194.27 Q490.372 1190.71 490.372 1183.6 Q490.372 1176.47 488.544 1172.93 Q486.738 1169.36 483.104 1169.36 M483.104 1165.66 Q488.914 1165.66 491.97 1170.27 Q495.048 1174.85 495.048 1183.6 Q495.048 1192.33 491.97 1196.93 Q488.914 1201.52 483.104 1201.52 Q477.294 1201.52 474.215 1196.93 Q471.159 1192.33 471.159 1183.6 Q471.159 1174.85 474.215 1170.27 Q477.294 1165.66 483.104 1165.66 Z" fill="#000000" fill-rule="nonzero" fill-opacity="1" /><path clip-path="url(#clip360)" d="M503.266 1194.96 L508.15 1194.96 L508.15 1200.84 L503.266 1200.84 L503.266 1194.96 Z" fill="#000000" fill-rule="nonzero" fill-opacity="1" /><path clip-path="url(#clip360)" d="M528.335 1169.36 Q524.724 1169.36 522.895 1172.93 Q521.09 1176.47 521.09 1183.6 Q521.09 1190.71 522.895 1194.27 Q524.724 1197.81 528.335 1197.81 Q531.969 1197.81 533.775 1194.27 Q535.604 1190.71 535.604 1183.6 Q535.604 1176.47 533.775 1172.93 Q531.969 1169.36 528.335 1169.36 M528.335 1165.66 Q534.145 1165.66 537.201 1170.27 Q540.279 1174.85 540.279 1183.6 Q540.279 1192.33 537.201 1196.93 Q534.145 1201.52 528.335 1201.52 Q522.525 1201.52 519.446 1196.93 Q516.391 1192.33 516.391 1183.6 Q516.391 1174.85 519.446 1170.27 Q522.525 1165.66 528.335 1165.66 Z" fill="#000000" fill-rule="nonzero" fill-opacity="1" /><path clip-path="url(#clip360)" d="M558.497 1169.36 Q554.886 1169.36 553.057 1172.93 Q551.252 1176.47 551.252 1183.6 Q551.252 1190.71 553.057 1194.27 Q554.886 1197.81 558.497 1197.81 Q562.131 1197.81 563.937 1194.27 Q565.765 1190.71 565.765 1183.6 Q565.765 1176.47 563.937 1172.93 Q562.131 1169.36 558.497 1169.36 M558.497 1165.66 Q564.307 1165.66 567.363 1170.27 Q570.441 1174.85 570.441 1183.6 Q570.441 1192.33 567.363 1196.93 Q564.307 1201.52 558.497 1201.52 Q552.687 1201.52 549.608 1196.93 Q546.553 1192.33 546.553 1183.6 Q546.553 1174.85 549.608 1170.27 Q552.687 1165.66 558.497 1165.66 Z" fill="#000000" fill-rule="nonzero" fill-opacity="1" /><path clip-path="url(#clip360)" d="M484.099 980.061 Q480.488 980.061 478.659 983.626 Q476.854 987.167 476.854 994.297 Q476.854 1001.4 478.659 1004.97 Q480.488 1008.51 484.099 1008.51 Q487.733 1008.51 489.539 1004.97 Q491.368 1001.4 491.368 994.297 Q491.368 987.167 489.539 983.626 Q487.733 980.061 484.099 980.061 M484.099 976.357 Q489.909 976.357 492.965 980.964 Q496.044 985.547 496.044 994.297 Q496.044 1003.02 492.965 1007.63 Q489.909 1012.21 484.099 1012.21 Q478.289 1012.21 475.21 1007.63 Q472.155 1003.02 472.155 994.297 Q472.155 985.547 475.21 980.964 Q478.289 976.357 484.099 976.357 Z" fill="#000000" fill-rule="nonzero" fill-opacity="1" /><path clip-path="url(#clip360)" d="M504.261 1005.66 L509.145 1005.66 L509.145 1011.54 L504.261 1011.54 L504.261 1005.66 Z" fill="#000000" fill-rule="nonzero" fill-opacity="1" /><path clip-path="url(#clip360)" d="M523.358 1007.61 L539.678 1007.61 L539.678 1011.54 L517.733 1011.54 L517.733 1007.61 Q520.395 1004.85 524.979 1000.22 Q529.585 995.57 530.766 994.227 Q533.011 991.704 533.891 989.968 Q534.793 988.209 534.793 986.519 Q534.793 983.765 532.849 982.028 Q530.928 980.292 527.826 980.292 Q525.627 980.292 523.173 981.056 Q520.743 981.82 517.965 983.371 L517.965 978.649 Q520.789 977.515 523.243 976.936 Q525.696 976.357 527.733 976.357 Q533.104 976.357 536.298 979.042 Q539.492 981.728 539.492 986.218 Q539.492 988.348 538.682 990.269 Q537.895 992.167 535.789 994.76 Q535.21 995.431 532.108 998.649 Q529.006 1001.84 523.358 1007.61 Z" fill="#000000" fill-rule="nonzero" fill-opacity="1" /><path clip-path="url(#clip360)" d="M549.539 976.982 L567.895 976.982 L567.895 980.917 L553.821 980.917 L553.821 989.39 Q554.84 989.042 555.858 988.88 Q556.877 988.695 557.895 988.695 Q563.682 988.695 567.062 991.866 Q570.441 995.038 570.441 1000.45 Q570.441 1006.03 566.969 1009.13 Q563.497 1012.21 557.178 1012.21 Q555.002 1012.21 552.733 1011.84 Q550.488 1011.47 548.08 1010.73 L548.08 1006.03 Q550.164 1007.17 552.386 1007.72 Q554.608 1008.28 557.085 1008.28 Q561.09 1008.28 563.427 1006.17 Q565.765 1004.07 565.765 1000.45 Q565.765 996.843 563.427 994.737 Q561.09 992.63 557.085 992.63 Q555.21 992.63 553.335 993.047 Q551.483 993.464 549.539 994.343 L549.539 976.982 Z" fill="#000000" fill-rule="nonzero" fill-opacity="1" /><path clip-path="url(#clip360)" d="M483.104 790.759 Q479.493 790.759 477.664 794.323 Q475.859 797.865 475.859 804.995 Q475.859 812.101 477.664 815.666 Q479.493 819.208 483.104 819.208 Q486.738 819.208 488.544 815.666 Q490.372 812.101 490.372 804.995 Q490.372 797.865 488.544 794.323 Q486.738 790.759 483.104 790.759 M483.104 787.055 Q488.914 787.055 491.97 791.661 Q495.048 796.245 495.048 804.995 Q495.048 813.722 491.97 818.328 Q488.914 822.911 483.104 822.911 Q477.294 822.911 474.215 818.328 Q471.159 813.722 471.159 804.995 Q471.159 796.245 474.215 791.661 Q477.294 787.055 483.104 787.055 Z" fill="#000000" fill-rule="nonzero" fill-opacity="1" /><path clip-path="url(#clip360)" d="M503.266 816.36 L508.15 816.36 L508.15 822.24 L503.266 822.24 L503.266 816.36 Z" fill="#000000" fill-rule="nonzero" fill-opacity="1" /><path clip-path="url(#clip360)" d="M518.381 787.68 L536.738 787.68 L536.738 791.615 L522.664 791.615 L522.664 800.087 Q523.682 799.74 524.701 799.578 Q525.719 799.393 526.738 799.393 Q532.525 799.393 535.904 802.564 Q539.284 805.735 539.284 811.152 Q539.284 816.731 535.812 819.833 Q532.34 822.911 526.02 822.911 Q523.844 822.911 521.576 822.541 Q519.33 822.171 516.923 821.43 L516.923 816.731 Q519.006 817.865 521.229 818.421 Q523.451 818.976 525.928 818.976 Q529.932 818.976 532.27 816.87 Q534.608 814.763 534.608 811.152 Q534.608 807.541 532.27 805.435 Q529.932 803.328 525.928 803.328 Q524.053 803.328 522.178 803.745 Q520.326 804.161 518.381 805.041 L518.381 787.68 Z" fill="#000000" fill-rule="nonzero" fill-opacity="1" /><path clip-path="url(#clip360)" d="M558.497 790.759 Q554.886 790.759 553.057 794.323 Q551.252 797.865 551.252 804.995 Q551.252 812.101 553.057 815.666 Q554.886 819.208 558.497 819.208 Q562.131 819.208 563.937 815.666 Q565.765 812.101 565.765 804.995 Q565.765 797.865 563.937 794.323 Q562.131 790.759 558.497 790.759 M558.497 787.055 Q564.307 787.055 567.363 791.661 Q570.441 796.245 570.441 804.995 Q570.441 813.722 567.363 818.328 Q564.307 822.911 558.497 822.911 Q552.687 822.911 549.608 818.328 Q546.553 813.722 546.553 804.995 Q546.553 796.245 549.608 791.661 Q552.687 787.055 558.497 787.055 Z" fill="#000000" fill-rule="nonzero" fill-opacity="1" /><path clip-path="url(#clip360)" d="M484.099 601.456 Q480.488 601.456 478.659 605.021 Q476.854 608.563 476.854 615.693 Q476.854 622.799 478.659 626.364 Q480.488 629.905 484.099 629.905 Q487.733 629.905 489.539 626.364 Q491.368 622.799 491.368 615.693 Q491.368 608.563 489.539 605.021 Q487.733 601.456 484.099 601.456 M484.099 597.753 Q489.909 597.753 492.965 602.359 Q496.044 606.943 496.044 615.693 Q496.044 624.419 492.965 629.026 Q489.909 633.609 484.099 633.609 Q478.289 633.609 475.21 629.026 Q472.155 624.419 472.155 615.693 Q472.155 606.943 475.21 602.359 Q478.289 597.753 484.099 597.753 Z" fill="#000000" fill-rule="nonzero" fill-opacity="1" /><path clip-path="url(#clip360)" d="M504.261 627.058 L509.145 627.058 L509.145 632.938 L504.261 632.938 L504.261 627.058 Z" fill="#000000" fill-rule="nonzero" fill-opacity="1" /><path clip-path="url(#clip360)" d="M518.15 598.378 L540.372 598.378 L540.372 600.369 L527.826 632.938 L522.942 632.938 L534.747 602.313 L518.15 602.313 L518.15 598.378 Z" fill="#000000" fill-rule="nonzero" fill-opacity="1" /><path clip-path="url(#clip360)" d="M549.539 598.378 L567.895 598.378 L567.895 602.313 L553.821 602.313 L553.821 610.785 Q554.84 610.438 555.858 610.276 Q556.877 610.091 557.895 610.091 Q563.682 610.091 567.062 613.262 Q570.441 616.433 570.441 621.85 Q570.441 627.429 566.969 630.53 Q563.497 633.609 557.178 633.609 Q555.002 633.609 552.733 633.239 Q550.488 632.868 548.08 632.128 L548.08 627.429 Q550.164 628.563 552.386 629.118 Q554.608 629.674 557.085 629.674 Q561.09 629.674 563.427 627.567 Q565.765 625.461 565.765 621.85 Q565.765 618.239 563.427 616.132 Q561.09 614.026 557.085 614.026 Q555.21 614.026 553.335 614.443 Q551.483 614.859 549.539 615.739 L549.539 598.378 Z" fill="#000000" fill-rule="nonzero" fill-opacity="1" /><path clip-path="url(#clip360)" d="M473.914 439.7 L481.553 439.7 L481.553 413.335 L473.243 415.002 L473.243 410.742 L481.507 409.076 L486.183 409.076 L486.183 439.7 L493.821 439.7 L493.821 443.636 L473.914 443.636 L473.914 439.7 Z" fill="#000000" fill-rule="nonzero" fill-opacity="1" /><path clip-path="url(#clip360)" d="M503.266 437.756 L508.15 437.756 L508.15 443.636 L503.266 443.636 L503.266 437.756 Z" fill="#000000" fill-rule="nonzero" fill-opacity="1" /><path clip-path="url(#clip360)" d="M528.335 412.154 Q524.724 412.154 522.895 415.719 Q521.09 419.261 521.09 426.39 Q521.09 433.497 522.895 437.062 Q524.724 440.603 528.335 440.603 Q531.969 440.603 533.775 437.062 Q535.604 433.497 535.604 426.39 Q535.604 419.261 533.775 415.719 Q531.969 412.154 528.335 412.154 M528.335 408.451 Q534.145 408.451 537.201 413.057 Q540.279 417.64 540.279 426.39 Q540.279 435.117 537.201 439.724 Q534.145 444.307 528.335 444.307 Q522.525 444.307 519.446 439.724 Q516.391 435.117 516.391 426.39 Q516.391 417.64 519.446 413.057 Q522.525 408.451 528.335 408.451 Z" fill="#000000" fill-rule="nonzero" fill-opacity="1" /><path clip-path="url(#clip360)" d="M558.497 412.154 Q554.886 412.154 553.057 415.719 Q551.252 419.261 551.252 426.39 Q551.252 433.497 553.057 437.062 Q554.886 440.603 558.497 440.603 Q562.131 440.603 563.937 437.062 Q565.765 433.497 565.765 426.39 Q565.765 419.261 563.937 415.719 Q562.131 412.154 558.497 412.154 M558.497 408.451 Q564.307 408.451 567.363 413.057 Q570.441 417.64 570.441 426.39 Q570.441 435.117 567.363 439.724 Q564.307 444.307 558.497 444.307 Q552.687 444.307 549.608 439.724 Q546.553 435.117 546.553 426.39 Q546.553 417.64 549.608 413.057 Q552.687 408.451 558.497 408.451 Z" fill="#000000" fill-rule="nonzero" fill-opacity="1" /><path clip-path="url(#clip360)" d="M474.909 250.398 L482.548 250.398 L482.548 224.033 L474.238 225.699 L474.238 221.44 L482.502 219.773 L487.178 219.773 L487.178 250.398 L494.817 250.398 L494.817 254.333 L474.909 254.333 L474.909 250.398 Z" fill="#000000" fill-rule="nonzero" fill-opacity="1" /><path clip-path="url(#clip360)" d="M504.261 248.454 L509.145 248.454 L509.145 254.333 L504.261 254.333 L504.261 248.454 Z" fill="#000000" fill-rule="nonzero" fill-opacity="1" /><path clip-path="url(#clip360)" d="M523.358 250.398 L539.678 250.398 L539.678 254.333 L517.733 254.333 L517.733 250.398 Q520.395 247.644 524.979 243.014 Q529.585 238.361 530.766 237.019 Q533.011 234.496 533.891 232.759 Q534.793 231 534.793 229.31 Q534.793 226.556 532.849 224.82 Q530.928 223.084 527.826 223.084 Q525.627 223.084 523.173 223.847 Q520.743 224.611 517.965 226.162 L517.965 221.44 Q520.789 220.306 523.243 219.727 Q525.696 219.148 527.733 219.148 Q533.104 219.148 536.298 221.834 Q539.492 224.519 539.492 229.009 Q539.492 231.139 538.682 233.06 Q537.895 234.959 535.789 237.551 Q535.21 238.222 532.108 241.44 Q529.006 244.634 523.358 250.398 Z" fill="#000000" fill-rule="nonzero" fill-opacity="1" /><path clip-path="url(#clip360)" d="M549.539 219.773 L567.895 219.773 L567.895 223.709 L553.821 223.709 L553.821 232.181 Q554.84 231.834 555.858 231.672 Q556.877 231.486 557.895 231.486 Q563.682 231.486 567.062 234.658 Q570.441 237.829 570.441 243.246 Q570.441 248.824 566.969 251.926 Q563.497 255.005 557.178 255.005 Q555.002 255.005 552.733 254.634 Q550.488 254.264 548.08 253.523 L548.08 248.824 Q550.164 249.958 552.386 250.514 Q554.608 251.07 557.085 251.07 Q561.09 251.07 563.427 248.963 Q565.765 246.857 565.765 243.246 Q565.765 239.634 563.427 237.528 Q561.09 235.422 557.085 235.422 Q555.21 235.422 553.335 235.838 Q551.483 236.255 549.539 237.134 L549.539 219.773 Z" fill="#000000" fill-rule="nonzero" fill-opacity="1" /><path clip-path="url(#clip360)" d="M1130.86 49.9314 Q1130.86 41.7081 1127.45 37.0496 Q1124.09 32.3505 1118.18 32.3505 Q1112.26 32.3505 1108.86 37.0496 Q1105.5 41.7081 1105.5 49.9314 Q1105.5 58.1548 1108.86 62.8538 Q1112.26 67.5124 1118.18 67.5124 Q1124.09 67.5124 1127.45 62.8538 Q1130.86 58.1548 1130.86 49.9314 M1105.5 34.0924 Q1107.85 30.0415 1111.41 28.0971 Q1115.02 26.1121 1120 26.1121 Q1128.26 26.1121 1133.41 32.6746 Q1138.59 39.2371 1138.59 49.9314 Q1138.59 60.6258 1133.41 67.1883 Q1128.26 73.7508 1120 73.7508 Q1115.02 73.7508 1111.41 71.8063 Q1107.85 69.8214 1105.5 65.7705 L1105.5 72.576 L1098 72.576 L1098 9.54393 L1105.5 9.54393 L1105.5 34.0924 Z" fill="#000000" fill-rule="nonzero" fill-opacity="1" /><path clip-path="url(#clip360)" d="M1189.76 48.0275 L1189.76 51.6733 L1155.48 51.6733 Q1155.97 59.3701 1160.1 63.421 Q1164.28 67.4314 1171.69 67.4314 Q1175.98 67.4314 1179.99 66.3781 Q1184.04 65.3249 1188.01 63.2184 L1188.01 70.267 Q1184 71.9684 1179.79 72.8596 Q1175.58 73.7508 1171.24 73.7508 Q1160.39 73.7508 1154.03 67.4314 Q1147.71 61.1119 1147.71 50.3365 Q1147.71 39.1965 1153.7 32.6746 Q1159.74 26.1121 1169.95 26.1121 Q1179.1 26.1121 1184.41 32.0264 Q1189.76 37.9003 1189.76 48.0275 M1182.3 45.84 Q1182.22 39.7232 1178.86 36.0774 Q1175.54 32.4315 1170.03 32.4315 Q1163.79 32.4315 1160.02 35.9558 Q1156.3 39.4801 1155.73 45.8805 L1182.3 45.84 Z" fill="#000000" fill-rule="nonzero" fill-opacity="1" /><path clip-path="url(#clip360)" d="M1230.91 28.5427 L1230.91 35.5912 Q1227.75 33.9709 1224.35 33.1607 Q1220.95 32.3505 1217.3 32.3505 Q1211.75 32.3505 1208.96 34.0519 Q1206.2 35.7533 1206.2 39.156 Q1206.2 41.7486 1208.19 43.2475 Q1210.17 44.7058 1216.17 46.0426 L1218.72 46.6097 Q1226.66 48.3111 1229.98 51.4303 Q1233.34 54.509 1233.34 60.0587 Q1233.34 66.3781 1228.32 70.0644 Q1223.34 73.7508 1214.59 73.7508 Q1210.94 73.7508 1206.97 73.0216 Q1203.04 72.3329 1198.67 70.9151 L1198.67 63.2184 Q1202.8 65.3654 1206.81 66.4591 Q1210.82 67.5124 1214.75 67.5124 Q1220.02 67.5124 1222.85 65.73 Q1225.69 63.9071 1225.69 60.6258 Q1225.69 57.5877 1223.62 55.9673 Q1221.6 54.3469 1214.67 52.8481 L1212.08 52.2405 Q1205.15 50.7821 1202.07 47.7845 Q1198.99 44.7463 1198.99 39.4801 Q1198.99 33.0797 1203.53 29.5959 Q1208.07 26.1121 1216.41 26.1121 Q1220.54 26.1121 1224.19 26.7198 Q1227.83 27.3274 1230.91 28.5427 Z" fill="#000000" fill-rule="nonzero" fill-opacity="1" /><path clip-path="url(#clip360)" d="M1252.59 14.324 L1252.59 27.2059 L1267.94 27.2059 L1267.94 32.9987 L1252.59 32.9987 L1252.59 57.6282 Q1252.59 63.1779 1254.08 64.7578 Q1255.62 66.3376 1260.28 66.3376 L1267.94 66.3376 L1267.94 72.576 L1260.28 72.576 Q1251.65 72.576 1248.37 69.3758 Q1245.09 66.1351 1245.09 57.6282 L1245.09 32.9987 L1239.62 32.9987 L1239.62 27.2059 L1245.09 27.2059 L1245.09 14.324 L1252.59 14.324 Z" fill="#000000" fill-rule="nonzero" fill-opacity="1" /><path clip-path="url(#clip360)" d="M1311.32 65.7705 L1311.32 89.8329 L1303.83 89.8329 L1303.83 27.2059 L1311.32 27.2059 L1311.32 34.0924 Q1313.67 30.0415 1317.24 28.0971 Q1320.84 26.1121 1325.83 26.1121 Q1334.09 26.1121 1339.23 32.6746 Q1344.42 39.2371 1344.42 49.9314 Q1344.42 60.6258 1339.23 67.1883 Q1334.09 73.7508 1325.83 73.7508 Q1320.84 73.7508 1317.24 71.8063 Q1313.67 69.8214 1311.32 65.7705 M1336.68 49.9314 Q1336.68 41.7081 1333.28 37.0496 Q1329.92 32.3505 1324 32.3505 Q1318.09 32.3505 1314.69 37.0496 Q1311.32 41.7081 1311.32 49.9314 Q1311.32 58.1548 1314.69 62.8538 Q1318.09 67.5124 1324 67.5124 Q1329.92 67.5124 1333.28 62.8538 Q1336.68 58.1548 1336.68 49.9314 Z" fill="#000000" fill-rule="nonzero" fill-opacity="1" /><path clip-path="url(#clip360)" d="M1377.39 49.7694 Q1368.36 49.7694 1364.88 51.8354 Q1361.39 53.9013 1361.39 58.8839 Q1361.39 62.8538 1363.98 65.2034 Q1366.62 67.5124 1371.11 67.5124 Q1377.31 67.5124 1381.04 63.1374 Q1384.81 58.7219 1384.81 51.4303 L1384.81 49.7694 L1377.39 49.7694 M1392.26 46.6907 L1392.26 72.576 L1384.81 72.576 L1384.81 65.6895 Q1382.25 69.8214 1378.45 71.8063 Q1374.64 73.7508 1369.13 73.7508 Q1362.16 73.7508 1358.03 69.8619 Q1353.94 65.9325 1353.94 59.3701 Q1353.94 51.7138 1359.04 47.825 Q1364.19 43.9361 1374.36 43.9361 L1384.81 43.9361 L1384.81 43.2069 Q1384.81 38.0623 1381.4 35.2672 Q1378.04 32.4315 1371.92 32.4315 Q1368.04 32.4315 1364.35 33.3632 Q1360.66 34.295 1357.26 36.1584 L1357.26 29.2718 Q1361.35 27.692 1365.2 26.9223 Q1369.05 26.1121 1372.69 26.1121 Q1382.54 26.1121 1387.4 31.2163 Q1392.26 36.3204 1392.26 46.6907 Z" fill="#000000" fill-rule="nonzero" fill-opacity="1" /><path clip-path="url(#clip360)" d="M1414.99 14.324 L1414.99 27.2059 L1430.34 27.2059 L1430.34 32.9987 L1414.99 32.9987 L1414.99 57.6282 Q1414.99 63.1779 1416.48 64.7578 Q1418.02 66.3376 1422.68 66.3376 L1430.34 66.3376 L1430.34 72.576 L1422.68 72.576 Q1414.05 72.576 1410.77 69.3758 Q1407.49 66.1351 1407.49 57.6282 L1407.49 32.9987 L1402.02 32.9987 L1402.02 27.2059 L1407.49 27.2059 L1407.49 14.324 L1414.99 14.324 Z" fill="#000000" fill-rule="nonzero" fill-opacity="1" /><path clip-path="url(#clip360)" d="M1477.86 45.1919 L1477.86 72.576 L1470.4 72.576 L1470.4 45.4349 Q1470.4 38.994 1467.89 35.7938 Q1465.38 32.5936 1460.36 32.5936 Q1454.32 32.5936 1450.84 36.4419 Q1447.35 40.2903 1447.35 46.9338 L1447.35 72.576 L1439.86 72.576 L1439.86 9.54393 L1447.35 9.54393 L1447.35 34.2544 Q1450.03 30.163 1453.63 28.1376 Q1457.28 26.1121 1462.02 26.1121 Q1469.84 26.1121 1473.85 30.9732 Q1477.86 35.7938 1477.86 45.1919 Z" fill="#000000" fill-rule="nonzero" fill-opacity="1" /><polyline clip-path="url(#clip362)" style="stroke:#000000; stroke-linecap:round; stroke-linejoin:round; stroke-width:4; stroke-opacity:1; fill:none" points="909.325,1183.56 1666.53,1183.56 1666.53,426.356 909.325,426.356 909.325,1183.56 "/>
<polyline clip-path="url(#clip362)" style="stroke:#808080; stroke-linecap:round; stroke-linejoin:round; stroke-width:4; stroke-opacity:1; fill:none" points="1268.81,880.681 1268.55,872.288 1267.75,863.929 1266.42,855.638 1264.57,847.448 1262.21,839.391 1259.33,831.5 1255.97,823.808 1252.12,816.345 1247.81,809.14 1243.05,802.224 1237.85,795.624 1232.26,789.366 1226.27,783.475 1219.93,777.977 1213.24,772.891 1206.25,768.24 1198.98,764.042 1191.46,760.313 1183.71,757.069 1175.78,754.323 1167.68,752.085 1159.47,750.365 1151.15,749.17 1142.78,748.505 1134.39,748.372 1126,748.771 1117.66,749.702 1109.39,751.16 1101.23,753.14 1093.21,755.633 1085.36,758.63 1077.73,762.118 1070.32,766.083 1063.19,770.51 1056.35,775.381 1049.83,780.676 1043.66,786.373 1037.87,792.45 1032.47,798.883 1027.49,805.644 1022.95,812.708 1018.87,820.046 1015.26,827.627 1012.14,835.423 1009.52,843.4 1007.41,851.528 1005.82,859.773 1004.76,868.103 1004.23,876.482 1004.23,884.879 1004.76,893.259 1005.82,901.589 1007.41,909.834 1009.52,917.961 1012.14,925.939 1015.26,933.734 1018.87,941.316 1022.95,948.654 1027.49,955.718 1032.47,962.479 1037.87,968.912 1043.66,974.989 1049.83,980.686 1056.35,985.981 1063.19,990.851 1070.32,995.278 1077.73,999.244 1085.36,1002.73 1093.21,1005.73 1101.23,1008.22 1109.39,1010.2 1117.66,1011.66 1126,1012.59 1134.39,1012.99 1142.78,1012.86 1151.15,1012.19 1159.47,1011 1167.68,1009.28 1175.78,1007.04 1183.71,1004.29 1191.46,1001.05 1198.98,997.32 1206.25,993.121 1213.24,988.47 1219.93,983.385 1226.27,977.886 1232.26,971.996 1237.85,965.738 1243.05,959.138 1247.81,952.222 1252.12,945.017 1255.97,937.554 1259.33,929.861 1262.21,921.971 1264.57,913.914 1266.42,905.724 1267.75,897.432 1268.55,889.073 1268.81,880.681 "/>
<polyline clip-path="url(#clip362)" style="stroke:#0000ff; stroke-linecap:round; stroke-linejoin:round; stroke-width:4; stroke-opacity:1; fill:none" points="1060.77,956.402 1212.21,956.402 1212.21,804.96 1060.77,804.96 1060.77,956.402 "/>
<polyline clip-path="url(#clip362)" style="stroke:#0000ff; stroke-linecap:round; stroke-linejoin:round; stroke-width:4; stroke-opacity:1; fill:none" stroke-dasharray="16, 10" points="1268.81,880.681 1268.55,872.288 1267.75,863.929 1266.42,855.638 1264.57,847.448 1262.21,839.391 1259.33,831.5 1255.97,823.808 1252.12,816.345 1247.81,809.14 1243.05,802.224 1237.85,795.624 1232.26,789.366 1226.27,783.475 1219.93,777.977 1213.24,772.891 1206.25,768.24 1198.98,764.042 1191.46,760.313 1183.71,757.069 1175.78,754.323 1167.68,752.085 1159.47,750.365 1151.15,749.17 1142.78,748.505 1134.39,748.372 1126,748.771 1117.66,749.702 1109.39,751.16 1101.23,753.14 1093.21,755.633 1085.36,758.63 1077.73,762.118 1070.32,766.083 1063.19,770.51 1056.35,775.381 1049.83,780.676 1043.66,786.373 1037.87,792.45 1032.47,798.883 1027.49,805.644 1022.95,812.708 1018.87,820.046 1015.26,827.627 1012.14,835.423 1009.52,843.4 1007.41,851.528 1005.82,859.773 1004.76,868.103 1004.23,876.482 1004.23,884.879 1004.76,893.259 1005.82,901.589 1007.41,909.834 1009.52,917.961 1012.14,925.939 1015.26,933.734 1018.87,941.316 1022.95,948.654 1027.49,955.718 1032.47,962.479 1037.87,968.912 1043.66,974.989 1049.83,980.686 1056.35,985.981 1063.19,990.851 1070.32,995.278 1077.73,999.244 1085.36,1002.73 1093.21,1005.73 1101.23,1008.22 1109.39,1010.2 1117.66,1011.66 1126,1012.59 1134.39,1012.99 1142.78,1012.86 1151.15,1012.19 1159.47,1011 1167.68,1009.28 1175.78,1007.04 1183.71,1004.29 1191.46,1001.05 1198.98,997.32 1206.25,993.121 1213.24,988.47 1219.93,983.385 1226.27,977.886 1232.26,971.996 1237.85,965.738 1243.05,959.138 1247.81,952.222 1252.12,945.017 1255.97,937.554 1259.33,929.861 1262.21,921.971 1264.57,913.914 1266.42,905.724 1267.75,897.432 1268.55,889.073 1268.81,880.681 "/>
<polyline clip-path="url(#clip362)" style="stroke:#808080; stroke-linecap:round; stroke-linejoin:round; stroke-width:4; stroke-opacity:1; fill:none" points="1268.81,880.681 1268.55,872.288 1267.75,863.929 1266.42,855.638 1264.57,847.448 1262.21,839.391 1259.33,831.5 1255.97,823.808 1252.12,816.345 1247.81,809.14 1243.05,802.224 1237.85,795.624 1232.26,789.366 1226.27,783.475 1219.93,777.977 1213.24,772.891 1206.25,768.24 1198.98,764.042 1191.46,760.313 1183.71,757.069 1175.78,754.323 1167.68,752.085 1159.47,750.365 1151.15,749.17 1142.78,748.505 1134.39,748.372 1126,748.771 1117.66,749.702 1109.39,751.16 1101.23,753.14 1093.21,755.633 1085.36,758.63 1077.73,762.118 1070.32,766.083 1063.19,770.51 1056.35,775.381 1049.83,780.676 1043.66,786.373 1037.87,792.45 1032.47,798.883 1027.49,805.644 1022.95,812.708 1018.87,820.046 1015.26,827.627 1012.14,835.423 1009.52,843.4 1007.41,851.528 1005.82,859.773 1004.76,868.103 1004.23,876.482 1004.23,884.879 1004.76,893.259 1005.82,901.589 1007.41,909.834 1009.52,917.961 1012.14,925.939 1015.26,933.734 1018.87,941.316 1022.95,948.654 1027.49,955.718 1032.47,962.479 1037.87,968.912 1043.66,974.989 1049.83,980.686 1056.35,985.981 1063.19,990.851 1070.32,995.278 1077.73,999.244 1085.36,1002.73 1093.21,1005.73 1101.23,1008.22 1109.39,1010.2 1117.66,1011.66 1126,1012.59 1134.39,1012.99 1142.78,1012.86 1151.15,1012.19 1159.47,1011 1167.68,1009.28 1175.78,1007.04 1183.71,1004.29 1191.46,1001.05 1198.98,997.32 1206.25,993.121 1213.24,988.47 1219.93,983.385 1226.27,977.886 1232.26,971.996 1237.85,965.738 1243.05,959.138 1247.81,952.222 1252.12,945.017 1255.97,937.554 1259.33,929.861 1262.21,921.971 1264.57,913.914 1266.42,905.724 1267.75,897.432 1268.55,889.073 1268.81,880.681 "/>
<polyline clip-path="url(#clip362)" style="stroke:#0000ff; stroke-linecap:round; stroke-linejoin:round; stroke-width:4; stroke-opacity:1; fill:none" points="1060.77,956.402 1212.21,956.402 1212.21,804.96 1060.77,804.96 1060.77,956.402 "/>
<polyline clip-path="url(#clip362)" style="stroke:#0000ff; stroke-linecap:round; stroke-linejoin:round; stroke-width:4; stroke-opacity:1; fill:none" stroke-dasharray="16, 10" points="1268.81,880.681 1268.55,872.288 1267.75,863.929 1266.42,855.638 1264.57,847.448 1262.21,839.391 1259.33,831.5 1255.97,823.808 1252.12,816.345 1247.81,809.14 1243.05,802.224 1237.85,795.624 1232.26,789.366 1226.27,783.475 1219.93,777.977 1213.24,772.891 1206.25,768.24 1198.98,764.042 1191.46,760.313 1183.71,757.069 1175.78,754.323 1167.68,752.085 1159.47,750.365 1151.15,749.17 1142.78,748.505 1134.39,748.372 1126,748.771 1117.66,749.702 1109.39,751.16 1101.23,753.14 1093.21,755.633 1085.36,758.63 1077.73,762.118 1070.32,766.083 1063.19,770.51 1056.35,775.381 1049.83,780.676 1043.66,786.373 1037.87,792.45 1032.47,798.883 1027.49,805.644 1022.95,812.708 1018.87,820.046 1015.26,827.627 1012.14,835.423 1009.52,843.4 1007.41,851.528 1005.82,859.773 1004.76,868.103 1004.23,876.482 1004.23,884.879 1004.76,893.259 1005.82,901.589 1007.41,909.834 1009.52,917.961 1012.14,925.939 1015.26,933.734 1018.87,941.316 1022.95,948.654 1027.49,955.718 1032.47,962.479 1037.87,968.912 1043.66,974.989 1049.83,980.686 1056.35,985.981 1063.19,990.851 1070.32,995.278 1077.73,999.244 1085.36,1002.73 1093.21,1005.73 1101.23,1008.22 1109.39,1010.2 1117.66,1011.66 1126,1012.59 1134.39,1012.99 1142.78,1012.86 1151.15,1012.19 1159.47,1011 1167.68,1009.28 1175.78,1007.04 1183.71,1004.29 1191.46,1001.05 1198.98,997.32 1206.25,993.121 1213.24,988.47 1219.93,983.385 1226.27,977.886 1232.26,971.996 1237.85,965.738 1243.05,959.138 1247.81,952.222 1252.12,945.017 1255.97,937.554 1259.33,929.861 1262.21,921.971 1264.57,913.914 1266.42,905.724 1267.75,897.432 1268.55,889.073 1268.81,880.681 "/>
<polyline clip-path="url(#clip362)" style="stroke:#808080; stroke-linecap:round; stroke-linejoin:round; stroke-width:4; stroke-opacity:1; fill:none" points="1268.81,880.681 1268.55,872.288 1267.75,863.929 1266.42,855.638 1264.57,847.448 1262.21,839.391 1259.33,831.5 1255.97,823.808 1252.12,816.345 1247.81,809.14 1243.05,802.224 1237.85,795.624 1232.26,789.366 1226.27,783.475 1219.93,777.977 1213.24,772.891 1206.25,768.24 1198.98,764.042 1191.46,760.313 1183.71,757.069 1175.78,754.323 1167.68,752.085 1159.47,750.365 1151.15,749.17 1142.78,748.505 1134.39,748.372 1126,748.771 1117.66,749.702 1109.39,751.16 1101.23,753.14 1093.21,755.633 1085.36,758.63 1077.73,762.118 1070.32,766.083 1063.19,770.51 1056.35,775.381 1049.83,780.676 1043.66,786.373 1037.87,792.45 1032.47,798.883 1027.49,805.644 1022.95,812.708 1018.87,820.046 1015.26,827.627 1012.14,835.423 1009.52,843.4 1007.41,851.528 1005.82,859.773 1004.76,868.103 1004.23,876.482 1004.23,884.879 1004.76,893.259 1005.82,901.589 1007.41,909.834 1009.52,917.961 1012.14,925.939 1015.26,933.734 1018.87,941.316 1022.95,948.654 1027.49,955.718 1032.47,962.479 1037.87,968.912 1043.66,974.989 1049.83,980.686 1056.35,985.981 1063.19,990.851 1070.32,995.278 1077.73,999.244 1085.36,1002.73 1093.21,1005.73 1101.23,1008.22 1109.39,1010.2 1117.66,1011.66 1126,1012.59 1134.39,1012.99 1142.78,1012.86 1151.15,1012.19 1159.47,1011 1167.68,1009.28 1175.78,1007.04 1183.71,1004.29 1191.46,1001.05 1198.98,997.32 1206.25,993.121 1213.24,988.47 1219.93,983.385 1226.27,977.886 1232.26,971.996 1237.85,965.738 1243.05,959.138 1247.81,952.222 1252.12,945.017 1255.97,937.554 1259.33,929.861 1262.21,921.971 1264.57,913.914 1266.42,905.724 1267.75,897.432 1268.55,889.073 1268.81,880.681 "/>
<polyline clip-path="url(#clip362)" style="stroke:#0000ff; stroke-linecap:round; stroke-linejoin:round; stroke-width:4; stroke-opacity:1; fill:none" points="1060.77,956.402 1212.21,956.402 1212.21,804.96 1060.77,804.96 1060.77,956.402 "/>
<polyline clip-path="url(#clip362)" style="stroke:#0000ff; stroke-linecap:round; stroke-linejoin:round; stroke-width:4; stroke-opacity:1; fill:none" stroke-dasharray="16, 10" points="1268.81,880.681 1268.55,872.288 1267.75,863.929 1266.42,855.638 1264.57,847.448 1262.21,839.391 1259.33,831.5 1255.97,823.808 1252.12,816.345 1247.81,809.14 1243.05,802.224 1237.85,795.624 1232.26,789.366 1226.27,783.475 1219.93,777.977 1213.24,772.891 1206.25,768.24 1198.98,764.042 1191.46,760.313 1183.71,757.069 1175.78,754.323 1167.68,752.085 1159.47,750.365 1151.15,749.17 1142.78,748.505 1134.39,748.372 1126,748.771 1117.66,749.702 1109.39,751.16 1101.23,753.14 1093.21,755.633 1085.36,758.63 1077.73,762.118 1070.32,766.083 1063.19,770.51 1056.35,775.381 1049.83,780.676 1043.66,786.373 1037.87,792.45 1032.47,798.883 1027.49,805.644 1022.95,812.708 1018.87,820.046 1015.26,827.627 1012.14,835.423 1009.52,843.4 1007.41,851.528 1005.82,859.773 1004.76,868.103 1004.23,876.482 1004.23,884.879 1004.76,893.259 1005.82,901.589 1007.41,909.834 1009.52,917.961 1012.14,925.939 1015.26,933.734 1018.87,941.316 1022.95,948.654 1027.49,955.718 1032.47,962.479 1037.87,968.912 1043.66,974.989 1049.83,980.686 1056.35,985.981 1063.19,990.851 1070.32,995.278 1077.73,999.244 1085.36,1002.73 1093.21,1005.73 1101.23,1008.22 1109.39,1010.2 1117.66,1011.66 1126,1012.59 1134.39,1012.99 1142.78,1012.86 1151.15,1012.19 1159.47,1011 1167.68,1009.28 1175.78,1007.04 1183.71,1004.29 1191.46,1001.05 1198.98,997.32 1206.25,993.121 1213.24,988.47 1219.93,983.385 1226.27,977.886 1232.26,971.996 1237.85,965.738 1243.05,959.138 1247.81,952.222 1252.12,945.017 1255.97,937.554 1259.33,929.861 1262.21,921.971 1264.57,913.914 1266.42,905.724 1267.75,897.432 1268.55,889.073 1268.81,880.681 "/>
<polyline clip-path="url(#clip362)" style="stroke:#808080; stroke-linecap:round; stroke-linejoin:round; stroke-width:4; stroke-opacity:1; fill:none" points="1609.56,729.239 1609.29,720.847 1608.49,712.488 1607.17,704.196 1605.32,696.006 1602.95,687.949 1600.08,680.059 1596.71,672.366 1592.86,664.903 1588.55,657.698 1583.79,650.782 1578.6,644.182 1573,637.924 1567.02,632.034 1560.67,626.535 1553.99,621.45 1547,616.799 1539.73,612.6 1532.2,608.871 1524.46,605.627 1516.52,602.881 1508.43,600.643 1500.21,598.924 1491.9,597.729 1483.53,597.063 1475.13,596.93 1466.74,597.33 1458.4,598.26 1450.13,599.718 1441.97,601.698 1433.95,604.191 1426.11,607.188 1418.47,610.676 1411.07,614.642 1403.93,619.069 1397.09,623.939 1390.58,629.234 1384.41,634.931 1378.61,641.008 1373.22,647.441 1368.24,654.202 1363.7,661.266 1359.62,668.604 1356.01,676.186 1352.89,683.981 1350.27,691.959 1348.16,700.086 1346.57,708.331 1345.5,716.661 1344.97,725.041 1344.97,733.438 1345.5,741.817 1346.57,750.147 1348.16,758.392 1350.27,766.52 1352.89,774.497 1356.01,782.293 1359.62,789.874 1363.7,797.212 1368.24,804.276 1373.22,811.037 1378.61,817.47 1384.41,823.547 1390.58,829.244 1397.09,834.539 1403.93,839.41 1411.07,843.837 1418.47,847.802 1426.11,851.29 1433.95,854.287 1441.97,856.78 1450.13,858.76 1458.4,860.218 1466.74,861.149 1475.13,861.548 1483.53,861.415 1491.9,860.75 1500.21,859.555 1508.43,857.835 1516.52,855.597 1524.46,852.851 1532.2,849.607 1539.73,845.878 1547,841.68 1553.99,837.029 1560.67,831.943 1567.02,826.445 1573,820.554 1578.6,814.296 1583.79,807.696 1588.55,800.78 1592.86,793.575 1596.71,786.112 1600.08,778.42 1602.95,770.529 1605.32,762.472 1607.17,754.282 1608.49,745.991 1609.29,737.632 1609.56,729.239 "/>
<polyline clip-path="url(#clip362)" style="stroke:#0000ff; stroke-linecap:round; stroke-linejoin:round; stroke-width:4; stroke-opacity:1; fill:none" points="1401.51,804.96 1552.95,804.96 1552.95,653.518 1401.51,653.518 1401.51,804.96 "/>
<polyline clip-path="url(#clip362)" style="stroke:#0000ff; stroke-linecap:round; stroke-linejoin:round; stroke-width:4; stroke-opacity:1; fill:none" stroke-dasharray="16, 10" points="1609.56,729.239 1609.29,720.847 1608.49,712.488 1607.17,704.196 1605.32,696.006 1602.95,687.949 1600.08,680.059 1596.71,672.366 1592.86,664.903 1588.55,657.698 1583.79,650.782 1578.6,644.182 1573,637.924 1567.02,632.034 1560.67,626.535 1553.99,621.45 1547,616.799 1539.73,612.6 1532.2,608.871 1524.46,605.627 1516.52,602.881 1508.43,600.643 1500.21,598.924 1491.9,597.729 1483.53,597.063 1475.13,596.93 1466.74,597.33 1458.4,598.26 1450.13,599.718 1441.97,601.698 1433.95,604.191 1426.11,607.188 1418.47,610.676 1411.07,614.642 1403.93,619.069 1397.09,623.939 1390.58,629.234 1384.41,634.931 1378.61,641.008 1373.22,647.441 1368.24,654.202 1363.7,661.266 1359.62,668.604 1356.01,676.186 1352.89,683.981 1350.27,691.959 1348.16,700.086 1346.57,708.331 1345.5,716.661 1344.97,725.041 1344.97,733.438 1345.5,741.817 1346.57,750.147 1348.16,758.392 1350.27,766.52 1352.89,774.497 1356.01,782.293 1359.62,789.874 1363.7,797.212 1368.24,804.276 1373.22,811.037 1378.61,817.47 1384.41,823.547 1390.58,829.244 1397.09,834.539 1403.93,839.41 1411.07,843.837 1418.47,847.802 1426.11,851.29 1433.95,854.287 1441.97,856.78 1450.13,858.76 1458.4,860.218 1466.74,861.149 1475.13,861.548 1483.53,861.415 1491.9,860.75 1500.21,859.555 1508.43,857.835 1516.52,855.597 1524.46,852.851 1532.2,849.607 1539.73,845.878 1547,841.68 1553.99,837.029 1560.67,831.943 1567.02,826.445 1573,820.554 1578.6,814.296 1583.79,807.696 1588.55,800.78 1592.86,793.575 1596.71,786.112 1600.08,778.42 1602.95,770.529 1605.32,762.472 1607.17,754.282 1608.49,745.991 1609.29,737.632 1609.56,729.239 "/>
<polyline clip-path="url(#clip362)" style="stroke:#808080; stroke-linecap:round; stroke-linejoin:round; stroke-width:4; stroke-opacity:1; fill:none" points="1609.56,729.239 1609.29,720.847 1608.49,712.488 1607.17,704.196 1605.32,696.006 1602.95,687.949 1600.08,680.059 1596.71,672.366 1592.86,664.903 1588.55,657.698 1583.79,650.782 1578.6,644.182 1573,637.924 1567.02,632.034 1560.67,626.535 1553.99,621.45 1547,616.799 1539.73,612.6 1532.2,608.871 1524.46,605.627 1516.52,602.881 1508.43,600.643 1500.21,598.924 1491.9,597.729 1483.53,597.063 1475.13,596.93 1466.74,597.33 1458.4,598.26 1450.13,599.718 1441.97,601.698 1433.95,604.191 1426.11,607.188 1418.47,610.676 1411.07,614.642 1403.93,619.069 1397.09,623.939 1390.58,629.234 1384.41,634.931 1378.61,641.008 1373.22,647.441 1368.24,654.202 1363.7,661.266 1359.62,668.604 1356.01,676.186 1352.89,683.981 1350.27,691.959 1348.16,700.086 1346.57,708.331 1345.5,716.661 1344.97,725.041 1344.97,733.438 1345.5,741.817 1346.57,750.147 1348.16,758.392 1350.27,766.52 1352.89,774.497 1356.01,782.293 1359.62,789.874 1363.7,797.212 1368.24,804.276 1373.22,811.037 1378.61,817.47 1384.41,823.547 1390.58,829.244 1397.09,834.539 1403.93,839.41 1411.07,843.837 1418.47,847.802 1426.11,851.29 1433.95,854.287 1441.97,856.78 1450.13,858.76 1458.4,860.218 1466.74,861.149 1475.13,861.548 1483.53,861.415 1491.9,860.75 1500.21,859.555 1508.43,857.835 1516.52,855.597 1524.46,852.851 1532.2,849.607 1539.73,845.878 1547,841.68 1553.99,837.029 1560.67,831.943 1567.02,826.445 1573,820.554 1578.6,814.296 1583.79,807.696 1588.55,800.78 1592.86,793.575 1596.71,786.112 1600.08,778.42 1602.95,770.529 1605.32,762.472 1607.17,754.282 1608.49,745.991 1609.29,737.632 1609.56,729.239 "/>
<polyline clip-path="url(#clip362)" style="stroke:#0000ff; stroke-linecap:round; stroke-linejoin:round; stroke-width:4; stroke-opacity:1; fill:none" points="1401.51,804.96 1552.95,804.96 1552.95,653.518 1401.51,653.518 1401.51,804.96 "/>
<polyline clip-path="url(#clip362)" style="stroke:#0000ff; stroke-linecap:round; stroke-linejoin:round; stroke-width:4; stroke-opacity:1; fill:none" stroke-dasharray="16, 10" points="1609.56,729.239 1609.29,720.847 1608.49,712.488 1607.17,704.196 1605.32,696.006 1602.95,687.949 1600.08,680.059 1596.71,672.366 1592.86,664.903 1588.55,657.698 1583.79,650.782 1578.6,644.182 1573,637.924 1567.02,632.034 1560.67,626.535 1553.99,621.45 1547,616.799 1539.73,612.6 1532.2,608.871 1524.46,605.627 1516.52,602.881 1508.43,600.643 1500.21,598.924 1491.9,597.729 1483.53,597.063 1475.13,596.93 1466.74,597.33 1458.4,598.26 1450.13,599.718 1441.97,601.698 1433.95,604.191 1426.11,607.188 1418.47,610.676 1411.07,614.642 1403.93,619.069 1397.09,623.939 1390.58,629.234 1384.41,634.931 1378.61,641.008 1373.22,647.441 1368.24,654.202 1363.7,661.266 1359.62,668.604 1356.01,676.186 1352.89,683.981 1350.27,691.959 1348.16,700.086 1346.57,708.331 1345.5,716.661 1344.97,725.041 1344.97,733.438 1345.5,741.817 1346.57,750.147 1348.16,758.392 1350.27,766.52 1352.89,774.497 1356.01,782.293 1359.62,789.874 1363.7,797.212 1368.24,804.276 1373.22,811.037 1378.61,817.47 1384.41,823.547 1390.58,829.244 1397.09,834.539 1403.93,839.41 1411.07,843.837 1418.47,847.802 1426.11,851.29 1433.95,854.287 1441.97,856.78 1450.13,858.76 1458.4,860.218 1466.74,861.149 1475.13,861.548 1483.53,861.415 1491.9,860.75 1500.21,859.555 1508.43,857.835 1516.52,855.597 1524.46,852.851 1532.2,849.607 1539.73,845.878 1547,841.68 1553.99,837.029 1560.67,831.943 1567.02,826.445 1573,820.554 1578.6,814.296 1583.79,807.696 1588.55,800.78 1592.86,793.575 1596.71,786.112 1600.08,778.42 1602.95,770.529 1605.32,762.472 1607.17,754.282 1608.49,745.991 1609.29,737.632 1609.56,729.239 "/>
<polyline clip-path="url(#clip362)" style="stroke:#808080; stroke-linecap:round; stroke-linejoin:round; stroke-width:4; stroke-opacity:1; fill:none" points="1609.56,729.239 1609.29,720.847 1608.49,712.488 1607.17,704.196 1605.32,696.006 1602.95,687.949 1600.08,680.059 1596.71,672.366 1592.86,664.903 1588.55,657.698 1583.79,650.782 1578.6,644.182 1573,637.924 1567.02,632.034 1560.67,626.535 1553.99,621.45 1547,616.799 1539.73,612.6 1532.2,608.871 1524.46,605.627 1516.52,602.881 1508.43,600.643 1500.21,598.924 1491.9,597.729 1483.53,597.063 1475.13,596.93 1466.74,597.33 1458.4,598.26 1450.13,599.718 1441.97,601.698 1433.95,604.191 1426.11,607.188 1418.47,610.676 1411.07,614.642 1403.93,619.069 1397.09,623.939 1390.58,629.234 1384.41,634.931 1378.61,641.008 1373.22,647.441 1368.24,654.202 1363.7,661.266 1359.62,668.604 1356.01,676.186 1352.89,683.981 1350.27,691.959 1348.16,700.086 1346.57,708.331 1345.5,716.661 1344.97,725.041 1344.97,733.438 1345.5,741.817 1346.57,750.147 1348.16,758.392 1350.27,766.52 1352.89,774.497 1356.01,782.293 1359.62,789.874 1363.7,797.212 1368.24,804.276 1373.22,811.037 1378.61,817.47 1384.41,823.547 1390.58,829.244 1397.09,834.539 1403.93,839.41 1411.07,843.837 1418.47,847.802 1426.11,851.29 1433.95,854.287 1441.97,856.78 1450.13,858.76 1458.4,860.218 1466.74,861.149 1475.13,861.548 1483.53,861.415 1491.9,860.75 1500.21,859.555 1508.43,857.835 1516.52,855.597 1524.46,852.851 1532.2,849.607 1539.73,845.878 1547,841.68 1553.99,837.029 1560.67,831.943 1567.02,826.445 1573,820.554 1578.6,814.296 1583.79,807.696 1588.55,800.78 1592.86,793.575 1596.71,786.112 1600.08,778.42 1602.95,770.529 1605.32,762.472 1607.17,754.282 1608.49,745.991 1609.29,737.632 1609.56,729.239 "/>
<polyline clip-path="url(#clip362)" style="stroke:#0000ff; stroke-linecap:round; stroke-linejoin:round; stroke-width:4; stroke-opacity:1; fill:none" points="1401.51,804.96 1552.95,804.96 1552.95,653.518 1401.51,653.518 1401.51,804.96 "/>
<polyline clip-path="url(#clip362)" style="stroke:#0000ff; stroke-linecap:round; stroke-linejoin:round; stroke-width:4; stroke-opacity:1; fill:none" stroke-dasharray="16, 10" points="1609.56,729.239 1609.29,720.847 1608.49,712.488 1607.17,704.196 1605.32,696.006 1602.95,687.949 1600.08,680.059 1596.71,672.366 1592.86,664.903 1588.55,657.698 1583.79,650.782 1578.6,644.182 1573,637.924 1567.02,632.034 1560.67,626.535 1553.99,621.45 1547,616.799 1539.73,612.6 1532.2,608.871 1524.46,605.627 1516.52,602.881 1508.43,600.643 1500.21,598.924 1491.9,597.729 1483.53,597.063 1475.13,596.93 1466.74,597.33 1458.4,598.26 1450.13,599.718 1441.97,601.698 1433.95,604.191 1426.11,607.188 1418.47,610.676 1411.07,614.642 1403.93,619.069 1397.09,623.939 1390.58,629.234 1384.41,634.931 1378.61,641.008 1373.22,647.441 1368.24,654.202 1363.7,661.266 1359.62,668.604 1356.01,676.186 1352.89,683.981 1350.27,691.959 1348.16,700.086 1346.57,708.331 1345.5,716.661 1344.97,725.041 1344.97,733.438 1345.5,741.817 1346.57,750.147 1348.16,758.392 1350.27,766.52 1352.89,774.497 1356.01,782.293 1359.62,789.874 1363.7,797.212 1368.24,804.276 1373.22,811.037 1378.61,817.47 1384.41,823.547 1390.58,829.244 1397.09,834.539 1403.93,839.41 1411.07,843.837 1418.47,847.802 1426.11,851.29 1433.95,854.287 1441.97,856.78 1450.13,858.76 1458.4,860.218 1466.74,861.149 1475.13,861.548 1483.53,861.415 1491.9,860.75 1500.21,859.555 1508.43,857.835 1516.52,855.597 1524.46,852.851 1532.2,849.607 1539.73,845.878 1547,841.68 1553.99,837.029 1560.67,831.943 1567.02,826.445 1573,820.554 1578.6,814.296 1583.79,807.696 1588.55,800.78 1592.86,793.575 1596.71,786.112 1600.08,778.42 1602.95,770.529 1605.32,762.472 1607.17,754.282 1608.49,745.991 1609.29,737.632 1609.56,729.239 "/>
<polyline clip-path="url(#clip362)" style="stroke:#808080; stroke-linecap:round; stroke-linejoin:round; stroke-width:4; stroke-opacity:1; fill:none" points="1420.25,502.077 1419.99,493.684 1419.19,485.325 1417.86,477.034 1416.01,468.843 1413.65,460.786 1410.78,452.896 1407.41,445.204 1403.56,437.74 1399.25,430.536 1394.49,423.619 1389.3,417.019 1383.7,410.761 1377.71,404.871 1371.37,399.372 1364.69,394.287 1357.69,389.636 1350.42,385.437 1342.9,381.709 1335.15,378.465 1327.22,375.718 1319.13,373.481 1310.91,371.761 1302.6,370.566 1294.23,369.901 1285.83,369.767 1277.44,370.167 1269.1,371.098 1260.83,372.556 1252.67,374.535 1244.65,377.029 1236.81,380.025 1229.17,383.513 1221.77,387.479 1214.63,391.906 1207.79,396.777 1201.27,402.071 1195.11,407.769 1189.31,413.846 1183.91,420.278 1178.94,427.04 1174.4,434.104 1170.31,441.441 1166.7,449.023 1163.58,456.818 1160.96,464.796 1158.85,472.924 1157.27,481.169 1156.2,489.498 1155.67,497.878 1155.67,506.275 1156.2,514.655 1157.27,522.984 1158.85,531.229 1160.96,539.357 1163.58,547.335 1166.7,555.13 1170.31,562.712 1174.4,570.049 1178.94,577.113 1183.91,583.875 1189.31,590.307 1195.11,596.384 1201.27,602.082 1207.79,607.376 1214.63,612.247 1221.77,616.674 1229.17,620.64 1236.81,624.128 1244.65,627.124 1252.67,629.618 1260.83,631.597 1269.1,633.055 1277.44,633.986 1285.83,634.386 1294.23,634.252 1302.6,633.587 1310.91,632.392 1319.13,630.672 1327.22,628.435 1335.15,625.688 1342.9,622.444 1350.42,618.716 1357.69,614.517 1364.69,609.866 1371.37,604.781 1377.71,599.282 1383.7,593.392 1389.3,587.134 1394.49,580.534 1399.25,573.617 1403.56,566.413 1407.41,558.949 1410.78,551.257 1413.65,543.367 1416.01,535.31 1417.86,527.119 1419.19,518.828 1419.99,510.469 1420.25,502.077 "/>
<polyline clip-path="url(#clip362)" style="stroke:#0000ff; stroke-linecap:round; stroke-linejoin:round; stroke-width:4; stroke-opacity:1; fill:none" points="1212.21,577.797 1363.65,577.797 1363.65,426.356 1212.21,426.356 1212.21,577.797 "/>
<polyline clip-path="url(#clip362)" style="stroke:#0000ff; stroke-linecap:round; stroke-linejoin:round; stroke-width:4; stroke-opacity:1; fill:none" stroke-dasharray="16, 10" points="1420.25,502.077 1419.99,493.684 1419.19,485.325 1417.86,477.034 1416.01,468.843 1413.65,460.786 1410.78,452.896 1407.41,445.204 1403.56,437.74 1399.25,430.536 1394.49,423.619 1389.3,417.019 1383.7,410.761 1377.71,404.871 1371.37,399.372 1364.69,394.287 1357.69,389.636 1350.42,385.437 1342.9,381.709 1335.15,378.465 1327.22,375.718 1319.13,373.481 1310.91,371.761 1302.6,370.566 1294.23,369.901 1285.83,369.767 1277.44,370.167 1269.1,371.098 1260.83,372.556 1252.67,374.535 1244.65,377.029 1236.81,380.025 1229.17,383.513 1221.77,387.479 1214.63,391.906 1207.79,396.777 1201.27,402.071 1195.11,407.769 1189.31,413.846 1183.91,420.278 1178.94,427.04 1174.4,434.104 1170.31,441.441 1166.7,449.023 1163.58,456.818 1160.96,464.796 1158.85,472.924 1157.27,481.169 1156.2,489.498 1155.67,497.878 1155.67,506.275 1156.2,514.655 1157.27,522.984 1158.85,531.229 1160.96,539.357 1163.58,547.335 1166.7,555.13 1170.31,562.712 1174.4,570.049 1178.94,577.113 1183.91,583.875 1189.31,590.307 1195.11,596.384 1201.27,602.082 1207.79,607.376 1214.63,612.247 1221.77,616.674 1229.17,620.64 1236.81,624.128 1244.65,627.124 1252.67,629.618 1260.83,631.597 1269.1,633.055 1277.44,633.986 1285.83,634.386 1294.23,634.252 1302.6,633.587 1310.91,632.392 1319.13,630.672 1327.22,628.435 1335.15,625.688 1342.9,622.444 1350.42,618.716 1357.69,614.517 1364.69,609.866 1371.37,604.781 1377.71,599.282 1383.7,593.392 1389.3,587.134 1394.49,580.534 1399.25,573.617 1403.56,566.413 1407.41,558.949 1410.78,551.257 1413.65,543.367 1416.01,535.31 1417.86,527.119 1419.19,518.828 1419.99,510.469 1420.25,502.077 "/>
<polyline clip-path="url(#clip362)" style="stroke:#808080; stroke-linecap:round; stroke-linejoin:round; stroke-width:4; stroke-opacity:1; fill:none" points="1420.25,502.077 1419.99,493.684 1419.19,485.325 1417.86,477.034 1416.01,468.843 1413.65,460.786 1410.78,452.896 1407.41,445.204 1403.56,437.74 1399.25,430.536 1394.49,423.619 1389.3,417.019 1383.7,410.761 1377.71,404.871 1371.37,399.372 1364.69,394.287 1357.69,389.636 1350.42,385.437 1342.9,381.709 1335.15,378.465 1327.22,375.718 1319.13,373.481 1310.91,371.761 1302.6,370.566 1294.23,369.901 1285.83,369.767 1277.44,370.167 1269.1,371.098 1260.83,372.556 1252.67,374.535 1244.65,377.029 1236.81,380.025 1229.17,383.513 1221.77,387.479 1214.63,391.906 1207.79,396.777 1201.27,402.071 1195.11,407.769 1189.31,413.846 1183.91,420.278 1178.94,427.04 1174.4,434.104 1170.31,441.441 1166.7,449.023 1163.58,456.818 1160.96,464.796 1158.85,472.924 1157.27,481.169 1156.2,489.498 1155.67,497.878 1155.67,506.275 1156.2,514.655 1157.27,522.984 1158.85,531.229 1160.96,539.357 1163.58,547.335 1166.7,555.13 1170.31,562.712 1174.4,570.049 1178.94,577.113 1183.91,583.875 1189.31,590.307 1195.11,596.384 1201.27,602.082 1207.79,607.376 1214.63,612.247 1221.77,616.674 1229.17,620.64 1236.81,624.128 1244.65,627.124 1252.67,629.618 1260.83,631.597 1269.1,633.055 1277.44,633.986 1285.83,634.386 1294.23,634.252 1302.6,633.587 1310.91,632.392 1319.13,630.672 1327.22,628.435 1335.15,625.688 1342.9,622.444 1350.42,618.716 1357.69,614.517 1364.69,609.866 1371.37,604.781 1377.71,599.282 1383.7,593.392 1389.3,587.134 1394.49,580.534 1399.25,573.617 1403.56,566.413 1407.41,558.949 1410.78,551.257 1413.65,543.367 1416.01,535.31 1417.86,527.119 1419.19,518.828 1419.99,510.469 1420.25,502.077 "/>
<polyline clip-path="url(#clip362)" style="stroke:#0000ff; stroke-linecap:round; stroke-linejoin:round; stroke-width:4; stroke-opacity:1; fill:none" points="1212.21,577.797 1363.65,577.797 1363.65,426.356 1212.21,426.356 1212.21,577.797 "/>
<polyline clip-path="url(#clip362)" style="stroke:#0000ff; stroke-linecap:round; stroke-linejoin:round; stroke-width:4; stroke-opacity:1; fill:none" stroke-dasharray="16, 10" points="1420.25,502.077 1419.99,493.684 1419.19,485.325 1417.86,477.034 1416.01,468.843 1413.65,460.786 1410.78,452.896 1407.41,445.204 1403.56,437.74 1399.25,430.536 1394.49,423.619 1389.3,417.019 1383.7,410.761 1377.71,404.871 1371.37,399.372 1364.69,394.287 1357.69,389.636 1350.42,385.437 1342.9,381.709 1335.15,378.465 1327.22,375.718 1319.13,373.481 1310.91,371.761 1302.6,370.566 1294.23,369.901 1285.83,369.767 1277.44,370.167 1269.1,371.098 1260.83,372.556 1252.67,374.535 1244.65,377.029 1236.81,380.025 1229.17,383.513 1221.77,387.479 1214.63,391.906 1207.79,396.777 1201.27,402.071 1195.11,407.769 1189.31,413.846 1183.91,420.278 1178.94,427.04 1174.4,434.104 1170.31,441.441 1166.7,449.023 1163.58,456.818 1160.96,464.796 1158.85,472.924 1157.27,481.169 1156.2,489.498 1155.67,497.878 1155.67,506.275 1156.2,514.655 1157.27,522.984 1158.85,531.229 1160.96,539.357 1163.58,547.335 1166.7,555.13 1170.31,562.712 1174.4,570.049 1178.94,577.113 1183.91,583.875 1189.31,590.307 1195.11,596.384 1201.27,602.082 1207.79,607.376 1214.63,612.247 1221.77,616.674 1229.17,620.64 1236.81,624.128 1244.65,627.124 1252.67,629.618 1260.83,631.597 1269.1,633.055 1277.44,633.986 1285.83,634.386 1294.23,634.252 1302.6,633.587 1310.91,632.392 1319.13,630.672 1327.22,628.435 1335.15,625.688 1342.9,622.444 1350.42,618.716 1357.69,614.517 1364.69,609.866 1371.37,604.781 1377.71,599.282 1383.7,593.392 1389.3,587.134 1394.49,580.534 1399.25,573.617 1403.56,566.413 1407.41,558.949 1410.78,551.257 1413.65,543.367 1416.01,535.31 1417.86,527.119 1419.19,518.828 1419.99,510.469 1420.25,502.077 "/>
<polyline clip-path="url(#clip362)" style="stroke:#808080; stroke-linecap:round; stroke-linejoin:round; stroke-width:4; stroke-opacity:1; fill:none" points="1420.25,502.077 1419.99,493.684 1419.19,485.325 1417.86,477.034 1416.01,468.843 1413.65,460.786 1410.78,452.896 1407.41,445.204 1403.56,437.74 1399.25,430.536 1394.49,423.619 1389.3,417.019 1383.7,410.761 1377.71,404.871 1371.37,399.372 1364.69,394.287 1357.69,389.636 1350.42,385.437 1342.9,381.709 1335.15,378.465 1327.22,375.718 1319.13,373.481 1310.91,371.761 1302.6,370.566 1294.23,369.901 1285.83,369.767 1277.44,370.167 1269.1,371.098 1260.83,372.556 1252.67,374.535 1244.65,377.029 1236.81,380.025 1229.17,383.513 1221.77,387.479 1214.63,391.906 1207.79,396.777 1201.27,402.071 1195.11,407.769 1189.31,413.846 1183.91,420.278 1178.94,427.04 1174.4,434.104 1170.31,441.441 1166.7,449.023 1163.58,456.818 1160.96,464.796 1158.85,472.924 1157.27,481.169 1156.2,489.498 1155.67,497.878 1155.67,506.275 1156.2,514.655 1157.27,522.984 1158.85,531.229 1160.96,539.357 1163.58,547.335 1166.7,555.13 1170.31,562.712 1174.4,570.049 1178.94,577.113 1183.91,583.875 1189.31,590.307 1195.11,596.384 1201.27,602.082 1207.79,607.376 1214.63,612.247 1221.77,616.674 1229.17,620.64 1236.81,624.128 1244.65,627.124 1252.67,629.618 1260.83,631.597 1269.1,633.055 1277.44,633.986 1285.83,634.386 1294.23,634.252 1302.6,633.587 1310.91,632.392 1319.13,630.672 1327.22,628.435 1335.15,625.688 1342.9,622.444 1350.42,618.716 1357.69,614.517 1364.69,609.866 1371.37,604.781 1377.71,599.282 1383.7,593.392 1389.3,587.134 1394.49,580.534 1399.25,573.617 1403.56,566.413 1407.41,558.949 1410.78,551.257 1413.65,543.367 1416.01,535.31 1417.86,527.119 1419.19,518.828 1419.99,510.469 1420.25,502.077 "/>
<polyline clip-path="url(#clip362)" style="stroke:#0000ff; stroke-linecap:round; stroke-linejoin:round; stroke-width:4; stroke-opacity:1; fill:none" points="1212.21,577.797 1363.65,577.797 1363.65,426.356 1212.21,426.356 1212.21,577.797 "/>
<polyline clip-path="url(#clip362)" style="stroke:#0000ff; stroke-linecap:round; stroke-linejoin:round; stroke-width:4; stroke-opacity:1; fill:none" stroke-dasharray="16, 10" points="1420.25,502.077 1419.99,493.684 1419.19,485.325 1417.86,477.034 1416.01,468.843 1413.65,460.786 1410.78,452.896 1407.41,445.204 1403.56,437.74 1399.25,430.536 1394.49,423.619 1389.3,417.019 1383.7,410.761 1377.71,404.871 1371.37,399.372 1364.69,394.287 1357.69,389.636 1350.42,385.437 1342.9,381.709 1335.15,378.465 1327.22,375.718 1319.13,373.481 1310.91,371.761 1302.6,370.566 1294.23,369.901 1285.83,369.767 1277.44,370.167 1269.1,371.098 1260.83,372.556 1252.67,374.535 1244.65,377.029 1236.81,380.025 1229.17,383.513 1221.77,387.479 1214.63,391.906 1207.79,396.777 1201.27,402.071 1195.11,407.769 1189.31,413.846 1183.91,420.278 1178.94,427.04 1174.4,434.104 1170.31,441.441 1166.7,449.023 1163.58,456.818 1160.96,464.796 1158.85,472.924 1157.27,481.169 1156.2,489.498 1155.67,497.878 1155.67,506.275 1156.2,514.655 1157.27,522.984 1158.85,531.229 1160.96,539.357 1163.58,547.335 1166.7,555.13 1170.31,562.712 1174.4,570.049 1178.94,577.113 1183.91,583.875 1189.31,590.307 1195.11,596.384 1201.27,602.082 1207.79,607.376 1214.63,612.247 1221.77,616.674 1229.17,620.64 1236.81,624.128 1244.65,627.124 1252.67,629.618 1260.83,631.597 1269.1,633.055 1277.44,633.986 1285.83,634.386 1294.23,634.252 1302.6,633.587 1310.91,632.392 1319.13,630.672 1327.22,628.435 1335.15,625.688 1342.9,622.444 1350.42,618.716 1357.69,614.517 1364.69,609.866 1371.37,604.781 1377.71,599.282 1383.7,593.392 1389.3,587.134 1394.49,580.534 1399.25,573.617 1403.56,566.413 1407.41,558.949 1410.78,551.257 1413.65,543.367 1416.01,535.31 1417.86,527.119 1419.19,518.828 1419.99,510.469 1420.25,502.077 "/>
<circle clip-path="url(#clip362)" cx="833.604" cy="1130.56" r="14.4" fill="#008000" fill-rule="evenodd" fill-opacity="1" stroke="#000000" stroke-opacity="1" stroke-width="3.2"/>
<polyline clip-path="url(#clip362)" style="stroke:#008000; stroke-linecap:round; stroke-linejoin:round; stroke-width:4; stroke-opacity:1; fill:none" points="833.604,1130.56 909.325,1130.56 "/>
<polyline clip-path="url(#clip362)" style="stroke:#008000; stroke-linecap:round; stroke-linejoin:round; stroke-width:4; stroke-opacity:1; fill:none" points="873.325,1112.56 909.325,1130.56 873.325,1148.56 "/>
<polyline clip-path="url(#clip362)" style="stroke:#008000; stroke-linecap:round; stroke-linejoin:round; stroke-width:4; stroke-opacity:1; fill:none" points="909.325,1130.56 833.604,1130.56 "/>
<circle clip-path="url(#clip362)" cx="702.452" cy="1206.28" r="14.4" fill="#008000" fill-rule="evenodd" fill-opacity="1" stroke="#000000" stroke-opacity="1" stroke-width="3.2"/>
<polyline clip-path="url(#clip362)" style="stroke:#008000; stroke-linecap:round; stroke-linejoin:round; stroke-width:4; stroke-opacity:1; fill:none" points="702.452,1206.28 778.172,1206.28 "/>
<polyline clip-path="url(#clip362)" style="stroke:#008000; stroke-linecap:round; stroke-linejoin:round; stroke-width:4; stroke-opacity:1; fill:none" points="742.172,1188.28 778.172,1206.28 742.172,1224.28 "/>
<polyline clip-path="url(#clip362)" style="stroke:#008000; stroke-linecap:round; stroke-linejoin:round; stroke-width:4; stroke-opacity:1; fill:none" points="778.172,1206.28 702.452,1206.28 "/>
<circle clip-path="url(#clip362)" cx="702.452" cy="1054.84" r="14.4" fill="#008000" fill-rule="evenodd" fill-opacity="1" stroke="#000000" stroke-opacity="1" stroke-width="3.2"/>
<polyline clip-path="url(#clip362)" style="stroke:#008000; stroke-linecap:round; stroke-linejoin:round; stroke-width:4; stroke-opacity:1; fill:none" points="702.452,1054.84 778.172,1054.84 "/>
<polyline clip-path="url(#clip362)" style="stroke:#008000; stroke-linecap:round; stroke-linejoin:round; stroke-width:4; stroke-opacity:1; fill:none" points="742.172,1036.84 778.172,1054.84 742.172,1072.84 "/>
<polyline clip-path="url(#clip362)" style="stroke:#008000; stroke-linecap:round; stroke-linejoin:round; stroke-width:4; stroke-opacity:1; fill:none" points="778.172,1054.84 702.452,1054.84 "/>
<polyline clip-path="url(#clip362)" style="stroke:#000000; stroke-linecap:round; stroke-linejoin:round; stroke-width:8; stroke-opacity:1; fill:none" points="833.604,1130.56 835.118,1130.56 836.633,1130.56 838.147,1130.56 839.662,1130.56 841.176,1130.56 842.69,1130.56 844.205,1130.56 845.719,1130.56 847.234,1130.56 848.748,1130.56 850.263,1130.56 851.777,1130.56 853.291,1130.56 854.806,1130.56 856.32,1130.56 857.835,1130.56 859.349,1130.56 860.863,1130.56 862.378,1130.56 863.892,1130.56 865.407,1130.56 866.921,1130.56 868.436,1130.56 869.95,1130.56 871.464,1130.56 872.979,1130.56 874.493,1130.56 876.008,1130.56 877.522,1130.56 879.036,1130.56 880.551,1130.56 882.065,1130.56 883.58,1130.56 885.094,1130.56 886.609,1130.56 888.123,1130.56 889.637,1130.56 891.152,1130.56 892.666,1130.56 894.181,1130.56 895.695,1130.56 897.209,1130.56 898.724,1130.56 900.238,1130.56 901.753,1130.56 903.267,1130.56 904.782,1130.56 906.296,1130.56 907.81,1130.56 909.325,1130.56 "/>
<polyline clip-path="url(#clip362)" style="stroke:#000000; stroke-linecap:round; stroke-linejoin:round; stroke-width:8; stroke-opacity:1; fill:none" points="909.325,1130.56 915.432,1130.31 921.499,1129.57 927.487,1128.35 933.356,1126.65 939.069,1124.47 944.639,1121.95 950.198,1119.41 955.757,1116.86 961.317,1114.32 966.876,1111.78 972.436,1109.23 977.995,1106.69 983.554,1104.15 989.114,1101.6 994.673,1099.06 1000.23,1096.52 1005.79,1093.97 1011.35,1091.43 1016.91,1088.89 1022.47,1086.34 1028.03,1083.8 1033.59,1081.26 1039.15,1078.71 1044.71,1076.17 1050.27,1073.63 1055.83,1071.08 1061.39,1068.54 1066.94,1066 1072.5,1063.45 1078.06,1060.91 1083.62,1058.36 1089.18,1055.82 1094.74,1053.28 1100.3,1050.73 1105.86,1048.19 1111.42,1045.65 1116.98,1043.1 1122.54,1040.56 1128.1,1038.02 1133.66,1035.47 1139.22,1032.93 1144.78,1030.39 1150.34,1027.84 1155.89,1025.3 1161.45,1022.76 1167.01,1020.21 1172.57,1017.67 1178.14,1015.13 1183.83,1012.9 1189.68,1011.14 1189.68,1011.14 "/>
<polyline clip-path="url(#clip362)" style="stroke:#000000; stroke-linecap:round; stroke-linejoin:round; stroke-width:8; stroke-opacity:1; fill:none" points="1189.68,1011.14 1193.81,1009.95 1197.87,1008.52 1201.84,1006.87 1205.7,1004.99 1209.46,1002.9 1213.09,1000.6 1216.59,998.098 1219.94,995.4 1223.13,992.516 1226.15,989.456 1228.99,986.229 1231.64,982.846 1234.1,979.318 1236.35,975.656 1238.46,971.907 1240.56,968.155 1242.66,964.402 1244.76,960.65 1246.86,956.897 1248.96,953.145 1251.06,949.393 1253.16,945.64 1255.26,941.888 1257.36,938.135 1259.46,934.383 1261.56,930.631 1263.66,926.878 1265.76,923.126 1267.86,919.373 1269.96,915.621 1272.06,911.868 1274.16,908.116 1276.26,904.364 1278.36,900.611 1280.46,896.859 1282.56,893.106 1284.66,889.354 1286.76,885.602 1288.86,881.849 1290.96,878.097 1293.06,874.344 1295.16,870.592 1297.26,866.84 1299.36,863.087 1301.46,859.335 1303.57,855.582 1305.67,851.83 1307.77,848.077 1309.75,844.266 1311.52,840.347 "/>
<polyline clip-path="url(#clip362)" style="stroke:#000000; stroke-linecap:round; stroke-linejoin:round; stroke-width:8; stroke-opacity:1; fill:none" points="1311.52,840.347 1312.69,837.381 1313.73,834.369 1314.65,831.315 1315.43,828.226 1316.08,825.107 1316.6,821.962 1316.99,818.799 1317.25,815.622 1317.37,812.437 1317.36,809.25 1317.3,806.063 1317.25,802.876 1317.19,799.689 1317.14,796.503 1317.08,793.316 1317.03,790.129 1316.97,786.942 1316.92,783.755 1316.86,780.568 1316.81,777.381 1316.76,774.194 1316.7,771.007 1316.65,767.82 1316.59,764.633 1316.54,761.447 1316.48,758.26 1316.43,755.073 1316.37,751.886 1316.32,748.699 1316.26,745.512 1316.21,742.325 1316.15,739.138 1316.15,735.951 1316.27,732.766 1316.53,729.59 1316.93,726.427 1317.45,723.284 1318.11,720.166 1318.9,717.078 1319.82,714.026 1320.87,711.015 1322.04,708.051 1323.33,705.139 1324.75,702.285 1326.29,699.492 1327.94,696.766 1329.7,694.113 1331.58,691.536 1333.56,689.04 1335.65,686.629 1335.65,686.629 "/>
<polyline clip-path="url(#clip362)" style="stroke:#000000; stroke-linecap:round; stroke-linejoin:round; stroke-width:8; stroke-opacity:1; fill:none" points="1335.65,686.629 1337.95,683.974 1340.22,681.295 1342.49,678.615 1344.76,675.935 1347.03,673.256 1349.3,670.576 1351.57,667.896 1353.84,665.217 1356.11,662.537 1358.38,659.857 1360.65,657.178 1362.92,654.498 1365.19,651.818 1367.46,649.139 1369.73,646.459 1372,643.78 1374.27,641.1 1376.54,638.42 1378.81,635.741 1381.08,633.061 1383.35,630.381 1385.62,627.702 1387.89,625.022 1390.16,622.342 1392.43,619.663 1394.7,616.983 1396.97,614.303 1399.24,611.624 1401.51,608.944 1403.78,606.264 1406.06,603.585 1408.33,600.905 1410.6,598.225 1412.87,595.546 1415.14,592.866 1417.41,590.187 1419.68,587.507 1421.95,584.827 1424.22,582.148 1426.49,579.468 1428.76,576.788 1431.03,574.109 1433.3,571.429 1435.57,568.749 1437.84,566.07 1440.16,563.435 1442.6,560.911 1445.16,558.502 1447.82,556.215 1450.59,554.053 1450.59,554.053 "/>
<polyline clip-path="url(#clip362)" style="stroke:#000000; stroke-linecap:round; stroke-linejoin:round; stroke-width:8; stroke-opacity:1; fill:none" points="1450.59,554.053 1454.75,551.166 1458.97,548.378 1463.19,545.59 1467.42,542.801 1471.64,540.013 1475.86,537.225 1480.09,534.437 1484.31,531.648 1488.53,528.86 1492.76,526.072 1496.98,523.284 1501.2,520.495 1505.43,517.707 1509.65,514.919 1513.87,512.13 1518.1,509.342 1522.32,506.554 1526.54,503.766 1530.77,500.977 1534.99,498.189 1539.21,495.401 1543.44,492.613 1547.66,489.824 1551.88,487.036 1556.11,484.248 1560.33,481.459 1564.55,478.671 1568.78,475.883 1573,473.095 1577.22,470.306 1581.44,467.518 1585.67,464.73 1589.89,461.942 1594.11,459.153 1598.34,456.365 1602.56,453.577 1606.78,450.789 1611.01,448 1615.23,445.212 1619.45,442.424 1623.68,439.635 1627.95,436.923 1632.39,434.492 1636.98,432.363 1641.7,430.544 1646.53,429.045 1651.45,427.873 1656.44,427.031 1661.48,426.525 1666.53,426.356 "/>
<polyline clip-path="url(#clip362)" style="stroke:#000000; stroke-linecap:round; stroke-linejoin:round; stroke-width:8; stroke-opacity:1; fill:none" points="1666.53,426.356 1671.53,426.356 1676.53,426.356 1681.53,426.356 1686.52,426.356 1691.52,426.356 1696.52,426.356 1701.52,426.356 1706.51,426.356 1711.51,426.356 1716.51,426.356 1721.51,426.356 1726.5,426.356 1731.5,426.356 1736.5,426.356 1741.5,426.356 1746.49,426.356 1751.49,426.356 1756.49,426.356 1761.49,426.356 1766.49,426.356 1771.48,426.356 1776.48,426.356 1781.48,426.356 1786.48,426.356 1791.47,426.356 1796.47,426.356 1801.47,426.356 1806.47,426.356 1811.46,426.356 1816.46,426.356 1821.46,426.356 1826.46,426.356 1831.45,426.356 1836.45,426.356 1841.45,426.356 1846.45,426.356 1851.44,426.356 1856.44,426.356 1861.44,426.356 1866.44,426.356 1871.43,426.356 1876.43,426.356 1881.43,426.356 1886.43,426.356 1891.42,426.356 1896.42,426.356 1901.42,426.356 1906.42,426.356 1911.41,426.356 1916.41,426.356 "/>
</svg>
